<?xml version="1.0" encoding="utf-8"?>
<!-- Generator: Adobe Illustrator 24.0.1, SVG Export Plug-In . SVG Version: 6.00 Build 0)  -->
<svg version="1.1" id="Livello_1" xmlns="http://www.w3.org/2000/svg" xmlns:xlink="http://www.w3.org/1999/xlink" x="0px" y="0px"
	 viewBox="0 0 1010 280" style="enable-background:new 0 0 1010 280;" xml:space="preserve">
<style type="text/css">
	.st0{clip-path:url(#SVGID_2_);}
	.st1{fill:#FFFFFF;}
	.st2{fill:none;stroke:#FFFFFF;stroke-width:3;}
	.st3{fill:none;stroke:#FFFFFF;stroke-width:2.5;}
	.st4{fill:none;stroke:#FFFFFF;stroke-width:2;}
	.st5{fill:none;stroke:#FFFFFF;stroke-width:1.5;}
	.st6{fill:none;stroke:#FFFFFF;}
	.st7{clip-path:url(#SVGID_2_);fill:none;}
</style>
<g>
	<defs>
		<rect id="SVGID_1_" x="5" y="1.7" width="1000" height="276.6"/>
	</defs>
	<clipPath id="SVGID_2_">
		<use xlink:href="#SVGID_1_"  style="overflow:visible;"/>
	</clipPath>
	<g class="st0">
		<path class="st1" d="M136,136.5h-52l1.9-6.5c11.9-1.3,12.6-3.8,11.3-13c-1-6.5-1.9-13.4-3.1-21.4H57.7
			c-3.6,7.1-7.1,14.3-10.5,21.6c-4,8.4-4,10.9,10.9,12.8l-1.7,6.5h-43L15,130c11.5-1.9,13.8-3.3,24.5-21.6l55.1-96.2l10.1-2.5
			l3.3,21.8c4.2,26.2,9,52.2,13,78.1c2.5,16.8,3.6,18.9,16.6,20.5L136,136.5z M86.6,42.9H86c-7.3,13.6-15.7,27.9-23.3,43h30
			L86.6,42.9z"/>
		<path class="st1" d="M281.9,18.8c-10.9,0.4-14.5,3.4-17.6,12.2c-1.9,5.7-4.4,15.3-7.3,30.6l-3.6,18.7
			c-3.3,16.8-8.8,33.9-21.2,45.7c-9.4,9-22,13.2-34.6,13.2c-12.4,0-23.5-2.9-31.9-10.5c-9-8-13.4-22-8.8-46.1l8.6-45
			c2.9-15.5,1.5-17.8-13-18.9l1.5-6.5h55.9l-1.7,6.5c-12.8,1.1-14.5,2.9-17.6,18.9l-8.6,45.9c-5.7,30.2,4.8,42.7,22.8,42.7
			c21,0,33.7-16.5,39.6-48.4l2.9-16.3c2.9-15.3,4-24.5,4.4-31c0.6-8.6-4.8-11.3-17.4-11.9l1.7-6.5h47.6L281.9,18.8z"/>
		<path class="st1" d="M397.7,7.6c-1.5,7.5-3.6,24.3-5.2,35.8l-7.1,0.4c0-8.8-0.6-14.7-2.9-18.6c-2.9-3.8-7.7-4.8-17.4-4.8h-9.6
			L338.2,112c-2.7,14.3-2.1,16.8,15.7,18l-1.5,6.5h-61.2l1.5-6.5c16.1-1.1,17.6-4,20.3-18l17.8-91.6h-8c-14.2,0-17.6,1.9-21.4,5.9
			c-3.3,3.6-5.9,8.8-9.9,17.4h-6.9c3.8-12.4,7.5-26,9.6-36.2h5c1.9,4.4,3.6,4.8,8.8,4.8h75c4.8,0,5.9-1.1,9.6-4.8H397.7z"/>
		<path class="st1" d="M524.3,64.2c0,41.9-29.1,75.2-71.2,75.2c-31.6,0-53-20.9-53-54c0-40.6,29.5-76.1,71.4-76.1
			C503.7,9.3,524.3,31.9,524.3,64.2z M428.3,90.2c0,23.7,7.3,41.1,26,41.1c25.3,0,42.1-39.2,42.1-72.1c0-24.1-7.3-41.7-26-41.7
			C447.4,17.5,428.3,53.5,428.3,90.2z"/>
	</g>
	<g class="st0">
		<path class="st1" d="M634.3,12.3c-0.6,5.2-2.1,20.5-3.3,30l-6.9,0.6c-0.6-8-1.3-14.3-4-17.8c-2.1-3.4-5.9-4.8-16.6-4.8h-9.4
			c-7.3,0-8.2,1-9.6,8l-7.5,38.5H590c16.5,0,16.6-1.1,22.2-14.2h7.1l-7.8,39.4h-6.9c0.2-14.7,0.2-15.9-15.9-15.9h-13.2l-6.1,32.3
			c-1.5,8.4-1.5,13.4,0.4,15.9c2.1,3.1,7.1,4,16.1,4c11.7,0,17.8-1.9,22.4-6.3c4.4-4,9.2-10.1,13.8-18.4l6.5,2.5
			c-2.3,6.9-8.6,23.5-11.7,30.2h-93.2l1.3-6.5c14.5-1.1,15.9-2.5,18.7-17.8l14.7-75.6c2.7-14.7,1.5-16.6-13.2-17.8l1.7-6.5H634.3z"
			/>
		<path class="st1" d="M758.9,7.6c-1.5,7.5-3.6,24.3-5.2,35.8l-7.1,0.4c0-8.8-0.6-14.7-2.9-18.6c-2.9-3.8-7.7-4.8-17.4-4.8h-9.6
			L699.4,112c-2.7,14.3-2.1,16.8,15.7,18l-1.5,6.5h-61.2l1.5-6.5c16.1-1.1,17.6-4,20.3-18l17.8-91.6h-8c-14.2,0-17.6,1.9-21.4,5.9
			c-3.3,3.6-5.9,8.8-9.9,17.4h-6.9c3.8-12.4,7.5-26,9.6-36.2h5c1.9,4.4,3.6,4.8,8.8,4.8h75c4.8,0,5.9-1.1,9.6-4.8H758.9z"/>
		<path class="st1" d="M895.1,18.8c-11.7,0.4-14.3,4-16.6,11.9c-1.9,5.9-4,13.8-7.7,32.9l-14.3,74.8h-9.9L792,41h-0.4L783,86
			c-3.3,16.8-4,25.1-4.4,31.2c-0.4,9,3.1,12.1,16.6,12.8l-1.5,6.5h-46.1l1.7-6.5c9.8-0.6,13.6-3.4,16.3-12.1
			c1.9-5.9,4.2-13.8,8-31.9l8.2-38.6c3.1-14.3,1.9-18.7-0.2-22.6c-2.3-4.4-7.3-5.4-15.1-5.9l1.5-6.5h35l50.9,88.2h0.4l6.9-36.5
			c3.4-19.5,4.2-27,4.6-32.3c0.6-9.6-3.4-12.2-16.8-12.8l1.5-6.5h46.1L895.1,18.8z"/>
		<path class="st1" d="M997.3,136.5h-52l1.9-6.5c11.9-1.3,12.6-3.8,11.3-13c-1-6.5-1.9-13.4-3.1-21.4H919
			c-3.6,7.1-7.1,14.3-10.5,21.6c-4,8.4-4,10.9,10.9,12.8l-1.7,6.5h-43l1.7-6.5c11.5-1.9,13.8-3.3,24.5-21.6l55.1-96.2l10.1-2.5
			l3.3,21.8c4.2,26.2,9,52.2,13,78.1c2.5,16.8,3.6,18.9,16.6,20.5L997.3,136.5z M947.9,42.9h-0.6c-7.3,13.6-15.7,27.9-23.3,43h30
			L947.9,42.9z"/>
	</g>
	<g class="st0">
		<line id="XMLID_8_" class="st2" x1="76.8" y1="164" x2="460.9" y2="164"/>
		<line id="XMLID_7_" class="st3" x1="109.7" y1="187.2" x2="426.8" y2="187.2"/>
		<line id="XMLID_6_" class="st4" x1="139.8" y1="209.1" x2="397.4" y2="209.1"/>
		<line id="XMLID_5_" class="st5" x1="169.2" y1="229.6" x2="368" y2="229.6"/>
		<line id="XMLID_4_" class="st6" x1="193.6" y1="248.8" x2="341.7" y2="248.8"/>
		<line id="XMLID_3_" class="st6" x1="221.2" y1="267.3" x2="314.6" y2="267.3"/>
	</g>
	<g class="st0">
		<path class="st1" d="M519,202.6v-2.2c3.8-0.6,4.1-1.3,3.1-4.1c-0.6-1.9-1.6-4.6-2.6-7.2h-12.2c-0.7,2-1.5,4.3-2.3,6.8
			c-0.9,3.1-0.8,4,3.9,4.5v2.2h-14.3l0.1-2.2c4.2-0.5,5-1.2,7.1-6.6l13.1-32.8l3.3-0.8c4.1,11.2,8,22.3,12.2,33.2c2.2,5.6,3,6.4,7,7
			v2.2H519z M513.6,171.9h-0.2c-1.8,4.7-3.4,9.2-5,13.8h9.9L513.6,171.9z"/>
		<path class="st1" d="M580.8,163.4c-3.5,0.2-5.1,1.5-5.4,3.8c-0.3,2-0.6,4.3-0.6,8.9v7c0,6.8-1,12.1-4.6,15.9
			c-2.9,3.1-7.3,4.7-11.8,4.7c-4.2,0-8.2-0.9-11.3-3.3c-3.6-2.8-5.3-7.5-5.3-15v-15c0-6-0.6-6.4-5.4-6.9v-2.2h19.2v2.2
			c-4.7,0.4-5.3,0.9-5.3,6.9v13.8c0,9.6,3.4,15.1,10.3,15.1c7.6,0,10.9-5.7,10.9-16.4V176c0-4.5-0.3-7-0.6-8.9
			c-0.3-2.2-1.8-3.5-6.2-3.8v-2.2h16V163.4z"/>
		<path class="st1" d="M619,172.1c-0.8-3.3-1.7-5.4-2.8-6.6c-1.1-1.1-2.7-1.5-6.4-1.5h-2.9v30.2c0,5.4,0.6,5.8,6.3,6.2v2.2h-20.8
			v-2.2c5.4-0.4,6-0.8,6-6.2V164h-2.2c-5.2,0-6.4,0.7-7.3,1.7c-1,1.1-1.8,3.3-2.7,6.4h-2.3c0.3-4.7,0.6-9.3,0.8-12.6h1.5
			c1,1.5,1.8,1.6,3.6,1.6h25.6c1.7,0,2.6-0.4,3.7-1.6h1.5c0.1,2.7,0.4,8.3,0.7,12.4L619,172.1z"/>
		<path class="st1" d="M646.7,160.3c11.5,0,21,8.5,21,21.2c0,13.8-9.9,22.1-21.9,22.1c-12.8,0-21.6-9.4-21.6-21.6
			C624.2,171,632,160.3,646.7,160.3L646.7,160.3z M645.4,162.9c-6.4,0-11.4,6.8-11.4,17.9c0,10.9,4.8,20.2,13,20.2
			c6.1,0,11-5.9,11-17.7C658,170.6,652.8,162.9,645.4,162.9L645.4,162.9z"/>
		<path class="st1" d="M715.8,163.4c-3.4,0.2-4.8,1-5.1,4c-0.2,2-0.6,5-0.6,10.6v25.3h-3.1l-26.5-31.8h-0.2v14.3
			c0,5.6,0.3,8.4,0.5,10.3c0.3,2.8,1.4,4,6.1,4.2v2.2h-15.6v-2.2c3.6-0.3,5-1.3,5.3-4c0.3-2.1,0.6-4.9,0.6-10.5v-13.3
			c0-4.1-0.1-5.4-1.3-6.8c-1.1-1.5-2.6-2-5.3-2.3v-2.2h11.8l24.4,28h0.3V178c0-5.6-0.4-8.6-0.5-10.5c-0.3-2.7-1.7-3.8-6.3-4.1v-2.2
			h15.6V163.4z"/>
		<path class="st1" d="M741.4,160.3c11.5,0,21,8.5,21,21.2c0,13.8-9.9,22.1-21.9,22.1c-12.8,0-21.6-9.4-21.6-21.6
			C718.9,171,726.7,160.3,741.4,160.3L741.4,160.3z M740.1,162.9c-6.4,0-11.4,6.8-11.4,17.9c0,10.9,4.8,20.2,13,20.2
			c6.1,0,11-5.9,11-17.7C752.7,170.6,747.5,162.9,740.1,162.9L740.1,162.9z"/>
		<path class="st1" d="M799.3,191.9c-0.5,2.7-1.8,9.1-2.4,10.8h-31.1v-2.2c5.5-0.4,6.2-0.9,6.2-6.2v-24.4c0-5.5-0.6-5.9-5.5-6.3
			v-2.2h19.5v2.2c-4.9,0.4-5.5,0.8-5.5,6.3v24.9c0,3,0.3,4.1,1.6,4.7c1.1,0.4,2.8,0.6,4.8,0.6c2.7,0,5-0.4,6.5-2.2
			c1.2-1.3,2.4-3.4,3.6-6.6L799.3,191.9z"/>
		<path class="st1" d="M835.9,192c-0.4,2.9-1.7,8.7-2.2,10.6h-32.5v-2.2c5.4-0.4,6.1-0.8,6.1-6.2v-24.5c0-5.5-0.6-5.9-5.2-6.3v-2.2
			h30c0.1,1.1,0.4,5.6,0.6,9.6l-2.3,0.3c-0.6-2.2-1.5-4.3-2.6-5.5c-1.1-1.1-2.8-1.6-6.4-1.6h-3.1c-2.4,0-2.6,0.1-2.6,2.2v13.5h4.3
			c5.4,0,6.2-0.3,7.1-4.8h2.3v12.9h-2.3c-0.9-4.6-1.7-4.8-7.1-4.8h-4.3v11c0,3,0.3,4.6,1.5,5.2c1.1,0.5,3.3,0.6,5.7,0.6
			c3.3,0,5.5-0.4,7.1-2c1.2-1.4,2.4-3.4,3.6-6.2L835.9,192z"/>
		<path class="st1" d="M881.4,185c-3.2,0.6-3.6,0.9-3.6,5.2v5c0,2.3,0.1,4.3,0.4,6c-3.8,1-9.4,2.4-14.5,2.4
			c-14.8,0-24.3-8.4-24.3-21.2c0-14.5,11.8-22.2,25.3-22.2c5.2,0,10.1,1.3,12.4,1.8c0.2,2.2,0.5,5.5,1,10.6l-2.4,0.4
			c-1.6-7.1-6.4-10.1-12.4-10.1c-7.7,0-14.3,6.9-14.3,18.4c0,9.6,4.7,19.6,15.2,19.6c1.3,0,2.7-0.2,3.6-0.8c1-0.6,1.5-1.6,1.5-3.5
			v-6.1c0-4.5-0.3-5-7-5.5v-2.2h19.1V185z"/>
		<path class="st1" d="M927.7,185c-3.2,0.6-3.6,0.9-3.6,5.2v5c0,2.3,0.1,4.3,0.4,6c-3.8,1-9.4,2.4-14.5,2.4
			c-14.8,0-24.3-8.4-24.3-21.2c0-14.5,11.8-22.2,25.3-22.2c5.2,0,10.1,1.3,12.4,1.8c0.2,2.2,0.5,5.5,1,10.6l-2.4,0.4
			c-1.6-7.1-6.4-10.1-12.4-10.1c-7.7,0-14.3,6.9-14.3,18.4c0,9.6,4.7,19.6,15.2,19.6c1.3,0,2.7-0.2,3.6-0.8c1-0.6,1.5-1.6,1.5-3.5
			v-6.1c0-4.5-0.3-5-7-5.5v-2.2h19.1V185z"/>
		<path class="st1" d="M931.7,202.6v-2.2c4.7-0.4,5.3-0.9,5.3-6.2v-24.4c0-5.4-0.6-5.9-5.3-6.3v-2.2h19.1v2.2
			c-4.7,0.4-5.3,0.9-5.3,6.3v24.4c0,5.4,0.6,5.8,5.3,6.2v2.2H931.7z"/>
		<path class="st1" d="M977.9,160.3c11.5,0,21,8.5,21,21.2c0,13.8-9.9,22.1-21.9,22.1c-12.8,0-21.6-9.4-21.6-21.6
			C955.4,171,963.2,160.3,977.9,160.3L977.9,160.3z M976.6,162.9c-6.4,0-11.4,6.8-11.4,17.9c0,10.9,4.8,20.2,13,20.2
			c6.1,0,11-5.9,11-17.7C989.1,170.6,984,162.9,976.6,162.9L976.6,162.9z"/>
	</g>
	<g class="st0">
		<path class="st1" d="M555.2,244.5v-1.1c0-1.1,0.2-2.1,0.6-3.2c0.3-1,1.3-3.3,4.1-5.6c1.7-1.5,3.3-2.3,5.6-2.6
			c1.9,0.1,3.1,0.7,3.9,1.4c0.7,0.7,0.7,1.4,0.4,2.1c-0.2,0.5-0.7,1.2-1.5,1.7c-0.6,0.5-1.1,0.5-1.6,0c-1.2-1.2-2.7-2.4-4-2.4
			c-0.9,0-1.3,0.5-1.5,1.3c-0.3,0.9-0.3,2.5-0.1,6.6l0,1.7h5.5c0.2,0.5,0,2-0.7,2.3h-4.8v13.7c0,3,0.3,3.3,4,3.6v1.5h-13v-1.5
			c2.8-0.4,3-0.6,3-3.6v-13.7h-3.1l-0.2-0.6l1.4-1.7H555.2z"/>
		<path class="st1" d="M583.7,266.2c-1.3,0-2.3-0.4-2.9-1c-0.7-0.6-1-1.2-1.2-1.8c-1.8,1.2-4.1,2.8-5,2.8c-4.1,0-6.5-3.2-6.5-6.1
			c0-2.5,1.1-3.7,3.6-4.6c2.8-1.1,6.5-2.2,7.6-3.2v-1.4c0-3-1.1-4.7-2.9-4.7c-0.6,0-1.1,0.3-1.6,0.9c-0.6,0.7-1,1.8-1.4,3.3
			c-0.3,1.2-1,1.6-2,1.6c-1.2,0-3-1.1-3-2.4c0-0.9,0.6-1.5,1.7-2.3c1.8-1.2,5.2-2.9,7.9-3.4c2,0,3.4,0.4,4.7,1.4
			c2.1,1.6,2.5,3.6,2.5,6.3v7.9c0,2.2,0.8,2.8,1.5,2.8c0.6,0,1.1-0.2,1.6-0.4l0.5,1.5L583.7,266.2z M579.3,254.2
			c-0.9,0.4-1.7,1-2.6,1.5c-1.5,0.8-2.2,1.6-2.2,3.3c0,2.7,1.8,3.7,2.9,3.7c0.7,0,1.2-0.2,2-0.8V254.2z"/>
		<path class="st1" d="M608.9,261c-2.2,3.1-5.3,5.2-8.2,5.2c-6.6,0-10.4-5-10.4-10.2c0-3.5,1.8-6.9,4.8-9.1c3.1-2.3,6.3-3,8.1-3h0
			c1.7,0,3.3,0.5,4.1,1.2c0.7,0.5,0.9,1.1,0.9,1.7c0,1.4-1.2,2.6-2.1,2.6c-0.3,0-0.6-0.1-1.1-0.5c-2-1.7-3.5-2.5-4.8-2.5
			c-1.9,0-4,1.8-4,6.9c0,6.4,4.5,8.5,6.6,8.5c2,0,3.4-0.5,5.1-2L608.9,261z"/>
		<path class="st1" d="M610.5,265.6v-1.5c2.8-0.3,3.1-0.5,3.1-3.9v-9.5c0-3.2-0.3-3.3-2.6-3.7v-1.4c2.9-0.3,6-1,8.7-1.7v16.3
			c0,3.3,0.2,3.5,3.1,3.9v1.5H610.5z M612.9,237.5c0-1.9,1.6-3.3,3.4-3.3c1.9,0,3.4,1.4,3.4,3.3c0,1.8-1.5,3.3-3.4,3.3
			C614.4,240.9,612.9,239.3,612.9,237.5z"/>
		<path class="st1" d="M624.2,265.6v-1.5c2.8-0.4,3.1-0.7,3.1-3.7v-21.9c0-2.9-0.2-3-2.9-3.3v-1.4c2.7-0.3,6.3-1,8.9-1.7v28.4
			c0,3.2,0.3,3.4,3.2,3.7v1.5H624.2z"/>
		<path class="st1" d="M657.2,260.9c-2.9,4.4-6.6,5.3-8.6,5.3c-6.4,0-9.9-4.7-9.9-10.2c0-3.6,1.5-6.7,3.5-8.7
			c2.1-2.1,4.7-3.4,7.3-3.4h0c4.4,0,7.8,3.8,7.7,7.7c0,1-0.3,1.6-1.4,1.7c-0.9,0.1-6.7,0.6-11.4,0.8c0.2,5.1,3.1,7.7,6.5,7.7
			c1.9,0,3.6-0.6,5.3-2.1L657.2,260.9z M648.5,245.8c-1.8,0-3.4,2.2-3.7,6c2,0,3.7-0.1,5.7-0.1c0.7,0,1-0.1,1-1
			C651.5,248.3,650.5,245.8,648.5,245.8L648.5,245.8z"/>
		<path class="st1" d="M688.5,260.9c-2.9,4.4-6.6,5.3-8.6,5.3c-6.4,0-9.9-4.7-9.9-10.2c0-3.6,1.5-6.7,3.5-8.7
			c2.1-2.1,4.7-3.4,7.3-3.4h0c4.4,0,7.8,3.8,7.7,7.7c0,1-0.3,1.6-1.4,1.7c-0.9,0.1-6.7,0.6-11.4,0.8c0.2,5.1,3.1,7.7,6.5,7.7
			c1.9,0,3.6-0.6,5.3-2.1L688.5,260.9z M679.8,245.8c-1.8,0-3.4,2.2-3.7,6c2,0,3.7-0.1,5.7-0.1c0.7,0,1-0.1,1-1
			C682.8,248.3,681.7,245.8,679.8,245.8L679.8,245.8z"/>
		<path class="st1" d="M715.9,264.4c-1.1,0.2-5.6,0.8-9.4,1.9v-2.8l-2.9,1.9c-1.2,0.8-1.9,0.9-2.4,0.9c-4.1,0-9.8-3.3-9.8-10.5
			c0-6.5,5.6-11.8,13.1-11.8c0.4,0,0.9,0.1,2,0.2v-5.8c0-2.6-0.3-2.8-3.2-3.2v-1.5c3.1-0.4,6.9-1,9.3-1.7v27.6
			c0,2.7,0.2,2.9,2.2,3.2l1.1,0.1V264.4z M706.5,248.4c-0.8-1.7-2.1-2.5-3.4-2.5c-1.1,0-4.8,1.2-4.8,8.5c0,5.9,3.4,8.1,5.6,8.1
			c0.9,0,1.6-0.1,2.6-0.8V248.4z"/>
		<path class="st1" d="M746.5,260.9c-2.9,4.4-6.6,5.3-8.6,5.3c-6.4,0-9.9-4.7-9.9-10.2c0-3.6,1.5-6.7,3.5-8.7
			c2.1-2.1,4.7-3.4,7.3-3.4h0c4.4,0,7.8,3.8,7.7,7.7c0,1-0.3,1.6-1.4,1.7c-0.9,0.1-6.7,0.6-11.4,0.8c0.2,5.1,3.1,7.7,6.5,7.7
			c1.9,0,3.6-0.6,5.3-2.1L746.5,260.9z M737.8,245.8c-1.8,0-3.4,2.2-3.7,6c2,0,3.7-0.1,5.7-0.1c0.7,0,1-0.1,1-1
			C740.8,248.3,739.8,245.8,737.8,245.8L737.8,245.8z"/>
		<path class="st1" d="M768.1,261c-2.2,3.1-5.3,5.2-8.2,5.2c-6.6,0-10.4-5-10.4-10.2c0-3.5,1.8-6.9,4.8-9.1c3.1-2.3,6.3-3,8.1-3h0
			c1.7,0,3.3,0.5,4.1,1.2c0.7,0.5,0.9,1.1,0.9,1.7c0,1.4-1.2,2.6-2.1,2.6c-0.3,0-0.6-0.1-1.1-0.5c-2-1.7-3.5-2.5-4.8-2.5
			c-1.9,0-4,1.8-4,6.9c0,6.4,4.5,8.5,6.6,8.5c2,0,3.4-0.5,5.1-2L768.1,261z"/>
		<path class="st1" d="M781.3,243.9c6.6,0,10.9,5,10.9,10.8c0,7.7-5.5,11.5-11.1,11.5c-7.5,0-11.2-5.5-11.2-10.7
			C769.8,247.8,775.9,243.9,781.3,243.9L781.3,243.9z M780.6,245.8c-2,0-3.9,2.5-3.9,8c0,5.9,1.9,10.5,4.9,10.5
			c1.8,0,3.7-1.2,3.7-8.2C785.3,249.4,783.6,245.8,780.6,245.8L780.6,245.8z"/>
		<path class="st1" d="M808.2,265.6v-1.5c2-0.3,2.2-0.5,2.2-3.9v-8.1c0-3.4-1.6-4.5-3.3-4.5c-1.2,0-2.3,0.5-3.5,1.5v11.6
			c0,3,0.3,3.1,2.2,3.4v1.5h-11.5v-1.5c3-0.4,3.2-0.5,3.2-3.7v-9.9c0-2.9-0.2-3.1-2.6-3.5v-1.4c2.7-0.3,5.8-1,8.7-1.8v3.5
			c1-0.7,1.9-1.4,3-2.1c1.4-0.9,2.3-1.3,3.7-1.3c3.9,0,6.3,2.9,6.3,7.7v9c0,3,0.3,3.1,2.8,3.5v1.5H808.2z"/>
		<path class="st1" d="M833,243.9c6.6,0,10.9,5,10.9,10.8c0,7.7-5.5,11.5-11.1,11.5c-7.5,0-11.2-5.5-11.2-10.7
			C821.5,247.8,827.6,243.9,833,243.9L833,243.9z M832.3,245.8c-2,0-3.9,2.5-3.9,8c0,5.9,1.9,10.5,4.9,10.5c1.8,0,3.7-1.2,3.7-8.2
			C837,249.4,835.3,245.8,832.3,245.8L832.3,245.8z"/>
		<path class="st1" d="M872.9,265.6v-1.5c2.1-0.3,2.5-0.5,2.5-3.5v-8.2c0-3.9-1.9-4.7-3.4-4.7c-1,0-2.2,0.3-3.7,1.6
			c0,0.5,0.1,1.2,0.1,1.9v9.7c0,2.7,0.3,3,2.5,3.3v1.5h-11v-1.5c2.2-0.3,2.4-0.4,2.4-3.3v-8.7c0-3.4-1.5-4.5-3.3-4.5
			c-1.1,0-2.3,0.5-3.7,1.5v11.7c0,2.7,0.3,3,2.2,3.3v1.5h-11.2v-1.5c2.7-0.3,3-0.5,3-3.5v-10c0-2.7-0.2-3.2-2.4-3.5v-1.4
			c2.2-0.3,5.5-1,8.4-1.8v3.7c1.1-0.8,2-1.4,3-2.1c1.5-1,2.8-1.5,4.2-1.5c2.6,0,4.6,1.6,5.5,3.8c1.1-0.9,2.3-1.6,3.4-2.4
			c1.1-0.7,2.3-1.3,3.8-1.3c4.2,0,6.4,2.8,6.4,7.7v9.2c0,2.7,0.2,2.9,2.7,3.3v1.5H872.9z"/>
		<path class="st1" d="M886.5,265.6v-1.5c2.8-0.3,3.1-0.5,3.1-3.9v-9.5c0-3.2-0.3-3.3-2.6-3.7v-1.4c2.9-0.3,6-1,8.7-1.7v16.3
			c0,3.3,0.2,3.5,3.1,3.9v1.5H886.5z M888.8,237.5c0-1.9,1.6-3.3,3.4-3.3c1.9,0,3.4,1.4,3.4,3.3c0,1.8-1.5,3.3-3.4,3.3
			C890.4,240.9,888.8,239.3,888.8,237.5z"/>
		<path class="st1" d="M919.5,261c-2.2,3.1-5.3,5.2-8.2,5.2c-6.6,0-10.4-5-10.4-10.2c0-3.5,1.8-6.9,4.8-9.1c3.1-2.3,6.3-3,8.1-3h0
			c1.7,0,3.3,0.5,4.1,1.2c0.7,0.5,0.9,1.1,0.9,1.7c0,1.4-1.2,2.6-2.1,2.6c-0.3,0-0.6-0.1-1.1-0.5c-2-1.7-3.5-2.5-4.8-2.5
			c-1.9,0-4,1.8-4,6.9c0,6.4,4.5,8.5,6.6,8.5c2,0,3.4-0.5,5.1-2L919.5,261z"/>
		<path class="st1" d="M932.7,243.9c6.6,0,10.9,5,10.9,10.8c0,7.7-5.5,11.5-11.1,11.5c-7.5,0-11.2-5.5-11.2-10.7
			C921.2,247.8,927.3,243.9,932.7,243.9L932.7,243.9z M931.9,245.8c-2,0-3.9,2.5-3.9,8c0,5.9,1.9,10.5,4.9,10.5
			c1.8,0,3.7-1.2,3.7-8.2C936.7,249.4,935,245.8,931.9,245.8L931.9,245.8z"/>
	</g>
	<rect id="XMLID_11_" x="-170.1" y="64.2" class="st7" width="1361.3" height="114.7"/>
</g>
</svg>
