<?xml version="1.0" encoding="utf-8"?>
<!-- Generator: Adobe Illustrator 24.0.1, SVG Export Plug-In . SVG Version: 6.00 Build 0)  -->
<svg version="1.1" id="Livello_1" xmlns="http://www.w3.org/2000/svg" xmlns:xlink="http://www.w3.org/1999/xlink" x="0px" y="0px"
	 viewBox="0 0 1010 312" style="enable-background:new 0 0 1010 312;" xml:space="preserve">
<style type="text/css">
	.st0{fill:#FFFFFF;}
</style>
<g id="XMLID_1_">
	<g id="XMLID_2_">
		<path id="XMLID_3_" class="st0" d="M157.3,14.4l-54.9,200.3L57,32H4.8l64.7,239.9h55.7L211.2,3.8L157.3,14.4z"/>
	</g>
	<g>
		<path class="st0" d="M208.9,33.1h44l11.7,20.7c-0.2,0-0.3,0.1-0.3,0.3l-0.5-0.3H235v17.3h18.9c0.3,0.1,0.5,0.3,0.5,0.6v19.9
			c0,0.3-0.2,0.5-0.5,0.5h-19.2V111h31.3l-0.1,21.4h-57.1c-0.3,0-0.5-0.2-0.5-0.5V33.6C208.5,33.3,208.6,33.1,208.9,33.1z"/>
		<path class="st0" d="M280.8,32.8c4,0,12,1.2,24,3.6c4.9,0.6,9,0.9,12.4,0.9h2.1c6.9,0,16-1.2,27.4-3.6c3.7-0.6,6.8-0.9,9.2-0.9
			h0.3c0.7,0,1.8,1.5,3.1,4.5c3.1,8.1,4.6,12.3,4.6,12.6c-2.9-0.2-4.9-0.3-6.1-0.3c-4.9,0-11.9,1-21.2,3c-3.5,0.7-5.6,1.1-6.2,1.3
			c0,0.1,0,0.1,0.1,0.1c-0.1,1.9-0.1,3.4-0.1,4.3V132c0,0.2-0.1,0.3-0.3,0.3h-22.9c-0.2,0-0.3-0.1-0.3-0.3l-0.1-78.1
			c-1.6,0-7.5-1.1-17.8-3.3c-3-0.6-6.3-0.8-10-0.8c-1,0-2.9,0.1-5.7,0.3c0-0.1,0-0.1-0.1-0.1c4.6-11.2,7-16.8,7.1-16.9L280.8,32.8z"
			/>
		<path class="st0" d="M369,33.1h44l11.7,20.7c-0.2,0-0.3,0.1-0.3,0.3l-0.5-0.3h-28.7v17.3H414c0.3,0.1,0.5,0.3,0.5,0.6v19.9
			c0,0.3-0.2,0.5-0.5,0.5h-19.2V111h31.3l-0.1,21.4H369c-0.3,0-0.5-0.2-0.5-0.5V33.6C368.5,33.3,368.7,33.1,369,33.1z"/>
		<path class="st0" d="M453.1,32.9h8.7c31.8,0,52.4,9.5,61.9,28.6c1.5,5,2.5,9.8,2.8,14.3c0,15.5-6.8,25.5-20.3,30h-0.5
			c3.7,2.8,11.6,9.9,23.6,21.2c11.2,8.1,21.5,13.1,30.9,15.3v0.9c-14.1,2.5-25.8,4.1-35.1,5.1c-4.4,0-17.5-10.3-39.2-30.9L463.6,98
			c20.2-2.5,31.3-6.1,33.3-11c2.5-2.4,3.7-5.5,3.7-9.2c0-13.3-14.1-21.1-42.4-23.5v78.2h-25.2l0.3-98l0.4-1
			C441.8,33,448.3,32.9,453.1,32.9z"/>
		<path class="st0" d="M538,32h23.6c0.3,0,0.4,0.2,0.4,0.4v99.4c0,0.3-0.1,0.4-0.4,0.4H538c-0.3,0-0.4-0.1-0.4-0.4V32.4
			C537.6,32.1,537.8,32,538,32z"/>
		<path class="st0" d="M664.2,32.8v102.1l-66.9-47.2v44.6l-25.1-0.1V39.3h0.4l66.5,41V39.8L664.2,32.8z"/>
		<path class="st0" d="M708.3,32.5c16.9,0,28,5.6,33.2,16.7c1.6,2.9,2.4,7.5,2.4,14V132c0,0.2-0.1,0.3-0.3,0.3h-24.8
			c-0.2,0-0.3-0.1-0.3-0.3v-28.4c-4.1-1.4-9.3-2.2-15.4-2.2c-0.8,0.2-2.3,0.5-4.7,0.8v30c0,0.2-0.1,0.3-0.3,0.3h-25.3
			c-0.2,0-0.3-0.1-0.3-0.3V60.3c0-12.3,6.3-20.8,19-25.5C696.7,33.3,702.4,32.5,708.3,32.5z M698.3,64.2v21.4
			c4.2-1.9,7.5-2.8,10.1-2.8c2.8,0.2,6.3,0.5,10.7,1V63.1c0-2.6-1.3-4.8-3.9-6.7c-2.4-0.6-4.7-1-6.9-1
			C701.6,55.5,698.3,58.4,698.3,64.2z"/>
		<path class="st0" d="M770.8,32.9h8.8c31.8,0,52.4,9.5,61.9,28.6c1.5,5,2.5,9.8,2.8,14.3c0,15.5-6.8,25.5-20.3,30h-0.5
			c3.7,2.8,11.6,9.9,23.6,21.2c11.2,8.1,21.5,13.1,30.9,15.3v0.9c-14.1,2.5-25.8,4.1-35.1,5.1c-4.4,0-17.5-10.3-39.2-30.9L781.3,98
			c20.2-2.5,31.3-6.1,33.3-11c2.5-2.4,3.7-5.5,3.7-9.2c0-13.3-14.1-21.1-42.4-23.5v78.2h-25.2l0.3-98l0.4-1
			C759.5,33,766,32.9,770.8,32.9z"/>
		<path class="st0" d="M855.7,32h23.6c0.3,0,0.4,0.2,0.4,0.4v99.4c0,0.3-0.1,0.4-0.4,0.4h-23.6c-0.3,0-0.4-0.1-0.4-0.4V32.4
			C855.3,32.1,855.5,32,855.7,32z"/>
		<path class="st0" d="M942.8,32.8h3.3c16.3,0,30.5,6.3,42.7,19c7.8,9.4,11.7,19.8,11.7,31.4c0,13.3-6,25.3-17.9,35.8
			c-10.9,8.8-23.7,13.3-38.5,13.3c-13.4,0-25.6-4.3-36.8-12.9c-6.3-5.6-10.2-10-11.7-13.5c-4.4-7.4-6.5-15-6.5-22.7v-1
			c0-13.2,5.5-24.9,16.4-35c8.2-7,17.1-11.4,26.5-13.3C936.4,33.1,940,32.8,942.8,32.8z M915.5,81.7v2.1c0,7.4,3.9,14.2,11.7,20.3
			c5.8,3.6,11.7,5.3,17.7,5.3h1.5c10.1,0,18.6-4.5,25.4-13.5c2.5-4.5,3.8-9,3.8-13.5c0-10.1-5.4-18.1-16.2-23.9
			c-4.7-2-9.4-3.1-14-3.1c-11.2,0-20,4.7-26.5,14.2C916.6,73.9,915.5,77.9,915.5,81.7z"/>
		<path class="st0" d="M211,272.3c-11.4,0-19.9-3-25.7-9.1c-5.7-6.1-8.6-14.9-8.6-26.5c0-7,1-13.1,3-18.1c2-5.1,4.7-9,8.1-11.7
			c6.6-5.3,14.4-8,23.2-8s15.6,2.3,20.3,6.8c4.7,4.5,7,12.6,7,24.2c0,6.8-3.4,10.2-10.1,10.2h-30.9c0.4,6,1.9,10.2,4.6,12.7
			c2.7,2.5,7,3.7,12.9,3.7c3.2,0,6.3-0.4,9.2-1.1c2.9-0.8,5.1-1.5,6.4-2.3l2-1.1l4.3,11.4c-0.6,0.7-1.4,1.5-2.5,2.5
			c-1.1,1-3.8,2.3-8.2,4C221.6,271.5,216.6,272.3,211,272.3z M219.9,227.5c0.2-1.3,0.3-2.9,0.3-4.8c0-1.9-0.8-3.9-2.3-6
			c-1.5-2.1-4.1-3.2-7.9-3.2c-3.7,0-6.6,1.1-8.6,3.4c-2,2.3-3.3,6.1-4,11.5L219.9,227.5z"/>
		<path class="st0" d="M247,200.1c5.2-1.1,9.9-1.7,14.1-1.7c4.2,0,7.6,0.1,10.4,0.3v7.1c2.4-2,5.5-3.6,9.5-4.9
			c3.9-1.3,7.7-1.9,11.3-1.9c9.3,0,15.8,2.2,19.6,6.5c3.7,4.4,5.6,11.9,5.6,22.6v27.3c3.7,1.4,6.3,3,7.8,4.8l-1.4,11h-32.7l-1.4-11
			c1.3-1.8,3.9-3.4,7.8-4.8v-28.2c0-5.1-0.8-8.6-2.5-10.3c-1.7-1.8-4.6-2.6-8.9-2.6c-4.3,0-8.5,1.5-12.8,4.6v36.5
			c3.7,1.4,6.3,3,7.8,4.8l-1.4,11H247l-1.4-11c1.3-1.8,3.9-3.4,7.8-4.8v-39.5c-3.3-1.1-5.9-2.7-7.8-4.8L247,200.1z"/>
		<path class="st0" d="M356,182.2v17.9h20.3V212H356v36c0,3,0.4,5.2,1.3,6.6c0.9,1.4,2.9,2.1,6.1,2.1c3.2,0,6.7-0.7,10.4-2.1
			l4.3,11.1c-7.3,3.7-14.8,5.5-22.4,5.5c-7.6,0-12.8-1.6-15.5-4.9c-2.7-3.3-4.1-8-4.1-14.3v-40h-6.4l-1.6-8.7
			c1.5-1.8,4.6-3.6,9.4-5.4c1.1-7.8,3.8-13,8.1-15.8H356z"/>
		<path class="st0" d="M384.8,200.1c5.3-1.2,10.2-1.8,14.8-1.8s8.4,0.1,11.5,0.4v56.7c3.7,1.4,6.3,3,7.8,4.8l-1.4,11h-32.7l-1.4-11
			c1.3-1.8,3.9-3.4,7.8-4.8v-39.5c-3.3-1.1-5.9-2.7-7.8-4.8L384.8,200.1z M400.9,190.3c-7.9,0-11.9-3.6-11.9-10.7
			c0-7.2,4-10.7,11.9-10.7c7.9,0,11.9,3.6,11.9,10.7C412.8,186.7,408.8,190.3,400.9,190.3z"/>
		<path class="st0" d="M426,200.1c5.2-1.1,9.9-1.7,14.1-1.7c4.2,0,7.6,0.1,10.4,0.3v7.1c2.3-1.9,5.1-3.5,8.5-4.8
			c3.4-1.3,6.5-2,9.2-2c10.8,0,18,2.7,21.6,8.1c2.4-2.3,5.5-4.2,9.4-5.8c3.9-1.6,7.5-2.3,10.8-2.3c10.4,0,17.4,2.3,21,7
			c3.6,4.7,5.4,13.5,5.4,26.4v23c3.7,1.4,6.3,3,7.8,4.8l-1.4,11h-32.7l-1.4-11c1.3-1.8,3.9-3.4,7.8-4.8v-28.2
			c0-5.2-0.7-8.7-2.1-10.4c-1.4-1.7-4.2-2.6-8.5-2.6c-4.2,0-8.2,1.6-12,4.7c0.5,3.2,0.7,7.7,0.7,13.4v23c3.7,1.4,6.3,3,7.8,4.8
			l-1.4,11h-32.7l-1.4-11c1.3-1.8,3.9-3.4,7.8-4.8v-28.2c0-5.2-0.7-8.7-2.1-10.4c-1.4-1.7-4.2-2.6-8.4-2.6c-4.2,0-8.2,1.5-11.9,4.6
			v36.5c3.7,1.4,6.3,3,7.8,4.8l-1.4,11H426l-1.4-11c1.3-1.8,3.9-3.4,7.8-4.8v-39.5c-3.3-1.1-5.9-2.7-7.8-4.8L426,200.1z"/>
		<path class="st0" d="M550.9,200.1c5.3-1.2,10.2-1.8,14.8-1.8s8.4,0.1,11.5,0.4v56.7c3.7,1.4,6.3,3,7.8,4.8l-1.4,11h-32.7l-1.4-11
			c1.3-1.8,3.9-3.4,7.8-4.8v-39.5c-3.3-1.1-5.9-2.7-7.8-4.8L550.9,200.1z M567,190.3c-7.9,0-11.9-3.6-11.9-10.7
			c0-7.2,4-10.7,11.9-10.7c7.9,0,11.9,3.6,11.9,10.7C578.9,186.7,574.9,190.3,567,190.3z"/>
		<path class="st0" d="M623.4,286.3c8.4,0,12.7-5.1,12.7-15.2v-6.3c-4.6,2.8-10.5,4.3-17.5,4.3c-8.9,0-15.8-2.6-20.5-7.8
			c-4.8-5.2-7.2-13.9-7.2-26c0-24.2,11.1-36.3,33.3-36.3c5.7,0,11,1.2,15.9,3.7c0.9-1.7,2.4-2.6,4.3-2.6H656v70
			c0,10.4-2.6,18.2-7.8,23.2c-5.2,5-13.2,7.5-24,7.5c-5.7,0-11.6-0.7-17.6-2c-6.1-1.3-10.7-3-13.8-5c-0.1-0.9-0.1-1.7-0.1-2.6
			c0-5.2,1.2-10.2,3.7-15.1h12.5c1,2,1.8,4.6,2.3,8C614.8,285.6,618.9,286.3,623.4,286.3z M613.4,249.3c1.9,2.8,5.3,4.3,10,4.3
			c4.7,0,8.9-1.3,12.7-4v-33.7c-3.8-1.6-7.9-2.4-12.4-2.4c-8.8,0-13.2,7-13.2,20.9C610.5,241.5,611.4,246.4,613.4,249.3z"/>
		<path class="st0" d="M666.5,170.2c5.3-1.2,10.2-1.8,14.8-1.8s8.4,0.1,11.5,0.4v86.6c3.7,1.4,6.3,3,7.8,4.8l-1.4,11h-32.7l-1.4-11
			c1.3-1.8,3.9-3.4,7.8-4.8V186c-3.3-1.1-5.9-2.7-7.8-4.8L666.5,170.2z"/>
		<path class="st0" d="M708.2,200.1c5.3-1.2,10.2-1.8,14.8-1.8s8.4,0.1,11.5,0.4v56.7c3.7,1.4,6.3,3,7.8,4.8l-1.4,11h-32.7l-1.4-11
			c1.3-1.8,3.9-3.4,7.8-4.8v-39.5c-3.3-1.1-5.9-2.7-7.8-4.8L708.2,200.1z M724.3,190.3c-7.9,0-11.9-3.6-11.9-10.7
			c0-7.2,4-10.7,11.9-10.7c7.9,0,11.9,3.6,11.9,10.7C736.2,186.7,732.2,190.3,724.3,190.3z"/>
		<path class="st0" d="M750.8,210.6c0-1.4,0-2.9,0.1-4.6c8.8-4.7,18.3-7.1,28.4-7.1c10.1,0,17.4,1.9,21.8,5.8
			c4.4,3.8,6.6,10.2,6.6,19.1v30.3c3.3,0.7,5.9,1.5,7.8,2.4v12.4c-4.8,2.3-11.8,3.4-20.8,3.4c-0.9-2.5-1.8-5.5-2.4-9
			c-4.1,6-11.5,9-22.2,9c-6.4,0-11.8-1.8-16.3-5.5c-4.5-3.7-6.8-8.7-6.8-15.1c0-6.4,2.1-11.4,6.3-15c4.2-3.6,10.5-5.5,18.8-5.5h15.5
			v-6.8c0-7.4-3.9-11.1-11.8-11.1c-2.9,0-5.4,0.3-7.3,0.9c-0.2,4-0.8,7.1-1.7,9.2h-13.9C751.6,220.1,750.8,215.8,750.8,210.6z
			 M776.4,257.8c4.8,0,8.7-1.4,11.5-4.3v-11.7h-10c-6.8,0-10.2,2.6-10.2,7.8c0,2.4,0.7,4.3,2.2,5.8
			C771.4,257.1,773.6,257.8,776.4,257.8z"/>
	</g>
	<g id="XMLID_26_">
		<path id="XMLID_29_" class="st0" d="M942.1,153.3c-12.3,0-23.2,6.2-29.7,15.6c0,0-2.2,3.3-5.7,3.3c-3.5,0-5.7-3.3-5.7-3.3
			c-6.5-9.4-17.4-15.6-29.7-15.6c-19.9,0-36,16.1-36,36.1c0,4.7,0.9,9.2,2.6,13.3c4.2,13.2,14.7,27.4,26.4,39.4
			c1.8-4.7,2.7-9.7-0.2-11.8c-6.1-4.4-4.1-13.5-2.9-17.2c1.2-3.7,0.1-6.2,0.1-6.2c-3.8,11.9-8.8,10.6-8.8,10.6s0.1-9-1.8-12.3
			c-1.9-3.4-4.5-6.6-2.8-10.6c1.7-4,9.1-2,11.5-3.6c2.4-1.6,5-0.4,5-0.4c2.9-2.5,13.9-1.4,13.9-1.4s11-1.1,13.9,1.4
			c0,0,2.6-1.2,5,0.4c2.4,1.6,9.8-0.3,11.5,3.6c1.7,4-0.9,7.2-2.8,10.6c-1.9,3.4-1.8,12.3-1.8,12.3s-5,1.3-8.8-10.6
			c0,0-1.1,2.5,0.1,6.2c1.2,3.7,3.2,12.8-2.9,17.2c-4.4,3.1,4,27.1,9.2,40.5c1.9,0.8,3.5,1.3,4.9,1.4c0.7-0.1,1.5-0.2,2.4-0.5
			c17.5-25.5,12.9-39.2,12.9-39.2s-2-3.4-6.4-2.8l0.6-0.9l-2.4-0.1l1.7-2h-1.7l1.4-1.7l-3.5-0.6l1.4-1.1l-1.2-1.1c0,0,3-0.9,2.8-4.4
			c-0.2-2.6-0.1-5.4,0.8-7.9c0.4-1-1-14,0-15.5c1.1-1.6,10.4,7.4,10.4,7.4s1.9-2.1,9.6-2.1c7.6,0,9.6,2.1,9.6,2.1s9.4-9,10.4-7.4
			c0.9,1.4-0.4,14.5,0,15.5c0.9,2.5,1,5.4,0.8,7.9c-0.2,3.5,2.8,4.4,2.8,4.4l-1.2,1.1l1.4,1.1l-3.5,0.6l1.4,1.7l-1.7,0l1.7,2
			l-2.4,0.1l0.6,0.9c-4.4-0.6-6.4,2.8-6.4,2.8s-0.9,3.7,0.3,9.3c11.6-12,22-26.1,26.2-39.2c1.6-4.1,2.6-8.6,2.6-13.3
			C978.1,169.4,962,153.3,942.1,153.3z"/>
	</g>
</g>
</svg>
