<?xml version="1.0" encoding="utf-8"?>
<!-- Generator: Adobe Illustrator 24.0.1, SVG Export Plug-In . SVG Version: 6.00 Build 0)  -->
<svg version="1.1" id="Livello_1" xmlns="http://www.w3.org/2000/svg" xmlns:xlink="http://www.w3.org/1999/xlink" x="0px" y="0px"
	 viewBox="0 0 100 100" style="enable-background:new 0 0 100 100;" xml:space="preserve">
<style type="text/css">
	.st0{fill-rule:evenodd;clip-rule:evenodd;fill:#FFFFFF;}
	.st1{fill:#FFFFFF;stroke:#FFFFFF;stroke-width:0.216;stroke-linecap:round;stroke-linejoin:round;stroke-miterlimit:22.9256;}
</style>
<g>
	<path class="st0" d="M78.3,23.5c0,0-1.1,0.5-1.6,3s0.2,6.5,0.5,6.8c0.2,0.2,0.4,0,0.9-0.2c0.5-0.1,0.7-0.2,0.7-0.4
		s-0.5-0.9-0.5-1.6c-0.1-0.7-0.2-1.1,0.3-1.2c0.5-0.1,0.5,0.3,0.5,0.9c0.1,0.6,0.3,1.6,0.6,1.9c0.3,0.4,0.7,0.5,1.9,0.5
		c1.2,0,1.5-0.1,1.4-0.2s-0.5-0.2-1.4-1.6c-0.9-1.6-1.7-3.7-2.3-5.5c-0.5-1.9-0.5-2-0.6-2.3C78.7,23.4,78.3,23.5,78.3,23.5
		L78.3,23.5z M78.2,26.5c0,0-0.3,0.2-0.3,1.5s0.3,1,0.5,0.9c0.2-0.2,0.2-0.2,0.2-0.5c-0.1-0.3-0.2-1-0.3-1.3
		C78.2,26.7,78.2,26.5,78.2,26.5L78.2,26.5z"/>
	<path class="st0" d="M79.7,37.7c-0.5-0.6-1.4-0.2-1.9,0.3c-0.4,0.4-0.7,0.9-0.9,1.4c-0.4,0.9-0.5,2.8,0.9,2.9
		c1.2,0.1,1.9-0.9,2.3-1.1c0.2-0.1,0.4,0.3,0.6,0.5c0.3,0.2,1.2-0.2,1.2-0.7c0,0-0.3,0.2-0.5,0.2c-0.5,0-0.4-2.7-0.5-3.2
		s-0.2-0.8-0.3-0.9c-0.2-0.1-0.3-0.1-0.5,0.2C80,37.5,80,37.5,80,37.6C79.9,37.7,79.7,37.7,79.7,37.7L79.7,37.7z M78.4,38.7
		c-0.5,0.6-0.6,1.3-0.5,1.7c0.1,0.4,0.3,0.7,0.8,0.6c0.5-0.2,1.5-2.1,0.9-2.7C79.2,38,78.9,38.2,78.4,38.7L78.4,38.7z"/>
	<path class="st1" d="M45.8,52.7v0.2c0,0,0,0,0.1,0h0.1c0.2,0,0.4,0,0.6,0.1c0.2,0.1,0.5,0.2,0.7,0.2c0.2,0.2,0.5,0.3,0.6,0.6
		c0.2,0.3,0.2,0.6,0.2,1.1c0,0.2,0,0.4-0.1,0.6c-0.1,0.5-0.2,0.9-0.4,1.2s-0.4,0.5-0.7,0.7c-0.2,0.2-0.5,0.2-0.9,0.2
		c-0.2,0-0.5-0.1-0.6-0.2c-0.2-0.2-0.2-0.3-0.2-0.5c0,0,0.1,0.1,0.1,0.2c0.1,0.1,0.1,0.2,0.2,0.2c0.1,0,0.1,0.1,0.2,0.1
		c0.1,0,0.2,0,0.2,0c0.2,0,0.3-0.1,0.5-0.2c0.2-0.2,0.3-0.3,0.5-0.6c0.2-0.3,0.2-0.6,0.3-1.1c0-0.2,0.1-0.4,0.1-0.6
		c0-0.5-0.1-0.9-0.3-1.1c-0.2-0.2-0.4-0.4-0.7-0.5c-0.2-0.1-0.5-0.2-0.8-0.2l-0.9,5.3c0,0.1,0,0.2,0,0.2c0,0.2,0,0.3,0.1,0.4
		c0.1,0.1,0.2,0.2,0.3,0.3c0.2,0.1,0.2,0.2,0.3,0.3c0.1,0.1,0.1,0.2,0.1,0.3c0,0.1,0,0.2-0.1,0.3c-0.1-0.3-0.2-0.5-0.4-0.5
		c-0.2-0.1-0.5-0.1-0.8-0.1s-0.6,0.1-0.9,0.2c-0.3,0.2-0.5,0.3-0.7,0.5c-0.2,0.2-0.4,0.4-0.5,0.6c-0.2,0.2-0.2,0.4-0.2,0.6
		c0,0.1,0,0.2,0,0.2c0,0.1,0,0.2,0.1,0.2c0,0.1,0.1,0.1,0.1,0.2c0.1,0.1,0.1,0.1,0.2,0.2c-0.2,0-0.4,0-0.5-0.1s-0.2-0.2-0.2-0.4
		c0,0,0-0.1,0-0.2c0.1-0.2,0.2-0.5,0.4-0.8c0.2-0.2,0.5-0.5,0.8-0.9c0.3-0.3,0.6-0.6,0.8-0.9s0.3-0.5,0.3-0.7l0.5-3
		c0-0.2,0.1-0.4,0.2-0.6c0.1-0.3,0.2-0.6,0.3-0.9c0.2-0.3,0.3-0.5,0.5-0.7c-0.8,0-1.3,0.1-1.8,0.3c-0.5,0.2-0.8,0.4-0.9,0.7
		S42,54.8,42,55.1c0.2,0.2,0.2,0.4,0.2,0.5c0,0.9,0.4,1.6,1.2,2.1c-0.4,0-0.7-0.1-0.9-0.2S42,57.2,42,56.9c-0.2-0.2-0.2-0.5-0.2-0.9
		c0-0.2,0-0.4,0.1-0.7c0.1-0.6,0.3-1.1,0.6-1.5c0.3-0.4,0.8-0.7,1.3-0.9c0.5-0.2,1.2-0.2,1.8-0.2L45.8,52.7L45.8,52.7z M51.1,55
		l-0.6,3.6c0,0.1,0,0.2,0.1,0.2c0.1,0,0.2-0.1,0.5-0.2c-0.1,0.2-0.2,0.3-0.4,0.5c-0.2,0.2-0.3,0.2-0.5,0.2c-0.2,0-0.4-0.2-0.4-0.5
		c0-0.1,0-0.2,0-0.3l0.1-0.5c-0.1,0.1-0.2,0.2-0.5,0.5s-0.4,0.4-0.6,0.5c-0.2,0.2-0.4,0.2-0.5,0.2c-0.2,0-0.2-0.1-0.3-0.2
		c-0.1-0.2-0.2-0.4-0.2-0.7c0-0.5,0.1-0.9,0.2-1.3c0.2-0.4,0.3-0.8,0.6-1c0.2-0.2,0.5-0.5,0.9-0.6c0.3-0.2,0.6-0.2,0.9-0.2
		c0.2,0,0.3,0,0.4,0C50.9,55,51,55,51.1,55L51.1,55z M48.7,57.4c0,0.4,0.1,0.5,0.3,0.5c0.2,0,0.5-0.2,0.9-0.5l0.4-2.1
		c-0.2,0-0.5,0.1-0.8,0.3c-0.2,0.2-0.5,0.5-0.6,0.8C48.8,56.7,48.7,57.1,48.7,57.4L48.7,57.4z M53.5,55c0.3,0,0.6,0.2,0.8,0.4
		c0.2,0.2,0.2,0.6,0.2,1.1c0,0.4-0.1,0.7-0.2,1c-0.2,0.3-0.3,0.6-0.5,0.9S53.3,58.8,53,59s-0.5,0.2-0.7,0.2c-0.3,0-0.5-0.2-0.8-0.4
		c-0.2-0.2-0.2-0.6-0.2-1.2c0-0.4,0.1-0.7,0.2-1c0.2-0.3,0.3-0.6,0.5-0.9s0.5-0.5,0.7-0.5C53.1,55.1,53.3,55,53.5,55L53.5,55z
		 M52.2,57.5c0,0.3,0.1,0.6,0.2,0.9c0.1,0.2,0.2,0.4,0.5,0.4c0.2,0,0.3-0.1,0.5-0.2s0.3-0.4,0.4-0.7s0.2-0.7,0.2-1.1
		c0-0.9-0.2-1.3-0.6-1.3c-0.2,0-0.3,0.1-0.5,0.2c-0.2,0.2-0.3,0.4-0.4,0.7C52.2,56.7,52.2,57.1,52.2,57.5L52.2,57.5z M55.4,54.4
		c0.1-0.3,0.2-0.5,0.2-0.9c0.2-0.2,0.3-0.5,0.5-0.6c0.2-0.2,0.4-0.2,0.6-0.2h0.7c-0.2,0.2-0.2,0.3-0.4,0.5c-0.2,0.1-0.2,0.2-0.3,0.2
		c-0.1,0-0.2,0-0.3,0.1c-0.1,0-0.2,0.1-0.2,0.2l-0.8,4.9c0,0.1,0,0.2,0.1,0.2s0.3-0.2,0.7-0.5c-0.2,0.2-0.2,0.4-0.4,0.5
		S55.6,59,55.4,59c-0.2,0.1-0.2,0.2-0.4,0.2c-0.2,0-0.3-0.2-0.3-0.5c0-0.1,0-0.2,0-0.3L55.4,54.4L55.4,54.4z M58.6,55
		c0.3,0,0.6,0.2,0.8,0.4c0.2,0.2,0.2,0.6,0.2,1.1c0,0.4-0.1,0.7-0.2,1c-0.2,0.3-0.3,0.6-0.5,0.9s-0.5,0.5-0.7,0.6
		c-0.2,0.2-0.5,0.2-0.7,0.2c-0.3,0-0.5-0.2-0.8-0.4c-0.2-0.2-0.2-0.6-0.2-1.2c0-0.4,0.1-0.7,0.2-1c0.2-0.3,0.3-0.6,0.5-0.9
		s0.5-0.5,0.7-0.5C58.1,55.1,58.3,55,58.6,55L58.6,55z M57.2,57.5c0,0.3,0.1,0.6,0.2,0.9c0.1,0.2,0.2,0.4,0.5,0.4
		c0.2,0,0.3-0.1,0.5-0.2c0.2-0.2,0.3-0.4,0.4-0.7s0.2-0.7,0.2-1.1c0-0.9-0.2-1.3-0.6-1.3c-0.2,0-0.3,0.1-0.5,0.2s-0.3,0.4-0.4,0.7
		C57.2,56.7,57.2,57.1,57.2,57.5L57.2,57.5z"/>
	<path class="st1" d="M63.6,54.3c0.2,0,0.2,0.1,0.3,0.2c0.1,0.2,0.2,0.3,0.2,0.5s0,0.3-0.1,0.5c-0.1,0.2-0.2,0.3-0.3,0.4
		c-0.1,0.2-0.3,0.3-0.5,0.5c0.1,0.2,0.3,0.6,0.6,1.1c0.3,0.5,0.5,0.8,0.6,1c0.2-0.4,0.4-0.8,0.4-1.1c0-0.5-0.2-0.9-0.7-1.2
		c0.3,0,0.6,0.1,0.8,0.2s0.2,0.4,0.2,0.7c0,0.2,0,0.4-0.1,0.5s-0.1,0.4-0.2,0.5s-0.2,0.3-0.2,0.5c0,0,0.1,0.1,0.2,0.2
		s0.2,0.2,0.2,0.3c0.1,0.1,0.2,0.2,0.2,0.2c0.1,0.1,0.2,0.2,0.3,0.2h-0.3c-0.2,0-0.5-0.1-0.6-0.2c-0.2-0.1-0.3-0.2-0.4-0.3
		c-0.1,0.1-0.2,0.2-0.3,0.3c-0.2,0.1-0.3,0.2-0.5,0.3c-0.2,0.1-0.4,0.2-0.7,0.2c-0.4,0-0.6-0.1-0.9-0.3c-0.2-0.2-0.3-0.5-0.3-0.9
		s0.1-0.8,0.3-1.2c0.2-0.4,0.5-0.7,0.8-1c0,0,0-0.1-0.1-0.2c0-0.1-0.1-0.2-0.1-0.3c0-0.1,0-0.2,0-0.4s0-0.3,0.1-0.5
		c0.1-0.2,0.2-0.3,0.2-0.5c0.1-0.2,0.2-0.3,0.3-0.4C63.4,54.4,63.5,54.3,63.6,54.3L63.6,54.3z M63,55.5c0,0.3,0.1,0.5,0.2,0.7
		c0,0,0.1-0.1,0.2-0.2c0.1-0.1,0.2-0.2,0.2-0.4s0.2-0.3,0.2-0.5s0-0.2-0.1-0.3c-0.1-0.1-0.2-0.1-0.2-0.1c-0.2,0-0.2,0.1-0.3,0.2
		C63,55.1,63,55.3,63,55.5L63,55.5z M62.3,58.3c0,0.7,0.3,1,1,1c0.2,0,0.3,0,0.5-0.1c0.2-0.1,0.2-0.2,0.4-0.2
		c-0.2-0.2-0.4-0.5-0.6-0.9s-0.5-0.8-0.6-1.2c-0.2,0.2-0.2,0.3-0.3,0.4c-0.1,0.1-0.2,0.2-0.2,0.4C62.3,57.8,62.3,58,62.3,58.3
		L62.3,58.3z"/>
	<path class="st1" d="M72.8,54.3c-0.2,0.2-0.3,0.4-0.5,0.5c-0.2,0.1-0.4,0.2-0.5,0.2c-0.2,0-0.2,0.1-0.4,0.1h-2
		c0.1,0,0.2,0.1,0.4,0.2c0.2,0.1,0.3,0.2,0.4,0.4c0.2,0.2,0.2,0.3,0.3,0.5s0.2,0.5,0.2,0.7c0,0.1,0,0.1,0,0.2c0.2,0,0.5-0.1,0.7-0.2
		s0.4-0.4,0.5-0.7l-0.6,1.8c0-0.1,0-0.2,0-0.3s0-0.2,0-0.3c-0.2,0.1-0.3,0.2-0.4,0.2c-0.1,0-0.2,0.1-0.2,0.1
		c-0.1,0.5-0.2,0.9-0.4,1.3c-0.2,0.4-0.4,0.7-0.6,0.9s-0.5,0.5-0.8,0.5c-0.3,0.2-0.5,0.2-0.9,0.2c-0.5,0-0.9-0.2-1-0.4
		c-0.2-0.2-0.2-0.5-0.2-0.9c0-0.4,0.1-0.7,0.2-1c0.1-0.3,0.2-0.5,0.5-0.7c0.2-0.2,0.4-0.3,0.6-0.4s0.5-0.2,0.8-0.2h1.2
		c0-0.7-0.2-1.2-0.4-1.5s-0.5-0.5-0.9-0.5c-0.2,0-0.5,0.1-0.7,0.2c-0.2,0.1-0.4,0.2-0.5,0.5c-0.2,0.2-0.3,0.5-0.5,0.7
		c0.1-0.3,0.2-0.6,0.3-0.9c0.2-0.2,0.3-0.5,0.5-0.7c0.2-0.2,0.5-0.3,0.7-0.4c0.2-0.1,0.5-0.2,0.7-0.2c0.3,0,0.7,0,1.2,0
		c0.5,0,0.9,0,1,0C72.2,54.4,72.6,54.4,72.8,54.3L72.8,54.3z M67,59c0,0.2,0.1,0.4,0.2,0.6s0.2,0.4,0.4,0.5s0.3,0.2,0.5,0.2
		c0.3,0,0.5-0.1,0.8-0.3c0.2-0.2,0.4-0.5,0.6-0.9c0.2-0.4,0.3-0.9,0.4-1.6h-1.6c-0.1,0-0.2,0-0.3,0.1c-0.2,0.1-0.2,0.2-0.4,0.2
		s-0.2,0.2-0.3,0.5C67.1,58.5,67,58.7,67,59L67,59z M73.1,54.4c0.1,0,0.2,0,0.2,0.1c0.1,0.1,0.1,0.2,0.1,0.2c0,0.2-0.1,0.4-0.2,0.5
		c-0.2,0.1-0.2,0.2-0.4,0.2c-0.1,0-0.1,0-0.2-0.1c0-0.1,0-0.2,0-0.2c0-0.2,0.1-0.4,0.2-0.5C72.9,54.4,73,54.4,73.1,54.4L73.1,54.4z
		 M72.8,55.9c0.2,0,0.2,0.2,0.2,0.4c0,0.1,0,0.2,0,0.2l-0.4,2c0,0.2,0,0.2,0.1,0.2h0.1l0.1-0.1c0.1,0,0.1-0.1,0.1-0.1
		c-0.1,0.2-0.2,0.3-0.3,0.4s-0.2,0.2-0.2,0.2c-0.1,0-0.2,0-0.2,0c-0.1,0-0.2,0-0.2-0.1C72,59,72,59,72,58.8c0,0,0-0.1,0-0.2l0.3-2.1
		c0-0.1,0-0.2-0.1-0.2s-0.2,0.1-0.4,0.2c0-0.1,0.1-0.2,0.2-0.2s0.2-0.2,0.3-0.2C72.6,56,72.7,55.9,72.8,55.9L72.8,55.9z M75.1,59.4
		c-0.1,0.3-0.2,0.5-0.2,0.8c-0.1,0.2-0.2,0.5-0.4,0.6c-0.2,0.2-0.3,0.3-0.5,0.5c-0.2,0.1-0.3,0.2-0.5,0.2c-0.4,0-0.5-0.2-0.5-0.7
		c0-0.2,0-0.4,0.1-0.5s0.2-0.4,0.2-0.5c0.1-0.2,0.2-0.4,0.5-0.6c-0.1,0-0.2-0.1-0.2-0.2c-0.1-0.2-0.1-0.3-0.1-0.5
		c0-0.4,0.1-0.7,0.2-1c0.2-0.3,0.3-0.5,0.5-0.8c0.2-0.2,0.4-0.4,0.6-0.5s0.4-0.2,0.6-0.2c0.1,0,0.2,0,0.3,0s0.2,0,0.2,0L75.1,59.4
		L75.1,59.4z M74.7,58.1c-0.1,0.1-0.2,0.2-0.3,0.3c-0.2,0.2-0.3,0.3-0.5,0.5s-0.3,0.5-0.5,0.7c-0.2,0.2-0.2,0.5-0.2,0.9
		s0.2,0.5,0.4,0.5c0.2,0,0.2-0.1,0.3-0.2c0.1-0.1,0.2-0.2,0.3-0.4s0.2-0.3,0.2-0.5L74.7,58.1L74.7,58.1z M73.9,57.8
		c0,0.3,0.1,0.4,0.2,0.4c0.2,0,0.4-0.2,0.6-0.4l0.2-1.6c-0.2,0-0.4,0.1-0.5,0.2S74.1,56.8,74,57C74,57.2,73.9,57.5,73.9,57.8
		L73.9,57.8z M76.1,55.5c0-0.2,0.1-0.4,0.2-0.6c0.1-0.2,0.2-0.3,0.4-0.5c0.2-0.1,0.3-0.2,0.5-0.2h0.5c-0.1,0.2-0.2,0.2-0.2,0.3
		c-0.1,0.1-0.2,0.1-0.2,0.1s-0.2,0-0.2,0c-0.1,0-0.1,0.1-0.1,0.1l-0.6,3.7c0,0.1,0,0.2,0.1,0.2s0.2-0.1,0.5-0.3
		c-0.1,0.2-0.2,0.3-0.3,0.4c-0.1,0.2-0.2,0.2-0.3,0.3C76.1,59,76,59,75.9,59c-0.2,0-0.2-0.1-0.2-0.3c0-0.1,0-0.2,0-0.2L76.1,55.5
		L76.1,55.5z M78,54.4c0.1,0,0.2,0,0.2,0.1c0.1,0.1,0.1,0.2,0.1,0.2c0,0.2-0.1,0.4-0.2,0.5c-0.2,0.1-0.2,0.2-0.4,0.2
		c-0.1,0-0.1,0-0.2-0.1c0-0.1,0-0.2,0-0.2c0-0.2,0.1-0.4,0.2-0.5C77.9,54.4,77.9,54.4,78,54.4L78,54.4z M77.7,55.9
		c0.2,0,0.2,0.2,0.2,0.4c0,0.1,0,0.2,0,0.2l-0.3,2c0,0.2,0,0.2,0.1,0.2h0.1l0.1-0.1c0.1,0,0.1-0.1,0.1-0.1c-0.1,0.2-0.2,0.3-0.3,0.4
		s-0.2,0.2-0.2,0.2c-0.1,0-0.2,0-0.2,0c-0.1,0-0.2,0-0.2-0.1C77,59,77,59,77,58.8c0,0,0-0.1,0-0.2l0.3-2.1c0-0.1,0-0.2-0.1-0.2
		s-0.2,0.1-0.4,0.2c0-0.1,0.1-0.2,0.2-0.2s0.2-0.2,0.3-0.2C77.5,56,77.6,55.9,77.7,55.9L77.7,55.9z"/>
	<path class="st0" d="M20.9,80.9L20.9,80.9l-0.2-1l-0.2-1l-0.2-1.1l-0.2-1.2l0,0l-0.4-0.6l-0.4-0.5L18.9,75l-0.5-0.5l0,0L18,74.1
		l-0.4-0.2l0,0l-0.9-0.2l-0.9-0.1l0,0l0.2-0.3l0.4-0.3l0,0l1.1-0.5l0.5-0.2l0.6-0.2l0,0l0.5,0.2l0.5,0.2l0.5,0.2l0.5,0.3l0,0
		l0.6,0.6l0.5,0.6l0,0l0.2,0.5l0.2,0.4l0.1,0.4v0.5l0.6-0.6l0.5-0.5l0.6-0.5l0.7-0.5l0,0h0.9h0.8h0.9l1,0.1l0,0l0.4,0.2l0.4,0.4l0,0
		l-0.7,0.1l-0.6,0.1l-0.5,0.2l-0.6,0.2l0,0L26,75.2l-0.4,0.4L25.3,76L25,76.6l0,0l-0.2,0.7L24.7,78v0.6l0.1,0.7l0,0l0.1,0.5l0.1,0.4
		l0.2,0.4l0.2,0.3l0.2,0.3l0.2,0.3l0.3,0.3l0.3,0.3l0,0l0.5,0.4l0.5,0.3l0.5,0.2l0.5,0.2l0.5,0.2l0.5,0.2l0.5,0.2l0.5,0.2l0,0
		l0.9,0.2l0.8,0.2l0.8,0.1l0.7,0.1l0.7,0.1l0.8,0.1h0.9h0.9l0,0h1.6l1.4-0.1l0.7-0.1l0.8-0.1l0.8-0.1l0.9-0.2l0,0l3.3-0.6l2.8-0.5
		l2.8-0.5l3.3-0.6l0,0l17.7,0.6l0,0l0.9-0.1l0.7-0.1l0.7-0.2l0.9-0.2l0,0l1-0.3l0.9-0.3l0.9-0.4l1-0.5l0,0l0.4-0.4l0.3-0.4l0.7-0.9
		l0,0l0.4-0.9l0.3-0.9l0.2-0.9l0.2-1.1l0,0L82,74.5v-0.4v-0.9l0,0L81.1,72l-0.8-1.6l-0.8-1.6L79.2,68l-0.5-1l0,0l-0.1-0.9v-0.8
		l0.1-0.8l0.2-0.9l0,0l1.1-2.1l0.5-1l0.6-1.2l0,0l0.1-0.8v-0.7L81.1,57l-0.3-0.8l0,0l-0.3-0.3l-0.2-0.3l-0.2-0.4L80,54.8l0,0h0.3
		l0.3,0.1l0.3,0.2l0.3,0.2l0,0l0.3,0.3l0.2,0.3l0.2,0.3l0.2,0.4l0,0l0.3,1.1l0.2,0.9l0.2,0.9l0.1,1.1l0,0l-0.2,1l-0.2,0.9l-0.2,0.8
		L82,64l0,0l0.6-0.2l0.5-0.1l0.6-0.1l0.7-0.2l0,0l0.2,0.1l0.2,0.2l0.4,0.4l0,0l-0.5,0.2l-0.4,0.1l-0.4,0.1l-0.4,0.2l0,0l-0.4,0.5
		l-0.3,0.5l-0.2,0.3l-0.2,0.6l0,0l-0.1,0.3v0.2l0.1,0.2l0.2,0.3l0,0l1.2,1.8l1,1.6l1,1.6l1.2,1.8l0,0l0.2,1.1l0.1,0.9v0.9l-0.1,1
		l0,0l-0.4,1.2l-0.4,0.9L86,81.2l-0.5,0.9l0,0l-0.3,0.4l-0.3,0.3l-0.3,0.3l-0.2,0.2l-0.6,0.5l-0.8,0.5l0,0l-1.2,0.6L81.1,85
		l-0.5,0.2L80,85.4l-0.5,0.2l-0.6,0.2L78.2,86l0,0H76h-2h-1.9l-1.8-0.1l-1.8-0.1l-1.8-0.2l-1.9-0.2l-2.2-0.2l0,0L61.4,85L60.3,85
		l-1-0.1h-0.9h-0.9h-1h-1.1L54.2,85l0,0l-4.6,0.9l-3.9,0.8l-8.3,1.6l0,0l-0.9,0.2l-0.9,0.2l-0.8,0.1L34,88.6h-1.6h-0.9l-0.9-0.1l0,0
		l-0.8-0.1l-0.7-0.1l-0.6-0.1L28,88.2L27.3,88l-0.6-0.2l-1.3-0.5l0,0l-0.5-0.2l-0.5-0.2L24,86.8l-0.3-0.2l-0.3-0.2l-0.3-0.3
		l-0.4-0.3l-0.4-0.4l0,0L22,85l-0.2-0.3l-0.2-0.4l-0.2-0.5l0,0l-0.2-1.5L20.9,80.9L20.9,80.9z M22.4,75.9L22.4,75.9L22.4,75.9z"/>
	<path class="st0" d="M12.2,33.7c0.2,0,0.9,1,2,0.5c2-1.1,1.9-3.1,1.3-5.1c-0.5-1.6-1.4-4.6-1.8-6.1c-1.1-4.6,1.7-7.2,5.3-8.9
		c2.3-1,9-1.9,13.5-1.6c4.5,0.4,9.3,1.1,11.1,1.4c1.6,0.3,7.9,0.8,10.8,0.4c2.9-0.4,5.9-1.8,6.9-2.3c1-0.4,1.2-0.5,1.1,0.2
		c-0.1,0.5-2.2,1.6-4.4,2.5c-2.5,1-5.9,0.9-9.2,0.7c-5.2-0.2-10.4-0.9-14.7-0.9c-3.5,0-7.4,0.1-10,1.2c-4.3,1.9-7.2,5.1-6.1,10.4
		c0.7,3.3,0.8,3.8,0.5,5.7c-0.3,2-2.9,4.7-5.1,3.7C12.9,35.2,12.5,34.4,12.2,33.7L12.2,33.7z"/>
	<path class="st0" d="M19.5,21.8c0,0-0.5-0.5,0.1-0.9s1.4-0.8,2.5-1.5c1.1-0.6,1.2-0.9,3.6-1.7c2.3-0.9,3.6-1.2,6.3-1.6
		c2.6-0.4,8.6-0.8,11.1-0.6s7.1,1,11.3,0.6c4.3-0.4,8.7-1.9,11.3-2.6c2.6-0.8,7.9-2.3,13.5-2c5.6,0.3,7.6,2.5,8.6,4.4
		s0.2,4.2-0.2,5.6C87,22.9,86,24.4,86,26c0,1.6-0.3,2.1,0.8,3.9c1.1,1.9,2,3.2,1.5,7.6S84,43.6,82,44.3c-2,0.7-6.5,1.9-10,2.3
		c-3.4,0.5-4,0.2-5.6,1.4c-1.6,1.1-0.3,2.2,0.9,2.2c1.2,0,3.6-0.5,5.5-1.2c1.9-0.8,3.5-1.2,5.3-1.1c1.9,0.2,3,0.9,3.6,2.4
		c0.6,1.5-0.7,2.3-1.1,2.6c-0.4,0.4-1.1,0.5-1.1,0.5s0.7-0.8,0.8-1.9c0.1-1.1-0.2-1.5-1.9-1.6c-1.6-0.2-3-0.2-4.7,0.2
		c-1.7,0.3-2.2,0.5-3.8,1.1s-3.2,1.1-6.5,1.2c-3.3,0.2-4-1.2-4.3-1.8c-0.2-0.5,0.3-1.9,2-3s4.4-1.6,6.7-1.9c2.3-0.3,5.8-0.2,8.6-0.9
		c2.9-0.7,4.4-1.6,5.9-3.1c1.6-1.6,2.3-3.9,2.7-5.8c0.5-1.9,0.5-3.3,0-5.6c-0.5-2.2-1-2.3-1.2-3.5c-0.2-1.2-0.5-2.4,0-3.9
		c0.5-1.4,1.2-2.6,1.3-3.9c0.1-1.2,0.1-2.4-1-3.3c-1.1-1-2.6-1.7-7.6-1.6c-4.9,0.1-7.8,0.6-12.5,1.7c-4.7,1.2-5.6,1.2-8.1,1.6
		s-6.1,0.2-9.2-0.2c-3.1-0.3-6.1-0.5-9.5,0.2c-3.4,0.6-4.2,1.2-4.2,1.5c0,0.4,0.5,0.5,0.9,0.5s0.8-0.4,3.7-1
		c2.9-0.7,5.4-0.7,7.2,0.1c1.8,0.7,2.3,1.3,2.7,2c0.4,0.7,0.4,0.7,0.4,0.7s-0.9-1.5-3.5-1.6c-2.6-0.1-3.2-0.4-8.9,1
		c-5.8,1.5-7.2,2.5-8.6,3c-1.3,0.5-1.7,0.2-3,0.9c-1.2,0.6-1.9,0.6-2.7,0c-0.9-0.6,0.1-1.8,0.3-2.4c0.2-0.6,0.3-1.2-0.1-1.2
		c-0.3,0-0.5,0-1,0.4C19.8,21.6,19.5,21.8,19.5,21.8L19.5,21.8z"/>
	<path class="st0" d="M11.5,37.6c0,0,1.2-0.2,2.2,1.9c0.9,2.2,0.5,6.1,0.5,6.8c-0.4,6.5-3.7,13.8,1.4,19.6c2.1,2.4,5.4,3.3,9.4,1.8
		c2.7-1.1,4-2.1,6.2-5.1c2.1-3.1,3.3-7,4.6-8.3c1.3-1.3,2.6-1.5,3.2-0.9c0.7,0.5,0.6,1.1,0.2,1.6c-0.4,0.5-0.6,0.8-0.6,0.8h0.5
		c0,0,0.5-0.5,1.2-0.9c2.3-1.2,1.5-5.3-1.6-4.4c-1.6,0.5-2.6,1.5-4,2.7c-1.3,1.3-2.8,3.1-3.7,4.4c-0.9,1.3-2.9,3.7-5.6,4.7
		c-5.2,1.9-10.5-1.5-10-7.9c0.2-2.9,0.6-6.2,0.8-7.5c0.1-1.3,0.2-3.7-0.5-6.1s-1.6-3.2-2.3-3.5C12.5,37.1,11.5,37.6,11.5,37.6
		L11.5,37.6z"/>
	<path class="st0" d="M27.1,25.9c0,0-0.2,0.7-0.8,1.7c-1.3,2-3.2,1.4-5.1,2.5c-2.9,1.7-3.2,7.2-3.1,10.2c0.1,2.6,0.8,6.8,4,6.4
		c2.4-0.3,4.1-3,4.7-5.3c0.3-1.1,0.3-3,0.3-3.9c0.1-2.1,0.6-4,2.3-5.3c0.2-0.2,0.3-0.2-0.1-0.2c-0.4,0.1-3.1,1.2-4.3,2
		c-1.2,0.7-1.9,1.5-2.4,1.9c-0.5,0.4-0.5,0.6-0.2,0.6c0.3,0.1,0.6-0.2,1.3-0.5c0.7-0.3,0.7-0.6,1.2-0.6c0.5,0,0.3,0.3,0.5,0.9
		c0.2,0.5-0.2,1.6-0.5,1.9c-0.2,0.4-0.9,1.4-2.3,1c-1.3-0.3-1.3-2.3-1.2-3c0.2-0.8,0.4-2.3,1.5-3.7c1.1-1.4,2.7-2.2,4.3-1.2
		c0.4,0.2,0.6,0.2,0.6,0s0.1-2.2-0.1-3.8c-0.2-1.6-0.1-1.8-0.3-2C27.5,25.5,27.1,25.5,27.1,25.9L27.1,25.9z"/>
	<path class="st0" d="M32.3,33.8c0,0-0.2-0.2-0.6,0.1c-0.4,0.3-0.5,0.4-0.7,1c-0.2,0.6-0.5,1.6-0.6,2.3c-0.2,0.6-0.3,0.9-0.3,1.6
		s-0.1,0.8-0.2,1c-0.2,0.2-0.9,0.5-1.3,0.5c-0.4,0-0.3-0.2-0.2-0.5s0.6-1.4,0.9-2.7c0.3-1.3,0.9-3.3,1.2-5c0.2-1.6,0.5-3.5,0.4-4.2
		c-0.2-0.7-0.3-0.8-0.5-0.9c-0.3-0.1-0.2-0.3,0-0.3c0.2-0.1,0.5,0,1.1,0.1c0.6,0,1.1-0.1,1.2,0.2c0.2,0.3,0.2,0.9,0.3,1.9
		c0.2,1,0.5,2.9,0.9,4.6c0.5,1.7,1,3,1.1,3.1c0.1,0.2,0.2,0.2-0.1,0.2c-0.2,0.1-1.2,0.2-1.6,0.5c-0.5,0.3-0.5,0.4-0.9,0.4
		s-0.2-0.6-0.1-0.9c0.2-0.3,0.2-1.8,0.1-2.3C32.3,34.1,32.3,33.8,32.3,33.8L32.3,33.8z M31.8,29.4c-0.1,0.3-0.1,1.2-0.2,1.9
		c-0.2,0.9-0.2,1.1,0.2,1.1c0.3-0.1,0.8-0.2,0.8-0.5s-0.2-1.5-0.3-2C32,29.3,31.9,28.9,31.8,29.4L31.8,29.4z"/>
	<path class="st0" d="M35.5,26.1c-0.5,0.2-1,0.2-1.6,0.9c-0.5,0.7-0.4,1.6,0.1,2c0.5,0.5,1.4,0.9,2.1,1.4s1.3,1.3,1.5,1.8
		c0.2,1.2-0.6,1.5-1.2,0.5c-0.3-0.5-1.2-1.6-1.6-2.1c-0.2-0.2-0.3-0.5-0.5-0.6c-0.2-0.1-0.5,0-0.2,0.6c0.1,0.2,0.8,1.3,1.1,2.5
		c0.3,1.2,0.7,2.1,0.9,3c0.2,0.9,0.3,1.2,0.5,1.2c0.2,0,0.2-1.6,1.3-1.2c0.3,0.1,1.1,0.1,1.6-0.5c0.5-0.6,0.7-1.4,0.3-2.8
		c-0.5-2.2-2.3-2.9-3.7-3.8c-1.2-0.8-0.2-2.2,0.9-1.2c0.4,0.4,0.6,0.8,0.6,0.8s0.2-0.2,0.1-0.5c0-0.4-0.2-0.6-0.2-1.2
		c-0.1-0.4,0.1-0.7,0-0.9C37.1,25.4,36.5,25.8,35.5,26.1L35.5,26.1z"/>
	<path class="st0" d="M38.1,25.5c0,0-0.2,0-0.2,0.2c-0.1,0.2,0.2,0.6,0.2,0.9c0,0.2,0.2,1.6,0.3,2.3c0.1,0.6,0.2,0.7,0.4,0.5
		s0.2-1.1,0.5-1.6c0.3-0.5,0.5-0.5,0.9-0.2c0.3,0.2,0.5,1,0.7,2.6c0.2,1.6,0.5,3.3,0.4,4c-0.1,0.8,0,1.1,0.2,1
		c0.2-0.1,0.7-0.3,1.2-0.4c0.5-0.1,0.8,0,0.8-0.2s-0.3-0.8-0.6-1.7c-0.4-0.9-0.9-2.6-1-3.4s-0.2-1.5,0.1-2c0.2-0.5,0.4-0.6,0.7-0.5
		c0.2,0.2,0.7,0.6,0.9,1c0.3,0.4,0.5,0.3,0.5,0c0.1-0.3-0.1-0.5-0.2-1.3c-0.1-0.8-0.2-1.3-0.1-1.6c0.1-0.2-0.1-0.2-0.3-0.1
		c-0.3,0.2-0.7,0.5-1.8,0.7c-1.2,0.2-2.1,0-2.5-0.2C38.5,25.5,38.1,25.5,38.1,25.5L38.1,25.5z"/>
	<path class="st0" d="M44.1,25.2c0,0,0.4,0.9,0.5,3.9c0.2,3-0.2,4.7-0.2,5.4c-0.1,0.6,0,0.8,0.2,1.1c0.2,0.3,0.2,0.1,0.6-0.2
		c0.4-0.3,0.8-0.6,1.1-0.6c0.3-0.1,0.3-0.2,0.2-0.6c-0.1-0.4-0.2-1.6-0.5-2.8c-0.2-1.2-0.2-1.6-0.1-1.6c0.1,0,0.2-0.2,0.5,0.4
		c0.3,0.5,0.5,1.9,1,3c0.5,1.2,1.7,2.4,3,1.5c0.4-0.3,0.5-0.8,0.5-1c0-0.4-0.4-0.5-0.6-0.5s0,0.2-0.3,0.3c-0.3,0.1-0.6-0.5-1.1-1.2
		c-0.5-0.8-0.2-2.3-0.8-2.9c-0.2-0.2-0.4-0.1-0.1-0.4c0.3-0.3,0.8-0.5,1.1-1.2c1.2-2.3-0.5-3.6-2.2-3.3c-0.5,0.1-1.5,0.3-2,0.5
		S44.3,25,44.1,25C44,25.1,44.1,25.2,44.1,25.2L44.1,25.2z M45.6,26.2c0,0-0.2-0.6,0.2-0.7c1.4-0.4,2,1.3,1,2.2
		c-0.5,0.4-0.5,0.5-0.8,0.5c-0.2,0-0.2-0.2-0.3-0.5C45.9,27.4,45.6,26.2,45.6,26.2L45.6,26.2z"/>
	<path class="st0" d="M50.1,28.1c0.2-1.5,0.9-4.2,3-4.4c0.5-0.1,1.2,0.2,1.7,0.9c0.7,1,0.8,1.8,0.9,1.9c0.1,0.2,0.4-0.1,0.3-1
		c-0.1-0.9-0.2-1.5-0.6-1.8c-0.5-0.3-0.7-0.6-0.5-0.7c0.2-0.1,1.6,0,2.3,0.5s1.9,3.7,2.4,4.4s0.7,1.1,0.7,0.7c0-0.3-0.3-2.6-0.4-3.6
		c-0.1-0.9-0.1-1.6,0.1-1.7c0.2-0.1,0.1,0.1,0.5,0.2c0.5,0.2,0.9-0.1,1.3-0.2c0.5-0.2,0.5,0.1,0.5,0.1s-0.7,0.2-0.8,0.6
		c-0.1,0.4-0.4,2.5-0.3,3.9s0.5,5,0.5,5s-0.2,0.2-0.9-0.5c-0.6-0.6-2-2.9-2.5-3.8c-0.5-1-0.5-1.1-0.8-1.2c-0.2,0-0.2,0.1-0.1,0.6
		c0.1,0.5,0.3,2.6,0.4,3.1c0.1,0.5,0.2,0.5,0.4,0.6c0.2,0.2,0.3,0.4,0.2,0.5c-0.2,0.2-0.4,0-0.9,0.2c-0.5,0.2-0.9,0.5-1.3,0.9
		c-0.5,0.5-0.8,0.4-0.8,0.1s0.5-1.9,0.6-2.7c0.1-0.7,0.2-1.6,0-1.6C55.9,29,56,29,55.9,29.4c-0.1,0.4-0.3,1.9-1.2,2.8
		c-1.1,1.1-2.7,1-3.6,0C50.1,31.2,49.9,29.5,50.1,28.1L50.1,28.1z M53.3,30.6c0.5-0.3,0.9-1.3,0.9-2.6c0.1-0.6-0.2-2.5-1.1-2.5
		c-1.2,0-1.7,2.4-1.5,4C51.8,30.5,52.6,31.1,53.3,30.6L53.3,30.6z"/>
	<path class="st0" d="M62.2,29.7c-0.5-1.8-0.3-3.9,0.8-5.4c0.5-0.7,1-1,1.6-0.9c2.7,0.5,2.9,6.4,0.8,7.8
		C64.3,31.9,62.7,31.1,62.2,29.7L62.2,29.7z M63.3,26.6c-0.3,1.7,0.2,3,0.9,2.9c0.7-0.1,1.1-0.9,1.2-2.2
		C65.7,24.9,63.8,23.5,63.3,26.6L63.3,26.6z"/>
	<path class="st0" d="M67,23.3c0.5,2.1,0.5,6-0.3,8.6c-0.2,0.5-0.3,0.7,0,0.7s1.2-0.2,1.7,0c0.6,0.1,0.9,0.1,0.9,0.1
		s-0.2-0.5-0.4-1.5c-0.2-1-0.2-2.6-0.2-3.1c0-0.5-0.1-0.8,0.1-0.6c0.2,0.2,1,2.1,1.2,2.6c0.3,0.5,0.5,0.7,0.6,0.5
		c0.1-0.5-0.2-2.2,0.2-2.5c0.2-0.2,0.3-0.1,0.3,0.4c0,0.5,0.2,2.2,0.2,3c0.1,0.8,0.1,1.1,0.5,0.9c0.5-0.2,1-0.2,1.5-0.2s0.7,0,0.7,0
		c-1.4-1.5-1.7-4.7-1.6-6.7c0.1-1,0-1.7,0.1-2.2c0.2-0.5,0.2-0.7,0.1-0.5c-1.7,1.3-2.3,3.5-2.7,4.7c0,0.1-0.2-0.2-0.3-0.5
		c-0.5-1.1-1.6-2.8-2-3.1c-0.1-0.1-0.2-0.3-0.4-0.4C67.2,23,67,23,67,23.3L67,23.3z"/>
	<path class="st0" d="M74,22.4c0,0-0.4-0.1-0.2,0.4c0.1,0.4,0.2,0.5,0.3,1.2c0.2,0.8,0.2,3.4,0.2,4.4c0,1,0.1,2.9,0.1,2.9
		s0.8-0.2,1.2-0.3c0.4-0.1,0.7,0.2,0.9,0c0.1-0.2,0.1-0.4,0-0.8c-0.4-1.7-0.6-3.1-0.8-4.9c-0.2-1.3-0.3-2.6-0.5-2.8
		C75.1,22.4,74,22.4,74,22.4L74,22.4z"/>
	<path class="st0" d="M19.3,49.4c0.2-0.6,1.2-1,1.7-1.2s3.1-0.3,4.8-1.2c1.7-0.9,3.9-2.6,4.7-3.7c0.9-1.1,1.6-2.1,1.9-3.1
		c0.4-1,0.5-1.2,0.6-1.3c0.2-0.1,0.5-0.2,0.5,0.3c0.1,0.5,0,1.4-0.1,2.2c-0.2,0.9-0.2,1.2-0.4,1.9c-0.1,0.6,0,0.7-0.3,0.9
		c-0.3,0.2-1.1,0.3-2.4,1.2c-1.3,0.9-2.8,2-3.7,3.5c-0.9,1.5-0.9,1.6-0.7,1.9c0.2,0.3,1.2-0.1,1.6-0.8c0.4-0.7,0.4-0.9,0.5-0.9
		c0.2-0.1,0.4,0.1,0.3,0.2c0,0.2-0.2,0.8-0.2,1.7c0.1,0.9,0.1,1.3,0.2,1.6c0.1,0.4,0,0.4-0.1,0.5c-0.1,0-0.1-0.2-0.5-0.2
		c-0.5,0-1,0.3-1.2,1.1c-0.2,0.8-0.2,1.2,0.2,1.9c0.3,0.7,0.5,1,0.6,1.2c0.1,0.2,0.1,0.2-0.1,0.2c-0.2,0.1-0.5,0-1.3,0.3
		c-0.9,0.3-2.1,1.2-2.9,1.8c-0.9,0.6-0.8,0.6-1.2,0.8c-0.4,0.1-0.5-0.2-0.2-0.5s0.6-0.5,1-1.6c0.5-1,0.9-1.9,0.9-3.8
		s-0.1-2.3-0.4-2.7c-0.3-0.4-0.7-0.2-0.9,0c-0.2,0.2-0.3,0.6-0.5,0.8c-0.1,0.2-0.4,0.1-0.6-0.3C21,51.4,19,50.5,19.3,49.4L19.3,49.4
		z"/>
	<path class="st0" d="M29.1,48.4c0,0,0.1-0.2,0.4-0.2c0.3,0.2,0.3,0.4,0.5,1.6c0.2,1.1,0.3,2.2,0.1,3.1c-0.2,0.9-0.3,0.9-0.4,1.3
		s0.2,0.5,0.4,0.4c0.2-0.2,0.5-0.7,1.2-1c0.5-0.4,0.9-0.5,0.9-0.8s-0.2-0.5-0.5-1.1c-0.2-0.6-0.4-1.9-0.3-2.5s0.2-0.7,0.3-0.9
		c0.2-0.2,0.3-0.2,0.4-0.2c0.2,0.1,0.3,0.2,0.6,0c0.2-0.2,0.5-0.6,0.5-1.5c0.2-1.6-1.4-1.2-2.1-0.2c-0.3,0.5-0.5,0.8-0.5,0.9
		c-0.1,0.1-0.3-0.1-0.2-0.2c0-0.2,0-0.2-0.2-0.2c-0.2,0-1.1,0.8-1.4,1.1c-0.3,0.3-0.3,0.2-0.2,0.4C28.9,48.5,29.1,48.4,29.1,48.4
		L29.1,48.4z"/>
	<path class="st0" d="M33.8,44.9c0.2-0.2,0.8-0.3,1.1-0.4s0.5-0.3,0.5,0.3c0.1,0.6-0.2,1.6-0.4,2.2s-0.4,1.4-0.2,1.6
		c0.9,1,1.2-1,1.1-1.7c-0.1-0.6,0.2-2,0.3-2.6c0.2-0.9,0.7-0.8,0.9-0.5c0.2,0.3,0.2,0.8,0.2,1.2c0,0.8-0.2,1.1-0.2,1.9
		c-0.1,0.9,0.2,1.1,0.4,1c0.2,0,0.4-0.2,0.5-0.3c0.1,0,0.2,0,0,0.3c-0.2,0.2-0.2,0.6-0.6,0.7c-0.4,0.2-0.5-0.1-0.8-0.2
		c-0.2-0.1-0.3-0.1-0.4,0.2c-0.1,0.2-0.4,0.8-1.2,0.9c-1.9,0.5-1.2-2.5-1.1-3.5c0.1-0.6,0-0.9,0-1C33.9,45.2,33.5,45,33.8,44.9
		L33.8,44.9z"/>
	<path class="st0" d="M35.4,41.9c0.2-0.2,1.2-0.4,1.8-0.6c0.6-0.2,0.9-0.2,1-0.6s-0.1-1,0.1-1.2c0.2-0.2,0.4-0.2,0.9-0.3
		c0.5-0.1,0.8-0.1,0.7,0.1c-0.1,0.2-0.2,0.4-0.1,0.9c0.1,0.5,0,0.4,0.4,0.3s0.8-0.2,0.8-0.2s-0.1-1.1,0-1.2s0.6-0.2,0.9-0.3
		c0.4-0.2,0.5-0.1,0.5,0.2s-0.1,0.6,0.2,0.8c0.2,0.2,0.9-0.2,1.6-0.5c0.7-0.2,1.5-0.8,1.9-0.9c0.5-0.1,0.5,0,0.5,0.5
		c0.1,0.5,0,0.5-0.5,0.6c-0.5,0.2-2.3,0.7-2.9,0.9c-0.5,0.2-0.8,0.2-0.8,0.5c0,0.4,0.3,2.6,0.3,3.7c0.1,1.1,0.2,1.6,0.5,1.9
		s0.5,0,0.5,0.3s-0.5,0.8-1.3,0.5c-0.8-0.2-1-1.3-1.2-2.6S41,42.5,41,42.1s0-0.8-0.2-0.9s-0.5-0.1-0.8,0.1c-0.2,0.1-0.3,0.3-0.3,0.8
		c0.1,0.5,0.2,2,0.2,2.5c0.1,0.5,0.2,1.2,0.5,1.9c0.4,0.8,0.5,0.6,0.8,0.7c0.2,0,0.2,0.1-0.1,0.4c-0.3,0.3-1.3,0.6-1.9,0
		c-0.6-0.7-0.5-1.4-0.7-2.3c-0.1-0.9-0.2-1.8-0.2-2.5s0-0.9-0.3-0.9c-0.5,0-1.9,0.4-2.6,0.8C35,43.2,35,42.3,35.4,41.9L35.4,41.9z"
		/>
	<path class="st0" d="M46.5,41.4c0,0-0.5-0.5-1.3-0.3c-0.9,0.2-1.6,1-1.9,2.1c-0.3,1,0.2,2.2,0.8,2.5c0.6,0.4,1.2,0.2,1.6-0.1
		c0.5-0.2,0.7-0.9,0.9-0.9c0.2-0.1,0.2,0.2,0.2,0.4s0.2,0.3,0.5,0.5c0.3,0.2,0.2,0.3,0.4,0.2c0.2-0.1,0.5-0.2,0.5-0.2
		s-0.3-0.2-0.5-1.2c-0.2-1-0.2-2.4-0.1-2.8c0.1-0.3,0.2-0.8,0-0.9s-0.5,0-0.6,0.2s-0.1,0.3-0.2,0.5C46.6,41.5,46.5,41.4,46.5,41.4
		L46.5,41.4z M45.9,42.1c0,0-0.7,0.3-0.9,1.2c-0.2,0.9,0.3,1.2,0.6,1.1c0.2-0.1,0.6-0.5,0.7-1.2c0.1-0.7-0.1-0.9-0.2-1
		C46,42.1,45.9,42.1,45.9,42.1L45.9,42.1z"/>
	<path class="st0" d="M50.2,44.2c0,0,1.2-0.6,1.5-0.9c0.2-0.2,0.2-0.3,0-0.6c-0.2-0.4-0.8-0.5-1.5-0.3c-0.9,0.3-1.6,1.4-1.2,2.3
		c0.2,0.5,0.6,0.8,1.2,0.8c0.8,0,1.8-0.9,1.6-1.7c0-0.1-0.2-0.1-0.2,0.1c-0.1,0.5-1.1,1-1.6,0.6C50.1,44.3,50.2,44.2,50.2,44.2
		L50.2,44.2z M50.1,43.4c0,0,0.2-0.3,0.5-0.5c0.4-0.2,0.5,0,0.5,0.1s-0.5,0.4-0.8,0.5C50.1,43.5,50.1,43.4,50.1,43.4L50.1,43.4z"/>
	<path class="st0" d="M50.4,39.1c0,0,0.5-0.5,1-0.4c0.5,0.2,1,1.5,1.2,3.3c0.2,1.7,0.1,2.9-0.1,3.8c-0.2,0.9-0.2,1.2-0.5,1.6
		c-0.2,0.4-0.1,0.5,0.4,0.3c0.5-0.2,1.9-2.1,2.7-3.4c0.4-0.6,0.9-1.3,1.4-2.1c0.6-1.2,1-2.1,1.7-2.9c1.1-1.2,2.6-2,4.7-2.4
		c1.6-0.3,2.4-0.5,2.9-0.6c0.5-0.2,0.5-0.5,0.2-0.5c-0.2,0-0.5,0.2-1.1,0.2s-2.8-0.1-4.1,0.1c-2.9,0.3-4.7,1.7-5.8,4.5
		c-0.3,0.8-0.5,0.9-0.5,0.9s0-0.3-0.2-1.4c-0.5-2.5-1.9-3.9-3.7-2.6c-0.7,0.5-0.9,1.4-0.9,1.6C49.9,39.3,50.4,39.1,50.4,39.1
		L50.4,39.1z"/>
	<path class="st0" d="M57.8,43.2c0,0,0.9-0.1,1.8-0.6c0.4-0.2,0.8-0.5,0.9-0.9c0.2-0.5-0.1-0.9-0.5-1.1c-1.3-0.5-2.6,0.8-3,1.9
		c-0.4,1-0.2,2,0.5,2.3c0.8,0.4,2.3,0.1,2.6-1.2c0.1-0.2-0.2-0.2-0.3-0.2c-0.1,0.1-0.3,0.4-0.8,0.5c-0.5,0.1-0.9,0-1.1-0.3
		C57.6,43.5,57.8,43.2,57.8,43.2L57.8,43.2z M57.8,42.8c0,0-0.2-0.2,0.1-0.6s0.6-0.9,0.9-1c0.5-0.2,0.7,0.2,0.6,0.5
		c0,0.2-0.2,0.3-0.4,0.5c-0.3,0.2-0.6,0.5-0.9,0.5C57.9,42.9,57.8,42.8,57.8,42.8L57.8,42.8z"/>
	<path class="st0" d="M60.4,40.2c0.2-0.1,0.8-0.3,1.1-0.4c0.3-0.2,0.3-0.2,0.5-0.2c0.2,0,0.2,0.1,0.2,0.2c0,0.1-0.2,0.2-0.3,0.3
		c0,0.2,0.2,0.2,0.3,0.1c0.3-0.5,1.2-1.4,1.8-1.1c0.2,0.1,0.3,0.2,0.3,0.5c0,0.6-0.5,1.1-0.8,1.2c-0.2,0.2-0.3,0.1-0.5,0
		c-0.1-0.1-0.2-0.1-0.3,0c-0.6,0.5-0.8,1.9-0.5,2.6c0.1,0.5,0.2,0.6,0.2,0.8c-0.1,0.2-0.6,0.3-1,0.5c-0.3,0.2-0.7,0.2-0.7,0
		s0.2-0.4,0.3-1.4c0.1-0.9,0.3-2.1-0.2-2.7C60.5,40.4,60.3,40.3,60.4,40.2L60.4,40.2z"/>
	<path class="st0" d="M67,36.1c0,0,0.5,0.9,0.5,1.8c-0.1,0.9-0.1,1.2-0.2,1.2C67,39.2,67,38.9,66.4,39c-0.5,0.2-1.6,0.9-2.1,2
		c-0.5,1-0.6,1.9-0.2,2.3c0.4,0.5,1.5,0.4,2.5-0.3c0.4-0.2,0.5-0.5,0.6-0.2c0.2,0.2,0.4,0.5,0.6,0.7c0.3,0.2,0.9,0,0.9,0
		C68,41.9,68.3,40,68.3,38c0-1.2-0.1-1.3,0-1.6s0.4-0.5,0-0.4s-0.9,0.2-1.2,0C66.9,35.8,67,36.1,67,36.1L67,36.1z M66.2,40
		c0,0-0.8,0.5-0.9,1.2c-0.2,0.7,0.2,1,0.8,0.9C66.8,41.8,67.3,39.8,66.2,40L66.2,40z"/>
	<path class="st0" d="M74.1,36.9c0,0-0.2,0.2-0.5,0.3c-0.2,0.2-0.4,0.2-0.4,0.5c0,0.3,0.4,2.1,0.5,3.3c0.2,1.2,0.1,1.6,0.5,1.5
		c0.4-0.1,0.5-0.3,0.9-0.4c0.4-0.1,0.6-0.2,0.6-0.3s-0.2-0.2-0.3-0.5c-0.2-0.2-0.6-1-0.6-2.3c0-1.2,0.2-1.5,0.2-1.6
		c0.1,0,0,0.2,0.3,0.5c0.3,0.2,0.5,0.2,0.9-0.2c0.5-0.8,0.3-1.8-0.1-2c-0.4-0.3-1,0.2-1.6,1.2c-0.2,0.3-0.1,0.5-0.2,0.4
		c-0.2-0.1-0.1-0.2-0.2-0.3C74.3,37,74.1,36.9,74.1,36.9L74.1,36.9z"/>
	<path class="st0" d="M69.1,38.8c0,0-0.3,0.2-0.2,0.2c0,0.1,0.3,0.2,0.4,0.5s0,1.9-0.1,2.6s0.2,1.8,1.1,1.7c0.9-0.1,1.4-0.8,1.7-1
		c0.3-0.2,0.3-0.2,0.5,0c0.2,0.2,0.3,0.4,0.6,0.4c0.2,0,0.5-0.5,0.5-0.7c0.1-0.2,0.1-0.1-0.2-0.1c-0.2,0-0.5,0-0.6-0.6
		c-0.1-0.6-0.1-2.3,0-2.8c0.1-0.5,0-0.9-0.1-1.2c-0.1-0.2-0.2,0-0.5,0.2c-0.3,0.2-0.4,0.5-0.3,1.1c0,0.5,0,1.9-0.1,2.3
		c-0.1,0.5-0.5,0.9-0.6,0.9c-0.2,0.1-0.4,0-0.6-0.4c-0.2-0.4-0.2-1.7-0.2-2.3c0.1-0.5,0-0.9,0.1-1c0.1-0.2,0.1-0.4-0.1-0.4
		c-0.2-0.1-0.3,0.1-0.6,0.2C69.4,38.7,69.1,38.8,69.1,38.8L69.1,38.8z"/>
	<path class="st1" d="M37.2,64.7c0.2-0.4,0.3-0.8,0.5-1.1c0.2-0.3,0.2-0.5,0.4-0.7c0.1-0.1,0.2-0.2,0.2-0.2c0.1-0.1,0.2-0.1,0.3-0.2
		l0.2-0.1l0.1-0.1c0-0.1,0-0.1,0-0.2c0-0.1,0-0.1-0.1-0.1c-0.2,0-0.3,0-0.5,0c-0.2,0-0.3,0-0.5,0c-0.2,0-0.4,0-0.6,0
		c-0.2,0-0.4,0-0.6,0c-0.1,0-0.1,0.1-0.1,0.1c0,0.1,0,0.1,0,0.2s0,0.1,0.1,0.2l0.3,0.1c0.1,0,0.2,0.1,0.2,0.1c0.1,0,0.1,0,0.1,0.1
		v0.1c0,0,0,0.1,0,0.2s-0.1,0.2-0.1,0.2c0,0.1-0.1,0.2-0.1,0.3C37,63.7,37,63.8,36.9,64c-0.1,0.2-0.2,0.3-0.2,0.5
		c-0.1,0.2-0.2,0.3-0.2,0.5c-0.1,0.2-0.2,0.3-0.2,0.5l-0.5,0.9c-0.1,0.2-0.2,0.3-0.2,0.5c-0.1,0.2-0.1,0.2-0.2,0.3
		c0-0.1-0.1-0.2-0.2-0.3c-0.1-0.2-0.1-0.3-0.2-0.5L34.4,64c-0.1-0.2-0.2-0.4-0.2-0.5s-0.1-0.3-0.2-0.4c0-0.1-0.1-0.2-0.1-0.2
		c0-0.1,0-0.1,0.1-0.2c0.1,0,0.1-0.1,0.2-0.1l0.3-0.1c0,0,0-0.1,0.1-0.2c0-0.1,0-0.1,0-0.2s0-0.1-0.1-0.1c-0.2,0-0.4,0-0.5,0
		s-0.3,0-0.5,0s-0.3,0-0.5,0s-0.3,0-0.5,0s-0.3,0-0.5,0s-0.3,0-0.5,0l-0.1,0.1c0,0.1,0,0.1,0,0.2s0,0.1,0.1,0.2l0.4,0.1
		c0.1,0,0.2,0.1,0.2,0.1s0.1,0.1,0.2,0.2c0.1,0.1,0.1,0.2,0.2,0.3c0.1,0.2,0.2,0.3,0.2,0.6l1.6,4.3c0,0.1,0.1,0.2,0.1,0.3
		c0,0.1,0.1,0.2,0.1,0.3s0.1,0.2,0.1,0.3s0.1,0.2,0.1,0.2l0.1,0.1c0.1,0,0.1,0,0.2,0c0.1,0,0.2,0,0.2,0s0.1,0,0.2-0.1
		c0.1-0.2,0.2-0.4,0.2-0.7c0.1-0.2,0.2-0.5,0.3-0.9c0.2-0.3,0.3-0.7,0.5-1.1L37.2,64.7L37.2,64.7z M41,66.7c0.2,0,0.2,0,0.3,0
		c0.1,0,0.1,0,0.2,0.1c0,0,0.1,0.1,0.1,0.2l0.3,0.9c0.1,0.2,0.1,0.4,0.2,0.5c0,0.2,0.1,0.2,0.1,0.2v0.1L42,68.8
		c-0.1,0-0.1,0-0.2,0.1l-0.3,0.1c0,0-0.1,0.1-0.1,0.2s0,0.1,0,0.2s0.1,0.1,0.1,0.1c0.2,0,0.3,0,0.5,0s0.3,0,0.5,0c0.2,0,0.3,0,0.5,0
		c0.2,0,0.5,0,0.8,0c0.2,0,0.5,0,0.8,0l0.1-0.1c0-0.1,0-0.1,0-0.2s0-0.1-0.1-0.1l-0.4-0.1c-0.2,0-0.2-0.1-0.3-0.2
		c-0.1-0.1-0.2-0.2-0.2-0.3c-0.1-0.2-0.2-0.3-0.2-0.5L42,63.9c-0.1-0.2-0.2-0.5-0.2-0.6s-0.1-0.3-0.2-0.5c-0.1-0.2-0.1-0.2-0.1-0.3
		s-0.1-0.2-0.1-0.2s-0.1-0.1-0.2-0.1c0,0,0,0-0.1,0.1c-0.1,0.1-0.1,0.1-0.2,0.2c-0.1,0.1-0.2,0.2-0.3,0.2c-0.1,0.1-0.2,0.1-0.3,0.2
		c0,0.1,0,0.2,0,0.3c0,0.2-0.1,0.2-0.2,0.4c-0.1,0.2-0.2,0.4-0.2,0.5l-0.9,2.6c-0.1,0.2-0.2,0.5-0.2,0.7s-0.2,0.4-0.2,0.5
		s-0.2,0.3-0.2,0.5c-0.1,0.2-0.2,0.2-0.2,0.3c-0.1,0.1-0.2,0.2-0.2,0.2s-0.2,0.1-0.2,0.1h-0.3c0,0-0.1,0.1-0.1,0.2s0,0.1,0,0.2
		s0,0.1,0.1,0.1c0.2,0,0.3,0,0.4,0s0.2,0,0.3,0c0.1,0,0.2,0,0.3,0c0.2,0,0.4,0,0.6,0s0.4,0,0.5,0l0.1-0.1c0-0.1,0-0.1,0-0.2
		s0-0.1-0.1-0.1l-0.3-0.1c-0.2,0-0.2-0.1-0.3-0.1c-0.1,0-0.1-0.1-0.1-0.1s0-0.1,0-0.2s0-0.2,0.1-0.2l0.4-1.2c0-0.1,0.1-0.1,0.1-0.2
		l0.1-0.1c0.1,0,0.1,0,0.2,0H41C41,66.9,41,66.7,41,66.7z M40,66.2c-0.1,0-0.2,0-0.2,0c-0.1,0-0.1-0.1-0.1-0.1c0-0.1,0-0.1,0.1-0.2
		l0.2-0.8c0.1-0.2,0.1-0.3,0.2-0.5c0.1-0.2,0.1-0.3,0.2-0.4c0.1-0.2,0.1-0.2,0.2-0.3c0,0.1,0.1,0.2,0.1,0.3c0.1,0.1,0.1,0.2,0.2,0.4
		c0.1,0.2,0.1,0.3,0.2,0.5l0.2,0.9c0,0.1,0.1,0.2,0,0.2c0,0.1,0,0.1-0.1,0.1s-0.1,0-0.2,0L40,66.2L40,66.2z M45.2,67.7
		c0,0.2,0,0.4,0,0.5s0,0.2-0.1,0.3c0,0.1-0.1,0.2-0.2,0.2c-0.1,0-0.2,0.1-0.3,0.1l-0.3,0.1l-0.1,0.1c0,0.1,0,0.1,0,0.2
		s0,0.1,0.1,0.1c0.2,0,0.3,0,0.5,0c0.2,0,0.3,0,0.5,0c0.2,0,0.3,0,0.5,0c0.2,0,0.5,0,0.7,0c0.2,0,0.5,0,0.8,0l0.1-0.1
		c0-0.1,0-0.1,0-0.2s0-0.1-0.1-0.1L47,68.8c-0.1,0-0.2-0.1-0.3-0.1c-0.1,0-0.2-0.1-0.2-0.2s-0.1-0.2-0.1-0.3c0-0.2,0-0.3,0-0.5v-1.3
		c0-0.1,0-0.2,0-0.2l0.1-0.1c0.1,0,0.2,0,0.2,0c0.2,0,0.2,0,0.3,0.1c0.1,0.1,0.2,0.2,0.2,0.3c0.1,0.3,0.2,0.5,0.4,0.8
		s0.2,0.5,0.5,0.8c0.2,0.2,0.3,0.5,0.5,0.6c0.2,0.2,0.4,0.3,0.6,0.4c0.2,0.1,0.5,0.2,0.9,0.2c0.1,0,0.2,0,0.3,0c0.1,0,0.2,0,0.3,0
		c0.1,0,0.2,0,0.2-0.1v-0.1V69c0,0,0-0.1-0.1-0.1s-0.2,0-0.3-0.1s-0.2-0.1-0.4-0.2c-0.2-0.2-0.3-0.3-0.5-0.5
		c-0.2-0.2-0.3-0.5-0.5-0.9c-0.2-0.3-0.4-0.8-0.6-1.2c0-0.1,0-0.1,0-0.2c0,0,0-0.1,0.1-0.1c0.2-0.1,0.2-0.2,0.4-0.2
		c0.2-0.1,0.2-0.2,0.3-0.3c0.1-0.2,0.2-0.2,0.2-0.5c0.1-0.2,0.1-0.4,0.1-0.6c0-0.3-0.1-0.6-0.2-0.9c-0.2-0.2-0.4-0.5-0.7-0.6
		c-0.2-0.1-0.3-0.2-0.5-0.2c-0.2-0.1-0.4-0.1-0.7-0.2c-0.2,0-0.5-0.1-0.8-0.1c-0.3,0-0.6,0-0.9,0s-0.5,0-0.9,0c-0.2,0-0.5,0-0.8,0.1
		c-0.1,0-0.1,0.1-0.1,0.1c0,0.1,0,0.1,0,0.2s0,0.1,0.1,0.1l0.3,0.1c0.1,0,0.2,0,0.2,0.1c0.1,0,0.1,0.1,0.2,0.2
		c0,0.1,0.1,0.2,0.1,0.4s0,0.4,0,0.6v3.8C45,67.7,45.2,67.7,45.2,67.7z M46.6,63.2c0-0.2,0-0.3,0-0.4s0.1-0.2,0.2-0.2
		c0.1,0,0.2,0,0.3,0c0.2,0,0.5,0.1,0.7,0.2c0.2,0.2,0.4,0.3,0.5,0.5c0.1,0.2,0.2,0.5,0.2,0.9c0,0.2,0,0.4-0.1,0.5
		c0,0.2-0.1,0.2-0.2,0.4C48,65.3,48,65.3,48,65.4s-0.2,0.2-0.3,0.2c-0.2,0.1-0.2,0.1-0.5,0.1c-0.2,0-0.2,0-0.4,0
		c-0.1,0-0.2,0-0.2-0.1c-0.1,0-0.1-0.1-0.1-0.2c0-0.1,0-0.2,0-0.2L46.6,63.2L46.6,63.2z M55.5,64.7c0.2-0.4,0.3-0.8,0.5-1.1
		c0.2-0.3,0.2-0.5,0.4-0.7c0.1-0.1,0.2-0.2,0.2-0.2c0.1-0.1,0.2-0.1,0.3-0.2l0.2-0.1l0.1-0.1c0-0.1,0-0.1,0-0.2c0-0.1,0-0.1-0.1-0.1
		c-0.2,0-0.3,0-0.5,0c-0.2,0-0.3,0-0.5,0c-0.2,0-0.4,0-0.6,0c-0.2,0-0.4,0-0.6,0c-0.1,0-0.1,0.1-0.1,0.1c0,0.1,0,0.1,0,0.2
		s0,0.1,0.1,0.2l0.3,0.1c0.1,0,0.2,0.1,0.2,0.1c0.1,0,0.1,0,0.1,0.1v0.1c0,0,0,0.1,0,0.2s-0.1,0.2-0.1,0.2s-0.1,0.2-0.1,0.3
		c-0.1,0.2-0.1,0.2-0.2,0.5c-0.1,0.2-0.2,0.3-0.2,0.5c-0.1,0.2-0.2,0.3-0.2,0.5c-0.1,0.2-0.2,0.3-0.2,0.5l-0.5,0.9
		c-0.1,0.2-0.2,0.3-0.2,0.5C54,67,54,67.1,54,67.1c0-0.1-0.1-0.2-0.2-0.3c-0.1-0.2-0.1-0.3-0.2-0.5L52.8,64
		c-0.1-0.2-0.2-0.4-0.2-0.5s-0.1-0.3-0.2-0.4c0-0.1-0.1-0.2-0.1-0.2c0-0.1,0-0.1,0.1-0.2c0.1,0,0.1-0.1,0.2-0.1l0.3-0.1
		c0,0,0-0.1,0.1-0.2c0-0.1,0-0.1,0-0.2s0-0.1-0.1-0.1c-0.2,0-0.4,0-0.5,0s-0.3,0-0.5,0c-0.2,0-0.3,0-0.5,0c-0.2,0-0.3,0-0.5,0
		s-0.3,0-0.5,0c-0.2,0-0.3,0-0.5,0L50,62.2c0,0.1,0,0.1,0,0.2s0,0.1,0.1,0.2l0.4,0.1c0.1,0,0.2,0.1,0.2,0.1c0.1,0,0.1,0.1,0.2,0.2
		c0.1,0.1,0.1,0.2,0.2,0.3c0.1,0.2,0.2,0.3,0.2,0.6l1.6,4.3c0,0.1,0.1,0.2,0.1,0.3c0,0.1,0.1,0.2,0.1,0.3c0,0.1,0.1,0.2,0.1,0.3
		c0,0.1,0.1,0.2,0.1,0.2l0.1,0.1c0.1,0,0.1,0,0.2,0c0.1,0,0.2,0,0.2,0s0.1,0,0.2-0.1c0.1-0.2,0.2-0.4,0.2-0.7
		c0.1-0.2,0.2-0.5,0.3-0.9c0.2-0.3,0.3-0.7,0.5-1.1L55.5,64.7L55.5,64.7z M59.3,66.7c0.2,0,0.2,0,0.3,0c0.1,0,0.1,0,0.2,0.1
		c0,0,0.1,0.1,0.1,0.2l0.3,0.9c0.1,0.2,0.1,0.4,0.2,0.5c0,0.2,0.1,0.2,0.1,0.2v0.1l-0.1,0.1c-0.1,0-0.1,0-0.2,0.1l-0.3,0.1
		c0,0-0.1,0.1-0.1,0.2s0,0.1,0,0.2s0.1,0.1,0.1,0.1c0.2,0,0.3,0,0.5,0c0.2,0,0.3,0,0.5,0c0.2,0,0.3,0,0.5,0c0.2,0,0.5,0,0.8,0
		s0.5,0,0.8,0l0.1-0.1c0-0.1,0-0.1,0-0.2s0-0.1-0.1-0.1l-0.4-0.1c-0.2,0-0.2-0.1-0.3-0.2s-0.2-0.2-0.2-0.3c-0.1-0.2-0.2-0.3-0.2-0.5
		l-1.6-4.3c-0.1-0.2-0.2-0.5-0.2-0.6c-0.1-0.2-0.1-0.3-0.2-0.5c-0.1-0.2-0.1-0.2-0.1-0.3s-0.1-0.2-0.1-0.2s-0.1-0.1-0.2-0.1
		c0,0,0,0-0.1,0.1c-0.1,0.1-0.1,0.1-0.2,0.2c-0.1,0.1-0.2,0.2-0.3,0.2c-0.1,0.1-0.2,0.1-0.3,0.2c0,0.1,0,0.2,0,0.3
		c0,0.2-0.1,0.2-0.2,0.4c-0.1,0.2-0.2,0.4-0.2,0.5l-0.9,2.6c-0.1,0.2-0.2,0.5-0.2,0.7s-0.2,0.4-0.2,0.5c-0.1,0.2-0.2,0.3-0.2,0.5
		c-0.1,0.2-0.2,0.2-0.2,0.3c-0.1,0.1-0.2,0.2-0.2,0.2s-0.2,0.1-0.2,0.1h-0.3c0,0-0.1,0.1-0.1,0.2c0,0.1,0,0.1,0,0.2s0,0.1,0.1,0.1
		c0.2,0,0.3,0,0.4,0s0.2,0,0.3,0c0.1,0,0.2,0,0.3,0c0.2,0,0.4,0,0.6,0s0.4,0,0.5,0l0.1-0.1c0-0.1,0-0.1,0-0.2c0-0.1,0-0.1-0.1-0.1
		l-0.3-0.1c-0.2,0-0.2-0.1-0.3-0.1c-0.1,0-0.1-0.1-0.1-0.1s0-0.1,0-0.2s0-0.2,0.1-0.2l0.4-1.2c0-0.1,0.1-0.1,0.1-0.2l0.1-0.1
		c0.1,0,0.1,0,0.2,0L59.3,66.7L59.3,66.7z M58.3,66.2c-0.1,0-0.2,0-0.2,0c-0.1,0-0.1-0.1-0.1-0.1c0-0.1,0-0.1,0.1-0.2l0.2-0.8
		c0.1-0.2,0.1-0.3,0.2-0.5c0.1-0.2,0.1-0.3,0.2-0.4c0.1-0.2,0.1-0.2,0.2-0.3c0,0.1,0.1,0.2,0.1,0.3c0.1,0.1,0.1,0.2,0.2,0.4
		c0.1,0.2,0.1,0.3,0.2,0.5l0.2,0.9c0,0.1,0.1,0.2,0,0.2c0,0.1,0,0.1-0.1,0.1s-0.1,0-0.2,0L58.3,66.2L58.3,66.2z M63.5,67.7
		c0,0.2,0,0.4,0,0.5s0,0.2-0.1,0.3c0,0.1-0.1,0.2-0.2,0.2c-0.1,0-0.2,0.1-0.3,0.1l-0.3,0.1l-0.1,0.1c0,0.1,0,0.1,0,0.2
		s0,0.1,0.1,0.1c0.2,0,0.3,0,0.5,0c0.2,0,0.3,0,0.5,0s0.3,0,0.5,0c0.2,0,0.5,0,0.7,0s0.5,0,0.8,0l0.1-0.1c0-0.1,0-0.1,0-0.2
		s0-0.1-0.1-0.1l-0.3-0.1c-0.1,0-0.2-0.1-0.3-0.1s-0.2-0.1-0.2-0.2s-0.1-0.2-0.1-0.3c0-0.2,0-0.3,0-0.5v-1.3c0-0.1,0-0.2,0-0.2
		l0.1-0.1c0.1,0,0.2,0,0.2,0c0.2,0,0.2,0,0.3,0.1s0.2,0.2,0.2,0.3c0.1,0.3,0.2,0.5,0.4,0.8s0.2,0.5,0.5,0.8c0.2,0.2,0.3,0.5,0.5,0.6
		c0.2,0.2,0.4,0.3,0.6,0.4s0.5,0.2,0.9,0.2c0.1,0,0.2,0,0.3,0s0.2,0,0.3,0s0.2,0,0.2-0.1v-0.1V69c0,0,0-0.1-0.1-0.1s-0.2,0-0.3-0.1
		c-0.2-0.1-0.2-0.1-0.4-0.2c-0.2-0.2-0.3-0.3-0.5-0.5c-0.2-0.2-0.3-0.5-0.5-0.9c-0.2-0.3-0.4-0.8-0.6-1.2c0-0.1,0-0.1,0-0.2
		c0,0,0-0.1,0.1-0.1c0.2-0.1,0.2-0.2,0.4-0.2c0.2-0.1,0.2-0.2,0.3-0.3c0.1-0.2,0.2-0.2,0.2-0.5c0.1-0.2,0.1-0.4,0.1-0.6
		c0-0.3-0.1-0.6-0.2-0.9c-0.2-0.2-0.4-0.5-0.7-0.6c-0.2-0.1-0.3-0.2-0.5-0.2c-0.2-0.1-0.4-0.1-0.7-0.2c-0.2,0-0.5-0.1-0.8-0.1
		c-0.3,0-0.6,0-0.9,0c-0.3,0-0.5,0-0.9,0c-0.2,0-0.5,0-0.8,0.1c-0.1,0-0.1,0.1-0.1,0.1c0,0.1,0,0.1,0,0.2s0,0.1,0.1,0.1l0.3,0.1
		c0.1,0,0.2,0,0.2,0.1c0.1,0,0.1,0.1,0.2,0.2c0,0.1,0.1,0.2,0.1,0.4s0,0.4,0,0.6v3.8C63.3,67.7,63.5,67.7,63.5,67.7z M64.9,63.2
		c0-0.2,0-0.3,0-0.4s0.1-0.2,0.2-0.2c0.1,0,0.2,0,0.3,0c0.2,0,0.5,0.1,0.7,0.2c0.2,0.2,0.4,0.3,0.5,0.5c0.1,0.2,0.2,0.5,0.2,0.9
		c0,0.2,0,0.4-0.1,0.5c0,0.2-0.1,0.2-0.2,0.4c-0.1,0.1-0.1,0.2-0.2,0.2c-0.1,0.1-0.2,0.2-0.3,0.2c-0.2,0.1-0.2,0.1-0.5,0.1
		c-0.2,0-0.2,0-0.4,0c-0.1,0-0.2,0-0.2-0.1c-0.1,0-0.1-0.1-0.1-0.2c0-0.1,0-0.2,0-0.2L64.9,63.2L64.9,63.2z M72.3,66.7
		c0.2,0,0.2,0,0.3,0s0.1,0,0.2,0.1c0,0,0.1,0.1,0.1,0.2l0.3,0.9c0.1,0.2,0.1,0.4,0.2,0.5c0,0.2,0.1,0.2,0.1,0.2v0.1l-0.1,0.1
		c-0.1,0-0.1,0-0.2,0.1l-0.3,0.1c0,0-0.1,0.1-0.1,0.2s0,0.1,0,0.2s0.1,0.1,0.1,0.1c0.2,0,0.3,0,0.5,0s0.3,0,0.5,0s0.3,0,0.5,0
		c0.2,0,0.5,0,0.8,0s0.5,0,0.8,0l0.1-0.1c0-0.1,0-0.1,0-0.2s0-0.1-0.1-0.1l-0.4-0.1c-0.2,0-0.2-0.1-0.3-0.2s-0.2-0.2-0.2-0.3
		c-0.1-0.2-0.2-0.3-0.2-0.5l-1.4-4.1c-0.1-0.2-0.2-0.5-0.2-0.6C73,63.1,73,62.9,73,62.8s-0.1-0.2-0.1-0.3s-0.1-0.2-0.1-0.2
		s-0.1-0.1-0.2-0.1c0,0,0,0-0.1,0.1c-0.1,0.1-0.1,0.1-0.2,0.2s-0.2,0.2-0.3,0.2c-0.1,0.1-0.2,0.1-0.3,0.2c0,0.1,0,0.2,0,0.3
		c0,0.2-0.1,0.2-0.2,0.4c-0.1,0.2-0.2,0.4-0.2,0.5l-0.9,2.6c-0.1,0.2-0.2,0.5-0.2,0.7c-0.1,0.2-0.2,0.4-0.2,0.5
		c-0.1,0.2-0.2,0.3-0.2,0.5c-0.1,0.2-0.2,0.2-0.2,0.3c-0.2-0.1-0.3,0-0.4,0s-0.2,0.1-0.2,0.1h-0.3c0,0-0.1,0.1-0.1,0.2
		c0,0.1,0,0.1,0,0.2s0,0.1,0.1,0.1c0.2,0,0.3,0,0.4,0s0.2,0,0.3,0s0.2,0,0.3,0c0.2,0,0.4,0,0.6,0s0.4,0,0.5,0l0.1-0.1
		c0-0.1,0-0.1,0-0.2c0-0.1,0-0.1-0.1-0.1l-0.3-0.1c-0.2,0-0.2-0.1-0.3-0.1s-0.1-0.1-0.1-0.1s0-0.1,0-0.2s0-0.2,0.1-0.2l0.4-1.2
		c0-0.1,0.1-0.1,0.1-0.2l0.1-0.1c0.1,0,0.1,0,0.2,0L72.3,66.7L72.3,66.7z M71.4,66.2c-0.1,0-0.2,0-0.2,0c-0.1,0-0.1-0.1-0.1-0.1
		c0-0.1,0-0.1,0.1-0.2l0.2-0.8c0.1-0.2,0.1-0.3,0.2-0.5s0.1-0.3,0.2-0.4c0.1-0.2,0.1-0.2,0.2-0.3c0,0.1,0.1,0.2,0.1,0.3
		c0.1,0.1,0.1,0.2,0.2,0.4s0.1,0.3,0.2,0.5l0.2,0.9c0,0.1,0.1,0.2,0,0.2c0,0.1,0,0.1-0.1,0.1s-0.1,0-0.2,0L71.4,66.2L71.4,66.2z"/>
	<path class="st1" d="M75.7,61.8c-0.2,0-0.2,0-0.4,0.1c-0.1,0.1-0.2,0.2-0.2,0.2C75,62.2,75,62.4,75,62.5c0,0.2,0,0.2,0.1,0.3
		s0.2,0.2,0.2,0.2c0.1,0,0.2,0.1,0.2,0.1c0.1,0.1,0.2,0.1,0.2,0.2c0.1,0.1,0.1,0.2,0.1,0.4c0,0.2,0,0.2-0.1,0.3
		c-0.1,0.1-0.2,0.2-0.2,0.3c-0.1,0.1-0.2,0.2-0.3,0.2c-0.1,0.1-0.2,0.1-0.3,0.2l-0.1,0.1c0,0.1,0,0.1,0,0.2c0,0.1,0.1,0.1,0.2,0.1
		c0.2-0.1,0.4-0.2,0.6-0.2c0.2-0.1,0.4-0.2,0.5-0.4c0.2-0.2,0.2-0.3,0.4-0.5c0.1-0.2,0.2-0.4,0.2-0.6c0-0.2,0-0.4-0.1-0.6
		c-0.1-0.2-0.2-0.3-0.2-0.4c-0.1-0.1-0.2-0.2-0.3-0.2C75.8,61.8,75.8,61.8,75.7,61.8L75.7,61.8z"/>
	<path class="st1" d="M52.9,73l-0.8,4.8c0,0.2,0,0.2,0,0.3c0,0.2,0,0.2,0.1,0.2c0,0.1,0.1,0.2,0.2,0.2h-1.7c0,0,0.1-0.1,0.2-0.2
		c0.1-0.1,0.2-0.2,0.2-0.2c0.1-0.1,0.1-0.2,0.2-0.2c0-0.1,0.1-0.2,0.1-0.3l0.5-3.4c0-0.2-0.1-0.4-0.2-0.4s-0.3,0.1-0.5,0.2
		c0.2-0.3,0.5-0.5,0.6-0.7c0.2-0.2,0.3-0.3,0.5-0.4C52.5,73.1,52.7,73,52.9,73L52.9,73z M56.1,73c0.9,0,1.4,0.7,1.4,2
		c0,1-0.2,1.9-0.5,2.8c-0.3,0.9-0.8,1.6-1.2,2.2c-0.5,0.6-0.9,1.1-1.4,1.4c-0.5,0.4-0.9,0.6-1.1,0.7c0.6-0.5,1.1-1.1,1.6-1.6
		c0.4-0.5,0.8-1,1-1.6c0.2-0.5,0.5-1,0.5-1.6c0.2-0.5,0.2-1.2,0.2-1.9c0-0.5-0.1-0.9-0.2-1.2c-0.2-0.3-0.5-0.5-0.9-0.5
		c-0.3,0-0.5,0.2-0.8,0.5s-0.3,0.7-0.3,1.2c0,0.5,0.1,1,0.3,1.6c0.2,0.5,0.6,0.9,1.2,1.2c-0.6,0-1.1-0.1-1.4-0.2
		c-0.3-0.2-0.5-0.3-0.6-0.6c-0.1-0.2-0.2-0.5-0.2-0.9c0-0.5,0.1-1,0.2-1.5c0.2-0.5,0.4-0.8,0.6-1.1s0.5-0.5,0.9-0.6
		C55.5,73.1,55.8,73,56.1,73L56.1,73z M61.8,70.2c-0.7,0.4-1.2,0.9-1.7,1.6c-0.5,0.6-0.7,1.2-0.9,1.7c-0.2,0.5-0.2,0.9-0.3,1.1
		c0.1-0.1,0.3-0.2,0.5-0.4c0.2-0.2,0.6-0.2,1.1-0.2c0.4,0,0.7,0.1,0.9,0.2c0.2,0.2,0.4,0.4,0.5,0.7c0.1,0.2,0.2,0.5,0.2,0.9
		c0,0.6-0.2,1.2-0.4,1.6s-0.5,0.8-0.9,1c-0.4,0.2-0.8,0.3-1.2,0.3c-0.5,0-0.9-0.2-1.2-0.4c-0.2-0.3-0.4-0.5-0.5-0.9
		c-0.1-0.3-0.1-0.6-0.1-0.9c0-0.6,0.1-1.3,0.3-2c0.2-0.7,0.5-1.4,0.8-2c0.4-0.6,0.8-1.2,1.2-1.6C60.7,70.5,61.3,70.2,61.8,70.2
		L61.8,70.2z M58.8,76.3c0,0.2,0,0.5,0.1,0.9s0.2,0.6,0.4,0.9c0.2,0.2,0.4,0.4,0.8,0.4c0.3,0,0.5-0.2,0.8-0.5s0.3-0.9,0.3-1.7
		c0-0.4-0.1-0.8-0.2-1.1c-0.1-0.4-0.4-0.5-0.8-0.5s-0.8,0.2-1,0.5C58.9,75.5,58.8,75.9,58.8,76.3L58.8,76.3z M63.2,76.6
		c0.1,0,0.2-0.1,0.3-0.2c0.2-0.1,0.3-0.2,0.5-0.2c0.2-0.1,0.3-0.1,0.5-0.1c0.4,0,0.7,0.1,1,0.3c0.3,0.2,0.5,0.5,0.6,0.8
		c0.2,0.3,0.2,0.7,0.2,1.1c0,0.3-0.1,0.7-0.2,1.1c-0.1,0.4-0.2,0.8-0.5,1.1c-0.2,0.4-0.5,0.6-0.9,0.9c-0.4,0.2-0.8,0.3-1.2,0.3
		c-0.5,0-1-0.2-1.2-0.5c-0.2-0.3-0.4-0.8-0.4-1.3c0-0.3,0-0.6,0.1-1c0.2,0.6,0.4,1.2,0.7,1.6s0.7,0.7,1.2,0.7c0.3,0,0.5-0.2,0.8-0.4
		s0.4-0.6,0.5-1.1c0.2-0.5,0.2-0.9,0.2-1.4c0-0.5-0.2-1-0.4-1.2c-0.2-0.2-0.5-0.4-0.9-0.4c-0.2,0-0.5,0.1-0.7,0.2
		c-0.2,0.2-0.5,0.3-0.8,0.5l1.8-4.2h0.8c0.4,0,0.8,0,1.1-0.1c0.3-0.1,0.5-0.2,0.8-0.2c-0.2,0.4-0.3,0.7-0.5,0.9
		c-0.2,0.2-0.4,0.4-0.7,0.5c-0.2,0.1-0.5,0.2-0.9,0.2s-0.6,0-0.8,0c-0.1,0-0.2,0.3-0.5,0.9C63.5,75.8,63.3,76.2,63.2,76.6L63.2,76.6
		z"/>
	<path class="st1" d="M42.5,78.1c0,0.1,0,0.2,0.1,0.2s0.2-0.1,0.5-0.3c-0.1,0.2-0.2,0.4-0.4,0.5c-0.2,0.2-0.3,0.3-0.5,0.3
		s-0.2,0-0.3-0.1c-0.1-0.1-0.1-0.2-0.1-0.3c0-0.2,0-0.2,0.1-0.5l0.1-0.5c-0.1,0.1-0.2,0.3-0.5,0.5c-0.2,0.2-0.4,0.5-0.6,0.6
		c-0.2,0.2-0.3,0.2-0.5,0.2c-0.2,0-0.2-0.1-0.3-0.2c-0.1-0.2-0.2-0.5-0.2-0.8c0-0.7,0.2-1.3,0.4-1.9c0.2-0.5,0.5-0.9,0.9-1.2
		c0.4-0.3,0.8-0.4,1.1-0.4l0.1-0.7c0.1-0.3,0.2-0.6,0.2-0.9c0.2-0.2,0.3-0.5,0.5-0.6c0.2-0.2,0.4-0.2,0.5-0.2h0.6
		c-0.1,0.2-0.2,0.4-0.4,0.5s-0.2,0.2-0.3,0.2c-0.1,0-0.2,0-0.3,0.1c-0.1,0-0.2,0.1-0.2,0.2L42.5,78.1L42.5,78.1z M40.9,76.9
		c0,0.4,0.1,0.5,0.3,0.5c0.2,0,0.5-0.2,0.9-0.5l0.3-2.3c-0.2,0-0.5,0.1-0.7,0.3c-0.2,0.2-0.5,0.5-0.5,0.9
		C40.9,76.1,40.9,76.5,40.9,76.9L40.9,76.9z M46.4,74.2l-0.5,3.9c0,0.1,0,0.2,0.1,0.2c0.1,0,0.2-0.1,0.5-0.3
		c-0.1,0.2-0.2,0.4-0.4,0.5s-0.3,0.2-0.5,0.2c-0.2,0-0.4-0.2-0.4-0.5c0-0.1,0-0.2,0-0.3l0.1-0.5c-0.1,0.1-0.2,0.3-0.5,0.5
		c-0.2,0.2-0.4,0.5-0.6,0.6c-0.2,0.2-0.3,0.2-0.5,0.2s-0.2-0.1-0.3-0.3c-0.1-0.2-0.1-0.5-0.1-0.7c0-0.5,0.1-1,0.2-1.5
		s0.3-0.8,0.5-1.1c0.2-0.3,0.5-0.5,0.8-0.7c0.3-0.2,0.5-0.2,0.9-0.2c0.2,0,0.3,0,0.4,0C46.3,74.3,46.4,74.2,46.4,74.2L46.4,74.2z
		 M44.2,76.9c0,0.4,0.1,0.5,0.3,0.5c0.2,0,0.5-0.2,0.9-0.5l0.4-2.3c-0.2,0-0.5,0.1-0.7,0.3c-0.2,0.2-0.5,0.5-0.5,0.9
		C44.2,76.1,44.2,76.5,44.2,76.9L44.2,76.9z M47.3,73.6c0.1-0.3,0.2-0.6,0.2-0.9c0.2-0.3,0.3-0.5,0.5-0.6c0.2-0.2,0.4-0.2,0.5-0.2
		h0.6c-0.1,0.2-0.2,0.4-0.4,0.5s-0.2,0.2-0.3,0.2c-0.1,0-0.2,0-0.3,0.1c-0.1,0-0.2,0.1-0.2,0.2L47.3,78c0,0.2,0,0.2,0.1,0.2
		s0.3-0.2,0.6-0.5c-0.1,0.2-0.2,0.4-0.4,0.5s-0.3,0.3-0.4,0.5c-0.2,0.1-0.2,0.2-0.3,0.2c-0.2,0-0.3-0.2-0.3-0.5c0-0.1,0-0.2,0-0.4
		L47.3,73.6L47.3,73.6z"/>
</g>
</svg>
