<?xml version="1.0" encoding="utf-8"?>
<!-- Generator: Adobe Illustrator 24.0.1, SVG Export Plug-In . SVG Version: 6.00 Build 0)  -->
<svg version="1.1" id="Livello_1" xmlns="http://www.w3.org/2000/svg" xmlns:xlink="http://www.w3.org/1999/xlink" x="0px" y="0px"
	 viewBox="0 0 600 400" style="enable-background:new 0 0 600 400;" xml:space="preserve">
<style type="text/css">
	.st0{fill-rule:evenodd;clip-rule:evenodd;fill:#FFFFFF;}
	.st1{fill:#FFFFFF;stroke:#FFFFFF;stroke-width:5.991732e-02;stroke-miterlimit:22.9256;}
	.st2{fill:#FFFFFF;}
	.st3{fill:#FFFFFF;stroke:#FFFFFF;stroke-width:0.1926;stroke-miterlimit:22.9256;}
</style>
<g>
	<path class="st0" d="M529.9,225.8l-157.2,0.1c-10.7,24.6-28.4,36-51.7,36.7l0.1,39l18.3,0l0-23.7c23.9-7.2,40.4-19.5,48-37.7
		l202.7,1.1l0.1-15.5L529.9,225.8z"/>
	<path class="st1" d="M529.9,225.8l-157.2,0.1c-10.7,24.6-28.4,36-51.7,36.7l0.1,39l18.3,0l0-23.7c23.9-7.2,40.4-19.5,48-37.7
		l202.7,1.1l0.1-15.5L529.9,225.8z"/>
	<path class="st2" d="M221.8,168.2c-1.3,0-2.4,0.6-3.4,1.8c-0.9,1.2-1.6,3.6-1.8,7.3c-0.3,3.6-0.4,8.7-0.4,15.1
		c0,3.4,0.2,6.6,0.5,9.6c0.3,2.3,0.9,4,1.8,5.2c0.9,1.2,2,1.8,3.2,1.8c1.2,0,2.1-0.4,2.9-1.2c1-1.1,1.7-2.6,2-4.6
		c0.5-3,0.8-9.2,0.7-18.4c0-5.4-0.3-9.2-0.8-11.2c-0.5-2-1.2-3.5-2.2-4.4C223.8,168.5,222.9,168.2,221.8,168.2z M221.7,164.8
		c3.1,0,6,1,8.7,3c2.7,2,4.7,4.9,6.1,8.6c1.4,3.7,2.1,7.8,2.1,12.2c0,6.4-1.3,11.7-3.9,15.9c-3.1,5.2-7.4,7.8-12.9,7.8
		c-5.4,0-9.6-2.4-12.5-7.1c-2.9-4.7-4.4-10.2-4.4-16.4c0-6.4,1.5-12,4.5-16.8C212.4,167.2,216.5,164.8,221.7,164.8z M186.1,166.1
		l0,10.2c2.4-4.6,4.5-7.7,6.2-9.2c1.8-1.5,3.5-2.3,5.2-2.3c1.4,0,2.6,0.5,3.4,1.7c0.9,1.1,1.3,2.7,1.3,4.7c0,2.1-0.4,3.8-1.2,5
		c-0.8,1.2-1.8,1.8-3,1.8c-1.4,0-2.5-0.6-3.5-1.6c-1-1.1-1.6-1.7-1.8-1.8c-0.3-0.2-0.6-0.3-0.9-0.3c-0.7,0-1.4,0.3-2.1,1
		c-1,1.1-1.8,2.6-2.4,4.7c-0.8,3.1-1.2,6.5-1.2,10.3l0,10.3l0,2.7c0,1.8,0.1,3,0.3,3.5c0.3,0.9,0.8,1.5,1.4,1.9
		c0.6,0.4,1.6,0.7,3.1,0.8l0,1.7l-19.4,0l0-1.7c1.6-0.2,2.6-0.7,3.2-1.6c0.5-0.9,0.8-3.3,0.8-7.2l0-24.8c0-2.6-0.1-4.2-0.3-4.9
		c-0.3-0.9-0.6-1.6-1.1-2c-0.5-0.4-1.4-0.7-2.6-0.9l0-1.8L186.1,166.1z M159.2,149.7l0,16.4l8.5,0l0,4.7l-8.5,0l0,27.6
		c0,2.6,0.1,4.3,0.3,5c0.2,0.7,0.5,1.4,1,1.8c0.5,0.5,0.9,0.7,1.3,0.7c1.7,0,3.2-1.6,4.7-4.7l1.1,1.1c-2.1,6.1-5.4,9.2-10.1,9.2
		c-2.3,0-4.2-0.8-5.8-2.4c-1.6-1.6-2.6-3.4-3-5.3c-0.2-1.1-0.4-4-0.4-8.8l0-24.2l-4.7,0l0-1.7c3.2-2.8,6-5.8,8.2-9
		c2.3-3.1,4.2-6.6,5.9-10.5L159.2,149.7z M115.9,166.1l0,5.8c1.8-2.5,3.6-4.3,5.3-5.4c1.7-1.1,3.5-1.7,5.5-1.7
		c2.3,0,4.3,0.8,5.8,2.4c1.5,1.6,2.6,3.6,3.1,6c0.4,1.8,0.6,5.3,0.6,10.5l0,17.4c0,3.4,0.3,5.6,0.8,6.4c0.5,0.8,1.5,1.4,3.1,1.6
		l0,1.7l-18.2,0l0-1.7c1.4-0.2,2.3-0.9,2.9-2.1c0.4-0.8,0.6-2.8,0.6-6l0-19.9c0-3.7-0.1-6-0.4-7c-0.2-1-0.6-1.7-1.2-2.2
		c-0.6-0.5-1.2-0.8-1.8-0.8c-2.2,0-4.2,2-6.1,5.9l0,24c0,3.4,0.3,5.5,0.8,6.4c0.5,0.9,1.4,1.5,2.8,1.7l0,1.7h-18.2l0-1.7
		c1.5-0.2,2.6-0.8,3.2-1.8c0.4-0.7,0.7-2.8,0.6-6.2l0-25.3c0-3.4-0.3-5.5-0.8-6.3c-0.5-0.8-1.6-1.4-3.1-1.6l0-1.8L115.9,166.1z
		 M87.3,183.7c0-5.2-0.2-8.7-0.7-10.6c-0.4-1.9-1.1-3.4-2.1-4.3c-0.5-0.6-1.3-0.9-2.2-0.9c-1.3,0-2.4,0.8-3.3,2.5
		c-1.5,2.8-2.3,6.7-2.3,11.7l0,1.7L87.3,183.7z M96.8,186.9l-19.7,0c0.2,5.9,1.5,10.7,3.8,14.1c1.8,2.7,3.9,4,6.4,4
		c1.5,0,2.9-0.5,4.2-1.6c1.3-1.1,2.6-3,4-5.8l1.3,1c-1.9,5-4.1,8.5-6.4,10.5c-2.3,2.1-5.1,3.1-8.2,3.1c-5.3,0-9.4-2.6-12.1-7.7
		c-2.2-4.1-3.3-9.2-3.3-15.3c0-7.5,1.6-13.4,4.8-17.9c3.2-4.4,7-6.6,11.4-6.6c3.6,0,6.8,1.8,9.5,5.6
		C95.1,174.1,96.6,179.6,96.8,186.9z M59.3,144.5l0,22.5l-1.5,0c-1.1-5.9-3.2-10.4-6.3-13.5c-3.1-3.1-6.6-4.7-10.5-4.7
		c-3.3,0-6.2,1.2-8.9,3.5c-2.7,2.3-4.7,5.4-5.9,9.2c-1.6,4.8-2.4,10.2-2.4,16.1c0,5.8,0.6,11.1,1.8,15.9c1.2,4.8,3,8.4,5.5,10.8
		c2.5,2.5,5.8,3.7,9.8,3.7c3.3,0,6.3-0.9,9-2.7c2.7-1.8,5.6-4.9,8.6-9.2l0,5.6c-2.9,3.8-6,6.6-9.1,8.3c-3.2,1.7-6.9,2.6-11.1,2.6
		c-5.5,0-10.5-1.4-14.8-4.2c-4.3-2.8-7.7-6.8-10-12c-2.3-5.2-3.5-10.8-3.5-16.6c0-6.2,1.3-12.1,3.9-17.6c2.6-5.6,6.1-9.9,10.5-12.9
		c4.4-3.1,9.1-4.6,14.1-4.6c3.7,0,7.5,1,11.6,3c2.4,1.1,3.9,1.7,4.5,1.7c0.8,0,1.5-0.4,2.1-1.1c0.6-0.8,1-1.9,1.2-3.6L59.3,144.5z"
		/>
	<path class="st3" d="M221.8,168.2c-1.3,0-2.4,0.6-3.4,1.8c-0.9,1.2-1.6,3.6-1.8,7.3c-0.3,3.6-0.4,8.7-0.4,15.1
		c0,3.4,0.2,6.6,0.5,9.6c0.3,2.3,0.9,4,1.8,5.2c0.9,1.2,2,1.8,3.2,1.8c1.2,0,2.1-0.4,2.9-1.2c1-1.1,1.7-2.6,2-4.6
		c0.5-3,0.8-9.2,0.7-18.4c0-5.4-0.3-9.2-0.8-11.2c-0.5-2-1.2-3.5-2.2-4.4C223.8,168.5,222.9,168.2,221.8,168.2z M221.7,164.8
		c3.1,0,6,1,8.7,3c2.7,2,4.7,4.9,6.1,8.6c1.4,3.7,2.1,7.8,2.1,12.2c0,6.4-1.3,11.7-3.9,15.9c-3.1,5.2-7.4,7.8-12.9,7.8
		c-5.4,0-9.6-2.4-12.5-7.1c-2.9-4.7-4.4-10.2-4.4-16.4c0-6.4,1.5-12,4.5-16.8C212.4,167.2,216.5,164.8,221.7,164.8z M186.1,166.1
		l0,10.2c2.4-4.6,4.5-7.7,6.2-9.2c1.8-1.5,3.5-2.3,5.2-2.3c1.4,0,2.6,0.5,3.4,1.7c0.9,1.1,1.3,2.7,1.3,4.7c0,2.1-0.4,3.8-1.2,5
		c-0.8,1.2-1.8,1.8-3,1.8c-1.4,0-2.5-0.6-3.5-1.6c-1-1.1-1.6-1.7-1.8-1.8c-0.3-0.2-0.6-0.3-0.9-0.3c-0.7,0-1.4,0.3-2.1,1
		c-1,1.1-1.8,2.6-2.4,4.7c-0.8,3.1-1.2,6.5-1.2,10.3l0,10.3l0,2.7c0,1.8,0.1,3,0.3,3.5c0.3,0.9,0.8,1.5,1.4,1.9
		c0.6,0.4,1.6,0.7,3.1,0.8l0,1.7l-19.4,0l0-1.7c1.6-0.2,2.6-0.7,3.2-1.6c0.5-0.9,0.8-3.3,0.8-7.2l0-24.8c0-2.6-0.1-4.2-0.3-4.9
		c-0.3-0.9-0.6-1.6-1.1-2c-0.5-0.4-1.4-0.7-2.6-0.9l0-1.8L186.1,166.1z M159.2,149.7l0,16.4l8.5,0l0,4.7l-8.5,0l0,27.6
		c0,2.6,0.1,4.3,0.3,5c0.2,0.7,0.5,1.4,1,1.8c0.5,0.5,0.9,0.7,1.3,0.7c1.7,0,3.2-1.6,4.7-4.7l1.1,1.1c-2.1,6.1-5.4,9.2-10.1,9.2
		c-2.3,0-4.2-0.8-5.8-2.4c-1.6-1.6-2.6-3.4-3-5.3c-0.2-1.1-0.4-4-0.4-8.8l0-24.2l-4.7,0l0-1.7c3.2-2.8,6-5.8,8.2-9
		c2.3-3.1,4.2-6.6,5.9-10.5L159.2,149.7z M115.9,166.1l0,5.8c1.8-2.5,3.6-4.3,5.3-5.4c1.7-1.1,3.5-1.7,5.5-1.7
		c2.3,0,4.3,0.8,5.8,2.4c1.5,1.6,2.6,3.6,3.1,6c0.4,1.8,0.6,5.3,0.6,10.5l0,17.4c0,3.4,0.3,5.6,0.8,6.4c0.5,0.8,1.5,1.4,3.1,1.6
		l0,1.7l-18.2,0l0-1.7c1.4-0.2,2.3-0.9,2.9-2.1c0.4-0.8,0.6-2.8,0.6-6l0-19.9c0-3.7-0.1-6-0.4-7c-0.2-1-0.6-1.7-1.2-2.2
		c-0.6-0.5-1.2-0.8-1.8-0.8c-2.2,0-4.2,2-6.1,5.9l0,24c0,3.4,0.3,5.5,0.8,6.4c0.5,0.9,1.4,1.5,2.8,1.7l0,1.7h-18.2l0-1.7
		c1.5-0.2,2.6-0.8,3.2-1.8c0.4-0.7,0.7-2.8,0.6-6.2l0-25.3c0-3.4-0.3-5.5-0.8-6.3c-0.5-0.8-1.6-1.4-3.1-1.6l0-1.8L115.9,166.1z
		 M87.3,183.7c0-5.2-0.2-8.7-0.7-10.6c-0.4-1.9-1.1-3.4-2.1-4.3c-0.5-0.6-1.3-0.9-2.2-0.9c-1.3,0-2.4,0.8-3.3,2.5
		c-1.5,2.8-2.3,6.7-2.3,11.7l0,1.7L87.3,183.7z M96.8,186.9l-19.7,0c0.2,5.9,1.5,10.7,3.8,14.1c1.8,2.7,3.9,4,6.4,4
		c1.5,0,2.9-0.5,4.2-1.6c1.3-1.1,2.6-3,4-5.8l1.3,1c-1.9,5-4.1,8.5-6.4,10.5c-2.3,2.1-5.1,3.1-8.2,3.1c-5.3,0-9.4-2.6-12.1-7.7
		c-2.2-4.1-3.3-9.2-3.3-15.3c0-7.5,1.6-13.4,4.8-17.9c3.2-4.4,7-6.6,11.4-6.6c3.6,0,6.8,1.8,9.5,5.6
		C95.1,174.1,96.6,179.6,96.8,186.9z M59.3,144.5l0,22.5l-1.5,0c-1.1-5.9-3.2-10.4-6.3-13.5c-3.1-3.1-6.6-4.7-10.5-4.7
		c-3.3,0-6.2,1.2-8.9,3.5c-2.7,2.3-4.7,5.4-5.9,9.2c-1.6,4.8-2.4,10.2-2.4,16.1c0,5.8,0.6,11.1,1.8,15.9c1.2,4.8,3,8.4,5.5,10.8
		c2.5,2.5,5.8,3.7,9.8,3.7c3.3,0,6.3-0.9,9-2.7c2.7-1.8,5.6-4.9,8.6-9.2l0,5.6c-2.9,3.8-6,6.6-9.1,8.3c-3.2,1.7-6.9,2.6-11.1,2.6
		c-5.5,0-10.5-1.4-14.8-4.2c-4.3-2.8-7.7-6.8-10-12c-2.3-5.2-3.5-10.8-3.5-16.6c0-6.2,1.3-12.1,3.9-17.6c2.6-5.6,6.1-9.9,10.5-12.9
		c4.4-3.1,9.1-4.6,14.1-4.6c3.7,0,7.5,1,11.6,3c2.4,1.1,3.9,1.7,4.5,1.7c0.8,0,1.5-0.4,2.1-1.1c0.6-0.8,1-1.9,1.2-3.6L59.3,144.5z"
		/>
	<path class="st2" d="M580.8,183.7c0-5.2-0.2-8.7-0.7-10.6c-0.5-1.9-1.2-3.4-2.1-4.4c-0.5-0.6-1.3-0.9-2.2-0.9
		c-1.3,0-2.4,0.8-3.3,2.5c-1.5,2.8-2.3,6.7-2.3,11.7l0,1.7L580.8,183.7z M590.3,186.9l-19.8,0c0.2,5.9,1.5,10.7,3.8,14.1
		c1.8,2.7,3.9,4,6.4,4c1.5,0,3-0.5,4.2-1.6c1.3-1.1,2.6-3,4.1-5.8l1.3,1c-1.9,5-4.1,8.5-6.5,10.5c-2.4,2.1-5.1,3.1-8.2,3.1
		c-5.4,0-9.4-2.6-12.2-7.7c-2.2-4.1-3.3-9.2-3.3-15.3c0-7.5,1.6-13.4,4.9-17.9c3.3-4.4,7.1-6.6,11.5-6.6c3.7,0,6.8,1.8,9.5,5.6
		C588.7,174.1,590.1,179.6,590.3,186.9z M529.6,201.5c2.2,3.9,4.6,5.8,7.1,5.8c1.4,0,2.5-0.9,3.4-2.7c1.3-2.7,2-7.8,2-15.3
		c0-7.7-0.8-13-2.2-15.9c-1-1.9-2.3-2.8-4-2.8c-2.6,0-4.7,2.3-6.4,7L529.6,201.5z M529.6,206.4l0,16.7c0,2.3,0.2,3.9,0.4,4.7
		c0.3,0.8,0.8,1.4,1.4,1.8c0.6,0.4,1.8,0.6,3.6,0.6l0,1.8l-20.6,0l0-1.8c1.6-0.1,2.8-0.6,3.6-1.7c0.5-0.7,0.8-2.6,0.8-5.7l-0.1-47.3
		c0-3.2-0.3-5.2-0.9-6.1c-0.6-0.9-1.7-1.4-3.4-1.5l0-1.8h15.2l0,5.9c1.3-2.3,2.5-4,3.9-5c1.9-1.5,3.9-2.2,6.1-2.2
		c2.7,0,5.1,1,7.3,3.1c2.2,2.1,3.8,4.9,5,8.6c1.1,3.7,1.7,7.6,1.7,11.8c0,4.5-0.6,8.7-1.7,12.4c-1.2,3.8-2.9,6.6-5.1,8.6
		c-2.2,2-4.7,2.9-7.4,2.9c-2,0-3.8-0.5-5.6-1.6C532.4,209.8,531.1,208.4,529.6,206.4z M485.6,201.5c2.2,3.9,4.6,5.8,7.1,5.8
		c1.4,0,2.5-0.9,3.4-2.7c1.3-2.7,2-7.8,2-15.3c0-7.7-0.8-13-2.2-15.9c-1-1.9-2.3-2.8-4-2.8c-2.6,0-4.7,2.3-6.4,7L485.6,201.5z
		 M485.6,206.4l0,16.7c0,2.3,0.2,3.9,0.4,4.7c0.3,0.8,0.8,1.4,1.4,1.8c0.6,0.4,1.8,0.6,3.6,0.6l0,1.8h-20.6l0-1.8
		c1.6-0.1,2.8-0.6,3.6-1.7c0.5-0.7,0.8-2.6,0.8-5.7l-0.1-47.3c0-3.2-0.3-5.2-0.9-6.1c-0.6-0.9-1.7-1.4-3.4-1.5l0-1.8l15.2,0l0,5.9
		c1.3-2.3,2.5-4,3.9-5c1.9-1.5,3.9-2.2,6.1-2.2c2.7,0,5.1,1,7.3,3.1c2.2,2.1,3.8,4.9,5,8.6c1.1,3.7,1.7,7.6,1.7,11.8
		c0,4.5-0.6,8.7-1.7,12.4c-1.2,3.8-2.9,6.6-5.1,8.6c-2.2,2-4.7,2.9-7.4,2.9c-2,0-3.8-0.5-5.6-1.6C488.4,209.8,487,208.4,485.6,206.4
		z M449.1,168.2c-1.3,0-2.4,0.6-3.4,1.8c-0.9,1.2-1.6,3.6-1.9,7.3c-0.3,3.6-0.4,8.7-0.4,15.1c0,3.4,0.2,6.6,0.6,9.6
		c0.3,2.3,0.9,4,1.8,5.2c0.9,1.2,2,1.8,3.2,1.8c1.2,0,2.1-0.4,2.9-1.2c1-1.1,1.7-2.6,2-4.6c0.5-3,0.8-9.2,0.8-18.4
		c0-5.4-0.3-9.2-0.8-11.2c-0.5-2-1.2-3.5-2.2-4.4C451.1,168.5,450.2,168.2,449.1,168.2z M449,164.8c3.1,0,6.1,1,8.8,3
		c2.7,2,4.8,4.9,6.2,8.6c1.4,3.7,2.1,7.8,2.1,12.2c0,6.4-1.3,11.7-3.9,15.9c-3.1,5.2-7.5,7.8-13,7.8c-5.4,0-9.6-2.4-12.6-7.1
		c-3-4.7-4.4-10.2-4.4-16.4c0-6.4,1.5-12,4.5-16.8C439.6,167.2,443.7,164.8,449,164.8z M424.9,144.5l0,22.5l-1.5,0
		c-1.1-5.9-3.3-10.4-6.4-13.5c-3.1-3.1-6.6-4.7-10.5-4.7c-3.3,0-6.3,1.2-9,3.5c-2.7,2.3-4.7,5.4-6,9.2c-1.6,4.8-2.4,10.2-2.4,16.1
		c0,5.8,0.6,11.1,1.8,15.9c1.2,4.8,3,8.4,5.6,10.8c2.5,2.5,5.8,3.7,9.8,3.7c3.3,0,6.3-0.9,9.1-2.7c2.7-1.8,5.6-4.9,8.7-9.2l0,5.6
		c-2.9,3.8-6,6.6-9.2,8.3c-3.2,1.7-6.9,2.6-11.2,2.6c-5.6,0-10.6-1.4-14.9-4.2c-4.3-2.8-7.7-6.8-10.1-12c-2.4-5.2-3.6-10.8-3.6-16.6
		c0-6.2,1.3-12.1,3.9-17.6c2.6-5.6,6.1-9.9,10.6-12.9c4.4-3.1,9.2-4.6,14.2-4.6c3.7,0,7.6,1,11.7,3c2.4,1.1,3.9,1.7,4.5,1.7
		c0.8,0,1.5-0.4,2.1-1.1c0.6-0.8,1-1.9,1.2-3.6L424.9,144.5z"/>
	<path class="st2" d="M580.8,183.7c0-5.2-0.2-8.7-0.7-10.6c-0.5-1.9-1.2-3.4-2.1-4.4c-0.5-0.6-1.3-0.9-2.2-0.9
		c-1.3,0-2.4,0.8-3.3,2.5c-1.5,2.8-2.3,6.7-2.3,11.7l0,1.7L580.8,183.7z M590.3,186.9l-19.8,0c0.2,5.9,1.5,10.7,3.8,14.1
		c1.8,2.7,3.9,4,6.4,4c1.5,0,3-0.5,4.2-1.6c1.3-1.1,2.6-3,4.1-5.8l1.3,1c-1.9,5-4.1,8.5-6.5,10.5c-2.4,2.1-5.1,3.1-8.2,3.1
		c-5.4,0-9.4-2.6-12.2-7.7c-2.2-4.1-3.3-9.2-3.3-15.3c0-7.5,1.6-13.4,4.9-17.9c3.3-4.4,7.1-6.6,11.5-6.6c3.7,0,6.8,1.8,9.5,5.6
		C588.7,174.1,590.1,179.6,590.3,186.9z M529.6,201.5c2.2,3.9,4.6,5.8,7.1,5.8c1.4,0,2.5-0.9,3.4-2.7c1.3-2.7,2-7.8,2-15.3
		c0-7.7-0.8-13-2.2-15.9c-1-1.9-2.3-2.8-4-2.8c-2.6,0-4.7,2.3-6.4,7L529.6,201.5z M529.6,206.4l0,16.7c0,2.3,0.2,3.9,0.4,4.7
		c0.3,0.8,0.8,1.4,1.4,1.8c0.6,0.4,1.8,0.6,3.6,0.6l0,1.8l-20.6,0l0-1.8c1.6-0.1,2.8-0.6,3.6-1.7c0.5-0.7,0.8-2.6,0.8-5.7l-0.1-47.3
		c0-3.2-0.3-5.2-0.9-6.1c-0.6-0.9-1.7-1.4-3.4-1.5l0-1.8l15.2,0l0,5.9c1.3-2.3,2.5-4,3.9-5c1.9-1.5,3.9-2.2,6.1-2.2
		c2.7,0,5.1,1,7.3,3.1c2.2,2.1,3.8,4.9,5,8.6c1.1,3.7,1.7,7.6,1.7,11.8c0,4.5-0.6,8.7-1.7,12.4c-1.2,3.8-2.9,6.6-5.1,8.6
		c-2.2,2-4.7,2.9-7.4,2.9c-2,0-3.8-0.5-5.6-1.6C532.4,209.8,531.1,208.4,529.6,206.4z M485.6,201.5c2.2,3.9,4.6,5.8,7.1,5.8
		c1.4,0,2.5-0.9,3.4-2.7c1.3-2.7,2-7.8,2-15.3c0-7.7-0.8-13-2.2-15.9c-1-1.9-2.3-2.8-4-2.8c-2.6,0-4.7,2.3-6.4,7L485.6,201.5z
		 M485.6,206.4l0,16.7c0,2.3,0.1,3.9,0.4,4.7c0.3,0.8,0.8,1.4,1.4,1.8c0.6,0.4,1.8,0.6,3.6,0.6l0,1.8l-20.6,0l0-1.8
		c1.6-0.1,2.8-0.6,3.6-1.7c0.5-0.7,0.8-2.6,0.8-5.7l-0.1-47.3c0-3.2-0.3-5.2-0.9-6.1c-0.6-0.9-1.7-1.4-3.4-1.5l0-1.8l15.2,0l0,5.9
		c1.3-2.3,2.5-4,3.9-5c1.9-1.5,3.9-2.2,6.1-2.2c2.7,0,5.1,1,7.3,3.1c2.2,2.1,3.8,4.9,5,8.6c1.1,3.7,1.7,7.6,1.7,11.8
		c0,4.5-0.6,8.7-1.7,12.4c-1.2,3.8-2.9,6.6-5.1,8.6c-2.2,2-4.7,2.9-7.4,2.9c-2,0-3.8-0.5-5.6-1.6C488.4,209.8,487,208.4,485.6,206.4
		z M449.1,168.2c-1.3,0-2.4,0.6-3.4,1.8c-0.9,1.2-1.6,3.6-1.9,7.3c-0.3,3.6-0.4,8.7-0.4,15.1c0,3.4,0.2,6.6,0.6,9.6
		c0.3,2.3,0.9,4,1.8,5.2c0.9,1.2,2,1.8,3.2,1.8c1.2,0,2.1-0.4,2.9-1.2c1-1.1,1.7-2.6,2-4.6c0.5-3,0.8-9.2,0.8-18.4
		c0-5.4-0.3-9.2-0.8-11.2c-0.5-2-1.2-3.5-2.2-4.4C451.1,168.5,450.2,168.2,449.1,168.2z M449,164.8c3.1,0,6.1,1,8.8,3
		c2.7,2,4.8,4.9,6.2,8.6c1.4,3.7,2.1,7.8,2.1,12.2c0,6.4-1.3,11.7-3.9,15.9c-3.1,5.2-7.5,7.8-13,7.8c-5.4,0-9.6-2.4-12.6-7.1
		c-3-4.7-4.4-10.2-4.4-16.4c0-6.4,1.5-12,4.5-16.8C439.6,167.2,443.7,164.8,449,164.8z M424.9,144.5l0,22.5l-1.5,0
		c-1.1-5.9-3.3-10.4-6.4-13.5c-3.1-3.1-6.6-4.7-10.5-4.7c-3.3,0-6.3,1.2-9,3.5c-2.7,2.3-4.7,5.4-6,9.2c-1.6,4.8-2.4,10.2-2.4,16.1
		c0,5.8,0.6,11.1,1.8,15.9c1.2,4.8,3,8.4,5.6,10.8c2.5,2.5,5.8,3.7,9.8,3.7c3.3,0,6.3-0.9,9.1-2.7c2.7-1.8,5.6-4.9,8.7-9.2l0,5.6
		c-2.9,3.8-6,6.6-9.2,8.3c-3.2,1.7-6.9,2.6-11.2,2.6c-5.6,0-10.6-1.4-14.9-4.2c-4.3-2.8-7.7-6.8-10.1-12c-2.4-5.2-3.6-10.8-3.6-16.6
		c0-6.2,1.3-12.1,3.9-17.6c2.6-5.6,6.1-9.9,10.6-12.9c4.4-3.1,9.2-4.6,14.2-4.6c3.7,0,7.6,1,11.7,3c2.4,1.1,3.9,1.7,4.5,1.7
		c0.8,0,1.5-0.4,2.1-1.1c0.6-0.8,1-1.9,1.2-3.6L424.9,144.5z"/>
	<path class="st0" d="M10.1,225.8l234.4,0c10.7,24.6,28.3,36,51.7,36.7l0.1,39l-18.3,0l0-23.7c-23.9-7.2-40.5-19.5-48.1-37.7
		l-219.8,1.1L10.1,225.8z"/>
	<path class="st1" d="M10.1,225.8l234.4,0c10.7,24.6,28.3,36,51.7,36.7l0.1,39l-18.3,0l0-23.7c-23.9-7.2-40.5-19.5-48.1-37.7
		l-219.8,1.1L10.1,225.8z"/>
	<path class="st0" d="M264.8,86.5L264.8,86.5c1.9,0,3.4,1.4,3.4,3.1c0,20.7,0.1,41.5,0.1,62.2c0,14.8-2.3,24.2,9.9,35.5
		c7,6.5,15.4,9.9,24.7,10.9c-0.1-4-0.2-8-0.4-12c-24.4-9.8-20.3-27.4-20.3-46.8l-0.1-72.9c0-1.7,1.5-3.1,3.4-3.1
		c1.9,0,3.4,1.4,3.4,3.1l0.1,63.7c0,7.1-1.7,12.3,2.9,17.9c2.1,2.5,5.5,4.4,11.1,3.9l0-6.7c0-8.4-0.6-5.4-5.7-10.8
		c-1.9-2.1-3.1-4.7-3.1-7.6c0-2.3,0.7-4.4,1.9-6.2c6-8.9,6.9-6.1,6.8-19.1l-0.1-57.3c0-2,2-3.6,4.4-3.6c2.4,0,4.4,1.6,4.4,3.6
		l0.1,57.3c0,12.3,0.3,10.4,6.4,18.8c1.3,1.9,2.1,4.1,2.1,6.5c0,2.9-1.1,5.5-3,7.5c-4.9,5.3-5.5,2.5-5.5,10.6l0,7
		c5.6,0.5,9.1-1,11.3-3c4.7-4.5,3.3-11.2,3.3-16.9l-0.1-65.7c0-1.7,1.5-3.1,3.4-3.1c1.9,0,3.4,1.4,3.4,3.1c0,25.4,0.1,50.7,0.1,76.1
		c0,7.8,1.7,23.1-2.2,30.3c-3.1,5.6-9.2,10-18.5,13.1c-0.2,4.3-0.3,8.7-0.5,13c10.6-0.9,20.6-5.4,28.7-15.8
		c9.2-11.7,6.1-24.1,6.1-38l-0.1-55.7c0-1.7,1.5-3.1,3.4-3.1c1.9,0,3.4,1.4,3.4,3.1c0,36.7,0.9,73.4,1,110c0,1.6-0.1,3.3-0.2,4.9
		c-2.4,24-22.4,42.8-46.7,42.8c-22.7,0-41.7-16.4-46.1-38.1c-0.6-3.1-1-6.3-1-9.6c0-6.3,0.3-12.8,0.3-17.9l-0.1-91.9
		C260.7,87.9,262.9,86.5,264.8,86.5z"/>
	<path class="st1" d="M264.8,86.5L264.8,86.5c1.9,0,3.4,1.4,3.4,3.1c0,20.7,0.1,41.5,0.1,62.2c0,14.8-2.3,24.2,9.9,35.5
		c7,6.5,15.4,9.9,24.7,10.9c-0.1-4-0.2-8-0.4-12c-24.4-9.8-20.3-27.4-20.3-46.8l-0.1-72.9c0-1.7,1.5-3.1,3.4-3.1
		c1.9,0,3.4,1.4,3.4,3.1l0.1,63.7c0,7.1-1.7,12.3,2.9,17.9c2.1,2.5,5.5,4.4,11.1,3.9l0-6.7c0-8.4-0.6-5.4-5.7-10.8
		c-1.9-2.1-3.1-4.7-3.1-7.6c0-2.3,0.7-4.4,1.9-6.2c6-8.9,6.9-6.1,6.8-19.1l-0.1-57.3c0-2,2-3.6,4.4-3.6c2.4,0,4.4,1.6,4.4,3.6
		l0.1,57.3c0,12.3,0.3,10.4,6.4,18.8c1.3,1.9,2.1,4.1,2.1,6.5c0,2.9-1.1,5.5-3,7.5c-4.9,5.3-5.5,2.5-5.5,10.6l0,7
		c5.6,0.5,9.1-1,11.3-3c4.7-4.5,3.3-11.2,3.3-16.9l-0.1-65.7c0-1.7,1.5-3.1,3.4-3.1c1.9,0,3.4,1.4,3.4,3.1c0,25.4,0.1,50.7,0.1,76.1
		c0,7.8,1.7,23.1-2.2,30.3c-3.1,5.6-9.2,10-18.5,13.1c-0.2,4.3-0.3,8.7-0.5,13c10.6-0.9,20.6-5.4,28.7-15.8
		c9.2-11.7,6.1-24.1,6.1-38l-0.1-55.7c0-1.7,1.5-3.1,3.4-3.1c1.9,0,3.4,1.4,3.4,3.1c0,36.7,0.9,73.4,1,110c0,1.6-0.1,3.3-0.2,4.9
		c-2.4,24.1-22.4,42.8-46.7,42.8c-22.7,0-41.7-16.4-46.1-38.1c-0.6-3.1-1-6.3-1-9.6c0-6.3,0.3-12.8,0.3-17.9l-0.1-91.9
		C260.7,87.9,262.9,86.5,264.8,86.5z"/>
	<path class="st2" d="M508.5,328c-0.1-1.6-0.5-2.7-1.1-3.4c-0.6-0.7-1.4-1-2.5-1c-1.2,0-2.1,0.5-2.8,1.5c-0.5,0.6-0.7,1.6-0.9,2.9
		L508.5,328z M516,332l-14.9-0.1c0.1,1.3,0.4,2.3,1,3c0.7,0.9,1.7,1.4,2.8,1.4c0.7,0,1.4-0.2,2.1-0.6c0.4-0.3,0.8-0.7,1.3-1.3
		l7.3,0.8c-1.1,2.2-2.5,3.7-4.1,4.6c-1.6,0.9-3.9,1.4-6.8,1.4c-2.6,0-4.6-0.4-6.1-1.2c-1.5-0.8-2.7-2.1-3.6-3.8
		c-1-1.8-1.4-3.8-1.4-6.2c0-3.4,1-6.1,3-8.1c2-2.1,4.6-3.1,8.1-3.1c2.8,0,5,0.5,6.6,1.4c1.6,0.9,2.8,2.3,3.7,4.1
		c0.8,1.8,1.2,4.1,1.2,6.9L516,332z M477.4,319l7,0l0,3.5c0.7-1.5,1.4-2.6,2.1-3.1c0.7-0.6,1.6-0.9,2.6-0.8c1.1,0,2.3,0.4,3.6,1.2
		l-2.3,5.8c-0.9-0.4-1.6-0.6-2.1-0.6c-1,0-1.7,0.4-2.3,1.3c-0.8,1.3-1.2,3.6-1.2,7l0,7.2l-7.5,0L477.4,319z M458.8,329.7
		c0,1.9,0.3,3.3,1,4.2c0.7,0.9,1.6,1.4,2.6,1.4c1.1,0,2-0.4,2.6-1.3c0.7-0.9,1-2.3,1.1-4.3c0-1.9-0.3-3.2-1-4.2
		c-0.7-0.9-1.5-1.4-2.6-1.4c-1.1,0-2,0.4-2.7,1.4C459.2,326.4,458.8,327.8,458.8,329.7z M451.3,329.7c0-3.3,1-6,3-8.1
		c2-2.1,4.7-3.2,8.1-3.1c3.9,0,6.8,1.3,8.8,3.8c1.6,2,2.4,4.5,2.4,7.4c0,3.3-1,6-3,8.1c-2,2.1-4.7,3.1-8.2,3.1
		c-3.1,0-5.6-0.9-7.6-2.7C452.5,336,451.3,333.2,451.3,329.7z M444.7,310.7l0,8.2l4.1,0l0,6l-4.1,0l0,7.6c0,0.9,0.1,1.5,0.2,1.8
		c0.2,0.5,0.7,0.7,1.3,0.7c0.5,0,1.3-0.2,2.3-0.5l0.5,5.7c-1.8,0.4-3.6,0.6-5.2,0.6c-1.9,0-3.2-0.3-4.1-0.8
		c-0.9-0.5-1.5-1.3-1.9-2.4c-0.4-1.1-0.6-2.8-0.6-5.2l0-7.5l-2.7,0l0-6l2.7,0l0-3.9L444.7,310.7z M424.5,330c-1,0.4-2.1,0.8-3.2,1.1
		c-1.5,0.4-2.5,0.9-2.9,1.3c-0.4,0.4-0.6,0.9-0.6,1.5c0,0.6,0.2,1.2,0.6,1.6c0.4,0.4,1,0.6,1.8,0.6c0.8,0,1.6-0.2,2.3-0.6
		c0.7-0.4,1.2-1,1.5-1.6c0.3-0.6,0.4-1.5,0.5-2.5L424.5,330z M418.1,325.6l-7.1-0.9c0.3-1.4,0.7-2.5,1.2-3.2c0.5-0.8,1.2-1.5,2.2-2
		c0.7-0.4,1.6-0.7,2.8-1c1.2-0.2,2.5-0.3,3.9-0.3c2.2,0,4,0.2,5.4,0.4c1.4,0.3,2.5,0.9,3.4,1.7c0.6,0.6,1.1,1.5,1.5,2.6
		c0.4,1.1,0.5,2.2,0.5,3.2l0,9.5c0,1,0.1,1.8,0.2,2.4c0.1,0.6,0.4,1.3,0.8,2.2l-7,0c-0.3-0.6-0.5-1-0.5-1.3
		c-0.1-0.3-0.2-0.7-0.3-1.4c-1,1-2,1.8-2.9,2.2c-1.3,0.6-2.9,0.9-4.6,0.9c-2.3,0-4.1-0.6-5.3-1.8c-1.2-1.2-1.8-2.7-1.8-4.4
		c0-1.6,0.4-3,1.3-4c0.9-1,2.5-1.8,4.8-2.3c2.8-0.6,4.6-1,5.4-1.3c0.8-0.2,1.7-0.6,2.6-1c0-1-0.2-1.7-0.6-2.1c-0.4-0.4-1-0.6-2-0.6
		c-1.2,0-2.1,0.2-2.7,0.6C418.8,324.1,418.4,324.7,418.1,325.6z M394.1,318.5l7,0l0,3.5c0.7-1.5,1.4-2.6,2.1-3.1
		c0.7-0.6,1.6-0.9,2.6-0.8c1.1,0,2.3,0.4,3.6,1.2l-2.3,5.8c-0.9-0.4-1.6-0.6-2.1-0.6c-1,0-1.7,0.4-2.3,1.3c-0.8,1.3-1.2,3.6-1.2,7
		l0,7.2l-7.5,0L394.1,318.5z M389.4,340l-7,0l0-3.5c-1,1.4-2.1,2.4-3.2,3c-1.1,0.6-2.4,0.9-3.9,0.9c-2,0-3.6-0.7-4.8-2.1
		c-1.2-1.4-1.7-3.5-1.7-6.3l0.1-13.6l7.5,0l-0.1,11.8c0,1.3,0.2,2.3,0.7,2.9c0.5,0.6,1.1,0.9,1.9,0.9c0.9,0,1.6-0.4,2.2-1.1
		c0.6-0.8,0.9-2.1,0.9-4.1l0-10.3l7.5,0L389.4,340z M334.1,310l10.9,0.1l4.1,18l4.3-18l10.9,0.1l-0.1,29.6l-6.8,0l0.1-22.6
		l-5.4,22.6l-6.1,0l-5.1-22.6l-0.1,22.6l-6.8,0L334.1,310z M310.2,326.9c-0.1-1.6-0.5-2.7-1.1-3.4c-0.6-0.7-1.4-1-2.5-1
		c-1.2,0-2.1,0.5-2.8,1.5c-0.5,0.6-0.7,1.6-0.9,2.9L310.2,326.9z M317.7,330.9l-14.9-0.1c0.1,1.3,0.4,2.3,1,3
		c0.7,0.9,1.7,1.4,2.8,1.4c0.7,0,1.4-0.2,2.1-0.6c0.4-0.3,0.8-0.7,1.3-1.3l7.3,0.8c-1.1,2.2-2.5,3.7-4.1,4.6
		c-1.6,0.9-3.9,1.4-6.8,1.4c-2.6,0-4.6-0.4-6.1-1.2c-1.5-0.8-2.7-2.1-3.6-3.8c-1-1.8-1.4-3.8-1.4-6.2c0-3.3,1-6.1,3-8.1
		c2-2.1,4.6-3.1,8.1-3.1c2.8,0,5,0.5,6.6,1.4c1.6,0.9,2.8,2.3,3.7,4.1c0.8,1.8,1.2,4.1,1.2,6.9L317.7,330.9z M279.1,317.9l7,0l0,3.5
		c0.7-1.5,1.4-2.6,2.1-3.1c0.7-0.6,1.6-0.9,2.6-0.8c1.1,0,2.3,0.4,3.6,1.1l-2.3,5.8c-0.9-0.4-1.6-0.6-2.1-0.6c-1,0-1.7,0.4-2.3,1.3
		c-0.8,1.3-1.2,3.6-1.2,7l0,7.2l-7.5,0L279.1,317.9z M267.2,329.1c-1,0.4-2.1,0.8-3.2,1.1c-1.5,0.4-2.5,0.9-2.9,1.3
		c-0.4,0.4-0.6,0.9-0.6,1.5c0,0.6,0.2,1.2,0.6,1.6c0.4,0.4,1,0.6,1.8,0.6c0.8,0,1.6-0.2,2.3-0.6c0.7-0.4,1.2-1,1.5-1.6
		c0.3-0.6,0.4-1.5,0.5-2.5L267.2,329.1z M260.7,324.7l-7.1-0.9c0.3-1.4,0.7-2.5,1.2-3.2c0.5-0.8,1.2-1.5,2.2-2
		c0.7-0.4,1.6-0.7,2.8-1c1.2-0.2,2.5-0.3,3.9-0.3c2.2,0,4,0.2,5.4,0.4c1.4,0.3,2.5,0.9,3.4,1.7c0.6,0.6,1.1,1.5,1.5,2.6
		c0.4,1.1,0.5,2.2,0.5,3.2l0,9.5c0,1,0.1,1.8,0.2,2.4c0.1,0.6,0.4,1.3,0.8,2.2l-7,0c-0.3-0.6-0.5-1-0.5-1.3
		c-0.1-0.3-0.2-0.7-0.2-1.4c-1,1-2,1.8-2.9,2.2c-1.3,0.6-2.9,0.9-4.6,0.9c-2.3,0-4.1-0.6-5.3-1.8c-1.2-1.2-1.8-2.7-1.8-4.4
		c0-1.6,0.4-3,1.3-4c0.9-1.1,2.5-1.8,4.8-2.3c2.8-0.6,4.6-1,5.4-1.3c0.8-0.2,1.7-0.6,2.6-1c0-1-0.2-1.7-0.6-2.1
		c-0.4-0.4-1-0.6-2-0.6c-1.2,0-2.1,0.2-2.7,0.6C261.4,323.2,261,323.8,260.7,324.7z M236.5,328.4c0,1.7,0.3,3,0.9,3.8
		c0.6,0.8,1.5,1.2,2.4,1.2c0.9,0,1.6-0.4,2.2-1.2c0.6-0.8,0.9-2.1,0.9-4c0-1.7-0.3-3-0.9-3.8c-0.6-0.8-1.3-1.2-2.2-1.2
		c-1,0-1.8,0.4-2.4,1.2C236.8,325.2,236.5,326.6,236.5,328.4z M228.9,347.2l0.1-29.6l7,0l0,3.2c1-1.3,1.9-2.2,2.7-2.7
		c1.1-0.6,2.3-0.9,3.6-0.9c2.6,0,4.6,1.1,6,3.3c1.4,2.2,2.1,4.9,2.1,8.2c0,3.6-0.8,6.3-2.4,8.2c-1.6,1.9-3.5,2.8-5.9,2.8
		c-1.1,0-2.2-0.2-3.1-0.7c-0.9-0.4-1.8-1.1-2.5-1.9l-0.1,10.2L228.9,347.2z M204.7,333l7.4-0.7c0.3,1,0.7,1.7,1.3,2.1
		c0.5,0.4,1.3,0.6,2.2,0.6c1,0,1.8-0.2,2.3-0.7c0.4-0.3,0.6-0.8,0.6-1.3c0-0.6-0.3-1-0.8-1.4c-0.4-0.2-1.5-0.5-3.2-0.9
		c-2.6-0.5-4.4-1-5.4-1.4c-1-0.4-1.8-1.2-2.5-2.2c-0.7-1-1-2.2-1-3.5c0-1.4,0.4-2.6,1.1-3.6c0.7-1,1.8-1.8,3.1-2.3
		c1.3-0.5,3.1-0.7,5.3-0.7c2.3,0,4,0.2,5.1,0.6c1.1,0.4,2,1,2.8,1.8c0.7,0.8,1.3,1.9,1.8,3.3l-7.1,0.7c-0.2-0.7-0.5-1.2-0.9-1.5
		c-0.6-0.4-1.3-0.7-2.1-0.7c-0.8,0-1.5,0.2-1.8,0.5c-0.4,0.3-0.6,0.7-0.6,1.2c0,0.5,0.2,0.9,0.7,1.2c0.5,0.3,1.5,0.5,3.2,0.7
		c2.5,0.3,4.3,0.8,5.5,1.3c1.2,0.6,2.1,1.4,2.8,2.4c0.6,1,0.9,2.1,0.9,3.4c0,1.2-0.3,2.4-1,3.6c-0.7,1.2-1.8,2.1-3.2,2.8
		c-1.5,0.7-3.5,1-6,1c-3.5,0-6.1-0.6-7.6-1.7C206.1,336.6,205.1,335,204.7,333z M194.3,328.7c-1,0.4-2.1,0.8-3.2,1.1
		c-1.5,0.4-2.5,0.9-2.9,1.3c-0.4,0.4-0.6,0.9-0.6,1.5c0,0.6,0.2,1.2,0.6,1.6c0.4,0.4,1,0.6,1.8,0.6c0.8,0,1.6-0.2,2.3-0.6
		c0.7-0.4,1.2-1,1.5-1.6c0.3-0.6,0.5-1.5,0.5-2.5L194.3,328.7z M187.9,324.3l-7.1-0.9c0.3-1.4,0.7-2.5,1.2-3.2
		c0.5-0.8,1.2-1.5,2.2-2c0.7-0.4,1.6-0.7,2.8-1c1.2-0.2,2.5-0.3,3.9-0.3c2.2,0,4,0.2,5.4,0.4c1.4,0.3,2.5,0.9,3.4,1.7
		c0.6,0.6,1.1,1.5,1.5,2.6c0.4,1.1,0.5,2.2,0.5,3.2l0,9.5c0,1,0.1,1.8,0.2,2.4c0.1,0.6,0.4,1.3,0.8,2.2l-7,0c-0.3-0.6-0.5-1-0.5-1.3
		c-0.1-0.3-0.2-0.7-0.3-1.4c-1,1-2,1.8-2.9,2.2c-1.3,0.6-2.8,0.9-4.6,0.9c-2.3,0-4.1-0.6-5.3-1.8c-1.2-1.2-1.8-2.6-1.8-4.4
		c0-1.6,0.4-3,1.3-4c0.9-1,2.5-1.8,4.8-2.3c2.8-0.6,4.6-1,5.4-1.3c0.8-0.2,1.7-0.6,2.6-1c0-1-0.2-1.7-0.6-2.1c-0.4-0.4-1-0.6-2-0.6
		c-1.2,0-2.1,0.2-2.7,0.6C188.6,322.7,188.2,323.4,187.9,324.3z M163.8,327.9l0-6.2l12.8,0.1l-0.1,12.6c-2.5,1.8-4.6,3.1-6.5,3.7
		c-1.9,0.7-4.1,1-6.7,1c-3.2,0-5.8-0.6-7.8-1.8c-2-1.2-3.6-3-4.6-5.4c-1.1-2.4-1.6-5.1-1.6-8.2c0-3.2,0.6-6,1.9-8.4
		c1.2-2.4,3-4.2,5.3-5.4c1.8-0.9,4.3-1.4,7.3-1.4c3,0,5.2,0.3,6.6,0.9c1.5,0.6,2.7,1.5,3.6,2.8c1,1.2,1.7,2.8,2.2,4.7l-8,1.5
		c-0.3-1.1-0.9-2-1.7-2.6c-0.8-0.6-1.8-0.9-3-0.9c-1.8,0-3.3,0.7-4.4,2.1c-1.1,1.4-1.6,3.6-1.7,6.6c0,3.2,0.5,5.5,1.6,6.9
		c1.1,1.4,2.6,2.1,4.6,2.1c0.9,0,1.8-0.1,2.6-0.4c0.8-0.3,1.8-0.8,2.9-1.5l0-2.8L163.8,327.9z M125.2,317l7.4,0l-0.1,21.4l-7.4,0
		L125.2,317z M125.3,308.8l7.5,0l0,5.6l-7.5,0L125.3,308.8z M112.9,327.6c0-1.7-0.3-2.9-1-3.8c-0.6-0.8-1.5-1.2-2.4-1.3
		c-0.9,0-1.6,0.4-2.2,1.2c-0.6,0.8-0.9,2.1-0.9,4c0,1.8,0.3,3,0.9,3.9c0.6,0.8,1.4,1.2,2.2,1.2c1,0,1.7-0.4,2.4-1.2
		C112.6,330.8,112.9,329.4,112.9,327.6z M120.5,308.8l-0.1,29.6l-7,0l0-3.2c-1,1.3-1.9,2.2-2.7,2.7c-1.1,0.6-2.3,0.9-3.6,0.9
		c-2.6,0-4.7-1.1-6.1-3.4c-1.4-2.2-2.1-4.9-2.1-8.1c0-3.6,0.8-6.3,2.4-8.1c1.6-1.9,3.5-2.8,5.9-2.8c1.2,0,2.2,0.2,3.2,0.7
		c0.9,0.4,1.8,1.1,2.5,2l0.1-10.3L120.5,308.8z"/>
</g>
</svg>
