<?xml version="1.0" encoding="utf-8"?>
<!-- Generator: Adobe Illustrator 24.0.1, SVG Export Plug-In . SVG Version: 6.00 Build 0)  -->
<svg version="1.1" id="Livello_1" xmlns="http://www.w3.org/2000/svg" xmlns:xlink="http://www.w3.org/1999/xlink" x="0px" y="0px"
	 viewBox="0 0 283.5 283.5" style="enable-background:new 0 0 283.5 283.5;" xml:space="preserve">
<style type="text/css">
	.st0{display:none;}
	.st1{display:inline;fill:#010202;}
	.st2{fill:#FFFFFF;}
</style>
<g id="XMLID_22_" class="st0">
	<path id="XMLID_39_" class="st1" d="M48.9,105v1.7h-26V105h2.2c2.5,0,4.3-0.7,5.5-2.2c0.7-1,1.1-3.3,1.1-6.9V56.7
		c0-3.1-0.2-5.1-0.6-6.1c-0.3-0.7-0.9-1.4-1.8-1.9c-1.3-0.7-2.7-1.1-4.1-1.1H23v-1.7h26v1.7h-2.2c-2.5,0-4.3,0.7-5.4,2.2
		c-0.7,1-1.1,3.3-1.1,6.9v39.2c0,3.1,0.2,5.1,0.6,6.1c0.3,0.7,0.9,1.4,1.9,1.9c1.3,0.7,2.6,1.1,4.1,1.1C46.9,105,48.9,105,48.9,105z
		"/>
	<path id="XMLID_37_" class="st1" d="M118.2,45.9l0.7,14.2h-1.7c-0.3-2.5-0.8-4.3-1.3-5.4c-0.9-1.7-2.2-3-3.7-3.8s-3.6-1.2-6.1-1.2
		h-8.6v46.4c0,3.7,0.4,6.1,1.2,7c1.1,1.3,2.9,1.9,5.2,1.9h2.1v1.7H80.3V105h2.2c2.6,0,4.4-0.8,5.5-2.3c0.7-1,1-3.1,1-6.5V49.7h-7.3
		c-2.8,0-4.9,0.2-6,0.6c-1.6,0.6-2.9,1.7-4,3.3s-1.8,3.8-2,6.5H68l0.7-14.2C68.7,45.9,118.2,45.9,118.2,45.9z"/>
	<path id="XMLID_34_" class="st1" d="M169.7,86.3h-23.5l-4.1,9.6c-1,2.4-1.5,4.1-1.5,5.3c0,0.9,0.4,1.7,1.3,2.4
		c0.9,0.7,2.8,1.2,5.7,1.4v1.7h-19.1V105c2.5-0.4,4.2-1,4.9-1.7c1.5-1.4,3.2-4.3,5.1-8.7l21.4-50h1.6l21.1,50.5
		c1.7,4.1,3.2,6.7,4.6,7.9c1.4,1.2,3.3,1.9,5.8,2v1.7h-24V105c2.4-0.1,4.1-0.5,4.9-1.2c0.9-0.7,1.3-1.5,1.3-2.5
		c0-1.3-0.6-3.4-1.8-6.2L169.7,86.3z M168.5,83l-10.3-24.6L147.6,83H168.5z"/>
	<path id="XMLID_32_" class="st1" d="M260.6,89.9l1.5,0.3l-5.2,16.5h-47V105h2.3c2.6,0,4.4-0.8,5.5-2.5c0.6-1,0.9-3.2,0.9-6.6V56.7
		c0-3.8-0.4-6.2-1.3-7.1c-1.2-1.3-2.9-2-5.2-2h-2.3v-1.7h27.5v1.7c-3.2,0-5.5,0.3-6.8,0.9c-1.3,0.6-2.2,1.4-2.7,2.4
		s-0.7,3.2-0.7,6.9V96c0,2.5,0.2,4.2,0.7,5.1c0.4,0.6,0.9,1.1,1.7,1.4c0.7,0.3,3.1,0.4,7,0.4h4.4c4.7,0,7.9-0.3,9.8-1
		c1.9-0.7,3.6-1.9,5.2-3.7C257.5,96.4,259,93.6,260.6,89.9z"/>
	<path id="XMLID_29_" class="st1" d="M81.3,188.8H65.1l-20.6-28.4c-1.5,0.1-2.8,0.1-3.7,0.1c-0.4,0-0.8,0-1.3,0
		c-0.4,0-0.9,0-1.4-0.1V178c0,3.8,0.4,6.2,1.3,7.1c1.1,1.3,2.8,2,5.1,2h2.4v1.7h-26v-1.7h2.3c2.6,0,4.4-0.8,5.5-2.5
		c0.6-0.9,0.9-3.1,0.9-6.6v-39.2c0-3.8-0.4-6.2-1.3-7.1c-1.2-1.3-2.9-2-5.2-2h-2.3V128H43c6.5,0,11.2,0.5,14.3,1.4s5.7,2.7,7.8,5.2
		s3.2,5.5,3.2,9c0,3.7-1.2,7-3.7,9.7c-2.4,2.7-6.2,4.7-11.3,5.8l12.5,17.4c2.9,4,5.3,6.7,7.4,8s4.7,2.1,8.1,2.5V188.8z M38.2,157.5
		c0.6,0,1.1,0,1.5,0s0.8,0,1,0c5.8,0,10.2-1.3,13.1-3.8s4.4-5.7,4.4-9.6c0-3.8-1.2-6.9-3.6-9.3c-2.4-2.4-5.5-3.6-9.4-3.6
		c-1.7,0-4.1,0.3-7,0.9C38.2,132.1,38.2,157.5,38.2,157.5z"/>
	<path id="XMLID_27_" class="st1" d="M101.3,131.3v24h13.4c3.5,0,5.8-0.5,6.9-1.6c1.6-1.4,2.4-3.8,2.6-7.3h1.7v21.1h-1.7
		c-0.4-3-0.8-4.9-1.3-5.7c-0.5-1-1.4-1.9-2.6-2.5s-3.1-0.9-5.6-0.9h-13.4v20c0,2.7,0.1,4.3,0.4,4.9c0.2,0.6,0.7,1,1.3,1.4
		c0.6,0.3,1.7,0.5,3.4,0.5h10.3c3.4,0,5.9-0.2,7.5-0.7s3-1.4,4.5-2.8c1.9-1.9,3.7-4.6,5.7-8.4h1.8l-5.2,15.2H84v-1.7h2.2
		c1.4,0,2.8-0.3,4.1-1c1-0.5,1.6-1.2,1.9-2.2s0.5-2.9,0.5-5.9v-39.5c0-3.9-0.4-6.2-1.2-7.1c-1.1-1.2-2.9-1.8-5.4-1.8H84V128h46.8
		l0.7,13.3h-1.7c-0.6-3.2-1.3-5.4-2.1-6.6c-0.8-1.2-1.9-2.1-3.4-2.7c-1.2-0.4-3.3-0.7-6.3-0.7H101.3z"/>
	<path id="XMLID_25_" class="st1" d="M138.5,128H155l37.1,45.6v-35c0-3.7-0.4-6.1-1.3-7c-1.1-1.3-2.9-1.9-5.2-1.9h-2.1V128h21.1v1.7
		h-2.2c-2.6,0-4.4,0.8-5.5,2.3c-0.7,1-1,3.1-1,6.5v51.2h-1.6l-40.1-48.9v37.4c0,3.7,0.4,6.1,1.2,7c1.1,1.3,2.9,1.9,5.2,1.9h2.2v1.7
		h-21.1v-1.7h2.1c2.6,0,4.4-0.8,5.5-2.3c0.7-1,1-3.1,1-6.5V136c-1.8-2.1-3.1-3.4-4-4.1c-0.9-0.7-2.2-1.3-4-1.8
		c-0.9-0.3-2.2-0.4-3.9-0.4L138.5,128L138.5,128z"/>
	<path id="XMLID_23_" class="st1" d="M260.6,128l0.7,14.2h-1.7c-0.3-2.5-0.8-4.3-1.3-5.4c-0.9-1.7-2.2-3-3.7-3.8
		c-1.5-0.8-3.6-1.2-6.1-1.2h-8.6v46.4c0,3.7,0.4,6.1,1.2,7c1.1,1.3,2.9,1.9,5.2,1.9h2.1v1.7h-25.8v-1.7h2.1c2.6,0,4.4-0.8,5.5-2.3
		c0.7-1,1-3.1,1-6.5v-46.4H224c-2.8,0-4.9,0.2-6,0.6c-1.6,0.6-2.9,1.7-4,3.3s-1.8,3.8-2,6.5h-1.7L211,128H260.6z"/>
</g>
<g>
	<path class="st2" d="M212.2,205.8c-1.4,0-2.5,0.5-3.3,1.6c-1.1,1.3-1.6,3.2-1.6,5.6c0,2.5,0.6,4.5,1.6,5.9c0.8,1.1,2,1.6,3.3,1.6
		c1.5,0,2.7-0.6,3.6-1.7c0.9-1.1,1.4-2.9,1.4-5.4c0-2.7-0.5-4.7-1.6-6C214.8,206.3,213.7,205.8,212.2,205.8z"/>
	<polygon class="st2" points="153.1,72.5 144.5,92.6 161.5,92.6 	"/>
	<path class="st2" d="M57.1,153.4c4.7,0,8.3-1.1,10.7-3.1c2.4-2,3.6-4.7,3.6-7.8c0-3.1-1-5.6-2.9-7.6c-2-2-4.5-2.9-7.7-2.9
		c-1.4,0-3.3,0.2-5.7,0.7v20.7c0.5,0,0.9,0,1.2,0C56.7,153.4,56.9,153.4,57.1,153.4z"/>
	<path class="st2" d="M140.6,205.8c-1.4,0-2.5,0.5-3.3,1.6c-1.1,1.3-1.6,3.2-1.6,5.6c0,2.5,0.6,4.5,1.6,5.9c0.8,1.1,2,1.6,3.3,1.6
		c1.5,0,2.7-0.6,3.6-1.7c0.9-1.1,1.4-2.9,1.4-5.4c0-2.7-0.5-4.7-1.6-6C143.2,206.3,142,205.8,140.6,205.8z"/>
	<path class="st2" d="M217,31.6H61.9C44,31.6,29.5,46.1,29.5,64v155.1c0,17.9,14.5,32.4,32.4,32.4H217c17.9,0,32.4-14.5,32.4-32.4
		V64C249.4,46.1,234.9,31.6,217,31.6z M151,176.1c0.9,1.1,2.4,1.6,4.2,1.6h1.8v1.4h-17.2v-1.4h1.7c2.1,0,3.6-0.7,4.5-1.9
		c0.6-0.8,0.8-2.5,0.8-5.3V136c-1.5-1.7-2.5-2.8-3.3-3.3c-0.7-0.6-1.8-1.1-3.3-1.5c-0.7-0.2-1.8-0.3-3.2-0.3v-1.4h13.4l30.3,37.3
		v-28.6c0-3-0.3-5-1.1-5.7c-0.9-1.1-2.4-1.6-4.2-1.6h-1.7v-1.4H191v1.4h-1.8c-2.1,0-3.6,0.7-4.5,1.9c-0.6,0.8-0.8,2.5-0.8,5.3v41.8
		h-1.3l-32.8-39.9v30.6C150,173.4,150.4,175.2,151,176.1z M128.9,110.5c2-0.3,3.4-0.8,4-1.4c1.2-1.1,2.6-3.5,4.2-7.1l17.5-40.8h1.3
		l17.2,41.3c1.4,3.3,2.6,5.5,3.8,6.5c1.1,1,2.7,1.6,4.7,1.6v1.4H162v-1.4c2-0.1,3.3-0.4,4-1c0.7-0.6,1.1-1.2,1.1-2
		c0-1.1-0.5-2.8-1.5-5.1l-3-7.1h-19.2l-3.3,7.8c-0.8,2-1.2,3.3-1.2,4.3c0,0.7,0.3,1.4,1.1,2c0.7,0.6,2.3,1,4.7,1.1v1.4h-15.6
		C128.9,112,128.9,110.5,128.9,110.5z M79.9,62.3h40.5l0.6,11.6h-1.4c-0.2-2-0.7-3.5-1.1-4.4c-0.7-1.4-1.8-2.5-3-3.1
		c-1.2-0.7-2.9-1-5-1h-7v37.9c0,3,0.3,5,1,5.7c0.9,1.1,2.4,1.6,4.2,1.6h1.7v1.4h-21v-1.4h1.8c2.1,0,3.6-0.7,4.5-1.9
		c0.6-0.8,0.8-2.5,0.8-5.3v-38h-6c-2.3,0-4,0.2-4.9,0.5c-1.3,0.5-2.4,1.4-3.3,2.7c-0.9,1.3-1.5,3.1-1.6,5.3h-1.4L79.9,62.3z
		 M42.6,110.5h1.8c2,0,3.5-0.6,4.5-1.8c0.6-0.8,0.9-2.7,0.9-5.6V71c0-2.5-0.2-4.2-0.5-5c-0.2-0.6-0.7-1.1-1.5-1.6
		c-1.1-0.6-2.2-0.9-3.3-0.9h-1.8v-1.4h21.2v1.4h-1.8c-2,0-3.5,0.6-4.4,1.8c-0.6,0.8-0.9,2.7-0.9,5.6v32c0,2.5,0.2,4.2,0.5,5
		c0.2,0.6,0.7,1.1,1.6,1.6c1.1,0.6,2.1,0.9,3.3,0.9H64v1.4H42.8v-1.3H42.6z M41,177.5h1.9c2.1,0,3.6-0.7,4.5-2
		c0.5-0.7,0.7-2.5,0.7-5.4v-32c0-3.1-0.3-5.1-1.1-5.8c-1-1.1-2.4-1.6-4.2-1.6h-1.9v-1.4H59c5.3,0,9.1,0.4,11.7,1.1
		c2.5,0.7,4.7,2.2,6.4,4.2c1.7,2,2.6,4.5,2.6,7.4c0,3-1,5.7-3,7.9c-2,2.2-5.1,3.8-9.2,4.7l10.2,14.2c2.4,3.3,4.3,5.5,6,6.5
		c1.7,1.1,3.8,1.7,6.6,2v1.4H77.1l-16.8-23.2c-1.2,0.1-2.3,0.1-3,0.1c-0.3,0-0.7,0-1.1,0c-0.3,0-0.7,0-1.1-0.1v14.5
		c0,3.1,0.3,5.1,1.1,5.8c0.9,1.1,2.3,1.6,4.2,1.6h2v1.4H41C41,178.9,41,177.5,41,177.5z M53.1,220.8h-12v-0.4h0.6
		c0.3,0,0.7-0.1,1.1-0.2c0.2-0.1,0.4-0.3,0.5-0.6c0.1-0.2,0.2-0.7,0.2-1.5V208c0-1-0.1-1.6-0.3-1.8c-0.2-0.3-0.7-0.5-1.4-0.5h-0.6
		v-0.4h12l0.2,3.4h-0.4c-0.2-0.8-0.3-1.4-0.6-1.7c-0.2-0.3-0.5-0.6-0.9-0.7c-0.3-0.1-0.8-0.2-1.6-0.2h-4.2v6.1H49
		c0.9,0,1.5-0.2,1.8-0.4c0.4-0.3,0.7-1,0.7-1.9h0.4v5.4h-0.4c-0.1-0.7-0.2-1.2-0.3-1.5c-0.2-0.2-0.3-0.5-0.7-0.7
		c-0.3-0.2-0.8-0.2-1.5-0.2h-3.4v5.1c0,0.7,0,1.1,0.1,1.2c0.1,0.2,0.2,0.2,0.3,0.3s0.4,0.2,0.9,0.2h2.6c0.9,0,1.6-0.1,1.9-0.2
		c0.4-0.2,0.8-0.3,1.1-0.7c0.5-0.5,1-1.2,1.5-2.1h0.5L53.1,220.8z M71.9,205.7c-0.6,0.1-1,0.2-1.2,0.5c-0.4,0.4-0.7,1-1.1,1.7
		l-5.4,13.2h-0.4L58,207.8c-0.3-0.7-0.5-1.1-0.7-1.2c-0.2-0.2-0.4-0.4-0.7-0.6c-0.2-0.2-0.7-0.2-1.1-0.2v-0.4h6.4v0.4
		c-0.7,0.1-1.2,0.2-1.4,0.3c-0.2,0.2-0.3,0.4-0.3,0.7c0,0.4,0.2,1,0.5,1.8l3.9,9.1l3.7-9c0.3-0.9,0.6-1.5,0.6-1.9
		c0-0.2-0.1-0.4-0.3-0.7c-0.2-0.2-0.6-0.3-1.1-0.4c0,0-0.1,0-0.2,0v-0.4H72L71.9,205.7L71.9,205.7z M84.9,220.8h-12v-0.4h0.6
		c0.3,0,0.7-0.1,1.1-0.2c0.2-0.1,0.4-0.3,0.5-0.6c0.1-0.2,0.2-0.7,0.2-1.5V208c0-1-0.1-1.6-0.3-1.8c-0.2-0.3-0.7-0.5-1.4-0.5h-0.6
		v-0.4h12l0.2,3.4h-0.4c-0.2-0.8-0.3-1.4-0.6-1.7c-0.2-0.3-0.5-0.6-0.9-0.7c-0.3-0.1-0.8-0.2-1.6-0.2h-4.2v6.1h3.4
		c0.9,0,1.5-0.2,1.8-0.4c0.4-0.3,0.7-1,0.7-1.9h0.4v5.4h-0.4c-0.1-0.7-0.2-1.2-0.3-1.5c-0.2-0.2-0.3-0.5-0.7-0.7
		c-0.3-0.2-0.8-0.2-1.5-0.2h-3.4v5.1c0,0.7,0,1.1,0.1,1.2c0.1,0.2,0.2,0.2,0.3,0.3c0.2,0.1,0.4,0.2,0.9,0.2h2.6
		c0.9,0,1.6-0.1,1.9-0.2c0.4-0.2,0.8-0.3,1.1-0.7c0.5-0.5,1-1.2,1.5-2.1h0.5L84.9,220.8z M103.7,205.7h-0.6c-0.7,0-1.1,0.2-1.4,0.6
		c-0.2,0.2-0.2,0.8-0.2,1.6v13.2h-0.4l-10.3-12.5v9.6c0,1,0.1,1.6,0.3,1.8c0.3,0.3,0.7,0.5,1.3,0.5H93v0.4h-5.4v-0.4h0.6
		c0.7,0,1.1-0.2,1.4-0.6c0.2-0.2,0.2-0.8,0.2-1.7v-10.8c-0.5-0.5-0.8-0.9-1.1-1.1c-0.2-0.2-0.6-0.3-1.1-0.5c-0.2-0.1-0.6-0.1-1-0.1
		v-0.4H91l9.5,11.7v-9c0-1-0.1-1.6-0.3-1.8c-0.2-0.3-0.7-0.5-1.3-0.5h-0.6v-0.4h5.4L103.7,205.7L103.7,205.7z M117.6,208.9
		c-0.1-0.7-0.2-1.1-0.3-1.4c-0.2-0.4-0.6-0.7-1-1c-0.4-0.2-0.9-0.3-1.6-0.3h-2.2v11.9c0,1,0.1,1.6,0.3,1.8c0.3,0.3,0.7,0.5,1.3,0.5
		h0.6v0.4h-6.6v-0.4h0.6c0.7,0,1.1-0.2,1.4-0.6c0.2-0.2,0.2-0.8,0.2-1.7v-11.9h-1.9c-0.7,0-1.2,0.1-1.6,0.2
		c-0.4,0.2-0.7,0.4-1.1,0.8c-0.2,0.4-0.5,1-0.5,1.7h-0.4l0.2-3.7h12.7l0.2,3.7L117.6,208.9L117.6,208.9z M129.3,219.9
		c-0.9,0.8-2.1,1.3-3.5,1.3c-0.5,0-0.9,0-1.3-0.1c-0.2,0-0.7-0.2-1.5-0.4c-0.7-0.2-1.2-0.3-1.4-0.3s-0.3,0.1-0.5,0.2
		c-0.1,0.1-0.2,0.3-0.2,0.7h-0.4V216h0.4c0.2,1.1,0.5,2,0.8,2.5s0.8,1,1.6,1.4c0.7,0.3,1.5,0.6,2.3,0.6c1,0,1.7-0.2,2.3-0.7
		c0.6-0.5,0.8-1.1,0.8-1.8c0-0.4-0.1-0.7-0.3-1.1s-0.6-0.7-1-1.1c-0.3-0.2-1.1-0.7-2.5-1.5c-1.3-0.7-2.3-1.3-2.9-1.8
		c-0.6-0.4-1-0.9-1.3-1.5s-0.4-1.1-0.4-1.8c0-1.1,0.4-2,1.3-2.9c0.8-0.8,2-1.2,3.3-1.2c0.8,0,1.7,0.2,2.6,0.6
		c0.4,0.2,0.7,0.3,0.9,0.3c0.2,0,0.3-0.1,0.5-0.2c0.2-0.1,0.2-0.3,0.3-0.7h0.4v5.4h-0.4c-0.2-1.1-0.4-1.9-0.7-2.5
		c-0.3-0.6-0.9-1.1-1.6-1.5c-0.7-0.3-1.3-0.6-2-0.6c-0.8,0-1.5,0.2-2,0.7s-0.8,1.1-0.8,1.6c0,0.5,0.2,0.9,0.5,1.3
		c0.5,0.6,1.6,1.3,3.3,2.3c1.5,0.8,2.5,1.4,2.9,1.8c0.6,0.4,1,0.9,1.2,1.5c0.3,0.6,0.4,1.1,0.4,1.8
		C130.7,218.1,130.2,219,129.3,219.9z M92.5,178.9v-1.4h1.8c1.1,0,2.3-0.2,3.3-0.8c0.8-0.4,1.3-1,1.6-1.8c0.2-0.8,0.4-2.4,0.4-4.8
		v-32.3c0-3.2-0.3-5.1-1-5.8c-0.9-1-2.4-1.5-4.4-1.5h-1.7v-1.4h38.2l0.6,10.9h-1.4c-0.5-2.6-1.1-4.4-1.7-5.4c-0.7-1-1.6-1.7-2.8-2.2
		c-1-0.3-2.7-0.6-5.1-0.6h-13.6v19.6h10.9c2.9,0,4.7-0.4,5.6-1.3c1.3-1.1,2-3.1,2.1-6h1.4v17.2h-1.4c-0.3-2.5-0.7-4-1.1-4.7
		c-0.4-0.8-1.1-1.6-2.1-2c-1-0.5-2.5-0.7-4.6-0.7h-10.9v16.3c0,2.2,0.1,3.5,0.3,4c0.2,0.5,0.6,0.8,1.1,1.1c0.5,0.2,1.4,0.4,2.8,0.4
		h8.4c2.8,0,4.8-0.2,6.1-0.6c1.3-0.4,2.5-1.1,3.7-2.3c1.6-1.6,3-3.8,4.7-6.9h1.5l-4.2,12.4H92.5V178.9z M145.9,218.9
		c-1.5,1.6-3.3,2.4-5.4,2.4c-2.1,0-3.9-0.7-5.4-2.3c-1.5-1.6-2.2-3.5-2.2-5.9c0-2.5,0.8-4.5,2.5-6c1.5-1.4,3.2-2,5.2-2
		s3.8,0.7,5.2,2.3c1.5,1.6,2.2,3.4,2.2,5.7C148.2,215.4,147.5,217.3,145.9,218.9z M161.9,220.8h-12v-0.4h0.6c0.7,0,1.1-0.2,1.4-0.7
		c0.2-0.2,0.2-0.8,0.2-1.7v-10c0-1-0.1-1.6-0.3-1.8c-0.3-0.3-0.7-0.5-1.3-0.5h-0.6v-0.4h7v0.4c-0.8,0-1.4,0.1-1.7,0.2
		c-0.3,0.2-0.6,0.3-0.7,0.6c-0.2,0.2-0.2,0.8-0.2,1.7v9.8c0,0.7,0.1,1.1,0.2,1.3c0.1,0.2,0.2,0.2,0.4,0.3c0.2,0.1,0.8,0.1,1.8,0.1
		h1.1c1.2,0,2-0.1,2.5-0.2c0.5-0.2,0.9-0.5,1.3-0.9c0.4-0.4,0.8-1.1,1.2-2.1l0.4,0.1L161.9,220.8z M180.7,205.7h-0.6
		c-0.6,0-1.1,0.2-1.4,0.7c-0.2,0.2-0.2,0.8-0.2,1.6v6.3c0,1.6-0.2,2.8-0.5,3.6c-0.3,0.9-0.9,1.6-1.8,2.2c-0.9,0.7-2.1,0.9-3.7,0.9
		c-1.7,0-3-0.3-3.8-0.9c-0.8-0.6-1.5-1.4-1.9-2.4c-0.2-0.7-0.3-2-0.3-3.8v-6c0-1-0.2-1.6-0.4-1.9c-0.2-0.3-0.7-0.4-1.3-0.4h-0.6
		v-0.4h6.7v0.4h-0.6c-0.7,0-1.1,0.2-1.4,0.6c-0.2,0.2-0.3,0.8-0.3,1.7v6.8c0,0.6,0.1,1.3,0.2,2c0.1,0.7,0.3,1.4,0.6,1.8
		c0.3,0.4,0.7,0.8,1.2,1.1c0.6,0.2,1.2,0.4,2,0.4c1,0,2-0.2,2.7-0.7c0.8-0.4,1.4-1,1.6-1.7c0.3-0.7,0.4-1.9,0.4-3.5v-6.3
		c0-1-0.1-1.6-0.3-1.8c-0.3-0.3-0.7-0.5-1.3-0.5h-0.6v-0.4h5.5L180.7,205.7L180.7,205.7z M194.5,208.9c-0.1-0.7-0.2-1.1-0.3-1.4
		c-0.2-0.4-0.6-0.7-1-1c-0.4-0.2-0.9-0.3-1.6-0.3h-2.2v11.9c0,1,0.1,1.6,0.3,1.8c0.3,0.3,0.7,0.5,1.3,0.5h0.6v0.4H185v-0.4h0.6
		c0.7,0,1.1-0.2,1.4-0.6c0.2-0.2,0.2-0.8,0.2-1.7v-11.9h-1.9c-0.7,0-1.2,0.1-1.6,0.2c-0.4,0.2-0.7,0.4-1.1,0.8
		c-0.2,0.4-0.5,1-0.5,1.7h-0.4l0.2-3.7h12.7l0.2,3.7L194.5,208.9L194.5,208.9z M220.9,176.1c0.9,1.1,2.4,1.6,4.2,1.6h1.7v1.4h-21.1
		v-1.4h1.7c2.1,0,3.6-0.7,4.5-1.9c0.6-0.8,0.8-2.5,0.8-5.3v-37.9h-5.9c-2.3,0-4,0.2-4.9,0.5c-1.3,0.5-2.4,1.4-3.3,2.7
		s-1.5,3.1-1.6,5.3h-1.4l0.6-11.6h40.5l0.6,11.6H236c-0.2-2-0.7-3.5-1.1-4.4c-0.7-1.4-1.8-2.5-3-3.1c-1.2-0.7-2.9-1-5-1h-7v37.9
		C219.9,173.4,220.2,175.2,220.9,176.1z M203,205.7h-0.6c-0.7,0-1.1,0.2-1.4,0.6c-0.2,0.2-0.3,0.8-0.3,1.8v10c0,0.8,0.1,1.3,0.2,1.6
		c0.1,0.2,0.2,0.3,0.5,0.5c0.3,0.2,0.7,0.2,1.1,0.2h0.6v0.4h-6.7v-0.4h0.6c0.7,0,1.1-0.2,1.4-0.6c0.2-0.2,0.2-0.8,0.2-1.8v-10
		c0-0.8-0.1-1.3-0.2-1.6c-0.1-0.2-0.2-0.3-0.5-0.5c-0.3-0.2-0.7-0.2-1.1-0.2h-0.6v-0.4h6.7L203,205.7L203,205.7z M217.6,218.9
		c-1.5,1.6-3.3,2.4-5.4,2.4c-2.1,0-3.9-0.7-5.4-2.3c-1.5-1.6-2.2-3.5-2.2-5.9c0-2.5,0.8-4.5,2.5-6c1.5-1.4,3.2-2,5.2-2
		c2,0,3.8,0.7,5.2,2.3c1.5,1.6,2.2,3.4,2.2,5.7C219.9,215.4,219.1,217.3,217.6,218.9z M237.6,205.7h-0.5c-0.7,0-1.1,0.2-1.4,0.6
		c-0.2,0.2-0.2,0.8-0.2,1.6v13.2h-0.4l-10.3-12.5v9.6c0,1,0.1,1.6,0.3,1.8c0.3,0.3,0.7,0.5,1.3,0.5h0.6v0.4h-5.4v-0.4h0.6
		c0.7,0,1.1-0.2,1.4-0.6c0.2-0.2,0.2-0.8,0.2-1.7v-10.8c-0.5-0.5-0.8-0.9-1.1-1.1c-0.2-0.2-0.6-0.3-1.1-0.5c-0.2-0.1-0.6-0.1-1-0.1
		v-0.4h4.2l9.5,11.7v-9c0-1-0.1-1.6-0.3-1.8c-0.2-0.3-0.7-0.5-1.3-0.5h-0.6v-0.4h5.4V205.7z M233.7,111.9h-38.4v-1.4h1.9
		c2.1,0,3.6-0.7,4.5-2c0.5-0.8,0.7-2.6,0.7-5.4V71c0-3.1-0.3-5.1-1.1-5.8c-1-1.1-2.4-1.6-4.2-1.6h-1.9v-1.4h22.5v1.4
		c-2.6,0-4.5,0.2-5.6,0.7c-1.1,0.5-1.8,1.1-2.2,2s-0.6,2.6-0.6,5.6v31.2c0,2,0.2,3.4,0.6,4.2c0.3,0.5,0.7,0.9,1.4,1.1
		c0.6,0.2,2.5,0.3,5.7,0.3h3.6c3.8,0,6.5-0.2,8-0.8c1.6-0.6,2.9-1.6,4.2-3c1.3-1.4,2.5-3.7,3.8-6.8l1.2,0.2L233.7,111.9z"/>
</g>
</svg>
