<?xml version="1.0" encoding="utf-8"?>
<!-- Generator: Adobe Illustrator 24.0.1, SVG Export Plug-In . SVG Version: 6.00 Build 0)  -->
<svg version="1.1" id="Livello_1" xmlns="http://www.w3.org/2000/svg" xmlns:xlink="http://www.w3.org/1999/xlink" x="0px" y="0px"
	 viewBox="0 0 173 33" style="enable-background:new 0 0 173 33;" xml:space="preserve">
<style type="text/css">
	.st0{fill-rule:evenodd;clip-rule:evenodd;fill:#FFFFFF;}
</style>
<polygon class="st0" points="119.5,13.4 119.5,31.1 134.4,31.1 134.4,20.5 125.3,20.5 125.4,24.2 129.4,24.2 129.4,26.2 124.6,26.2 
	124.7,14.8 134.4,14.7 134.4,9.9 123.4,9.9 119.5,9.9 "/>
<polygon class="st0" points="103.5,13.4 103.5,31.1 118.4,31.1 118.3,20.5 109.2,20.5 109.4,24.2 113.4,24.2 113.4,26.2 108.5,26.2 
	108.6,14.8 118.4,14.7 118.3,9.9 107.4,9.9 103.5,9.9 "/>
<polygon class="st0" points="145.3,31 150.3,31.1 150.3,10 145.3,9.9 145.3,15.7 140.4,15.7 140.4,9.9 135.4,9.9 135.4,31.1 
	140.4,31.1 140.6,20.5 145.3,20.5 "/>
<polygon class="st0" points="29.5,27.5 29.5,31 33.2,31.1 44.3,31 44.3,9.9 39.3,9.9 39.3,26.2 34.5,26.2 34.5,9.9 29.5,9.9 "/>
<polygon class="st0" points="167.3,10 167.3,26.2 162.5,26.2 162.5,10 157.5,10 157.5,31.1 172.3,31 172.3,10 "/>
<polygon class="st0" points="74.5,9.9 74.5,14.7 79.4,14.8 79.5,31.1 84.5,31.1 84.5,14.8 102.5,14.7 102.6,10 "/>
<path class="st0" d="M50.4,31h4.9l0.1-16.1l18.1-0.1l0.1-4.8c-20.1,0-20.6,0-28,0l-0.1,4.8l4.9,0.1L50.4,31z"/>
<polygon class="st0" points="151.4,31.1 156.4,31.1 156.4,11.3 156.4,9.9 151.4,9.9 "/>
<polygon class="st0" points="97.6,31.1 102.5,31.1 102.5,16.4 102.5,16.1 97.6,16.2 "/>
<path class="st0" d="M11.3,10.3c-0.3,0.6,0.5,0.2-0.6,0.5c-1.4,1.5-2.8,3-4.5,4.2V0.8H0.6v30.2l5.4,0c0-2.2-0.2-7.8,0.2-9.4
	l-0.1-1.1c2.1-1.3,3.4-3.3,4.7-3.9l8.6,10.8c1,1.2,2.2,2.5,2.8,3.7l7.2-0.1v-0.2c-0.8-0.5-6.3-7.4-7.5-8.8c-1.2-1.4-2.3-2.9-3.7-4.5
	L14.6,13l11-9.2c0.7-0.6,2.9-2.3,3.3-2.9c-2,0-5-0.2-6.8,0c-1.2,0.1-2.9,2-3.7,2.9c-1.1,1.3-2.5,2.1-3.6,3.3
	C13.5,8.4,12.5,9.3,11.3,10.3"/>
</svg>
