<?xml version="1.0" encoding="utf-8"?>
<!-- Generator: Adobe Illustrator 24.0.1, SVG Export Plug-In . SVG Version: 6.00 Build 0)  -->
<svg version="1.1" id="Livello_1" xmlns="http://www.w3.org/2000/svg" xmlns:xlink="http://www.w3.org/1999/xlink" x="0px" y="0px"
	 viewBox="0 0 400 400" style="enable-background:new 0 0 400 400;" xml:space="preserve">
<style type="text/css">
	.st0{fill:#FFFFFF;}
</style>
<g>
	<g id="XMLID_3_">
		<g id="XMLID_7_">
			<path id="XMLID_12_" class="st0" d="M104.6,186.3c0,0,1.5-4.5,5.3-11.9c4.2-7,10.5-17.6,21.1-27.4c2.7-2.4,5.4-5.1,8.5-7.5
				c2.9-2.6,6.3-5,9.6-7.5c1.7-1.3,3.5-2.4,5.3-3.6c1.8-1.1,3.7-2.3,5.5-3.5c1.9-1,3.9-2.1,5.9-3.1c2-1,4-2.1,6.2-2.9
				c4.2-1.8,8.5-3.9,13-5.3c2.2-0.7,4.5-1.5,6.8-2.3c2.3-0.6,4.6-1.2,6.9-1.8c9.3-2.4,18.8-4,28.2-5.3c19-2.2,37.6-3,55-3.3
				c17.3-0.5,33.4,0,47.1-0.9c13.6-0.9,25.1-1.5,33.1-2.9c4.1-0.5,7.2-1.2,9.3-1.5c2.2-0.4,3.3-0.6,3.3-0.6s-1,0.6-2.9,1.6
				c-1.9,1-4.8,2.7-8.6,4.4c-7.6,3-18.7,7.7-32.7,10.5c-13.9,2.8-30.1,5.9-47.5,7.6c-17.3,2-35.7,3.1-53.5,5.6
				c-8.9,1.1-17.8,2.3-26.3,4.2c-2.1,0.5-4.2,0.9-6.4,1.4c-2,0.6-4.1,1.1-6.1,1.7c-4.1,0.9-8,2.5-11.9,3.7
				c-15.5,5.4-29.5,12.5-40.3,20.3c-11,7.7-19.8,15-25.2,20.9C107.4,182.4,104.6,186.3,104.6,186.3z"/>
		</g>
		<g id="XMLID_13_">
			<path id="XMLID_14_" class="st0" d="M104.6,194.6c0,0,0,0.1,0.2,0.1c0.1,0,0.3-0.1,0.5-0.3c0.4-0.4,0.8-1,1.5-1.9
				c1.2-1.8,2.9-4.4,5.1-7.7c4.8-6.4,11.9-15.8,23.2-24.3c11.2-8.4,25.9-17,43.2-21.7c17.1-5,35.7-6.7,53.9-7.8
				c18.2-0.6,36.2-0.6,52.9-0.5c16.7-0.1,32.1,0.5,45.1-0.8c13-1.3,24-2.6,31.4-4.9c3.8-0.9,6.7-1.8,8.8-2.6c2-0.7,3-1.1,3-1.1
				s-0.9,0.7-2.6,2c-1.7,1.4-4.2,3.2-7.6,5.4c-3.5,1.9-7.8,4.3-13.1,6.6c-5.2,2.2-11.2,4.4-18,6.1c-13.4,3.2-29.4,6.4-46.4,7.6
				c-16.9,1.6-34.9,1.8-52.6,2.9c-17.7,0.6-35,2-50.7,4.9c-15.6,2.9-29.8,7.6-41.2,13.8c-11.3,6.2-20.6,12.3-26.6,17.3
				c-3.1,2.4-5.5,4.4-7.2,5.7c-0.8,0.6-1.6,1.2-2,1.4c-0.3,0.1-0.5,0.2-0.6,0.2C104.6,194.7,104.6,194.5,104.6,194.6z"/>
		</g>
		<g id="XMLID_15_">
			<path id="XMLID_16_" class="st0" d="M104.6,202.8c0,0,0.1,0.2,0.6,0.3c0.5,0.1,1.2-0.2,1.8-0.7c1.5-1.1,3.3-3.2,5.7-5.8
				c5.1-4.9,12.2-12.9,23.2-19.3c5.5-3.1,11.7-6.4,18.6-8.9c6.9-2.7,14.6-4.6,22.3-5.9c15.6-2.8,32.1-3.1,48.4-3.3
				c16.2,0.4,32.2,0.9,47.2,1.8c14.8,0.6,28.6,1.8,40.4,1.3c5.9-0.3,11.2-0.6,16-0.9c4.8-0.5,8.9-0.9,12.3-1.7
				c1.8-0.3,3.2-0.6,4.6-0.9c1.4-0.3,2.5-0.6,3.4-0.9c1.8-0.6,2.8-0.8,2.8-0.8s-0.8,0.6-2.3,1.8c-0.7,0.6-1.8,1.3-2.9,2
				c-1.2,0.7-2.5,1.8-4.1,2.6c-3.2,1.7-7.2,3.6-12,5.5c-4.8,1.8-10.2,3.6-16.4,4.9c-12.2,2.4-26.5,4.8-41.8,5.4
				c-15.3,0.9-31.4,0.6-47.3,0.6c-15.9-0.4-31.6-0.2-46,0.6c-7.3,0.6-13.9,1.1-20.4,2.3c-6.4,1.2-12.3,2.9-17.7,4.9
				c-10.7,4.1-19.7,8.4-25.8,12.1c-3.1,1.7-5.7,2.9-7.6,3.6c-1,0.3-1.8,0.4-2.3,0.1C104.7,203.1,104.6,202.8,104.6,202.8z"/>
		</g>
	</g>
	<path id="XMLID_6_" class="st0" d="M24.6,375c124.1-148.3,131.9-214.8,58.1-265.6c-10.3,27.8,0.6,39.3,12.7,67.8
		C107.5,205.5,95.4,280.6,24.6,375z"/>
	<path id="XMLID_5_" class="st0" d="M83.7,105c1.4-14.6,2.8-34.7-48.6-79.6C77.7,55,97.6,69.2,98.2,115.3
		C90.1,108.9,87,107.4,83.7,105z"/>
	<path id="XMLID_4_" class="st0" d="M75.6,138.8c-5.8,18.1-34.7,50,16.1,81.1C70.3,199.4,67.9,180,81,156.1
		C78.4,148.9,76.1,145,75.6,138.8z"/>
	<path id="XMLID_8_" class="st0" d="M77.3,109.5c0,8-6.4,14.5-14.5,14.5s-14.5-6.4-14.5-14.5S54.8,95,62.8,95S77.3,101.5,77.3,109.5
		z"/>
	<path id="XMLID_17_" class="st0" d="M128.7,219.5c9.3,34-2,100.4,22.3,142.9C121,336.9,117,249,117,249
		C120.1,243,127.4,226.4,128.7,219.5z"/>
	<path id="XMLID_21_" d="M256.3,103.8"/>
	<path id="XMLID_20_" d="M123.8,154.5"/>
	<g>
		<path class="st0" d="M129.9,118.6l-2.3,2l0.4,2.7c0.1,0.7,0.4,1.2,1.5,0.6l0.2,0.3l-2.7,2.4l-0.2-0.3c0.7-0.9,0.6-1.7,0.5-3.2
			l-1.6-11.1l0.7-0.6l6.5,7.3c0.8,0.8,1.2,1.1,2.1,0.3l0.2,0.3l-3.8,3.4l-0.2-0.3c0.7-0.8,0.7-1.3-0.2-2.3L129.9,118.6z
			 M126.7,115.2L126.7,115.2l0.6,4.5l1.8-1.7L126.7,115.2z"/>
		<path class="st0" d="M137.8,115.8c0.5,0.6,0.4,1.4-0.2,1.8s-1.4,0.4-1.8-0.2c-0.5-0.6-0.4-1.4,0.2-1.8
			C136.5,115.2,137.3,115.3,137.8,115.8z"/>
		<path class="st0" d="M141,103.4l-0.4,0.3c-0.8-1.1-1.7-1.3-2.7-0.6c-0.8,0.6-1,1.8-0.3,2.8c1.2,1.6,5.3,0.9,6.8,3
			c1,1.5,0.6,3.2-1.3,4.6c-0.6,0.4-1,0.6-1.5,0.8c-0.4,0.2-0.7,0.4-0.9,0.5c-0.2,0.2-0.3,0.3-0.3,0.6l-0.3,0.2l-1.2-2.7l0.3-0.2
			c1,1,2,1.1,3,0.5c0.9-0.6,1.1-1.7,0.6-2.5c-1.3-1.8-5-0.9-6.5-3c-1.1-1.6-0.7-3.8,0.9-5c0.3-0.2,0.7-0.5,1.1-0.6
			c0.4-0.2,0.6-0.3,0.7-0.4c0.2-0.2,0.3-0.4,0.3-0.6l0.3-0.2L141,103.4z"/>
		<path class="st0" d="M149,107.6c0.4,0.6,0.3,1.4-0.4,1.8c-0.6,0.4-1.4,0.2-1.8-0.4c-0.4-0.6-0.2-1.4,0.4-1.8
			C147.8,106.9,148.7,107.1,149,107.6z"/>
		<path class="st0" d="M149.6,95.9c-0.6,0.6-1.2,1.5-1.6,2.4l-0.3-0.1c0.5-1.7,1.5-3.5,4-4.9c3.8-2.1,7.3-1.1,8.9,1.7
			c0.8,1.5,0.9,2.9,0.6,4.3c-0.5,1.8-1.5,3-5.1,5.1l-4.5,2.6l-0.1-0.4c0.9-0.6,1.2-1.2,0.9-2.3L149.6,95.9z M154.1,102.8
			c0.5,1.4,0.7,1.6,2.4,0.6c3.1-1.8,3.3-4.8,2-7c-1.5-2.5-4.5-3.3-7-1.9l-0.1,0.1L154.1,102.8z"/>
		<path class="st0" d="M165.8,98.1c0.3,0.6,0.1,1.4-0.6,1.8c-0.6,0.3-1.4,0.1-1.7-0.6c-0.3-0.6,0-1.4,0.6-1.8
			C164.8,97.2,165.5,97.4,165.8,98.1z"/>
		<path class="st0" d="M178.8,93.5l-8.5,3.5l-0.1-0.4c1-0.6,1.2-1.1,1-2.4l-1.3-7c-0.2-1.2-0.5-1.7-1.9-1.4l-0.1-0.4l5.2-2.1
			l0.1,0.4c-1.2,0.9-1.3,1.2-1.1,2.6l1.2,6.7c0.3,1.4,0.6,1.8,1.8,1.2l1.3-0.6c1-0.5,1.6-1.2,2-2.9l0.3-0.1L178.8,93.5z"/>
		<path class="st0" d="M183.4,90.1c0.1,0.8,0.7,1.1,1.7,0.8v0.4l-5.2,1.8v-0.4c1.2-0.7,1.3-1.3,1.2-2.3l-0.8-7.2
			c-0.1-1.2-0.6-1.6-1.8-1.4l-0.1-0.4l4.9-1.7l0.1,0.4c-1,0.6-1.1,1-1,2.3L183.4,90.1z"/>
		<path class="st0" d="M187.7,79.5c-0.6,0.3-1.1,0.7-1.5,1.4l-0.3-0.2c1-1.6,2.5-2.6,4.3-3.1c2.4-0.6,4.1,0.1,4.5,1.7
			c0.4,1.5-0.3,2.7-2.2,3.7l0,0c2.1-0.3,3.6,0.5,4,1.9c0.4,1.6-0.6,3.4-3,4.1l-6.7,1.8v-0.4c1.2-0.6,1.5-0.9,1.4-2.3L187.7,79.5z
			 M190.2,83.2c0.3,0,0.5-0.1,0.6-0.1c1.2-0.3,2.2-1.3,1.8-2.9c-0.4-1.3-1.3-1.8-2.7-1.4L190.2,83.2z M190.4,87.8
			c0,0.6,0.6,1.1,1.6,0.8c1.7-0.5,2.6-1.8,2.2-3.4c-0.4-1.3-1.8-1.9-3.3-1.6c-0.2,0-0.3,0.1-0.6,0.2L190.4,87.8z"/>
		<path class="st0" d="M205.6,81.6l-0.4,0.1c-0.3-0.7-0.8-1-1.7-0.8l-1.7,0.4v3.4c0,1.2,0.1,1.6,1.7,1.3l1.7-0.4
			c0.9-0.2,1.5-0.8,2-2.4l0.3-0.1l-0.5,2.8l-8.8,1.9v-0.4c1-0.5,1.3-0.9,1.3-2.2l-0.1-7.6c0-0.9-0.5-1.2-1.5-1.2v-0.4l7.9-1.8v2.1
			l-0.4,0.1c-0.4-1.1-0.6-1.3-1.5-1.1l-2.2,0.5v4.7l1.6-0.4c1.2-0.3,1.7-0.6,1.8-1.5l0.4-0.1L205.6,81.6z"/>
		<path class="st0" d="M212.8,82.7c0,1,0.2,1.6,1.5,1.5v0.4l-5.2,0.9v-0.4c1.2-0.6,1.4-0.9,1.4-2.2l0.3-8.7
			c-0.7,0.4-1.3,0.8-1.9,1.5l-0.3-0.2c1.1-1.5,2.8-2.5,4.7-2.9c2.6-0.5,4.4,0.4,4.7,2.2c0.3,1.4-0.6,2.9-2.7,3.3l0,0
			c1.8,0,2.2,0.3,3.6,2.8c0.7,1.3,1,1.8,2.2,1.9v0.4l-4.2,0.7v-0.4c0.6-0.3,0.6-0.6,0.5-1l-1.4-2.4c-0.6-1.2-1.6-1.7-2.8-1.4
			l-0.4,0.1V82.7z M212.9,78.3c2.4,0.1,2.9-1.8,2.8-2.8c-0.2-1.3-1.3-2.1-2.6-1.8L212.9,78.3z"/>
		<path class="st0" d="M225.4,81c-0.1,0.8,0.5,1.3,1.5,1.2v0.4l-5.3,0.7V83c1.3-0.5,1.6-1,1.6-2l0.6-7.2c0.1-1.2-0.2-1.7-1.4-1.8
			v-0.4l5.2-0.6v0.4c-1.1,0.5-1.3,0.7-1.4,2.1L225.4,81z"/>
		<path class="st0" d="M236.6,71.2c-0.8,0.3-1.7,0.8-2.5,1.5l-0.3-0.2c1.2-1.3,2.9-2.5,5.7-2.7c4.3-0.3,7,2.3,7.2,5.4
			c0.1,1.8-0.5,3.1-1.4,4.1c-1.2,1.3-2.7,2-6.8,2.3l-5.3,0.3l0.1-0.4c1.1-0.2,1.7-0.6,1.8-1.7L236.6,71.2z M237.6,79.3
			c-0.2,1.4,0,1.8,1.8,1.7c3.6-0.2,5.1-2.8,4.9-5.3c-0.2-2.9-2.5-5-5.3-4.8h-0.1L237.6,79.3z"/>
		<path class="st0" d="M251.8,79.4c-0.2,0.8,0.4,1.3,1.4,1.3l-0.1,0.4l-5.4,0.3l0.1-0.4c1.4-0.4,1.6-0.9,1.8-1.9l1.2-7.1
			c0.2-1.2-0.1-1.7-1.3-1.8v-0.4l5.2-0.2v0.4c-1.1,0.4-1.4,0.6-1.6,1.9L251.8,79.4z"/>
		<path class="st0" d="M271.9,78.3c-0.2,1,0,1.5,1.4,1.7l-0.1,0.4l-5.4,0.2l0.1-0.4c1.5-0.3,1.7-0.8,1.8-1.9l1.2-6.8l0,0l-5.5,9.2
			h-0.5l-0.3-8.9l0,0l-2.8,7.1c-0.4,0.9-0.4,1.6,0.9,1.7l-0.1,0.4l-3.3,0.1l0.1-0.4c0.9-0.4,1.2-0.8,1.7-2l3.5-8.3
			c-0.6-0.5-0.9-0.7-1.8-0.6v-0.4l4.1-0.2l0.3,7.3l0,0l4.5-7.6l3.3-0.1V69c-1.2,0.4-1.4,0.6-1.7,1.9L271.9,78.3z"/>
		<path class="st0" d="M287.6,75.2c-0.5,2.6-2.4,5-5.6,5c-3.2,0.1-4.7-2.1-4.7-4c0-0.5,0.1-1.4,0.2-1.9l0.7-3.8
			c0.2-1-0.3-1.6-1.4-1.6l0.1-0.4l5.4-0.2l-0.1,0.4c-1.3,0.3-1.6,0.6-1.8,2l-0.9,5c-0.1,0.6-0.2,1-0.2,1.5c0,1.4,1.1,2.3,2.6,2.3
			c1.6,0,2.8-1.2,3.2-3.4l1.1-5.8c0.2-1,0-1.4-1.5-1.6l0.1-0.4l5.8-0.2l-0.1,0.4c-1.5,0.3-1.7,0.6-2,2L287.6,75.2z"/>
		<path class="st0" d="M296.3,79.9c-2.4,0-4.8-1.3-4.9-4.5c-0.1-3.6,3-7.6,7.3-7.6c2.3,0,4.7,1.5,4.7,4.6
			C303.5,76.2,300.1,79.8,296.3,79.9z M298.2,68.5c-2.9,0-4.4,4.2-4.3,7.2c0,2.1,1.2,3.6,2.9,3.6c2.9-0.1,4.4-4.2,4.3-7.2
			C301,69.9,299.9,68.4,298.2,68.5z"/>
		<path class="st0" d="M305.9,79.8h-0.3l-0.1-9.7c0-1.2-0.2-1.6-1.1-1.7l0.1-0.4L309,68v0.4c-0.8,0.1-1.1,0.6-1.1,1.7l0.1,5.8l0,0
			l3.8-5.6c0.6-0.9,0.6-1.9-0.5-1.9l0.1-0.4h3.2l-0.1,0.4c-0.6,0.2-0.9,0.6-1.6,1.5L305.9,79.8z"/>
		<path class="st0" d="M321.9,74.8h-0.4c-0.1-0.8-0.6-1.1-1.6-1.1l-1.8,0.1l-0.6,3.4c-0.2,1.2-0.2,1.6,1.5,1.6l1.7-0.1
			c0.9,0,1.6-0.6,2.5-2h0.4l-0.9,2.7l-9,0.4l0.1-0.4c1-0.3,1.5-0.7,1.7-1.9l1.3-7.5c0.2-0.9-0.2-1.3-1.3-1.5l0.1-0.4l8-0.3l-0.4,2.1
			h-0.4c-0.2-1.1-0.4-1.4-1.3-1.4l-2.3,0.1l-0.8,4.6l1.6-0.1c1.2,0,1.8-0.4,2.1-1.1h0.4L321.9,74.8z"/>
		<path class="st0" d="M328.6,76.8c-0.2,1,0,1.6,1.3,1.7v0.4l-5.3,0.3l0.1-0.4c1.3-0.4,1.5-0.7,1.7-2l1.3-8.6
			c-0.8,0.3-1.4,0.6-2.1,1.3l-0.3-0.2c1.2-1.3,3-2.2,5.1-2.3c2.6-0.2,4.3,0.9,4.4,2.7c0.1,1.4-0.9,2.9-3,3l0,0
			c1.8,0.2,2.2,0.6,3.3,3.1c0.6,1.4,0.8,1.8,1.9,2.2v0.4l-4.3,0.3v-0.4c0.6-0.2,0.7-0.6,0.6-0.9l-1.1-2.5c-0.6-1.3-1.4-1.8-2.6-1.8
			h-0.4L328.6,76.8z M329.3,72.4c2.4,0.4,3.1-1.4,3-2.5c-0.1-1.3-1-2.2-2.4-2.1L329.3,72.4z"/>
		<path class="st0" d="M344.3,68.7h-0.4c-0.1-1.3-0.8-2-1.9-1.9c-1,0.1-1.8,1-1.7,2.1c0.2,1.9,4.1,3.5,4.2,6.2
			c0.2,1.8-1.2,3-3.5,3.2c-0.6,0.1-1.2,0-1.7,0c-0.5,0-0.8-0.1-1-0.1c-0.3,0-0.5,0.1-0.6,0.4h-0.4l0.4-2.9h0.4
			c0.4,1.4,1.2,2,2.4,1.9c1.1-0.1,1.8-0.8,1.8-1.8c-0.2-2.1-3.8-3.3-4.1-6c-0.2-1.9,1.3-3.6,3.3-3.8c0.4,0,0.8,0,1.2,0
			c0.4,0.1,0.7,0.1,0.8,0.1c0.3,0,0.5-0.1,0.6-0.4h0.4L344.3,68.7z"/>
		<path class="st0" d="M350,75.4c-0.1,0.8,0.5,1.3,1.5,1.2V77l-5.3,0.6v-0.4c1.3-0.5,1.6-1,1.7-2l0.7-7.2c0.1-1.2-0.2-1.7-1.4-1.8
			v-0.4l5.2-0.6v0.4c-1.1,0.4-1.3,0.7-1.5,2L350,75.4z"/>
	</g>
</g>
</svg>
