<?xml version="1.0" encoding="utf-8"?>
<!-- Generator: Adobe Illustrator 24.0.1, SVG Export Plug-In . SVG Version: 6.00 Build 0)  -->
<svg version="1.1" id="Livello_1" xmlns="http://www.w3.org/2000/svg" xmlns:xlink="http://www.w3.org/1999/xlink" x="0px" y="0px"
	 viewBox="0 0 580 157.6" style="enable-background:new 0 0 580 157.6;" xml:space="preserve">
<style type="text/css">
	.st0{fill:#FFFFFF;}
	.st1{fill:none;}
</style>
<g id="XMLID_1_">
	<g id="XMLID_30_">
		<path id="XMLID_38_" class="st0" d="M104.3,14.3L88.9,51.8c-0.1,0.3-0.4,0.5-0.8,0.6c-0.5,0.1-1.1,0.1-1.7,0.1c-0.6,0-1.3,0-1.8,0
			c-0.5,0-0.8-0.2-0.9-0.6L69.4,13.8l-4.8,38c-0.1,0.3-0.3,0.5-0.8,0.6c-0.5,0.1-1.1,0.1-1.8,0.1c-0.7,0-1.5,0.1-2.3,0.1
			c-0.4,0-0.6-0.2-0.6-0.5c0-0.2,0-0.3,0-0.4L67.2,8l-1.4-3.6c-0.1-0.2-0.1-0.3-0.1-0.4c0-0.5,0.3-0.7,0.8-0.8C67,3.1,67.5,3,68.1,3
			c0.6-0.1,1.2-0.1,1.7-0.2s1.1-0.1,1.6-0.1s0.8,0,1.1,0c0.3,0,0.6,0.1,0.7,0.3c0.1,0.2,0.3,0.4,0.5,0.7l14.8,38.8L103.5,8l-0.4-3.4
			c0,0,0-0.1,0-0.3c0-0.5,0.3-0.8,0.8-0.9c0.5-0.1,1-0.2,1.6-0.2c0.6-0.1,1.2-0.1,1.7-0.2c0.6-0.1,1.1-0.1,1.5-0.1c0.5,0,0.8,0,1,0
			c0.7,0,1.1,0.3,1.2,1l5.6,47.2c0,0.1,0,0.2,0,0.3s0,0.1,0,0.2c0,0.5-0.3,0.8-0.8,0.9c-0.5,0.1-1,0.2-1.7,0.2
			c-0.6,0.1-1.2,0.1-1.7,0.2c-0.6,0-1.1,0.1-1.6,0.1s-0.9,0-1.1,0c-0.3,0-0.5,0-0.6-0.1c-0.2-0.1-0.3-0.3-0.3-0.5L104.3,14.3z"/>
		<g id="XMLID_77_">
			<path id="XMLID_93_" class="st1" d="M134.9,37.8c-1,0.1-1.7,0.4-2.4,0.7c-0.7,0.3-1.3,0.7-1.7,1.3c-0.3,0.4-0.6,0.9-0.8,1.5
				c-0.2,0.6-0.3,1.2-0.3,1.8c0,0.6,0.1,1.2,0.3,1.7c0.2,0.6,0.5,1.2,1,1.7c0.5,0.5,1.1,1,1.8,1.3c0.8,0.3,1.7,0.5,2.9,0.5
				c0.2,0,0.4,0,0.8-0.1c0.4-0.1,0.8-0.1,1.4-0.3c0.6-0.1,1.2-0.3,1.7-0.5c0.7-0.2,1.4-0.5,2-0.8l0.1-9.2c-1.3,0.1-2.5,0.2-3.6,0.2
				C137,37.6,135.9,37.7,134.9,37.8z"/>
			<path id="XMLID_92_" class="st1" d="M196.4,37.8c-1,0.1-1.7,0.4-2.4,0.7c-0.7,0.3-1.3,0.7-1.7,1.3c-0.3,0.4-0.6,0.9-0.8,1.5
				c-0.2,0.6-0.3,1.2-0.3,1.8c0,0.6,0.1,1.2,0.3,1.7c0.2,0.6,0.5,1.2,1,1.7s1.1,1,1.8,1.3c0.8,0.3,1.7,0.5,2.9,0.5
				c0.2,0,0.4,0,0.8-0.1c0.4-0.1,0.8-0.1,1.4-0.3c0.6-0.1,1.2-0.3,1.7-0.5c0.7-0.2,1.4-0.5,2-0.8l0.1-9.2c-1.3,0.1-2.5,0.2-3.6,0.2
				C198.3,37.6,197.4,37.7,196.4,37.8z"/>
			<path id="XMLID_114_" class="st1" d="M388.8,37.8c-1,0.1-1.7,0.4-2.4,0.7c-0.7,0.3-1.3,0.7-1.7,1.3c-0.3,0.4-0.6,0.9-0.8,1.5
				c-0.2,0.6-0.3,1.2-0.3,1.8c0,0.6,0.1,1.2,0.3,1.7c0.2,0.6,0.5,1.2,1,1.7s1.1,1,1.8,1.3c0.8,0.3,1.7,0.5,2.9,0.5
				c0.2,0,0.4,0,0.8-0.1c0.4-0.1,0.8-0.1,1.4-0.3c0.6-0.2,1.2-0.3,1.7-0.5c0.7-0.2,1.4-0.5,2-0.8l0.1-9.2c-1.3,0.1-2.5,0.2-3.6,0.2
				C390.7,37.6,389.7,37.7,388.8,37.8z"/>
			<path id="XMLID_148_" class="st1" d="M452.6,104.4c-1,0.1-1.7,0.4-2.4,0.7c-0.7,0.3-1.3,0.7-1.7,1.3c-0.3,0.4-0.6,0.9-0.8,1.5
				c-0.2,0.6-0.3,1.2-0.3,1.8c0,0.6,0.1,1.2,0.3,1.7c0.2,0.6,0.5,1.2,1,1.7c0.5,0.5,1.1,1,1.8,1.3c0.8,0.3,1.7,0.5,2.9,0.5
				c0.2,0,0.4,0,0.8-0.1c0.4-0.1,0.8-0.1,1.4-0.3c0.6-0.2,1.2-0.3,1.7-0.5c0.7-0.2,1.4-0.5,2-0.8l0.1-9.2c-1.3,0.1-2.5,0.2-3.6,0.2
				C454.6,104.1,453.5,104.2,452.6,104.4z"/>
			<path id="XMLID_119_" class="st0" d="M149.5,50.9c-0.2-0.7-0.3-1.5-0.5-2.1c-0.1-0.8-0.2-1.6-0.2-2.4l0.2-13.4
				c0-2.1-0.1-4-0.5-5.5c-0.4-1.6-1-2.8-1.7-3.8c-0.8-1-1.9-1.7-3.2-2.1c-1.4-0.5-3-0.7-5-0.7c-0.7,0-1.5,0.1-2.5,0.2
				c-1,0.2-2.1,0.4-3.3,0.7c-1.3,0.3-2.5,0.7-3.9,1.1c-1.4,0.5-2.8,1-4.2,1.6l0.9,2.7c2-0.7,3.9-1.2,5.5-1.5
				c1.7-0.3,3.1-0.5,4.7-0.5c1.2,0,2.2,0.2,3,0.6c0.8,0.4,1.5,0.9,1.9,1.6c0.5,0.7,0.8,1.6,1,2.5c0.2,1,0.3,2.1,0.2,3.4v1.4
				c-1.7,0.1-3.4,0.1-5,0.3c-1.6,0.1-3.1,0.3-4.5,0.5c-1.4,0.2-2.6,0.6-3.8,1c-1.2,0.4-2.1,1-3,1.6c-1,0.7-1.7,1.7-2.3,2.7
				s-0.9,2.4-0.9,4c0,0.9,0.2,1.8,0.5,2.8c0.3,1,0.9,1.8,1.6,2.7c0.7,0.8,1.6,1.5,2.6,2c1.1,0.6,2.3,0.8,3.8,0.8
				c0.5,0,1.2-0.1,2-0.3c0.8-0.2,1.7-0.4,2.7-0.7c1-0.3,2-0.6,3.1-1.1c1.1-0.4,2.1-0.9,3.2-1.3l0.6,1.9c0.1,0.3,0.2,0.6,0.4,0.8
				c0.2,0.2,0.4,0.3,0.7,0.3c0.4,0,0.8,0,1.3,0s1,0,1.4-0.1c0.5,0,1-0.1,1.4-0.2c0.5-0.1,0.9-0.1,1.3-0.2c0.6-0.1,0.8-0.3,0.8-0.8
				C149.5,51,149.5,50.9,149.5,50.9z M141.5,46.5c-0.7,0.3-1.4,0.6-2,0.8c-0.7,0.2-1.3,0.4-1.7,0.5c-0.6,0.1-1,0.2-1.4,0.3
				c-0.4,0.1-0.7,0.1-0.8,0.1c-1.2,0-2.1-0.2-2.9-0.5c-0.8-0.3-1.4-0.8-1.8-1.3s-0.8-1.1-1-1.7c-0.2-0.6-0.3-1.2-0.3-1.7
				c0-0.7,0.1-1.4,0.3-1.8c0.2-0.6,0.5-1.1,0.8-1.5c0.5-0.5,1-1,1.7-1.3c0.7-0.3,1.6-0.5,2.4-0.7c1-0.1,1.9-0.2,3.1-0.3
				c1.2-0.1,2.3-0.1,3.6-0.2V46.5z"/>
		</g>
		<path id="XMLID_94_" class="st0" d="M154.9,23.3c1.5-0.4,2.8-0.8,4.1-1.1s2.4-0.5,3.4-0.7s1.7-0.3,2.4-0.4
			c0.6-0.1,1.1-0.1,1.3-0.1c0.9,0,1.4,0.5,1.4,1.5v2.1c1-0.5,1.9-1,2.9-1.5c1-0.5,1.9-0.9,2.9-1.3c1-0.4,1.8-0.6,2.7-0.8
			s1.7-0.3,2.3-0.3c0.8,0,1.4,0.1,1.9,0.4c0.6,0.3,1.1,0.6,1.5,1.1c0.4,0.5,0.7,1,0.9,1.5c0.2,0.6,0.3,1.1,0.3,1.7
			c0,0.6-0.1,1.2-0.3,1.7c-0.2,0.6-0.5,1.1-1,1.5c-0.4,0.5-1,0.8-1.6,1.1c-0.7,0.3-1.4,0.4-2.2,0.4H177c-0.1,0-0.3,0-0.5,0
			c-0.2,0-0.3,0-0.5-0.1v-0.9c0-1.3-0.3-2.1-0.8-2.6c-0.5-0.5-1.2-0.8-1.9-0.8s-1.7,0.2-2.8,0.6c-1.1,0.4-2,0.8-3,1.4v23.1
			c0,0.7-0.3,1.1-1,1.2c-0.5,0.1-1,0.2-1.5,0.2c-0.6,0.1-1.1,0.1-1.6,0.2c-0.5,0.1-1,0.1-1.4,0.1c-0.4,0-0.7,0-1,0
			c-0.7,0-1-0.4-1-1.1V29c0-1.5-0.2-2.4-0.7-3c-0.5-0.6-1.2-0.8-2.1-0.8c-0.3,0-0.6,0-0.9,0s-0.7,0.1-1.1,0.1L154.9,23.3z"/>
		<path id="XMLID_96_" class="st0" d="M186.1,24.3c1.5-0.6,2.8-1.1,4.2-1.6c1.4-0.5,2.7-0.8,3.9-1.1c1.3-0.3,2.3-0.5,3.3-0.7
			s1.8-0.2,2.5-0.2c1.9,0,3.6,0.2,5,0.7c1.4,0.5,2.4,1.2,3.2,2.1c0.8,1,1.5,2.2,1.7,3.8c0.4,1.6,0.5,3.4,0.5,5.5l-0.2,13.4
			c0,0.9,0,1.7,0.2,2.4c0.1,0.8,0.3,1.5,0.5,2.1c0,0,0,0.1,0,0.3c0,0.4-0.3,0.7-0.8,0.8c-0.4,0.1-0.8,0.2-1.3,0.2
			c-0.5,0.1-0.9,0.1-1.4,0.2c-0.5,0-1,0.1-1.4,0.1c-0.5,0-0.9,0-1.3,0c-0.3,0-0.5-0.1-0.7-0.3c-0.2-0.2-0.3-0.4-0.4-0.8l-0.6-1.9
			c-1.1,0.5-2.1,0.9-3.2,1.3c-1.1,0.4-2.1,0.8-3.1,1.1c-1,0.3-1.9,0.5-2.7,0.7s-1.5,0.3-2,0.3c-1.5,0-2.7-0.3-3.8-0.8
			c-1.1-0.6-1.9-1.2-2.6-2c-0.7-0.8-1.2-1.7-1.6-2.7c-0.3-1-0.5-1.9-0.5-2.8c0-1.6,0.3-2.9,0.9-4c0.6-1.1,1.4-1.9,2.3-2.7
			c0.9-0.7,1.8-1.2,3-1.6c1.2-0.4,2.4-0.8,3.8-1c1.4-0.2,2.8-0.4,4.5-0.5c1.6-0.1,3.3-0.2,5-0.3V33c0-1.3,0-2.4-0.2-3.4
			c-0.2-1-0.5-1.8-1-2.5c-0.5-0.7-1.1-1.2-1.9-1.6c-0.8-0.4-1.8-0.6-3-0.6c-1.5,0-3,0.2-4.7,0.5c-1.7,0.3-3.4,0.8-5.5,1.5
			L186.1,24.3z M203.1,37.3c-1.3,0.1-2.5,0.2-3.6,0.2c-1.2,0.1-2.1,0.2-3.1,0.3c-1,0.1-1.7,0.4-2.4,0.7c-0.7,0.3-1.3,0.7-1.7,1.3
			c-0.3,0.4-0.6,0.9-0.8,1.5c-0.2,0.6-0.3,1.2-0.3,1.8c0,0.6,0.1,1.2,0.3,1.7c0.2,0.6,0.5,1.2,1,1.7s1.1,1,1.8,1.3s1.7,0.5,2.9,0.5
			c0.2,0,0.4,0,0.8-0.1c0.4-0.1,0.8-0.1,1.4-0.3c0.6-0.1,1.2-0.3,1.7-0.5c0.7-0.2,1.4-0.5,2-0.8V37.3z"/>
		<path id="XMLID_99_" class="st0" d="M215.8,22.7c0.7-0.1,1.5-0.1,2.3-0.2c0.9-0.1,1.7-0.1,2.5-0.2V16c0-0.6,0.1-1,0.2-1.3
			c0.1-0.3,0.4-0.5,0.8-0.6c0.5-0.2,1.1-0.4,1.7-0.6c0.6-0.2,1.1-0.4,1.7-0.5c0.5-0.2,1-0.3,1.4-0.4c0.4-0.1,0.7-0.1,1-0.1
			c0.6,0,0.9,0.4,0.9,1.1v8.4c1.8-0.1,3.5-0.1,5-0.2c1.6,0,2.7-0.1,3.6-0.1c0.2,0,0.4,0.1,0.6,0.2c0.2,0.1,0.3,0.4,0.3,0.7v0.1
			l-0.2,2.5H228v17.5c0,1.8,0.5,3.2,1.5,4c1,0.9,2.2,1.3,3.9,1.3c0.8,0,1.6-0.1,2.5-0.3c0.9-0.2,2-0.5,3.2-1l0.9,2.5
			c-1.1,0.5-2.1,0.9-3.2,1.3c-1.1,0.4-2.1,0.8-3.1,1.1c-1,0.3-1.8,0.6-2.7,0.7c-0.8,0.2-1.5,0.3-1.8,0.3c-1.3,0-2.3-0.2-3.4-0.6
			c-1.1-0.4-1.9-1-2.6-1.7c-0.8-0.8-1.4-1.7-1.7-2.8c-0.4-1.1-0.6-2.4-0.6-3.9V25.3l-4.8,0.1L215.8,22.7z"/>
		<g id="XMLID_91_">
			<path id="XMLID_118_" class="st1" d="M264.2,29.2c-0.8-1.4-1.7-2.5-2.9-3.4c-1.2-0.9-2.7-1.4-4.5-1.4c-1.5,0-2.7,0.3-3.7,1
				c-1,0.7-1.7,1.5-2.2,2.5c-0.6,1.1-1,2.1-1.2,3.4c-0.2,1.3-0.3,2.5-0.3,3.7c0,1.6,0.2,3.1,0.5,4.8c0.3,1.7,0.9,3.2,1.7,4.6
				c0.8,1.4,1.7,2.5,2.9,3.4c1.2,0.9,2.7,1.4,4.5,1.4c1.5,0,2.7-0.3,3.7-1c1-0.7,1.7-1.5,2.2-2.5c0.6-1,1-2.1,1.2-3.4
				s0.3-2.5,0.3-3.7c0-1.5-0.2-3-0.5-4.7C265.5,32.3,264.9,30.6,264.2,29.2z"/>
			<path id="XMLID_122_" class="st0" d="M272.7,30.1c-0.8-1.8-1.7-3.5-3.1-4.9c-1.4-1.4-2.9-2.4-4.9-3.2c-1.8-0.8-4-1.2-6.2-1.2
				c-2.4,0-4.8,0.4-6.8,1.2c-2,0.8-3.8,1.8-5.3,3.3c-1.5,1.5-2.6,3.1-3.5,5.1c-0.9,2-1.3,4.2-1.3,6.6c0,2.2,0.4,4.3,1.1,6.1
				c0.7,1.9,1.7,3.6,3.1,5c1.4,1.4,2.9,2.5,4.8,3.3c1.8,0.8,3.9,1.3,6.2,1.3c2.5,0,4.8-0.4,6.9-1.2c2.1-0.8,3.9-1.9,5.3-3.4
				c1.5-1.5,2.6-3.2,3.5-5.2c0.8-2,1.3-4.3,1.3-6.8C273.9,34,273.5,32,272.7,30.1z M265.9,42.2c-0.2,1.3-0.6,2.4-1.2,3.4
				c-0.6,1-1.3,1.8-2.2,2.5s-2.1,1-3.7,1c-1.7,0-3.3-0.5-4.5-1.4c-1.2-0.9-2.1-2-2.9-3.4c-0.8-1.4-1.3-2.9-1.7-4.6
				c-0.3-1.7-0.5-3.2-0.5-4.8c0-1.3,0.1-2.5,0.3-3.7c0.2-1.3,0.6-2.4,1.2-3.4c0.6-1.1,1.3-1.8,2.2-2.5c1-0.7,2.1-1,3.7-1
				c1.7,0,3.3,0.5,4.5,1.4c1.2,0.9,2.1,2,2.9,3.4c0.8,1.4,1.3,2.9,1.6,4.6c0.3,1.7,0.5,3.2,0.5,4.7
				C266.2,39.7,266.1,40.9,265.9,42.2z"/>
		</g>
		<path id="XMLID_104_" class="st0" d="M277.8,23.3c1.5-0.4,2.8-0.8,4.1-1.1s2.3-0.5,3.3-0.7s1.7-0.3,2.3-0.4c0.6-0.1,1-0.1,1.2-0.1
			c0.8,0,1.3,0.5,1.4,1.5l0.1,1.7c1.3-0.5,2.5-0.9,3.8-1.4c1.3-0.4,2.5-0.8,3.7-1.1s2.2-0.6,3.2-0.8s1.7-0.3,2.4-0.3
			c1.6,0,2.9,0.3,4,0.8c1.1,0.5,2,1.2,2.7,2c0.7,0.9,1.3,1.9,1.6,3.2c0.3,1.3,0.5,2.6,0.5,4.2l-0.2,19.8c0,0.7-0.3,1.1-1,1.2
			c-0.5,0.1-1,0.2-1.5,0.2c-0.6,0.1-1.1,0.1-1.6,0.2c-0.5,0-1,0.1-1.4,0.1s-0.8,0-1,0c-0.7,0-1-0.4-1-1.1l0.2-16.4v-0.6
			c0-1.5-0.1-2.8-0.4-3.9c-0.2-1.1-0.6-2-1.2-2.8c-0.6-0.8-1.3-1.4-2.1-1.7c-0.9-0.4-1.9-0.6-3.3-0.6c-0.5,0-1.5,0.1-2.8,0.4
			c-1.4,0.3-2.9,0.8-4.8,1.7v23.4c0,0.7-0.3,1.1-1,1.2c-0.5,0.1-1,0.2-1.5,0.2c-0.6,0.1-1.1,0.1-1.6,0.2c-0.5,0-1,0.1-1.4,0.1
			c-0.4,0-0.8,0-1,0c-0.7,0-1-0.4-1-1.1V29c0-1.5-0.2-2.4-0.7-3c-0.5-0.6-1.2-0.8-2.2-0.8c-0.3,0-0.6,0-0.9,0s-0.7,0.1-1.1,0.1
			L277.8,23.3z"/>
		<path id="XMLID_106_" class="st0" d="M318.1,23.3c1.5-0.4,2.8-0.8,4.1-1.1s2.4-0.5,3.4-0.7s1.7-0.3,2.4-0.4
			c0.6-0.1,1.1-0.1,1.3-0.1c0.9,0,1.4,0.5,1.4,1.5v28.2c0,0.7-0.3,1.1-1,1.2c-0.5,0.1-1,0.2-1.5,0.2c-0.6,0.1-1.1,0.1-1.6,0.2
			c-0.5,0-1,0.1-1.4,0.1s-0.8,0-1,0c-0.7,0-1-0.4-1-1.1V29c0-1.5-0.2-2.4-0.7-3c-0.5-0.6-1.2-0.8-2.1-0.8c-0.3,0-0.6,0-0.9,0
			c-0.3,0-0.7,0.1-1.1,0.1L318.1,23.3z M330.7,8.3c0,1.5-0.4,2.5-1.2,3.2s-1.9,1-3.4,1c-1.3,0-2.1-0.4-2.8-1.1c-0.7-0.8-1-1.7-1-3.1
			c0-1.5,0.4-2.5,1.3-3.2c0.8-0.7,1.9-1,3.4-1c1.3,0,2.1,0.4,2.8,1.1C330.5,5.9,330.7,6.9,330.7,8.3z"/>
		<path id="XMLID_109_" class="st0" d="M335,23.3c1.5-0.4,2.8-0.8,4.1-1.1s2.3-0.5,3.3-0.7s1.7-0.3,2.3-0.4c0.6-0.1,1-0.1,1.2-0.1
			c0.8,0,1.3,0.5,1.4,1.5l0.1,1.7c1.3-0.5,2.5-0.9,3.8-1.4c1.3-0.4,2.5-0.8,3.7-1.1s2.2-0.6,3.2-0.8s1.7-0.3,2.4-0.3
			c1.6,0,2.9,0.3,4,0.8c1.1,0.5,2,1.2,2.7,2c0.7,0.9,1.3,1.9,1.6,3.2c0.3,1.3,0.5,2.6,0.5,4.2L369,50.8c0,0.7-0.3,1.1-1,1.2
			c-0.5,0.1-1,0.2-1.5,0.2c-0.6,0.1-1.1,0.1-1.6,0.2c-0.5,0.1-1,0.1-1.4,0.1s-0.8,0-1,0c-0.7,0-1-0.4-1-1.1l0.2-16.4v-0.6
			c0-1.5-0.1-2.8-0.4-3.9c-0.3-1.1-0.6-2-1.2-2.8c-0.6-0.8-1.3-1.4-2.1-1.7c-0.9-0.4-1.9-0.6-3.3-0.6c-0.5,0-1.5,0.1-2.8,0.4
			c-1.4,0.3-2.9,0.8-4.8,1.7v23.4c0,0.7-0.3,1.1-1,1.2c-0.5,0.1-1,0.2-1.5,0.2c-0.6,0.1-1.1,0.1-1.6,0.2c-0.5,0.1-1,0.1-1.4,0.1
			s-0.8,0-1,0c-0.7,0-1-0.4-1-1.1V29c0-1.5-0.2-2.4-0.7-3c-0.5-0.6-1.2-0.8-2.2-0.8c-0.3,0-0.6,0-0.9,0s-0.7,0.1-1.1,0.1L335,23.3z"
			/>
		<path id="XMLID_111_" class="st0" d="M378.4,24.3c1.5-0.6,2.8-1.1,4.2-1.6c1.4-0.5,2.7-0.8,3.9-1.1c1.3-0.3,2.3-0.5,3.3-0.7
			s1.8-0.2,2.5-0.2c1.9,0,3.6,0.2,5,0.7c1.4,0.5,2.4,1.2,3.2,2.1c0.8,1,1.5,2.2,1.7,3.8c0.4,1.6,0.5,3.4,0.5,5.5l-0.2,13.4
			c0,0.9,0,1.7,0.2,2.4c0.1,0.8,0.3,1.5,0.5,2.1c0,0,0,0.1,0,0.3c0,0.4-0.3,0.7-0.8,0.8c-0.4,0.1-0.8,0.2-1.3,0.2
			c-0.5,0.1-0.9,0.1-1.4,0.2c-0.5,0-1,0.1-1.4,0.1c-0.5,0-0.9,0-1.3,0c-0.3,0-0.5-0.1-0.7-0.3c-0.2-0.2-0.3-0.4-0.4-0.8l-0.6-1.9
			c-1.1,0.5-2.1,0.9-3.2,1.3c-1.1,0.4-2.1,0.8-3.1,1.1c-1,0.3-1.9,0.5-2.7,0.7c-0.8,0.2-1.5,0.3-2,0.3c-1.5,0-2.7-0.3-3.8-0.8
			c-1.1-0.6-1.9-1.2-2.6-2c-0.7-0.8-1.2-1.7-1.6-2.7c-0.3-1-0.5-1.9-0.5-2.8c0-1.6,0.3-2.9,0.9-4s1.4-1.9,2.3-2.7
			c0.9-0.7,1.8-1.2,3-1.6c1.2-0.4,2.4-0.8,3.8-1s2.8-0.4,4.5-0.5c1.6-0.1,3.3-0.2,5-0.3V33c0-1.3,0-2.4-0.2-3.4
			c-0.2-1-0.5-1.8-1-2.5c-0.5-0.7-1.1-1.2-1.9-1.6c-0.8-0.4-1.8-0.6-3-0.6c-1.5,0-3,0.2-4.7,0.5c-1.7,0.3-3.4,0.8-5.5,1.5
			L378.4,24.3z M395.5,37.3c-1.3,0.1-2.5,0.2-3.6,0.2c-1.2,0.1-2.1,0.2-3.1,0.3c-1,0.1-1.7,0.4-2.4,0.7c-0.7,0.3-1.3,0.7-1.7,1.3
			c-0.3,0.4-0.6,0.9-0.8,1.5c-0.2,0.6-0.3,1.2-0.3,1.8c0,0.6,0.1,1.2,0.3,1.7c0.2,0.6,0.5,1.2,1,1.7s1.1,1,1.8,1.3
			c0.8,0.3,1.7,0.5,2.9,0.5c0.2,0,0.4,0,0.8-0.1c0.4-0.1,0.8-0.1,1.4-0.3c0.6-0.1,1.2-0.3,1.7-0.5c0.7-0.2,1.4-0.5,2-0.8L395.5,37.3
			z"/>
	</g>
	<g id="XMLID_101_">
		<g id="XMLID_78_">
			<path id="XMLID_150_" class="st1" d="M256,92c-0.7-0.4-1.5-0.7-2.2-0.8c-0.8-0.1-1.7-0.3-2.4-0.3c-1.7,0-3.3,0.3-4.6,0.8
				c-1.3,0.6-2.3,1.3-3.1,2.2c-0.8,1-1.4,2.1-1.7,3.4c-0.4,1.4-0.6,2.8-0.6,4.4c0,1.4,0.2,2.7,0.5,4.3c0.3,1.6,0.9,2.9,1.6,4.3
				c0.7,1.3,1.7,2.4,2.8,3.2c1.2,0.9,2.5,1.3,4.3,1.3c0.3,0,0.6,0,1.1-0.1c0.5-0.1,1.1-0.2,1.7-0.3c0.7-0.2,1.5-0.4,2.3-0.6
				c0.9-0.3,1.7-0.6,2.7-1v-17c0-0.9-0.2-1.7-0.7-2.3C257.3,92.8,256.7,92.3,256,92z"/>
			<path id="XMLID_153_" class="st0" d="M266.3,117.4c-0.2-0.7-0.3-1.5-0.4-2.2s-0.2-1.7-0.2-2.6V64.5c0-1-0.5-1.5-1.4-1.5
				c-0.4,0-1.6,0.2-3.5,0.5c-1.9,0.4-4.5,1-7.5,1.7l0.3,1.9c0.6-0.1,1.2-0.1,1.7-0.1c1.1,0,1.8,0.3,2.3,0.8c0.5,0.6,0.7,1.6,0.7,3
				v16.8c-1.7-0.3-3.3-0.4-4.9-0.4c-2.7,0-5.2,0.4-7.6,1.2s-4.5,1.8-6.2,3.4c-1.7,1.5-3.1,3.3-4.2,5.4c-1,2.1-1.6,4.7-1.6,7.5
				c0,1.7,0.3,3.3,0.8,5c0.6,1.7,1.4,3.3,2.3,4.7c1,1.4,2.2,2.5,3.7,3.5c1.5,0.9,3,1.4,4.9,1.4c0.7,0,1.5-0.1,2.4-0.3
				c1-0.2,1.9-0.5,3.1-0.8c1.2-0.3,2.3-0.7,3.6-1.2c1.3-0.5,2.5-0.9,3.8-1.4l0.6,2.3c0.1,0.3,0.2,0.6,0.4,0.8
				c0.2,0.2,0.4,0.3,0.7,0.3c0.4,0,0.8,0,1.3,0s1,0,1.5-0.1c0.5,0,1-0.1,1.4-0.2c0.5-0.1,0.9-0.1,1.3-0.2c0.6-0.1,0.8-0.4,0.8-0.8
				L266.3,117.4z M258.3,112.7c-1,0.4-1.8,0.8-2.7,1c-0.9,0.3-1.7,0.5-2.3,0.6c-0.7,0.2-1.3,0.3-1.7,0.3c-0.5,0.1-0.9,0.1-1.1,0.1
				c-1.7,0-3.1-0.4-4.3-1.3c-1.2-0.9-2-1.9-2.8-3.2c-0.7-1.3-1.3-2.7-1.6-4.3c-0.3-1.6-0.5-2.9-0.5-4.3c0-1.6,0.2-3,0.6-4.4
				c0.4-1.4,1-2.5,1.7-3.4c0.8-1,1.8-1.7,3.1-2.2c1.3-0.6,2.8-0.8,4.6-0.8c0.8,0,1.6,0.1,2.4,0.3c0.9,0.2,1.6,0.4,2.2,0.8
				c0.7,0.4,1.3,0.9,1.7,1.5c0.5,0.6,0.7,1.4,0.7,2.3L258.3,112.7L258.3,112.7z"/>
		</g>
		<path id="XMLID_123_" class="st0" d="M272.1,89.9c1.5-0.4,2.8-0.8,4.1-1.1c1.3-0.3,2.4-0.5,3.4-0.7c1-0.2,1.7-0.3,2.4-0.4
			c0.6-0.1,1.1-0.1,1.3-0.1c0.9,0,1.4,0.5,1.4,1.5v28.2c0,0.7-0.3,1.1-1,1.2c-0.5,0.1-1,0.2-1.5,0.2c-0.6,0.1-1.1,0.1-1.6,0.2
			c-0.5,0-1,0.1-1.4,0.1c-0.4,0-0.8,0-1,0c-0.7,0-1-0.4-1-1.1V95.5c0-1.5-0.2-2.4-0.7-3c-0.5-0.6-1.2-0.8-2.1-0.8
			c-0.3,0-0.6,0-0.9,0c-0.3,0-0.7,0.1-1.1,0.1L272.1,89.9z M284.8,74.8c0,1.5-0.4,2.5-1.2,3.2c-0.8,0.7-1.9,1-3.4,1
			c-1.3,0-2.1-0.4-2.8-1.1c-0.7-0.8-1-1.7-1-3.1c0-1.5,0.4-2.5,1.3-3.2c0.8-0.7,1.9-1,3.4-1c1.3,0,2.1,0.4,2.8,1.1
			C284.4,72.4,284.8,73.5,284.8,74.8z"/>
		<path id="XMLID_126_" class="st0" d="M323.1,74.1c-1.7,0-3.3,0-4.5,0.1c-1.2,0.1-2.1,0.4-2.9,1c-0.8,0.6-1.4,1.4-1.9,2.5
			c-0.5,1.2-1,2.8-1.5,4.9l-2-0.2c0-0.1,0-0.4,0-0.9s0-1.1,0.1-1.7c0-0.7,0.1-1.5,0.1-2.2c0-0.8,0.1-1.7,0.1-2.4
			c0.1-0.8,0.1-1.6,0.2-2.1c0.1-0.7,0.1-1.2,0.2-1.6c0-0.4,0.3-0.6,0.8-0.6c2.5,0.1,4.9,0.1,7.2,0.1c2.2,0,4.4,0,6.3,0h13.7
			c1.9,0,4.1,0,6.3,0c2.3,0,4.7-0.1,7.2-0.1c0.4,0,0.6,0.2,0.7,0.6c0.1,0.4,0.1,0.9,0.1,1.6c0,0.7,0.1,1.4,0.1,2.1s0.1,1.6,0.1,2.4
			c0,0.8,0,1.6,0.1,2.2c0,0.7,0,1.3,0,1.7s0,0.8,0,0.9l-2,0.2c-0.5-2-1-3.7-1.5-4.9s-1.1-2-1.8-2.5c-0.8-0.6-1.7-0.9-2.8-1
			c-1.2-0.1-2.6-0.1-4.5-0.1h-5.2v43.3c0,0.7-0.3,1.1-1,1.2c-0.5,0.1-1,0.2-1.6,0.2c-0.6,0.1-1.1,0.1-1.7,0.2
			c-0.6,0-1.1,0.1-1.5,0.1c-0.5,0-0.8,0-1,0c-0.7,0-1-0.4-1-1.1V74.1H323.1z"/>
		<g id="XMLID_102_">
			<path id="XMLID_115_" class="st1" d="M370.4,98.1c0-0.4,0-0.7,0-1.1c0-0.8-0.1-1.5-0.4-2.1c-0.2-0.7-0.6-1.3-1-1.7
				c-0.5-0.5-1-0.9-1.7-1.2c-0.7-0.3-1.4-0.4-2.2-0.4c-1.4,0-2.4,0.2-3.4,0.7s-1.7,1.2-2.3,1.9c-0.6,0.8-1.1,1.7-1.4,2.8
				c-0.3,1.1-0.5,2.1-0.5,3.3l12.6-0.9C370.3,98.8,370.4,98.4,370.4,98.1z"/>
			<path id="XMLID_155_" class="st0" d="M378.4,112.6c-1.2,0.5-2.5,0.9-4,1.2c-1.5,0.3-2.9,0.5-4.2,0.5c-1.9,0-3.7-0.3-5.2-0.9
				c-1.6-0.6-2.8-1.4-3.9-2.4c-1.1-1.1-1.8-2.2-2.4-3.7c-0.6-1.5-0.9-3-1.1-4.8l19.3-1.1c0.5-1.8,0.7-3.3,0.7-4.6
				c0-1.4-0.2-2.7-0.7-3.9s-1.1-2.2-1.8-3c-0.8-0.9-1.8-1.5-3-1.9c-1.2-0.5-2.6-0.7-4.2-0.7c-2.4,0-4.7,0.4-6.8,1.3
				c-2.1,0.8-4,1.9-5.6,3.4c-1.7,1.5-2.9,3.2-3.8,5.3c-1,2-1.4,4.4-1.4,6.9c0,1.9,0.3,3.8,0.9,5.6c0.6,1.8,1.5,3.4,2.6,4.8
				c1.2,1.4,2.6,2.5,4.4,3.3c1.7,0.9,3.7,1.3,5.9,1.3c0.8,0,1.7-0.1,3-0.3c1.2-0.2,2.5-0.5,3.9-0.9c1.4-0.4,2.8-0.9,4.3-1.4
				c1.5-0.6,2.8-1.2,4.2-1.7L378.4,112.6z M358,96.7c0.3-1.1,0.8-1.9,1.4-2.8c0.6-0.8,1.4-1.5,2.3-1.9s2-0.7,3.4-0.7
				c0.8,0,1.6,0.1,2.2,0.4c0.7,0.3,1.2,0.7,1.7,1.2s0.8,1.1,1,1.7c0.2,0.7,0.4,1.5,0.4,2.1c0,0.4,0,0.8,0,1.1c0,0.4-0.1,0.8-0.2,1.1
				l-12.6,0.9C357.6,98.8,357.7,97.8,358,96.7z"/>
		</g>
		<path id="XMLID_131_" class="st0" d="M382.1,89.9c1.5-0.4,2.8-0.8,4.1-1.1c1.3-0.3,2.4-0.5,3.4-0.7c1-0.2,1.7-0.3,2.4-0.4
			c0.6-0.1,1.1-0.1,1.3-0.1c0.9,0,1.4,0.5,1.4,1.5v2.1c1-0.5,1.9-1,2.9-1.5s1.9-0.9,2.9-1.3c1-0.4,1.8-0.6,2.7-0.8
			c0.9-0.2,1.7-0.3,2.3-0.3c0.8,0,1.4,0.1,1.9,0.4c0.6,0.3,1.1,0.6,1.5,1.1c0.4,0.5,0.7,1,0.9,1.5c0.2,0.6,0.3,1.1,0.3,1.7
			c0,0.6-0.1,1.2-0.3,1.7c-0.2,0.6-0.5,1.1-1,1.5c-0.4,0.5-1,0.8-1.6,1.1c-0.7,0.3-1.4,0.4-2.2,0.4h-0.9c-0.1,0-0.3,0-0.5,0
			s-0.3,0-0.5-0.1v-0.9c0-1.3-0.3-2.1-0.8-2.6s-1.2-0.8-1.9-0.8c-0.8,0-1.7,0.2-2.8,0.6s-2,0.8-3,1.4v23.1c0,0.7-0.3,1.1-1,1.2
			c-0.5,0.1-1,0.2-1.5,0.2c-0.6,0.1-1.1,0.1-1.6,0.2c-0.5,0-1,0.1-1.4,0.1c-0.4,0-0.7,0-1,0c-0.7,0-1-0.4-1-1.1V95.5
			c0-1.5-0.2-2.4-0.7-3c-0.5-0.6-1.2-0.8-2.1-0.8c-0.3,0-0.6,0-0.9,0c-0.3,0-0.7,0.1-1.1,0.1L382.1,89.9z"/>
		<path id="XMLID_133_" class="st0" d="M411.1,89.9c1.5-0.4,2.8-0.8,4.1-1.1c1.3-0.3,2.4-0.5,3.4-0.7c1-0.2,1.7-0.3,2.4-0.4
			c0.6-0.1,1.1-0.1,1.3-0.1c0.9,0,1.4,0.5,1.4,1.5v2.1c1-0.5,1.8-1,2.9-1.5c1-0.5,1.9-0.9,2.9-1.3c1-0.4,1.8-0.6,2.7-0.8
			c0.9-0.2,1.7-0.3,2.3-0.3c0.8,0,1.4,0.1,1.9,0.4c0.6,0.3,1.1,0.6,1.5,1.1s0.7,1,0.9,1.5c0.2,0.6,0.3,1.1,0.3,1.7
			c0,0.6-0.1,1.2-0.3,1.7c-0.2,0.6-0.5,1.1-1,1.5c-0.4,0.5-1,0.8-1.6,1.1c-0.7,0.3-1.4,0.4-2.2,0.4h-0.9c-0.1,0-0.3,0-0.5,0
			c-0.2,0-0.3,0-0.5-0.1v-0.9c0-1.3-0.3-2.1-0.8-2.6s-1.2-0.8-1.9-0.8c-0.8,0-1.7,0.2-2.8,0.6c-1.1,0.4-2,0.8-3,1.4v23.1
			c0,0.7-0.3,1.1-1,1.2c-0.5,0.1-1,0.2-1.5,0.2c-0.6,0.1-1.1,0.1-1.6,0.2c-0.5,0-1,0.1-1.4,0.1s-0.8,0-1,0c-0.7,0-1-0.4-1-1.1V95.5
			c0-1.5-0.2-2.4-0.7-3c-0.5-0.6-1.2-0.8-2.1-0.8c-0.3,0-0.6,0-0.9,0s-0.7,0.1-1.1,0.1L411.1,89.9z"/>
		<path id="XMLID_135_" class="st0" d="M442.3,90.8c1.5-0.6,2.8-1.1,4.2-1.6c1.4-0.5,2.7-0.8,3.9-1.1c1.3-0.3,2.3-0.5,3.3-0.7
			c1-0.2,1.8-0.2,2.5-0.2c1.9,0,3.6,0.2,5,0.7c1.4,0.5,2.4,1.2,3.2,2.1c0.8,1,1.5,2.2,1.7,3.8c0.4,1.6,0.5,3.4,0.5,5.5l-0.2,13.4
			c0,0.9,0,1.7,0.2,2.4c0.1,0.8,0.3,1.5,0.5,2.1c0,0,0,0.1,0,0.3c0,0.4-0.3,0.7-0.8,0.8c-0.4,0.1-0.8,0.2-1.3,0.2
			c-0.5,0.1-0.9,0.1-1.4,0.2c-0.5,0-1,0.1-1.4,0.1c-0.5,0-0.9,0-1.3,0c-0.3,0-0.5-0.1-0.7-0.3c-0.2-0.2-0.3-0.4-0.4-0.8l-0.6-1.9
			c-1.1,0.5-2.1,0.9-3.2,1.3c-1.1,0.4-2.1,0.8-3.1,1.1s-1.9,0.5-2.7,0.7c-0.8,0.2-1.5,0.3-2,0.3c-1.5,0-2.7-0.3-3.8-0.8
			c-1.1-0.6-1.9-1.2-2.6-2c-0.7-0.8-1.2-1.7-1.6-2.7c-0.3-1-0.5-1.9-0.5-2.8c0-1.6,0.3-2.9,0.9-4c0.6-1.1,1.4-1.9,2.3-2.7
			c0.9-0.7,1.8-1.2,3-1.6c1.2-0.4,2.4-0.8,3.8-1c1.4-0.2,2.8-0.4,4.5-0.5c1.6-0.1,3.3-0.2,5-0.3v-1.4c0-1.3,0-2.4-0.2-3.4
			c-0.2-1-0.5-1.8-1-2.5c-0.5-0.7-1.1-1.2-1.9-1.6c-0.8-0.4-1.8-0.6-3-0.6c-1.5,0-3,0.2-4.7,0.5c-1.7,0.3-3.4,0.8-5.5,1.5
			L442.3,90.8z M459.3,103.8c-1.3,0.1-2.5,0.2-3.6,0.2c-1.2,0.1-2.1,0.2-3.1,0.3c-1,0.1-1.7,0.4-2.4,0.7c-0.7,0.3-1.3,0.7-1.7,1.3
			c-0.3,0.4-0.6,0.9-0.8,1.5c-0.2,0.6-0.3,1.2-0.3,1.8c0,0.6,0.1,1.2,0.3,1.7c0.2,0.6,0.5,1.2,1,1.7c0.5,0.5,1.1,1,1.8,1.3
			c0.8,0.3,1.7,0.5,2.9,0.5c0.2,0,0.4,0,0.8-0.1c0.4-0.1,0.8-0.1,1.4-0.3c0.6-0.1,1.2-0.3,1.7-0.5c0.7-0.2,1.4-0.5,2-0.8
			L459.3,103.8z"/>
		<path id="XMLID_138_" class="st0" d="M494.1,97.4c-0.3-1-0.6-1.9-0.9-2.7c-0.3-0.8-0.7-1.6-1.2-2.1c-0.5-0.6-1.1-1.1-1.8-1.4
			c-0.8-0.3-1.7-0.5-2.8-0.5c-0.7,0-1.5,0.1-2.1,0.2c-0.7,0.1-1.4,0.4-1.9,0.7c-0.6,0.3-1.1,0.7-1.4,1.2c-0.4,0.5-0.6,1.1-0.6,1.8
			c0,0.8,0.2,1.4,0.6,1.9s1,1.1,1.7,1.5c0.7,0.4,1.5,0.8,2.4,1.2c0.9,0.4,1.8,0.7,2.8,1.1c1.2,0.4,2.3,0.9,3.4,1.4s2.1,1.2,3,1.8
			c0.9,0.7,1.7,1.6,2.1,2.5c0.6,1,0.9,2.1,0.9,3.5c0,1.7-0.5,3.2-1.4,4.5c-0.9,1.3-2,2.2-3.4,3c-1.4,0.8-2.9,1.4-4.7,1.7
			c-1.7,0.4-3.3,0.6-5,0.6c-1,0-2-0.1-3.3-0.3c-1.2-0.2-2.3-0.6-3.4-1c-1.1-0.5-1.9-1.1-2.6-1.8c-0.7-0.8-1.1-1.7-1.1-2.8
			c0-1.4,0.5-2.3,1.4-2.9c0.9-0.6,2-0.9,3.5-0.9c0.3,0,0.6,0,0.8,0c0.2,0,0.5,0,0.8,0.1v0.7c0,1.8,0.4,3.2,1.3,4.2
			c0.9,1,2.3,1.5,4.3,1.5c0.8,0,1.5-0.1,2.1-0.3s1.3-0.4,1.7-0.8c0.5-0.3,0.9-0.8,1.3-1.3s0.5-1.1,0.5-1.7c0-0.9-0.2-1.6-0.7-2.1
			c-0.4-0.6-1-1.1-1.7-1.6c-0.7-0.5-1.5-0.9-2.4-1.3c-0.9-0.4-1.8-0.7-2.8-1.1c-1.2-0.4-2.2-0.9-3.4-1.4c-1.2-0.5-2.1-1.1-3-1.7
			c-0.9-0.7-1.7-1.6-2.1-2.5c-0.6-1-0.9-2.1-0.9-3.6c0-1.7,0.5-3.1,1.4-4.3s2-2.1,3.4-2.8c1.4-0.7,2.8-1.3,4.5-1.6
			c1.7-0.3,3.1-0.5,4.5-0.5c1.4,0,2.6,0.1,3.9,0.3c1.3,0.2,2.5,0.5,3.8,0.8c0.2,0.1,0.3,0.2,0.3,0.3c0.1,0.5,0.1,1.1,0.1,1.9
			c0,0.9,0.1,1.7,0.1,2.5c0,0.9,0,1.7,0.1,2.4c0,0.8,0,1.4,0,1.7L494.1,97.4z"/>
		<path id="XMLID_140_" class="st0" d="M501.6,89.9c1.5-0.4,2.8-0.8,4.1-1.1c1.3-0.3,2.4-0.5,3.4-0.7c1-0.2,1.7-0.3,2.4-0.4
			c0.6-0.1,1.1-0.1,1.3-0.1c0.9,0,1.4,0.5,1.4,1.5v28.2c0,0.7-0.3,1.1-1,1.2c-0.5,0.1-1,0.2-1.5,0.2c-0.6,0.1-1.1,0.1-1.6,0.2
			c-0.5,0-1,0.1-1.4,0.1s-0.8,0-1,0c-0.7,0-1-0.4-1-1.1V95.5c0-1.5-0.2-2.4-0.7-3c-0.5-0.6-1.2-0.8-2.1-0.8c-0.3,0-0.6,0-0.9,0
			c-0.3,0-0.7,0.1-1.1,0.1L501.6,89.9z M514.3,74.8c0,1.5-0.4,2.5-1.2,3.2c-0.8,0.7-1.9,1-3.4,1c-1.3,0-2.1-0.4-2.8-1.1
			c-0.7-0.8-1-1.7-1-3.1c0-1.5,0.4-2.5,1.3-3.2c0.8-0.7,1.9-1,3.4-1c1.3,0,2.1,0.4,2.8,1.1C513.9,72.4,514.3,73.5,514.3,74.8z"/>
		<path id="XMLID_143_" class="st0" d="M518.6,89.9c1.5-0.4,2.8-0.8,4.1-1.1c1.3-0.3,2.3-0.5,3.3-0.7c1-0.2,1.7-0.3,2.3-0.4
			c0.6-0.1,1-0.1,1.2-0.1c0.8,0,1.3,0.5,1.4,1.5l0.1,1.7c1.3-0.5,2.5-0.9,3.8-1.4c1.3-0.4,2.5-0.8,3.7-1.1c1.2-0.3,2.2-0.6,3.2-0.8
			c1-0.2,1.7-0.3,2.4-0.3c1.6,0,2.9,0.3,4,0.8s2,1.2,2.7,2c0.7,0.9,1.3,1.9,1.6,3.2c0.3,1.3,0.5,2.6,0.5,4.2l-0.2,19.8
			c0,0.7-0.3,1.1-1,1.2c-0.5,0.1-1,0.2-1.5,0.2c-0.5,0.1-1.1,0.1-1.6,0.2c-0.5,0-1,0.1-1.4,0.1c-0.4,0-0.8,0-1,0c-0.7,0-1-0.4-1-1.1
			l0.2-16.4V101c0-1.5-0.1-2.8-0.4-3.9c-0.2-1.1-0.6-2-1.2-2.8c-0.6-0.8-1.3-1.4-2.1-1.7c-0.9-0.4-1.9-0.6-3.3-0.6
			c-0.5,0-1.5,0.1-2.8,0.4c-1.4,0.3-2.9,0.8-4.8,1.7v23.4c0,0.7-0.3,1.1-1,1.2c-0.5,0.1-1,0.2-1.5,0.2c-0.6,0.1-1.1,0.1-1.6,0.2
			c-0.5,0-1,0.1-1.4,0.1s-0.8,0-1,0c-0.7,0-1-0.4-1-1.1V95.5c0-1.5-0.2-2.4-0.7-3c-0.5-0.6-1.2-0.8-2.2-0.8c-0.3,0-0.6,0-0.9,0
			c-0.3,0-0.7,0.1-1.1,0.1L518.6,89.9z"/>
		<path id="XMLID_145_" class="st0" d="M558.9,89.9c1.5-0.4,2.8-0.8,4.1-1.1c1.3-0.3,2.4-0.5,3.4-0.7c1-0.2,1.7-0.3,2.4-0.4
			c0.6-0.1,1.1-0.1,1.3-0.1c0.9,0,1.4,0.5,1.4,1.5v28.2c0,0.7-0.3,1.1-1,1.2c-0.5,0.1-1,0.2-1.5,0.2c-0.6,0.1-1.1,0.1-1.6,0.2
			c-0.5,0-1,0.1-1.4,0.1s-0.7,0-1,0c-0.7,0-1-0.4-1-1.1V95.5c0-1.5-0.2-2.4-0.7-3c-0.5-0.6-1.2-0.8-2.1-0.8c-0.3,0-0.6,0-0.9,0
			c-0.3,0-0.7,0.1-1.1,0.1L558.9,89.9z M571.5,74.8c0,1.5-0.4,2.5-1.2,3.2c-0.8,0.7-1.9,1-3.4,1c-1.3,0-2.1-0.4-2.8-1.1
			c-0.7-0.8-1-1.7-1-3.1c0-1.5,0.4-2.5,1.3-3.2c0.8-0.7,1.9-1,3.4-1c1.3,0,2.1,0.4,2.8,1.1C571.2,72.4,571.5,73.5,571.5,74.8z"/>
	</g>
	<path id="XMLID_76_" class="st0" d="M351,6.7c0,0,134.9-28,207.7,59.3C558.8,66,457.6-0.1,351,6.7z"/>
	<g id="XMLID_4_">
		<path id="XMLID_75_" class="st0" d="M200.8,132.4c0,0-137.8,1.2-192.3-98.6C8.5,33.8,94.9,118.4,200.8,132.4z"/>
		<path id="XMLID_40_" class="st0" d="M252.6,149.3c0,0-134,32.5-209.7-52.2C42.9,97.1,146.3,159.7,252.6,149.3z"/>
	</g>
</g>
</svg>
