<?xml version="1.0" encoding="utf-8"?>
<!-- Generator: Adobe Illustrator 24.0.1, SVG Export Plug-In . SVG Version: 6.00 Build 0)  -->
<svg version="1.1" id="Livello_1" xmlns="http://www.w3.org/2000/svg" xmlns:xlink="http://www.w3.org/1999/xlink" x="0px" y="0px"
	 viewBox="0 0 162.5 69.5" style="enable-background:new 0 0 162.5 69.5;" xml:space="preserve">
<style type="text/css">
	.st0{fill:#FFFFFF;}
	.st1{fill-rule:evenodd;clip-rule:evenodd;fill:#FFFFFF;}
</style>
<g>
	<g>
		<path class="st0" d="M85.6,19.2c0.9,0.2,1.7,0.4,2.2,0.9c3.7,1.1,9.4,1.5,15.7,1.6c15.5-3.7,32.6-9.5,32.6-9.5s-38.1,3.8-50.5,0
			c-0.1,0.8-0.5,1.7-1.3,2.8C83.1,16.9,83.7,18.2,85.6,19.2z"/>
		<path class="st0" d="M60.9,12.7c2.2-0.6,14.7-3.8,21-3.2c-0.2-0.7,0-1.4,0.7-2.3C90.2-3.3,62,4.1,59,4.9h0.3L60.9,12.7z"/>
		<path class="st0" d="M85.7,12.2c0.1-1.7-1.4-2.4-3.8-2.7C82.2,10.7,83.6,11.5,85.7,12.2z"/>
		<path class="st0" d="M98.6,26.9h4.9l0,1.7l-4.9,0v1.7c0.8,0.1,1.5,0.1,2.3,0.1c2-0.4,4.2-0.9,6.3-1.5c1.7-1.5,4-2.5,6.7-2.5
			c0.7,0,1.4,0.1,2,0.2c11.8-3.3,22-6.7,22-6.7s-19,1.9-34.5,1.6c-1.7,0.4-3.3,0.8-4.9,1.1V26.9z"/>
		<path class="st0" d="M63.8,30.1l-0.3-2.9C63,27,62.5,26.8,62,26.7l0.2,2C63,29.1,63.6,29.5,63.8,30.1z"/>
		<path class="st0" d="M62.7,33.2c0,0,0.3-0.2,0.8-0.5c-0.3-0.2-0.6-0.3-0.9-0.5L62.7,33.2z"/>
		<path class="st0" d="M86.5,26.6c2.4,0,4.8,1,5.4,2.9c1.4,0.3,2.9,0.5,4.7,0.7v-1.5l-2.4,0l0.5-1.7l1.9,0l0-3.6l0.4-0.2
			c-3.7,0.7-7.1,1.3-9.9,1.5C86.5,25.3,86.3,26,86.5,26.6z"/>
		<path class="st0" d="M69,20.8c2.6-0.5,5.8-1.1,8.9-1.5C75.9,18.2,72.3,19.3,69,20.8z"/>
		<path class="st0" d="M63.9,32.5c0.1,0,0.1-0.1,0.2-0.1l-0.2-1.4L63.9,32.5z"/>
		<path class="st0" d="M71.9,29.9L71.9,29.9c0.9-1.6,2-2.4,3.5-2.9c-1.1,0.3-2.3,0.7-3.5,1.2L71.9,29.9z"/>
		<path class="st0" d="M89.9,33l0-0.7c-0.3,0-0.6,0.1-0.9,0.1C89.3,32.6,89.6,32.8,89.9,33z"/>
		<path class="st0" d="M108.3,30.7c-0.9,1-1.5,2.3-1.5,3.6c0,1.4,0.6,2.7,1.7,3.8c4.2-0.9,8.6-2,12.6-3.1c0-0.2,0.1-0.5,0.1-0.7
			c0-1.4-0.6-2.7-1.7-3.8C115.8,30.6,112,30.7,108.3,30.7z"/>
		<path class="st0" d="M64,32.4l1,9.3c0,0,0.3-0.2,0.9-0.5v-3.3l-1.2-5.9C64.5,32.1,64.2,32.2,64,32.4z"/>
		<path class="st0" d="M66,31.2v6.6l0.6,2.9c0.8-0.5,2-1.1,3.3-1.8l0-9.8C68.4,29.8,67.1,30.5,66,31.2z"/>
		<path class="st0" d="M96.5,31.4c-1.6,0.3-3.1,0.5-4.5,0.7l0,8.7c1.6-0.1,3.4-0.3,5.3-0.6c-0.5-0.7-0.8-1.5-0.8-2.5L96.5,31.4z"/>
		<path class="st0" d="M141.6,29.1c0,0-0.7,0.1-2,0.2c0.1,0.1,0.1,0.3,0.2,0.4C140.9,29.3,141.6,29.1,141.6,29.1z"/>
		<path class="st0" d="M89.8,40.1c-0.2,0.3-0.4,0.5-0.7,0.8c0.3,0,0.5,0,0.8,0L89.8,40.1L89.8,40.1z"/>
		<path class="st0" d="M105.8,30.7c-1.7,0-3.3-0.1-4.9-0.2c-0.8,0.2-1.6,0.3-2.3,0.5l0,6.7c0,1.1,0.3,1.7,1.1,2.1
			c2.1-0.4,4.3-0.8,6.6-1.3c-1-1.3-1.6-2.7-1.6-4.3C104.7,33,105.1,31.8,105.8,30.7z"/>
		<path class="st0" d="M121.9,30.4c0.8,1.2,1.3,2.5,1.3,3.9c0,0,0,0.1,0,0.1c0.9-0.2,1.8-0.5,2.7-0.7v-3.5
			C124.7,30.3,123.3,30.3,121.9,30.4z"/>
		<path class="st0" d="M82.3,31.8c-0.8-0.4-1.2-1-1.2-1.7c0-0.3,0-0.5-0.1-0.7c-0.2,0.1-0.4,0.1-0.6,0.2l0.3-1
			c-0.4-1-1.1-1.5-2.1-1.7l-0.8,1.5c-0.2,0-0.5,0-0.8,0c-2.3,0-5.1,2.3-5.1,6l0,3.6c2.2-1,4.7-2,6.8-2.4
			C79.1,33.8,80.4,32.4,82.3,31.8z"/>
		<path class="st0" d="M83.7,38.6c0,0.8,0.5,1.3,1.4,1.7c0.2,0,0.3,0,0.5,0c2.6,0,4.4-1.6,4.4-3.6c0-2.2-1.8-3.7-4.4-3.7
			c-2.2,0-3.9,0.9-4.6,2.4C82.5,35.6,83.6,36.5,83.7,38.6z"/>
		<path class="st0" d="M128.8,30c-0.5,0.6-0.8,1.2-0.8,2.1l0,1c3.9-1.1,7.3-2.1,9.8-2.8c-0.1-0.3-0.2-0.6-0.4-0.8
			C135.1,29.6,132.2,29.8,128.8,30z"/>
		<path class="st0" d="M69,20.8c-3.5,0.7-6.1,1.4-6.1,1.4l0.1,1l0.1,0.7C64.7,23,66.8,21.8,69,20.8z"/>
		<path class="st0" d="M79.2,22.2c0.1,2.1,3.1,2.7,7.8,2.4c0.1-0.1,0.1-0.2,0.2-0.3c1.6-2.1,1.6-3.4,0.6-4.2
			c-0.9-0.2-1.6-0.5-2.2-0.9c-2-0.4-4.8-0.2-7.8,0.1C78.6,19.8,79.1,20.7,79.2,22.2z"/>
		<path class="st0" d="M63.8,40.1c-0.6,0.9-1.8,1.6-3.5,1.8l3.5,0L63.8,40.1L63.8,40.1z"/>
		<path class="st0" d="M63.9,33l0-0.5c-0.1,0.1-0.3,0.2-0.4,0.3C63.6,32.8,63.7,32.9,63.9,33z"/>
		<path class="st0" d="M52.5,36.9c0-3.3,2.6-5.6,6.6-5.6c1.2,0,2.4,0.4,3.5,0.9l-0.4-3.5c-0.7-0.3-1.6-0.5-2.6-0.5
			c-1.7,0-3.7,0.7-5.3,1.2l0.7-2c1.7-0.6,3.5-0.9,5.3-0.9c0.6,0,1.2,0.1,1.7,0.2l-0.2-1.9c-0.6,0.4-1,0.6-1,0.6L58.7,5
			c0,0,0.1,0,0.3-0.1l-16.5,0l-5.1,14.5c-0.5,1.6-0.8,3.3-1.1,4.9l-0.4,0L29.5,4.9l-17,0L5,41.9l16,0L23,26.1c0.2-1.5,0.3-3,0.4-4.5
			H24c0.1,1.6,0.5,3,1,4.6l5.9,15.7l9.7,0l6.6-16.6c0.5-1.2,0.8-2.5,1.1-3.7l0.3,0l2.2,20.3l7.5,0C55,41.6,52.5,39.7,52.5,36.9z"/>
		<path class="st0" d="M63.4,27.2c0.1,0.1,0.3,0.1,0.4,0.2l-0.7-3.4c0,0,0,0-0.1,0L63.4,27.2z"/>
		<path class="st0" d="M63.9,30.5c0-0.2,0-0.3-0.1-0.5l0.1,0.9L63.9,30.5z"/>
		<path class="st0" d="M59.4,33c-2.8,0-4.9,1.5-4.9,3.9c0,2.2,2.5,3.4,4.9,3.4c2.6,0,4.4-1.6,4.4-3.6C63.9,34.5,62,33,59.4,33z"/>
		<path class="st0" d="M66,41.6l-1.7,0.3l2.6,0l-0.2-1.2c-0.2,0.1-0.4,0.2-0.6,0.4V41.6z"/>
		<path class="st0" d="M59.4,42c0.3,0,0.7,0,1-0.1h-2.1C58.6,42,59,42,59.4,42z"/>
		<path class="st0" d="M63.8,27.3l0.9,4.6c0.4-0.2,0.8-0.5,1.2-0.7v-0.9C66,28.9,65.1,27.9,63.8,27.3z"/>
		<polygon class="st0" points="63.9,42 64.2,41.9 63.9,41.9 		"/>
		<path class="st0" d="M69.8,42l2.1-0.4l0-3.7c-0.7,0.3-1.4,0.7-2.1,1L69.8,42z"/>
		<path class="st0" d="M69.8,26.9l0,2.2c0.7-0.3,1.4-0.7,2.1-1l0-1.6L69.8,26.9z"/>
		<path class="st0" d="M75.4,27c1.2-0.3,2.3-0.4,3.2-0.2l0.1-0.2C77.4,26.6,76.3,26.7,75.4,27z"/>
		<path class="st0" d="M80.6,36.9c0-0.5,0.1-1,0.3-1.4c-0.7-0.1-1.4,0-2.2,0.1c-0.1,0.4-0.2,0.9-0.2,1.3c0,3.2,3.2,5.1,6.9,5.1
			c1.6,0,2.9-0.4,3.7-1.1c-1.7,0-3.1-0.2-4-0.6C82.8,40.1,80.6,38.9,80.6,36.9z"/>
		<path class="st0" d="M89.9,42l2.1-0.4v-0.8c-0.7,0.1-1.4,0.1-2.1,0.1L89.9,42z"/>
		<path class="st0" d="M91.9,29.5c-3-0.6-5-1.6-5.4-2.9c-0.1,0-0.1,0-0.2,0c-1.8,0-3.6,0.3-5.3,0.9l-0.3,1c0.1,0.2,0.2,0.5,0.2,0.8
			c1.5-0.4,3.2-1,4.7-1c2.4,0,4.3,1,4.3,2.3l0,1.8c0.7-0.1,1.4-0.1,2.1-0.2l0-1.8C92,30,91.9,29.7,91.9,29.5z"/>
		<path class="st0" d="M82.3,31.8c1.3,0.7,3.7,0.8,6.7,0.6c-1.1-0.6-2.4-1.1-3.8-1.1C84.1,31.3,83.1,31.5,82.3,31.8z"/>
		<path class="st0" d="M101.7,41.9c0.6,0,1.3-0.1,1.9-0.2l0-1.6c-0.6,0.1-1.1,0.1-1.7,0.1c-0.9,0-1.6-0.1-2.1-0.4
			c-0.8,0.1-1.6,0.3-2.4,0.4C98.2,41.3,99.6,41.9,101.7,41.9z"/>
		<path class="st0" d="M98.6,22.4l-1.7,0.8c0.6-0.1,1.1-0.2,1.7-0.3V22.4z"/>
		<path class="st0" d="M96.5,30.2l0,1.2c0.7-0.1,1.4-0.3,2.1-0.4l0-0.6C97.9,30.3,97.2,30.2,96.5,30.2z"/>
		<path class="st0" d="M114,40.3c-2.3,0-4.2-0.9-5.5-2.2c-0.7,0.2-1.4,0.3-2.1,0.5c1.6,2,4.4,3.4,7.7,3.4c5.3,0,9.2-3.7,9.3-7.6
			c-0.7,0.2-1.4,0.4-2.1,0.6C120.7,37.8,117.8,40.3,114,40.3z"/>
		<path class="st0" d="M105.8,30.7c0.8,0,1.6,0,2.4,0c1.3-1.4,3.3-2.4,5.7-2.4c2.3,0,4.2,0.9,5.5,2.2c0.8,0,1.6-0.1,2.4-0.1
			c-1.3-1.8-3.4-3.2-6-3.6c-2.9,0.8-5.8,1.6-8.7,2.3C106.7,29.5,106.2,30.1,105.8,30.7z"/>
		<path class="st0" d="M133.4,28.1c1.8,0,3.2,0.5,3.9,1.4c0.8-0.1,1.6-0.1,2.2-0.2c-1.1-2.1-3.6-2.7-6.2-2.7c-2.2,0-4.3,1.1-5.2,2.4
			h-0.1l0-2.4l-2.1,0.4v3.3c1-0.1,1.9-0.1,2.8-0.2C129.9,28.7,132,28.1,133.4,28.1z"/>
		<path class="st0" d="M126,41.9l2.1-0.2l0-8.6c-0.7,0.2-1.4,0.4-2.1,0.6L126,41.9z"/>
		<path class="st0" d="M137.8,30.3c0.1,0.3,0.2,0.7,0.2,1.1l0,10.5l2.1-0.2l0-9.9c0-0.8-0.1-1.5-0.4-2.1
			C139.2,29.8,138.5,30,137.8,30.3z"/>
	</g>
	<path class="st1" d="M144.5,29.4c1.6-0.4,3.5-1.2,5.3-1.2c2.4,0,4.3,1,4.3,2.3l0,2.5c-1.2-0.9-3-1.7-4.8-1.7c-4,0-6.6,2.3-6.6,5.6
		c0,3.2,3.2,5.1,6.9,5.1c2.1,0,3.7-0.8,4.4-1.8l0.1,0l0,1.8l2.1-0.4l0-11.4c0-2.5-2.8-3.7-5.7-3.7c-1.8,0-3.6,0.3-5.3,0.9
		L144.5,29.4L144.5,29.4z M144.7,36.9c0-2.3,2.1-3.9,4.9-3.9c2.6,0,4.4,1.5,4.4,3.7c0,2.1-1.8,3.6-4.4,3.6
		C147.2,40.3,144.7,39,144.7,36.9L144.7,36.9z"/>
	<path class="st0" d="M141.1,55.3c0.3,0,0.4,0.2,0.5,0.5c-0.4,0.1-0.7,0.1-0.9,0.4c-0.2,0.3-0.2,0.8-0.6,0.7c-0.1,0,0-0.2,0-0.3
		c0-0.1,0-0.3,0.1-0.4C140.5,55.8,140.6,55.3,141.1,55.3L141.1,55.3z"/>
	<path class="st1" d="M146.9,63.3c2,0,3.1-1.4,4.2-3.1c1.1-1.8,1.6-2.9,2-5c-0.3,0.1-0.5,0.3-0.8,0.5c0.1-0.5,0.2-1.1,0.7-1.1
		c0.5,0,0.4,0.6,0.5,1c-0.1,0-0.2-0.1-0.3-0.2c-0.1,0.6-0.2,1-0.5,1.5c-0.5,1.4-0.9,2.2-1.7,3.5c-1.1,1.7-2.1,3.2-4.1,3.2
		c-0.4,0-0.6-0.1-1-0.2c-0.7-0.2-1.2-0.2-1.8-0.7c-0.7-0.7-0.7-1.3-1.2-2.1c-0.3-0.5-0.7-0.7-0.9-1.3c-0.2-0.4-0.2-0.7-0.4-1.1
		c-0.4-0.8-0.8-1.2-1-2l0-0.3c0.7,0.5,0.5,1.2,0.8,2c0.3,0.7,0.6,1,1,1.6c0.3,0.4,0.3,0.8,0.5,1.2C144.1,62.3,145.1,63.3,146.9,63.3
		L146.9,63.3z"/>
	<path class="st0" d="M146,54.9c0-0.3-0.1-0.6-0.4-0.6c-0.2,0-0.3,0.3-0.4,0.5c-0.1,0.4-0.2,0.7-0.2,1.1c0,0.3,0.1,0.5,0.1,0.8
		c0.1,0.4,0.1,0.8,0.5,0.8c0.4,0,0.5-0.4,0.5-0.8c0-0.4-0.2-0.9-0.6-0.9c-0.1,0-0.2,0.2-0.2,0.3c-0.1-0.1-0.1-0.2-0.1-0.4
		c0-0.5,0-1.1,0.4-1.1C145.9,54.7,146,54.9,146,54.9L146,54.9z"/>
	<path class="st0" d="M145.3,52.1c0.4,0,0.6,0.4,0.6,0.7c0,0.1,0,0.2,0,0.4c-0.2-0.1-0.3-0.4-0.5-0.4c-0.3,0-0.3,0.3-0.6,0.4
		c-0.1,0,0-0.2,0-0.3C144.8,52.5,144.9,52.1,145.3,52.1L145.3,52.1z"/>
	<path class="st0" d="M148.4,55.2c0-0.3-0.1-0.6-0.4-0.6c-0.2,0-0.3,0.3-0.4,0.5c-0.1,0.4-0.2,0.7-0.2,1.1c0,0.3,0.1,0.5,0.1,0.8
		c0.1,0.4,0.1,0.8,0.5,0.8c0.4,0,0.5-0.4,0.5-0.8c0-0.4-0.2-0.9-0.6-0.9c-0.1,0-0.2,0.2-0.2,0.3c-0.1-0.1-0.1-0.2-0.1-0.4
		c0-0.5,0-1.1,0.4-1.1C148.2,55,148.3,55.2,148.4,55.2L148.4,55.2z"/>
	<path class="st0" d="M141.1,55.4c0.2,0,0.3,0.1,0.5,0.1c-0.3,0.1-0.5,0.1-0.8,0.3c-0.2,0.1-0.2,0.4-0.4,0.4c-0.1,0-0.1,0.1-0.1,0.1
		c-0.1,0,0-0.2,0.1-0.4C140.5,55.7,140.7,55.4,141.1,55.4L141.1,55.4z"/>
	<path class="st0" d="M147.4,53.6c0-0.1-0.1-0.1-0.1-0.1c0-0.5,0.3-1,0.8-1c0.2,0,0.2,0.3,0.2,0.5c-0.1,0-0.2,0-0.3,0
		C147.7,52.9,147.5,53.2,147.4,53.6L147.4,53.6z"/>
	<path class="st1" d="M23.3,59.1c0,3.7-3.6,6.8-8.1,6.8c-4.9,0-8.1-3-8.1-6.9c0-3.4,3.2-6.8,8-6.8C19.5,52.2,23.3,54.8,23.3,59.1
		L23.3,59.1z M23.3,53.6L23.3,53.6c-2.1-1.9-4.8-3.3-8.1-3.3c-5.8,0-10.5,3.8-10.5,8.8c0,5.3,4.7,8.9,10.6,8.9
		c3.3,0,6.4-1.5,7.9-3.2l0.1,0l0,3.2l2.3-0.4l0-24.3l-2.3,0.4L23.3,53.6L23.3,53.6z"/>
	<path class="st1" d="M31.6,67.5l0-17.3l-2.3,0.4l0,17.3L31.6,67.5L31.6,67.5z M30.3,43.2L28.4,45l1.9,1.7l1.9-1.7L30.3,43.2
		L30.3,43.2z"/>
	<path class="st1" d="M46.1,59.8l1.9,0c6.4,0,10-2.7,10-7.7c0-4.9-3.6-7.7-9.2-7.7l-5.2,0l0,23.3l2.5-0.3L46.1,59.8L46.1,59.8z
		 M46.1,46.6l3.1,0c3.7,0,6.1,2.1,6.1,5.6c0,3.4-2.4,5.6-6.9,5.6l-2.3,0L46.1,46.6L46.1,46.6z"/>
	<path class="st1" d="M59.6,53.6c1.8-0.5,3.9-1.3,5.9-1.3c2.7,0,4.8,1.2,4.8,2.6l0,2.8c-1.4-1-3.3-1.9-5.3-1.9
		c-4.5,0-7.4,2.7-7.4,6.4c0,3.7,3.5,5.9,7.7,5.9c2.4,0,4.1-0.9,5-2.1l0.1,0l0,2.1l2.3-0.4l0-13c0-2.9-3.2-4.3-6.3-4.3
		c-2,0-4,0.4-5.9,1L59.6,53.6L59.6,53.6z M59.8,62.1c0-2.7,2.3-4.4,5.4-4.4c2.9,0,5,1.7,5,4.2c0,2.4-2,4.2-4.9,4.2
		C62.6,66,59.8,64.5,59.8,62.1L59.8,62.1z"/>
	<polygon class="st0" points="78.3,43.2 76,43.6 76,67.9 78.3,67.5 78.3,43.2 	"/>
	<path class="st1" d="M99.1,54.2c-1.2-1.9-4.3-3.9-8-3.9c-6,0-10.6,3.5-10.6,8.6c0,5.1,4.2,9,10.5,9c2.5,0,5.7-0.9,7.5-2.4l0-2.3
		c-2.2,1.5-4.7,2.8-7.7,2.8c-3.7,0-6.4-2.4-7.2-3.9L99.1,54.2L99.1,54.2z M83,60.3c-0.1-0.4-0.2-0.9-0.2-1.4c0-3.8,3.5-6.7,8.2-6.7
		c1.9,0,3.4,0.6,4.3,1.5L83,60.3L83,60.3z"/>
	<path class="st0" d="M102.2,50.3l-2.3,0.4l0,17.3l2.3-0.4l0-8.5c0-4.2,3.1-6.8,5.6-6.8c0.3,0,0.7,0,0.9,0l1-2c-3.7,0-6,0.9-7.5,3.8
		l-0.1,0L102.2,50.3L102.2,50.3z"/>
	<path class="st0" d="M111.8,67.5l0-10.4c0-3.1,1.7-5.1,5.4-5.1c2.5,0,4.3,1.5,4.3,3.6l0,12.2l2.3-0.3l0-10.4c0-3.1,1.7-5.1,5.4-5.1
		c2.5,0,4.3,1.5,4.3,3.6l0,12.2l2.3-0.3l0-12.3c0-3.5-3.1-5-6.8-5c-2.2,0-4.4,1.1-5.8,2.8c-1.5-1.9-2.7-2.8-5.9-2.8
		c-1.9,0-4.5,1.2-5.4,2.9l-0.1,0l0-2.9l-2.3,0.4l0,17.1L111.8,67.5L111.8,67.5z"/>
	<path class="st1" d="M147.5,50.3c-6,0-10.4,4.3-10.4,8.8c0,4.5,4.4,8.8,10.4,8.8c6,0,10.4-4.3,10.4-8.8
		C157.8,54.6,153.4,50.3,147.5,50.3L147.5,50.3z M147.5,52.2c4.6,0,8,3.3,8,6.9c0,3.6-3.5,6.9-8,6.9c-4.6,0-8-3.3-8-6.9
		C139.4,55.5,142.9,52.2,147.5,52.2L147.5,52.2z"/>
</g>
</svg>
