<?xml version="1.0" encoding="utf-8"?>
<!-- Generator: Adobe Illustrator 24.0.1, SVG Export Plug-In . SVG Version: 6.00 Build 0)  -->
<svg version="1.1" id="Livello_1" xmlns="http://www.w3.org/2000/svg" xmlns:xlink="http://www.w3.org/1999/xlink" x="0px" y="0px"
	 viewBox="0 0 761 157" style="enable-background:new 0 0 761 157;" xml:space="preserve">
<style type="text/css">
	.st0{opacity:0.4;}
	.st1{fill:#FFFFFF;}
</style>
<g id="XMLID_3_">
	<g id="XMLID_21_" class="st0">
		<path class="st1" d="M663.1,144c-18.3,5-36.2,7.5-53.6,7.5c-30.2,0-55.1-5.4-74.7-16.2c-19.5-10.8-29.3-24.6-29.3-41.3
			c0-20.8,12.8-40,38.4-57.7C572.9,16.1,609.3,6,652.8,6c29.4,0,54,5.6,73.7,16.8c19.7,11.3,29.5,25.3,29.5,42
			c0,14.9-7.8,28-23.3,39.1s-33.8,16.7-54.6,16.7c-18.1,0-27.1-4.3-27.1-12.9c0-1.2,1.7-6.2,5.1-15l1.4-3.9h-3.3
			c-20.7,21.1-40.8,31.7-60.3,31.7c-19.2,0-28.7-7.3-28.7-21.8c0-14.9,8.6-28.7,25.8-41.4s35.9-19.1,56.1-19.1c4.9,0,13.5,1,25.8,3
			c0.6,0.1,2,0.3,4.2,0.7h14.5l-17.8,53.8c-1.1,3.6-1.7,6.6-1.7,9.1c0,5.8,5.2,8.7,15.7,8.7c14.4,0,27.8-5.2,40.1-15.6
			s18.4-21.8,18.4-34.2c0-14.7-9.1-27-27.4-37c-18.3-10-40.8-15-67.7-15c-34.8,0-66.2,8.3-94.2,25s-41.9,35.4-41.9,56.1
			c0,15.4,8.8,28.1,26.5,38s40.2,14.9,67.5,14.9c16.3,0,33.2-2.3,50.5-7L663.1,144z M658.9,71.4l6.5-19.8c-8.4-2.7-17.9-4-28.3-4
			c-14.1,0-25.8,4.4-35.2,13.3s-14.1,20-14.1,33.3c0,9.9,4.9,14.8,14.7,14.8C617.6,108.9,636.4,96.4,658.9,71.4z"/>
	</g>
	<g id="XMLID_1_">
		<rect x="7.3" y="33.3" class="st1" width="385.5" height="2"/>
	</g>
	<g id="XMLID_20_">
		<rect x="145.1" y="138.2" class="st1" width="385.5" height="2"/>
	</g>
	<g>
		<polygon class="st1" points="495.3,34.3 469,44.6 462.7,52.2 487.3,44.6 		"/>
		<path class="st1" d="M590.2,112.5c-3.7,0-5.5-1.2-5.5-3.5c0-1.3,0.7-4.1,2.2-8.4l9.1-27.7l6.7-16.6c-9.7-0.4-19.1-0.7-28-0.7
			c-21.6,0-39.9,5.4-54.8,16.2c-13.6,9.8-20.8,19.8-21.6,29.9c-11.2,7.2-19.7,10.8-25.5,10.8c-3.7,0-5.5-1.2-5.5-3.6
			c0-1.2,0.7-4,2.2-8.3l9.2-27.7l7.1-18l-45.7,9l-1.1,3.4c7.2-1.3,12.3-1.9,15.1-1.9c4.1,0,6.1,1.6,6.1,4.7c0,1.8-0.9,5.5-2.6,11.1
			l-6.5,19.5c0,0.1-0.1,0.2-0.1,0.3c-11.8,7.7-20.7,11.6-26.8,11.6c-3.7,0-5.5-1.2-5.5-3.6c0-1.2,0.7-4,2.2-8.3l14.7-44.5
			c0-0.1,0.1-0.2,0.1-0.3l16.2-49.2l-20.3,5.6l-14.3,43.3l0,0c-13,0-23,0.6-29.8,1.7c-6.9,1.1-13.7,3.4-20.6,6.7
			c-10.2,5-18.6,11.2-25,18.6c-6,6.8-9.2,13.4-9.6,19.7c-16.1,6.6-29.8,9.9-41.1,9.9c-13.3,0-20-5.5-20-16.4l0.1-2.5
			c17,0,31.6-2.6,43.8-7.7c12.2-5.2,18.3-11.3,18.3-18.5c0-3.6-1.7-6.5-5.1-8.7s-7.9-3.4-13.5-3.4c-15.3,0-29.7,4.6-43.1,13.9
			c-13.5,9.3-20.2,19.2-20.2,29.7c0,1.4,0.2,2.7,0.5,3.9c-10.6,6.7-18.7,10-24.3,10c-3.7,0-5.5-1.2-5.5-3.5c0-1.3,0.7-4.1,2.2-8.4
			l9.1-27.4c1-3.1,1.5-5.7,1.5-7.7c0-7-5.5-10.6-16.6-10.6c-7.9,0-16.5,3-25.9,8.9s-17.6,13.6-24.5,23h-1.3l4.5-13.7
			c1.1-3,1.6-5.6,1.6-7.8c0-3-1.4-5.4-4.3-7.4c-2.8-2-6.3-3-10.5-3c-8,0-16.7,2.9-26.1,8.6S113.7,77,105.8,86.7H104l4.6-13.9
			c1.4-4.4,2.2-7.6,2.2-9.5c0-5.7-4.5-8.5-13.5-8.5c-10.9,0-23.2,4.4-36.8,13.2l-1.7,5.2C71.3,65.1,80.5,61,86.7,61
			c3.7,0,5.5,1.2,5.5,3.5c0,1.3-0.7,4.1-2.2,8.4l-9.2,27.7l-6.9,17.3l19.6-0.7l6.8-19.9C109,87.7,117.9,79.6,127,73
			c9.1-6.6,16-9.9,20.7-9.9c3.7,0,5.6,1.6,5.6,4.8c0,1.1-0.4,2.9-1.2,5.4l-14.7,44.5l18.3-0.7l7-20.3c20.6-22.5,36.3-33.7,47.1-33.7
			c3.9,0,5.8,1.6,5.8,4.7c0,1.1-0.4,2.9-1.3,5.4l-9.1,27.4c-1.5,4.5-2.3,7.7-2.3,9.5c0,5.6,4.5,8.5,13.6,8.5
			c10.7,0,22.8-4.3,36.1-12.7c1.4,2.7,3.6,5.1,6.6,7.2c5.5,3.7,12.7,5.6,21.6,5.6c14,0,30.9-4.2,50.7-12.5l0.3-1
			c0.6,9,7.2,13.5,19.8,13.5c8.6,0,17.8-3,27.7-8.9c9.9-5.9,18.4-13.6,25.5-23h1.7l-4.6,13.9c-1.5,4.5-2.2,7.7-2.2,9.5
			c0,5.7,4.5,8.5,13.6,8.5c10.6,0,22.6-4.2,35.8-12.6c-0.4,1.7-0.6,3.1-0.6,4.2c0,5.7,4.5,8.5,13.5,8.5c10.7,0,22.7-4.3,36.1-12.8
			c0.9,8.5,7.4,12.8,19.6,12.8c8.7,0,17.9-3,27.8-8.9c9.9-5.9,18.4-13.6,25.4-23h1.7l-4.6,13.9c-1.5,4.5-2.3,7.7-2.3,9.5
			c0,5.7,4.5,8.5,13.6,8.5c10.9,0,23.1-4.4,36.8-13.2l1.7-5.2C605.7,108.4,596.4,112.5,590.2,112.5z M283.6,69.5c7-6,14.2-9,21.7-9
			c6.9,0,10.4,2.9,10.4,8.6c0,5.8-3.9,10.5-11.8,14.2s-18.8,5.8-32.7,6.5C272.5,82.3,276.7,75.5,283.6,69.5z M410,77
			c-7.6,8.7-16.4,16.4-26.5,23.2c-10.1,6.8-17.8,10.2-23.2,10.2c-5.8,0-8.7-2.9-8.7-8.8c0-8.1,4-17.3,12.1-27.4
			c6.8-8.6,15.8-12.9,27.1-12.9c7.9,0,15.7,1,23.4,3.1L410,77z M576.1,77c-7.6,8.7-16.4,16.4-26.5,23.2
			c-10.1,6.8-17.8,10.1-23.1,10.1c-5.7,0-8.6-2.9-8.6-8.8c0-8.1,4-17.3,12-27.4c6.8-8.6,15.9-12.9,27.2-12.9c7.7,0,15.4,1,23.3,3.1
			L576.1,77z"/>
	</g>
</g>
</svg>
