<?xml version="1.0" encoding="utf-8"?>
<!-- Generator: Adobe Illustrator 24.0.1, SVG Export Plug-In . SVG Version: 6.00 Build 0)  -->
<svg version="1.1" id="Livello_1" xmlns="http://www.w3.org/2000/svg" xmlns:xlink="http://www.w3.org/1999/xlink" x="0px" y="0px"
	 viewBox="0 0 534 244" style="enable-background:new 0 0 534 244;" xml:space="preserve">
<style type="text/css">
	.st0{fill:#FFFFFF;}
	.st1{fill:none;}
</style>
<g>
	<path class="st0" d="M159.8,157.7c0.3,0,0.6,0,0.9,0c0.3,0,0.8,0,1.4,0c1.6,0,3.7-0.1,6.1-0.2c2.4-0.1,4-0.2,4.8-0.2
		c3.6,0,6.4,0.8,8.3,2.4c1.9,1.6,2.9,3.9,2.9,6.9c0,3.5-1.1,6.2-3.4,8.2c-2.3,2-5.4,3-9.3,3c-0.4,0-0.8,0-1.3,0s-1-0.1-1.5-0.1
		c0,2.1,0.1,3.9,0.3,5.5c0.2,1.5,0.6,2.9,1,4c-1,0.5-2,0.8-3,1s-1.8,0.3-2.7,0.3c-1.4,0-2.4-0.3-3-1s-0.9-1.8-0.9-3.4
		c0-0.7,0.1-2.6,0.3-5.6c0.2-3,0.3-5.6,0.3-7.9c0-3.8-0.1-6.6-0.3-8.7C160.6,160,160.2,158.5,159.8,157.7z M168.6,172.4
		c0.4,0.1,0.8,0.1,1.1,0.1s0.7,0,1,0c1.7,0,3-0.4,4-1.3c0.9-0.9,1.4-2.1,1.4-3.8c0-1.4-0.4-2.5-1.3-3.3c-0.8-0.8-2.1-1.1-3.7-1.1
		c-0.3,0-0.7,0-1.1,0.1c-0.4,0-0.8,0.1-1.2,0.2c-0.1,1.5-0.2,3-0.2,4.5C168.7,169.4,168.6,170.9,168.6,172.4z"/>
	<path class="st0" d="M205.8,187c-0.9,0.5-1.7,0.9-2.5,1.1c-0.8,0.3-1.5,0.4-2.1,0.4c-0.9,0-1.5-0.2-2-0.6s-0.8-1-0.9-1.8
		c-1,0.9-2.1,1.6-3.1,2.1c-1,0.4-2.1,0.6-3.4,0.6c-2.1,0-3.8-0.6-5.1-1.8c-1.3-1.2-1.9-2.7-1.9-4.7c0-2.3,0.9-4.2,2.7-5.5
		c1.8-1.4,4.3-2,7.4-2c0.4,0,0.9,0,1.5,0.1s1.2,0.1,1.8,0.2v-0.8c0-1.1-0.4-2-1.2-2.6c-0.8-0.6-1.9-0.9-3.4-0.9
		c-1.2,0-2.3,0.2-3.2,0.6c-0.9,0.4-1.6,1-2.2,1.8c-0.6-0.3-1-0.6-1.3-1c-0.3-0.4-0.4-0.9-0.4-1.4c0-1.3,0.8-2.3,2.3-3.1
		c1.5-0.8,3.6-1.2,6.2-1.2c3.3,0,5.7,0.7,7.2,2.1c1.5,1.4,2.3,3.6,2.3,6.6c0,0.1,0,0.6,0,1.7c0,1.1,0,2.1,0,3.1
		c0,1.9,0.1,3.4,0.3,4.5S205.3,186.3,205.8,187z M198.1,178.5c-0.4-0.1-0.8-0.1-1.2-0.2c-0.4,0-0.8-0.1-1.1-0.1
		c-1.5,0-2.7,0.3-3.5,0.8c-0.8,0.6-1.2,1.4-1.2,2.4c0,0.9,0.3,1.6,0.8,2.1c0.6,0.5,1.3,0.7,2.3,0.7c0.7,0,1.4-0.1,2.1-0.4
		c0.6-0.3,1.3-0.7,1.9-1.4c0-0.2,0-0.5,0-0.9c0-0.3,0-0.9,0-1.7V178.5z"/>
	<path class="st0" d="M217,172c1-2,2-3.4,3-4.3s2.1-1.3,3.3-1.3c1,0,1.8,0.3,2.5,1c0.6,0.7,1,1.5,1,2.6c0,1-0.3,1.9-0.8,2.6
		c-0.5,0.7-1.4,1.4-2.7,2c-0.1-0.6-0.3-1.1-0.7-1.5s-0.8-0.5-1.4-0.5c-0.7,0-1.3,0.3-2,0.9c-0.6,0.6-1.2,1.4-1.8,2.6
		c-0.1,0.5-0.1,1.1-0.1,1.7c0,0.6,0,1.3,0,2c0,1.7,0.1,3.2,0.3,4.4c0.2,1.2,0.6,2.2,1,3c-1,0.5-1.9,0.8-2.8,1
		c-0.9,0.2-1.7,0.3-2.6,0.3c-1.1,0-1.9-0.3-2.4-0.8c-0.5-0.5-0.8-1.3-0.8-2.4c0-0.5,0.1-2,0.2-4.6c0.2-2.5,0.2-4.9,0.2-6.9
		c0-1.4-0.1-2.6-0.3-3.7s-0.4-2.1-0.8-3c0.9-0.3,1.6-0.5,2.3-0.6c0.6-0.1,1.2-0.2,1.8-0.2c1.2,0,2.1,0.3,2.7,0.9
		c0.6,0.6,0.9,1.5,0.9,2.8c0,0.2,0,0.5,0,0.8C217,171.2,216.9,171.6,217,172L217,172z"/>
	<path class="st0" d="M236.4,172c1-2,2-3.4,3-4.3s2.1-1.3,3.3-1.3c1,0,1.8,0.3,2.5,1c0.6,0.7,1,1.5,1,2.6c0,1-0.3,1.9-0.8,2.6
		c-0.5,0.7-1.4,1.4-2.7,2c-0.1-0.6-0.3-1.1-0.7-1.5s-0.8-0.5-1.4-0.5c-0.7,0-1.3,0.3-2,0.9c-0.6,0.6-1.2,1.4-1.8,2.6
		c-0.1,0.5-0.1,1.1-0.1,1.7c0,0.6,0,1.3,0,2c0,1.7,0.1,3.2,0.3,4.4c0.2,1.2,0.6,2.2,1,3c-1,0.5-1.9,0.8-2.8,1
		c-0.9,0.2-1.7,0.3-2.6,0.3c-1.1,0-1.9-0.3-2.4-0.8c-0.5-0.5-0.8-1.3-0.8-2.4c0-0.5,0.1-2,0.2-4.6c0.2-2.5,0.2-4.9,0.2-6.9
		c0-1.4-0.1-2.6-0.3-3.7s-0.4-2.1-0.8-3c0.9-0.3,1.6-0.5,2.3-0.6c0.6-0.1,1.2-0.2,1.8-0.2c1.2,0,2.1,0.3,2.7,0.9
		c0.6,0.6,0.9,1.5,0.9,2.8c0,0.2,0,0.5,0,0.8C236.3,171.2,236.3,171.6,236.4,172L236.4,172z"/>
	<path class="st0" d="M271.2,177c0,1.4-0.2,2.8-0.7,4.1c-0.5,1.3-1.2,2.5-2,3.5c-1.3,1.5-2.7,2.6-4.3,3.3c-1.6,0.7-3.5,1.1-5.5,1.1
		c-3.6,0-6.5-1-8.7-3.1c-2.2-2.1-3.4-4.8-3.4-8c0-3.4,1.2-6.2,3.6-8.4c2.4-2.2,5.5-3.3,9.2-3.3c3.5,0,6.3,1,8.5,3.1
		C270.1,171.2,271.2,173.9,271.2,177z M253.4,177.7c0,1.7,0.5,3,1.5,4c1,1,2.3,1.5,4,1.5c1.6,0,2.9-0.5,3.9-1.6
		c1-1.1,1.6-2.5,1.6-4.1c0-1.7-0.5-3.1-1.5-4.1c-1-1-2.3-1.6-4-1.6c-1.6,0-2.9,0.5-4,1.6S253.4,175.9,253.4,177.7z"/>
	<path class="st0" d="M290.6,181.7c0.5,0.6,0.8,1.1,1,1.7c0.2,0.5,0.3,1.1,0.3,1.6c0,1.2-0.6,2.2-1.8,2.9c-1.2,0.7-2.8,1.1-4.9,1.1
		c-3.4,0-6.1-0.9-8.2-2.8c-2.1-1.9-3.1-4.3-3.1-7.4c0-1.9,0.4-3.7,1.2-5.3c0.8-1.6,1.9-3.1,3.5-4.4c1.1-0.9,2.3-1.6,3.8-2.1
		c1.5-0.5,3-0.7,4.5-0.7c1.5,0,2.6,0.3,3.4,0.8c0.8,0.5,1.2,1.3,1.2,2.2c0,0.6-0.1,1.2-0.4,1.7c-0.3,0.6-0.7,1.2-1.3,1.8
		c-0.5-0.3-1-0.5-1.5-0.6s-1-0.2-1.6-0.2c-1.6,0-3,0.6-4.1,1.7s-1.7,2.6-1.7,4.2c0,1.6,0.5,2.9,1.4,3.8s2.1,1.4,3.7,1.4
		c0.8,0,1.6-0.1,2.4-0.4C289.1,182.6,289.8,182.3,290.6,181.7z"/>
	<path class="st0" d="M310.8,181.7c0.5,0.6,0.8,1.1,1,1.7c0.2,0.5,0.3,1.1,0.3,1.6c0,1.2-0.6,2.2-1.8,2.9c-1.2,0.7-2.8,1.1-4.9,1.1
		c-3.4,0-6.1-0.9-8.2-2.8c-2.1-1.9-3.1-4.3-3.1-7.4c0-1.9,0.4-3.7,1.2-5.3c0.8-1.6,1.9-3.1,3.5-4.4c1.1-0.9,2.3-1.6,3.8-2.1
		c1.5-0.5,3-0.7,4.5-0.7c1.5,0,2.6,0.3,3.4,0.8c0.8,0.5,1.2,1.3,1.2,2.2c0,0.6-0.1,1.2-0.4,1.7c-0.3,0.6-0.7,1.2-1.3,1.8
		c-0.5-0.3-1-0.5-1.5-0.6s-1-0.2-1.6-0.2c-1.6,0-3,0.6-4.1,1.7s-1.7,2.6-1.7,4.2c0,1.6,0.5,2.9,1.4,3.8s2.1,1.4,3.7,1.4
		c0.8,0,1.6-0.1,2.4-0.4C309.2,182.6,310,182.3,310.8,181.7z"/>
	<path class="st0" d="M338.3,187.3c-0.8,0.4-1.6,0.7-2.5,0.9s-1.7,0.3-2.7,0.3c-1.2,0-2-0.3-2.4-0.8c-0.5-0.5-0.7-1.4-0.7-2.6
		c0-0.5,0-1.6,0.2-3.3c0.1-1.7,0.1-3,0.1-4.2c0-2.2-0.3-3.8-0.8-4.7c-0.5-0.9-1.4-1.3-2.7-1.3c-0.6,0-1.2,0.1-1.9,0.3
		c-0.7,0.2-1.5,0.6-2.4,1c-0.1,0.7-0.1,1.5-0.1,2.3c0,0.8,0,1.8,0,2.8c0,2.3,0.1,4.2,0.3,5.7c0.2,1.5,0.5,2.7,0.9,3.5
		c-0.9,0.4-1.7,0.7-2.6,0.9s-1.7,0.3-2.5,0.3c-1.2,0-2-0.3-2.4-0.8c-0.4-0.5-0.7-1.5-0.7-2.9c0-0.5,0.1-2.5,0.2-6.1s0.2-7,0.2-10.1
		c0-3.3-0.1-5.7-0.3-7.3s-0.5-2.8-0.9-3.6c0.9-0.4,1.8-0.7,2.7-1s1.7-0.3,2.5-0.3c1.1,0,1.9,0.3,2.4,0.8c0.5,0.5,0.7,1.5,0.7,2.8
		c0,0.3,0,1.5-0.1,3.5c-0.1,2-0.2,3.9-0.3,5.7c1.1-1,2.3-1.7,3.5-2.2s2.4-0.8,3.7-0.8c2.5,0,4.3,0.7,5.6,2.1s2,3.5,2,6.1
		c0,0.6,0,1.6-0.1,3c-0.1,1.3-0.1,2.4-0.1,3.1c0,1.6,0.1,2.9,0.3,4C337.6,185.7,337.9,186.6,338.3,187.3z"/>
	<path class="st0" d="M350.7,187.3c-0.9,0.4-1.7,0.7-2.6,0.9s-1.7,0.3-2.6,0.3c-1.1,0-1.9-0.2-2.4-0.7c-0.5-0.5-0.7-1.3-0.7-2.6
		c0-0.5,0.1-1.8,0.2-4c0.1-2.2,0.2-4.2,0.2-6c0-1.8-0.1-3.3-0.2-4.5s-0.4-2.2-0.8-2.9c0.9-0.4,1.7-0.7,2.6-0.9s1.7-0.3,2.6-0.3
		c1.1,0,1.9,0.3,2.4,0.8c0.5,0.5,0.7,1.4,0.7,2.5c0,0.7-0.1,2.3-0.2,4.5c-0.1,2.3-0.2,4.2-0.2,5.7c0,1.6,0.1,2.9,0.3,4.1
		C350,185.3,350.3,186.3,350.7,187.3z M346.8,156.1c1,0,1.9,0.3,2.6,1c0.7,0.6,1,1.5,1,2.5c0,1.1-0.4,2-1.2,2.8
		c-0.8,0.8-1.8,1.1-3,1.1c-1,0-1.9-0.3-2.5-0.9s-1-1.4-1-2.4c0-1.1,0.4-2,1.2-2.8C344.7,156.5,345.6,156.1,346.8,156.1z"/>
	<path class="st0" d="M375.1,187c-0.9,0.5-1.7,0.9-2.5,1.1c-0.8,0.3-1.5,0.4-2.1,0.4c-0.9,0-1.5-0.2-2-0.6c-0.5-0.4-0.8-1-0.9-1.8
		c-1,0.9-2.1,1.6-3.1,2.1c-1,0.4-2.1,0.6-3.4,0.6c-2.1,0-3.8-0.6-5.1-1.8c-1.3-1.2-1.9-2.7-1.9-4.7c0-2.3,0.9-4.2,2.7-5.5
		c1.8-1.4,4.3-2,7.4-2c0.4,0,0.9,0,1.5,0.1s1.2,0.1,1.8,0.2v-0.8c0-1.1-0.4-2-1.2-2.6c-0.8-0.6-1.9-0.9-3.4-0.9
		c-1.2,0-2.3,0.2-3.2,0.6c-0.9,0.4-1.6,1-2.2,1.8c-0.6-0.3-1-0.6-1.3-1c-0.3-0.4-0.5-0.9-0.5-1.4c0-1.3,0.8-2.3,2.3-3.1
		c1.5-0.8,3.6-1.2,6.2-1.2c3.3,0,5.7,0.7,7.2,2.1s2.3,3.6,2.3,6.6c0,0.1,0,0.6,0,1.7c0,1.1,0,2.1,0,3.1c0,1.9,0.1,3.4,0.3,4.5
		S374.6,186.3,375.1,187z M367.5,178.5c-0.4-0.1-0.8-0.1-1.2-0.2c-0.4,0-0.8-0.1-1.1-0.1c-1.5,0-2.7,0.3-3.5,0.8s-1.2,1.4-1.2,2.4
		c0,0.9,0.3,1.6,0.8,2.1c0.6,0.5,1.3,0.7,2.3,0.7c0.7,0,1.4-0.1,2.1-0.4c0.6-0.3,1.3-0.7,1.9-1.4c0-0.2,0-0.5,0-0.9
		c0-0.3,0-0.9,0-1.7V178.5z"/>
	<path class="st0" d="M6,225.5c0.7,0.4,1.4,0.7,2.2,0.9c0.8,0.2,1.6,0.3,2.4,0.3c1.4,0,2.6-0.3,3.4-0.8c0.8-0.6,1.2-1.3,1.2-2.3
		c0-1.1-1.3-2.4-3.7-4.1c-0.1-0.1-0.3-0.2-0.3-0.2c-2.5-1.7-4.1-3-4.8-4.1c-0.7-1-1-2.3-1-3.7c0-1.2,0.2-2.4,0.7-3.5
		s1.2-2.2,2.1-3.1c1.4-1.4,2.9-2.4,4.7-3.1c1.7-0.7,3.6-1.1,5.7-1.1c1.2,0,2.2,0.3,2.8,0.8c0.7,0.5,1,1.3,1,2.2
		c0,0.6-0.1,1.2-0.4,1.9s-0.6,1.4-1.1,2.1c-0.6-0.2-1.2-0.4-1.9-0.6c-0.6-0.1-1.3-0.2-2-0.2c-1.5,0-2.6,0.3-3.5,0.8
		c-0.8,0.5-1.3,1.3-1.3,2.2c0,1.2,1.4,2.7,4.2,4.6c0.3,0.2,0.6,0.4,0.7,0.5c1.7,1.1,2.9,2.2,3.6,3.4c0.8,1.1,1.1,2.4,1.1,3.8
		c0,1.3-0.3,2.6-0.8,3.8c-0.6,1.2-1.4,2.3-2.4,3.3c-1.3,1.1-2.7,2-4.2,2.6c-1.6,0.6-3.3,0.8-5.2,0.8c-1.5,0-2.7-0.3-3.4-0.9
		c-0.8-0.6-1.2-1.5-1.2-2.7c0-0.6,0.1-1.2,0.3-1.8C5.3,226.8,5.6,226.2,6,225.5z"/>
	<path class="st0" d="M46.4,230.9c-0.9,0.5-1.7,0.9-2.5,1.1c-0.8,0.3-1.5,0.4-2.1,0.4c-0.9,0-1.5-0.2-2-0.6s-0.8-1-0.9-1.8
		c-1,0.9-2.1,1.6-3.1,2.1c-1,0.4-2.1,0.6-3.4,0.6c-2.1,0-3.8-0.6-5.1-1.8c-1.3-1.2-1.9-2.7-1.9-4.7c0-2.3,0.9-4.2,2.7-5.5
		c1.8-1.4,4.3-2,7.4-2c0.4,0,0.9,0,1.5,0.1s1.2,0.1,1.8,0.2V218c0-1.1-0.4-2-1.2-2.6c-0.8-0.6-1.9-0.9-3.4-0.9
		c-1.2,0-2.3,0.2-3.2,0.6c-0.9,0.4-1.6,1-2.2,1.8c-0.6-0.3-1-0.6-1.3-1c-0.3-0.4-0.4-0.9-0.4-1.4c0-1.3,0.8-2.3,2.3-3.1
		c1.5-0.8,3.6-1.2,6.2-1.2c3.3,0,5.7,0.7,7.2,2.1c1.5,1.4,2.3,3.6,2.3,6.6c0,0.1,0,0.6,0,1.7c0,1.1,0,2.1,0,3.1
		c0,1.9,0.1,3.4,0.3,4.5S45.9,230.2,46.4,230.9z M38.7,222.4c-0.4-0.1-0.8-0.1-1.2-0.2c-0.4,0-0.8-0.1-1.1-0.1
		c-1.5,0-2.7,0.3-3.5,0.8c-0.8,0.6-1.2,1.4-1.2,2.4c0,0.9,0.3,1.6,0.8,2.1c0.6,0.5,1.3,0.7,2.3,0.7c0.7,0,1.4-0.1,2.1-0.4
		c0.6-0.3,1.3-0.7,1.9-1.4c0-0.2,0-0.5,0-0.9c0-0.3,0-0.9,0-1.7V222.4z"/>
	<path class="st0" d="M73.7,231.1L73.7,231.1c-0.8,0.4-1.7,0.7-2.5,0.9c-0.8,0.2-1.7,0.3-2.6,0.3c-1.1,0-2-0.2-2.5-0.7
		c-0.5-0.5-0.8-1.3-0.8-2.4c0-0.7,0.1-2,0.2-3.7c0.1-1.7,0.2-3.1,0.2-4.1c0-2.1-0.3-3.7-0.9-4.5s-1.5-1.3-2.8-1.3
		c-0.6,0-1.3,0.1-2,0.4s-1.4,0.6-2.2,1.1c-0.1,2.1-0.1,3.6-0.2,4.5s0,1.5,0,1.9c0,1.8,0.1,3.3,0.3,4.6c0.2,1.3,0.5,2.3,0.8,3.1
		c-0.9,0.4-1.7,0.7-2.5,0.9c-0.8,0.2-1.7,0.3-2.5,0.3c-1.2,0-2-0.3-2.5-0.8c-0.5-0.5-0.7-1.5-0.7-2.9c0-0.6,0.1-2,0.3-4.3
		s0.3-4.4,0.3-6.1c0-1.8-0.1-3.3-0.2-4.5c-0.2-1.2-0.4-2.2-0.8-2.9c0.7-0.2,1.3-0.3,1.9-0.4s1.2-0.2,1.7-0.2c1.3,0,2.3,0.3,3,0.8
		s1.1,1.2,1.2,2.2c1.2-1,2.4-1.7,3.6-2.2c1.2-0.5,2.4-0.7,3.6-0.7c2.7,0,4.7,0.8,5.9,2.3c1.2,1.5,1.8,4,1.8,7.3c0,0.6,0,1.4,0,2.3
		c0,0.9,0,1.6,0,1.9c0,1.8,0.1,3.3,0.3,4.5C73.1,229.6,73.3,230.5,73.7,231.1z"/>
	<path class="st0" d="M112,217.2c1-0.5,1.9-0.8,2.8-1.1c0.9-0.2,1.6-0.4,2.4-0.4c1.4,0,2.4,0.4,3.1,1.2c0.6,0.8,0.9,2.2,0.9,4.2
		c0,4.4-0.9,7.4-2.8,9.1c-1.8,1.7-5.1,2.5-9.8,2.5c-5.4,0-9.8-1.4-13-4.1c-3.3-2.7-4.9-6.3-4.9-10.7c0-2.5,0.5-4.8,1.6-7
		s2.6-4.1,4.6-5.8c1.8-1.5,3.9-2.7,6.2-3.5c2.3-0.8,4.8-1.2,7.4-1.2c2,0,3.5,0.3,4.3,0.8c0.9,0.5,1.3,1.3,1.3,2.5
		c0,0.6-0.1,1.2-0.4,1.9c-0.3,0.7-0.7,1.5-1.2,2.3c-0.8-0.3-1.5-0.6-2.2-0.8s-1.5-0.3-2.2-0.3c-3.2,0-5.9,0.9-7.9,2.8
		c-2,1.9-3.1,4.3-3.1,7.2c0,2.8,0.9,5.1,2.7,6.7c1.8,1.7,4.2,2.5,7.2,2.5c0.7,0,1.4-0.1,2.1-0.2c0.7-0.1,1.4-0.3,2.2-0.5
		c0.1-0.5,0.1-1,0.1-1.5c0-0.5,0-1,0-1.6c0-1.4-0.1-2.5-0.3-3.2C112.8,218.5,112.5,217.8,112,217.2z"/>
	<path class="st0" d="M133.6,231.1c-0.9,0.4-1.7,0.7-2.6,0.9c-0.9,0.2-1.7,0.3-2.6,0.3c-1.1,0-1.9-0.2-2.4-0.7
		c-0.5-0.5-0.7-1.3-0.7-2.6c0-0.5,0.1-1.8,0.2-4c0.1-2.2,0.2-4.2,0.2-6c0-1.8-0.1-3.3-0.2-4.5c-0.2-1.2-0.4-2.2-0.8-2.9
		c0.9-0.4,1.7-0.7,2.6-0.9s1.7-0.3,2.6-0.3c1.1,0,1.9,0.3,2.4,0.8c0.5,0.5,0.7,1.4,0.7,2.5c0,0.7-0.1,2.3-0.2,4.5
		c-0.1,2.3-0.2,4.2-0.2,5.7c0,1.6,0.1,2.9,0.3,4.1S133.2,230.2,133.6,231.1z M129.7,199.9c1,0,1.9,0.3,2.6,1s1,1.5,1,2.5
		c0,1.1-0.4,2-1.2,2.8c-0.8,0.8-1.8,1.1-3,1.1c-1,0-1.9-0.3-2.5-0.9c-0.6-0.6-1-1.4-1-2.4c0-1.1,0.4-2,1.2-2.8
		C127.5,200.3,128.5,199.9,129.7,199.9z"/>
	<path class="st0" d="M160.5,231.1c-0.9,0.5-1.8,0.8-2.5,1c-0.8,0.2-1.5,0.3-2.2,0.3c-1.1,0-1.8-0.2-2.3-0.7
		c-0.5-0.5-0.7-1.3-0.7-2.4v-0.5c-1,1.4-2.1,2.4-3.3,3.1s-2.6,1-4.2,1c-2.4,0-4.3-0.7-5.5-2.1c-1.3-1.4-1.9-3.5-1.9-6.2
		c0-0.6,0-1.6,0.1-3.1c0.1-1.5,0.1-2.6,0.1-3.4c0-1.6-0.1-3-0.3-4c-0.2-1-0.5-1.8-0.8-2.5c0.9-0.4,1.7-0.7,2.5-0.9s1.6-0.3,2.5-0.3
		c1.1,0,2,0.2,2.5,0.7c0.5,0.5,0.7,1.3,0.7,2.3c0,0.7-0.1,2-0.2,3.8c-0.1,1.8-0.2,3.2-0.2,4.3c0,2.1,0.2,3.6,0.7,4.4
		c0.5,0.8,1.3,1.3,2.5,1.3c0.8,0,1.6-0.2,2.3-0.7c0.7-0.4,1.5-1.1,2.1-2v-0.1c0.1-1.1,0.1-2,0.1-2.6c0-2.7-0.1-4.9-0.3-6.5
		s-0.6-2.8-1-3.6c1-0.5,2-0.8,2.8-1s1.6-0.3,2.3-0.3c1.2,0,2,0.3,2.5,0.8c0.5,0.6,0.7,1.6,0.7,3c0,0.3,0,1.5-0.1,3.5
		c-0.1,2-0.1,3.8-0.1,5.5c0,2,0.1,3.7,0.3,4.9C159.8,229.3,160.1,230.3,160.5,231.1z"/>
	<path class="st0" d="M165,227.1c0.6,0.3,1.1,0.5,1.7,0.7c0.6,0.1,1.2,0.2,1.8,0.2c0.8,0,1.5-0.2,2-0.5c0.5-0.3,0.8-0.7,0.8-1.2
		c0-0.6-0.9-1.5-2.5-2.6c-0.4-0.2-0.7-0.4-0.9-0.6c-1.5-1-2.5-1.8-3-2.6c-0.5-0.8-0.8-1.7-0.8-2.7c0-2.1,1-4,2.9-5.5
		s4.3-2.3,7.1-2.3c1.1,0,1.9,0.2,2.4,0.6s0.8,1,0.8,1.8c0,0.5-0.1,1-0.3,1.5c-0.2,0.5-0.6,1-1,1.6c-0.4-0.2-0.9-0.4-1.4-0.5
		s-0.9-0.2-1.3-0.2c-0.9,0-1.7,0.2-2.3,0.6c-0.6,0.4-0.9,0.8-0.9,1.4c0,0.4,0.1,0.7,0.4,1.1c0.3,0.4,0.8,0.8,1.5,1.4
		c0.2,0.2,0.5,0.4,0.9,0.7c2.8,2.1,4.1,3.9,4.1,5.6c0,2.1-0.9,3.8-2.7,5.2c-1.8,1.4-4.1,2.1-6.9,2.1c-1.3,0-2.2-0.2-2.8-0.7
		c-0.6-0.5-0.9-1.1-0.9-2c0-0.5,0.1-0.9,0.3-1.5C164.3,228.2,164.6,227.7,165,227.1z"/>
	<path class="st0" d="M198.8,226.2c0.5,0.5,0.8,1,1,1.5c0.2,0.5,0.3,0.9,0.3,1.3c0,1.1-0.7,2-2,2.6c-1.3,0.6-3.2,1-5.5,1
		c-4,0-7-0.9-9.2-2.8c-2.1-1.9-3.2-4.6-3.2-8.2c0-3.4,1.1-6.2,3.2-8.3s5-3.2,8.5-3.2c2.9,0,5.2,0.7,7,2.2c1.8,1.4,2.7,3.3,2.7,5.6
		c0,1.9-0.6,3.2-1.9,4c-1.3,0.8-3.6,1.2-6.8,1.2c-1,0-2,0-3-0.1s-2-0.2-3-0.3v0.1c0,1.6,0.5,2.9,1.6,3.7c1.1,0.9,2.7,1.3,4.7,1.3
		c1.2,0,2.2-0.1,3.2-0.4S198.1,226.8,198.8,226.2z M187.1,219.2c1.1,0.1,2.1,0.2,2.9,0.3c0.8,0.1,1.4,0.1,1.9,0.1
		c1.2,0,2.1-0.1,2.5-0.4c0.4-0.2,0.6-0.7,0.6-1.3c0-1-0.3-1.8-0.9-2.4c-0.6-0.6-1.5-0.9-2.5-0.9c-1.2,0-2.2,0.4-3,1.2
		C187.9,216.6,187.4,217.7,187.1,219.2z"/>
	<path class="st0" d="M212.3,213.1c1-0.9,2.1-1.6,3.2-2.1c1.1-0.5,2.4-0.7,3.7-0.7c2.8,0,5,0.9,6.8,2.8c1.8,1.9,2.6,4.3,2.6,7.3
		c0,1.3-0.2,2.5-0.5,3.7c-0.3,1.2-0.8,2.2-1.4,3c-1.2,1.7-2.6,3-4.1,3.9c-1.5,0.9-3.2,1.3-5.1,1.3c-1,0-2-0.1-2.8-0.4
		c-0.9-0.3-1.7-0.7-2.6-1.3v0.9c0,2.4,0.1,4.3,0.3,5.7s0.5,2.5,0.9,3.3c-0.9,0.4-1.7,0.7-2.5,0.9c-0.8,0.2-1.6,0.3-2.4,0.3
		c-1.1,0-1.9-0.3-2.4-0.8c-0.5-0.5-0.7-1.5-0.7-2.8c0-0.4,0-1.3,0.1-2.9c0.3-5.3,0.5-10.2,0.5-14.7c0-2.7-0.1-4.8-0.3-6.2
		c-0.2-1.4-0.5-2.5-0.9-3.5c0.7-0.2,1.3-0.4,1.9-0.5c0.6-0.1,1.2-0.2,1.7-0.2c1.2,0,2.2,0.2,2.8,0.7
		C211.8,211.5,212.1,212.2,212.3,213.1z M212.3,225.5c0.6,0.5,1.2,0.8,1.9,1s1.3,0.3,2,0.3c1.6,0,2.9-0.5,3.9-1.6
		c1-1.1,1.6-2.4,1.6-4.1c0-1.6-0.5-2.9-1.4-3.9c-0.9-1-2.1-1.5-3.6-1.5c-0.7,0-1.4,0.1-2.2,0.4c-0.8,0.3-1.5,0.6-2.2,1.1
		c0,1.9-0.1,3.5-0.1,4.7S212.3,224.4,212.3,225.5z"/>
	<path class="st0" d="M239.7,213.1c1-0.9,2.1-1.6,3.2-2.1c1.1-0.5,2.4-0.7,3.7-0.7c2.8,0,5,0.9,6.8,2.8c1.8,1.9,2.6,4.3,2.6,7.3
		c0,1.3-0.2,2.5-0.5,3.7c-0.3,1.2-0.8,2.2-1.4,3c-1.2,1.7-2.6,3-4.1,3.9c-1.5,0.9-3.2,1.3-5.1,1.3c-1,0-2-0.1-2.8-0.4
		c-0.9-0.3-1.7-0.7-2.6-1.3v0.9c0,2.4,0.1,4.3,0.3,5.7s0.5,2.5,0.9,3.3c-0.9,0.4-1.7,0.7-2.5,0.9c-0.8,0.2-1.6,0.3-2.4,0.3
		c-1.1,0-1.9-0.3-2.4-0.8c-0.5-0.5-0.7-1.5-0.7-2.8c0-0.4,0-1.3,0.1-2.9c0.3-5.3,0.5-10.2,0.5-14.7c0-2.7-0.1-4.8-0.3-6.2
		c-0.2-1.4-0.5-2.5-0.9-3.5c0.7-0.2,1.3-0.4,1.9-0.5c0.6-0.1,1.2-0.2,1.7-0.2c1.2,0,2.2,0.2,2.8,0.7
		C239.2,211.5,239.6,212.2,239.7,213.1z M239.7,225.5c0.6,0.5,1.2,0.8,1.9,1s1.3,0.3,2,0.3c1.6,0,2.9-0.5,3.9-1.6
		c1-1.1,1.6-2.4,1.6-4.1c0-1.6-0.5-2.9-1.4-3.9c-0.9-1-2.1-1.5-3.6-1.5c-0.7,0-1.4,0.1-2.2,0.4c-0.8,0.3-1.5,0.6-2.2,1.1
		c0,1.9-0.1,3.5-0.1,4.7S239.7,224.4,239.7,225.5z"/>
	<path class="st0" d="M277.4,226.2c0.5,0.5,0.8,1,1,1.5s0.3,0.9,0.3,1.3c0,1.1-0.7,2-2,2.6c-1.3,0.6-3.2,1-5.5,1c-4,0-7-0.9-9.2-2.8
		c-2.1-1.9-3.2-4.6-3.2-8.2c0-3.4,1.1-6.2,3.2-8.3s5-3.2,8.5-3.2c2.9,0,5.2,0.7,7,2.2c1.8,1.4,2.7,3.3,2.7,5.6c0,1.9-0.6,3.2-1.9,4
		s-3.6,1.2-6.8,1.2c-1,0-2,0-3-0.1c-1-0.1-2-0.2-3-0.3v0.1c0,1.6,0.5,2.9,1.6,3.7c1.1,0.9,2.7,1.3,4.7,1.3c1.2,0,2.2-0.1,3.2-0.4
		C276,227.2,276.8,226.8,277.4,226.2z M265.8,219.2c1.1,0.1,2.1,0.2,2.9,0.3c0.8,0.1,1.4,0.1,1.9,0.1c1.2,0,2.1-0.1,2.5-0.4
		c0.4-0.2,0.6-0.7,0.6-1.3c0-1-0.3-1.8-0.9-2.4c-0.6-0.6-1.5-0.9-2.5-0.9c-1.2,0-2.2,0.4-3,1.2C266.5,216.6,266,217.7,265.8,219.2z"
		/>
	<path class="st0" d="M321.4,224.5c0.6,0.7,1,1.4,1.3,2.1c0.3,0.7,0.4,1.3,0.4,1.9c0,1.4-0.7,2.4-2.2,3.2s-3.7,1.1-6.5,1.1
		c-5.4,0-9.7-1.4-13-4.3c-3.3-2.9-4.9-6.6-4.9-11.3c0-2.5,0.5-4.8,1.6-6.9s2.7-4,4.7-5.6c1.7-1.3,3.7-2.4,6.1-3.1
		c2.4-0.7,4.9-1.1,7.5-1.1c2.2,0,3.7,0.3,4.8,0.8c1,0.5,1.5,1.3,1.5,2.4c0,0.6-0.1,1.3-0.4,2c-0.3,0.7-0.7,1.5-1.3,2.4
		c-0.8-0.4-1.7-0.7-2.6-0.9c-0.9-0.2-1.9-0.3-3-0.3c-3.2,0-5.7,0.9-7.7,2.7s-2.9,4.2-2.9,7.1c0,2.9,0.9,5.2,2.8,7s4.2,2.7,7.2,2.7
		c1.1,0,2.2-0.1,3.2-0.5C319.2,225.5,320.3,225.1,321.4,224.5z"/>
	<path class="st0" d="M351,220.9c0,1.4-0.2,2.8-0.7,4.1c-0.5,1.3-1.2,2.5-2,3.5c-1.3,1.5-2.7,2.6-4.3,3.3c-1.6,0.7-3.5,1.1-5.5,1.1
		c-3.6,0-6.5-1-8.7-3.1c-2.3-2.1-3.4-4.8-3.4-8c0-3.4,1.2-6.2,3.6-8.4c2.4-2.2,5.5-3.3,9.2-3.3c3.5,0,6.3,1,8.5,3.1
		C349.9,215.1,351,217.7,351,220.9z M333.2,221.6c0,1.7,0.5,3,1.5,4c1,1,2.3,1.5,4,1.5c1.6,0,2.9-0.5,3.9-1.6c1-1.1,1.6-2.5,1.6-4.1
		c0-1.7-0.5-3.1-1.5-4.1c-1-1-2.3-1.6-4-1.6c-1.6,0-2.9,0.5-4,1.6C333.7,218.4,333.2,219.8,333.2,221.6z"/>
	<path class="st0" d="M363.4,211.4c0.5,0,1.3-0.1,2.2-0.2c1-0.1,1.6-0.1,1.8-0.1c0.7,0,1.3,0.1,1.6,0.4c0.3,0.3,0.5,0.7,0.5,1.3
		c0,0.5-0.1,1-0.3,1.5c-0.2,0.5-0.5,1.1-0.9,1.7c-0.3-0.1-0.7-0.2-1-0.3c-0.4,0-0.9-0.1-1.5-0.1c0,0-0.3,0-0.9,0.1
		c-0.6,0-1.2,0.1-1.7,0.1c-0.1,1.4-0.2,2.6-0.3,3.8c-0.1,1.1-0.1,2.2-0.1,3.1c0,1.7,0.2,2.9,0.7,3.7s1.1,1.2,2,1.2
		c0.3,0,0.6-0.1,0.9-0.2c0.3-0.1,0.6-0.3,0.9-0.5c0.3,0.4,0.6,0.9,0.7,1.3c0.1,0.4,0.2,0.8,0.2,1.2c0,1-0.5,1.8-1.5,2.4
		c-1,0.6-2.3,0.9-4.1,0.9c-2.2,0-3.9-0.6-5-1.8c-1.1-1.2-1.6-3-1.6-5.4c0-0.8,0.1-2.3,0.2-4.4c0.2-2.1,0.2-3.8,0.3-5.1
		c-0.3,0-0.7,0.1-1,0.1c-0.3,0-0.6,0-0.8,0c-0.8,0-1.4-0.1-1.7-0.4s-0.5-0.7-0.5-1.3c0-0.3,0.1-0.7,0.2-1.2c0.1-0.4,0.3-0.9,0.6-1.5
		c0.2,0,0.5,0.1,0.8,0.1c0.3,0,0.6,0,0.9,0c0.3,0,0.9,0,1.6-0.1l0.2,0c0-0.1,0-0.4,0-0.6c0-0.3,0-0.5,0-0.6c0-1-0.1-1.9-0.2-2.7
		c-0.1-0.8-0.4-1.5-0.7-2.1c0.9-0.4,1.7-0.7,2.5-0.9s1.5-0.3,2.2-0.3c1.1,0,1.8,0.2,2.3,0.7c0.5,0.5,0.7,1.3,0.7,2.3
		c0,0.3-0.1,1.1-0.2,2.5C363.5,210.6,363.4,211.1,363.4,211.4z"/>
	<path class="st0" d="M381,211.4c0.5,0,1.3-0.1,2.2-0.2c1-0.1,1.6-0.1,1.8-0.1c0.7,0,1.3,0.1,1.6,0.4c0.3,0.3,0.5,0.7,0.5,1.3
		c0,0.5-0.1,1-0.3,1.5c-0.2,0.5-0.5,1.1-0.9,1.7c-0.3-0.1-0.7-0.2-1-0.3c-0.4,0-0.9-0.1-1.5-0.1c0,0-0.3,0-0.9,0.1
		c-0.6,0-1.2,0.1-1.7,0.1c-0.1,1.4-0.2,2.6-0.3,3.8c-0.1,1.1-0.1,2.2-0.1,3.1c0,1.7,0.2,2.9,0.7,3.7s1.1,1.2,2,1.2
		c0.3,0,0.6-0.1,0.9-0.2c0.3-0.1,0.6-0.3,0.9-0.5c0.3,0.4,0.6,0.9,0.7,1.3c0.1,0.4,0.2,0.8,0.2,1.2c0,1-0.5,1.8-1.5,2.4
		c-1,0.6-2.3,0.9-4.1,0.9c-2.2,0-3.9-0.6-5-1.8c-1.1-1.2-1.6-3-1.6-5.4c0-0.8,0.1-2.3,0.2-4.4c0.2-2.1,0.2-3.8,0.3-5.1
		c-0.3,0-0.7,0.1-1,0.1c-0.3,0-0.6,0-0.8,0c-0.8,0-1.4-0.1-1.7-0.4s-0.5-0.7-0.5-1.3c0-0.3,0.1-0.7,0.2-1.2c0.1-0.4,0.3-0.9,0.6-1.5
		c0.2,0,0.5,0.1,0.8,0.1c0.3,0,0.6,0,0.9,0c0.3,0,0.9,0,1.6-0.1l0.2,0c0-0.1,0-0.4,0-0.6c0-0.3,0-0.5,0-0.6c0-1-0.1-1.9-0.2-2.7
		c-0.1-0.8-0.4-1.5-0.7-2.1c0.9-0.4,1.7-0.7,2.5-0.9s1.5-0.3,2.2-0.3c1.1,0,1.8,0.2,2.3,0.7c0.5,0.5,0.7,1.3,0.7,2.3
		c0,0.3-0.1,1.1-0.2,2.5C381.1,210.6,381,211.1,381,211.4z"/>
	<path class="st0" d="M413.8,220.9c0,1.4-0.2,2.8-0.7,4.1c-0.5,1.3-1.2,2.5-2,3.5c-1.3,1.5-2.7,2.6-4.3,3.3
		c-1.6,0.7-3.5,1.1-5.5,1.1c-3.6,0-6.5-1-8.7-3.1c-2.3-2.1-3.4-4.8-3.4-8c0-3.4,1.2-6.2,3.6-8.4c2.4-2.2,5.5-3.3,9.2-3.3
		c3.5,0,6.3,1,8.5,3.1C412.7,215.1,413.8,217.7,413.8,220.9z M396,221.6c0,1.7,0.5,3,1.5,4c1,1,2.3,1.5,4,1.5c1.6,0,2.9-0.5,3.9-1.6
		c1-1.1,1.6-2.5,1.6-4.1c0-1.7-0.5-3.1-1.5-4.1c-1-1-2.3-1.6-4-1.6c-1.6,0-2.9,0.5-4,1.6C396.5,218.4,396,219.8,396,221.6z"/>
	<path class="st0" d="M426.3,231.1c-1,0.4-1.9,0.7-2.8,0.9c-0.9,0.2-1.6,0.3-2.4,0.3c-1.2,0-2-0.3-2.5-0.8c-0.5-0.6-0.7-1.7-0.7-3.3
		c0-0.4,0.1-2.5,0.3-6.3s0.3-7.2,0.3-10.5c0-2.7-0.1-4.8-0.3-6.3c-0.2-1.5-0.5-2.6-1-3.5c0.9-0.4,1.8-0.7,2.6-1s1.7-0.3,2.5-0.3
		c1.1,0,1.9,0.3,2.4,0.8c0.5,0.5,0.7,1.4,0.7,2.7c0,0.5-0.1,2.5-0.2,5.9c-0.2,3.4-0.2,6.6-0.2,9.4c0,3.4,0.1,6.1,0.3,7.8
		S425.8,230.2,426.3,231.1z"/>
	<path class="st0" d="M448.3,226.2c0.5,0.5,0.8,1,1,1.5s0.3,0.9,0.3,1.3c0,1.1-0.7,2-2,2.6c-1.3,0.6-3.2,1-5.5,1c-4,0-7-0.9-9.2-2.8
		s-3.2-4.6-3.2-8.2c0-3.4,1.1-6.2,3.2-8.3c2.2-2.1,5-3.2,8.5-3.2c2.9,0,5.2,0.7,7,2.2c1.8,1.4,2.7,3.3,2.7,5.6c0,1.9-0.6,3.2-1.9,4
		c-1.3,0.8-3.6,1.2-6.8,1.2c-1,0-2,0-3-0.1s-2-0.2-3-0.3v0.1c0,1.6,0.5,2.9,1.6,3.7c1.1,0.9,2.7,1.3,4.7,1.3c1.2,0,2.2-0.1,3.2-0.4
		C446.8,227.2,447.6,226.8,448.3,226.2z M436.6,219.2c1.1,0.1,2.1,0.2,2.9,0.3c0.8,0.1,1.4,0.1,1.9,0.1c1.2,0,2.1-0.1,2.5-0.4
		c0.4-0.2,0.6-0.7,0.6-1.3c0-1-0.3-1.8-0.9-2.4c-0.6-0.6-1.5-0.9-2.5-0.9c-1.2,0-2.2,0.4-3,1.2S436.8,217.7,436.6,219.2z"/>
	<path class="st0" d="M478,231.1L478,231.1c-0.8,0.4-1.7,0.7-2.5,0.9c-0.8,0.2-1.7,0.3-2.6,0.3c-1.1,0-2-0.2-2.5-0.7
		s-0.7-1.3-0.7-2.4c0-0.7,0.1-2,0.2-3.7c0.1-1.7,0.2-3.1,0.2-4.1c0-2.1-0.3-3.7-0.9-4.5s-1.5-1.3-2.8-1.3c-0.6,0-1.3,0.1-2,0.4
		s-1.4,0.6-2.2,1.1c-0.1,2.1-0.1,3.6-0.2,4.5c0,0.8,0,1.5,0,1.9c0,1.8,0.1,3.3,0.3,4.6c0.2,1.3,0.5,2.3,0.8,3.1
		c-0.9,0.4-1.7,0.7-2.5,0.9c-0.8,0.2-1.7,0.3-2.5,0.3c-1.2,0-2-0.3-2.5-0.8c-0.5-0.5-0.7-1.5-0.7-2.9c0-0.6,0.1-2,0.3-4.3
		c0.2-2.3,0.3-4.4,0.3-6.1c0-1.8-0.1-3.3-0.2-4.5s-0.4-2.2-0.8-2.9c0.7-0.2,1.3-0.3,1.9-0.4s1.2-0.2,1.7-0.2c1.3,0,2.3,0.3,3,0.8
		c0.7,0.5,1.1,1.2,1.2,2.2c1.2-1,2.4-1.7,3.6-2.2c1.2-0.5,2.4-0.7,3.6-0.7c2.7,0,4.7,0.8,5.9,2.3c1.2,1.5,1.8,4,1.8,7.3
		c0,0.6,0,1.4,0,2.3c0,0.9,0,1.6,0,1.9c0,1.8,0.1,3.3,0.3,4.5S477.6,230.5,478,231.1z"/>
	<path class="st0" d="M502.3,209c0.4,0.4,0.7,0.8,0.9,1.2c0.2,0.4,0.3,0.8,0.3,1.2c0,0.7-0.3,1.3-0.9,1.7c-0.6,0.4-1.6,0.8-3.1,1
		c0.4,0.5,0.8,1.1,1,1.7c0.2,0.6,0.3,1.3,0.3,1.9c0,2.2-0.8,4-2.5,5.3c-1.7,1.3-4,1.9-7,1.9c-0.5,0-0.8,0-1,0c-0.2,0-0.4,0-0.6-0.1
		c-0.2,0.2-0.4,0.5-0.5,0.7c-0.1,0.2-0.2,0.4-0.2,0.6c0,0.9,1.7,1.7,5,2.2c0,0,0,0,0.1,0c3.3,0.6,5.6,1.3,6.7,2.1
		c1.2,0.9,1.7,2.1,1.7,3.8c0,2.3-1.1,4.2-3.3,5.7c-2.2,1.5-5.1,2.2-8.6,2.2c-3.3,0-5.9-0.6-7.7-1.8c-1.8-1.2-2.8-2.9-2.8-5
		c0-1.3,0.4-2.5,1.1-3.5s1.9-1.8,3.3-2.4c-0.4-0.2-0.7-0.5-0.9-0.9s-0.3-0.7-0.3-1.2c0-0.5,0.2-1.1,0.5-1.7c0.4-0.6,0.9-1.2,1.6-1.9
		c-1.3-0.7-2.3-1.6-3-2.6c-0.7-1-1-2.1-1-3.4c0-2.2,0.9-4.1,2.7-5.6s4.1-2.2,6.8-2.2c0.9,0,1.9,0.1,2.7,0.3c0.9,0.2,1.8,0.5,2.7,1
		c1.6-0.4,2.8-0.8,3.8-1.2C501.2,209.8,501.9,209.4,502.3,209z M489,231.8c-0.9,0.4-1.5,0.8-1.9,1.3s-0.7,1.1-0.7,1.7
		c0,0.9,0.4,1.7,1.3,2.3s2.1,0.9,3.6,0.9c1.4,0,2.6-0.3,3.4-0.8c0.9-0.5,1.3-1.2,1.3-2c0-1.1-1.8-2.1-5.5-3
		C489.8,232,489.3,231.9,489,231.8z M491.3,214.4c-1.1,0-2.1,0.3-2.7,0.9s-1,1.4-1,2.3c0,0.9,0.4,1.6,1.1,2.2
		c0.7,0.6,1.6,0.9,2.7,0.9c1.1,0,2-0.3,2.7-0.9c0.7-0.6,1-1.3,1-2.2c0-1-0.3-1.7-1-2.3C493.3,214.7,492.4,214.4,491.3,214.4z"/>
	<path class="st0" d="M529.1,220.9c0,1.4-0.2,2.8-0.7,4.1c-0.5,1.3-1.2,2.5-2,3.5c-1.3,1.5-2.7,2.6-4.3,3.3
		c-1.6,0.7-3.5,1.1-5.5,1.1c-3.6,0-6.5-1-8.7-3.1c-2.3-2.1-3.4-4.8-3.4-8c0-3.4,1.2-6.2,3.6-8.4c2.4-2.2,5.5-3.3,9.2-3.3
		c3.5,0,6.3,1,8.5,3.1C528,215.1,529.1,217.7,529.1,220.9z M511.3,221.6c0,1.7,0.5,3,1.5,4c1,1,2.3,1.5,4,1.5c1.6,0,2.9-0.5,3.9-1.6
		c1-1.1,1.6-2.5,1.6-4.1c0-1.7-0.5-3.1-1.5-4.1c-1-1-2.3-1.6-4-1.6c-1.6,0-2.9,0.5-4,1.6C511.8,218.4,511.3,219.8,511.3,221.6z"/>
</g>
<g>
	<path class="st1" d="M254.1,143.5L254.1,143.5c1,0.2,1.9,0.3,2.9,0.5v0C256.1,143.9,255.1,143.7,254.1,143.5z"/>
	<path class="st1" d="M232,135.6c-21.9-12.3-36.8-35.7-36.8-62.6c0-39.6,32.1-71.7,71.7-71.7s71.7,32.1,71.7,71.7
		c0,16.6-5.6,31.8-15.1,44h0c9.4-12.1,15.1-27.4,15.1-44c0-39.6-32.1-71.7-71.7-71.7S195.3,33.4,195.3,73
		C195.3,99.9,210.1,123.3,232,135.6L232,135.6z"/>
	<path class="st1" d="M238.2,138.7L238.2,138.7c3.1,1.4,6.4,2.5,9.7,3.4v0C244.6,141.2,241.4,140.1,238.2,138.7z"/>
	<path class="st0" d="M243.1,78.9c2.2,0,4-1.8,4-4c0-2.2-1.8-4-4-4c-2.2,0-4,1.8-4,4C239.1,77.1,240.9,78.9,243.1,78.9z"/>
	<path class="st0" d="M243.1,120.8c-2.7,0-4.9,2.2-4.9,4.9v13c3.1,1.4,6.4,2.5,9.7,3.4v-16.5C247.9,123,245.8,120.8,243.1,120.8z"/>
	<path class="st0" d="M254.1,64.1v79.5c1,0.2,1.9,0.3,2.9,0.5v-27.1h66.6c9.4-12.1,15.1-27.4,15.1-44c0-39.6-32.1-71.7-71.7-71.7
		S195.3,33.4,195.3,73c0,26.9,14.8,50.3,36.8,62.6V64.1H254.1z M318.5,100.2h5.3v13.9h-5.3V100.2z M309.5,100.2h6.3v13.9h-6.3V100.2
		z M300.5,100.2h6.3v13.9h-6.3V100.2z M291.6,100.2h6.3v13.9h-6.3V100.2z M282.6,100.2h6.2v13.9h-6.2V100.2z M273.6,100.2h6.3v13.9
		h-6.3V100.2z M264.6,100.2h6.2v13.9h-6.2V100.2z M257,100.2h4.9v13.9H257V100.2z M239,23.6h3l0-4.1h2.2l0,4.1h3v2.2h-3l0,7.9
		l-1.1-0.6l-1.1,0.6l0-7.9H239V23.6z M243.1,36.7l11.1,24.2H232L243.1,36.7z"/>
	<g>
		<polygon class="st1" points="243.1,36.7 232,60.8 254.1,60.8 		"/>
	</g>
	<g>
		<path class="st1" d="M238.2,125.7c0-2.7,2.2-4.9,4.9-4.9c2.7,0,4.9,2.2,4.9,4.9v16.5c2,0.6,4.1,1,6.2,1.4V64.1H232v71.5
			c2,1.1,4.1,2.2,6.2,3.1V125.7z M243.1,70.8c2.2,0,4,1.8,4,4c0,2.2-1.8,4-4,4c-2.2,0-4-1.8-4-4C239.1,72.6,240.9,70.8,243.1,70.8z"
			/>
	</g>
	<g>
		<rect x="318.5" y="100.2" class="st1" width="5.3" height="13.9"/>
	</g>
	<g>
		<rect x="264.6" y="100.2" class="st1" width="6.2" height="13.9"/>
	</g>
	<g>
		<rect x="282.6" y="100.2" class="st1" width="6.2" height="13.9"/>
	</g>
	<g>
		<rect x="257" y="100.2" class="st1" width="4.9" height="13.9"/>
	</g>
	<g>
		<rect x="273.6" y="100.2" class="st1" width="6.3" height="13.9"/>
	</g>
	<g>
		<rect x="291.6" y="100.2" class="st1" width="6.3" height="13.9"/>
	</g>
	<g>
		<rect x="309.5" y="100.2" class="st1" width="6.3" height="13.9"/>
	</g>
	<g>
		<path class="st1" d="M267,144.7c-3.4,0-6.7-0.3-10-0.7v0C260.3,144.5,263.6,144.7,267,144.7c23,0,43.5-10.9,56.6-27.8h0
			C310.5,133.8,290,144.7,267,144.7z"/>
	</g>
	<g>
		<path class="st1" d="M257,144c3.3,0.5,6.6,0.7,10,0.7c23,0,43.5-10.9,56.6-27.8H257V144z"/>
	</g>
	<g>
		<rect x="300.5" y="100.2" class="st1" width="6.3" height="13.9"/>
	</g>
	<polygon class="st1" points="242,33.7 243.1,33.1 244.1,33.7 244.2,25.8 247.1,25.8 247.1,23.6 244.2,23.6 244.2,19.6 242,19.6 
		242,23.6 239,23.6 239,25.8 242,25.8 	"/>
</g>
</svg>
