<?xml version="1.0" encoding="utf-8"?>
<!-- Generator: Adobe Illustrator 24.0.1, SVG Export Plug-In . SVG Version: 6.00 Build 0)  -->
<svg version="1.1" id="Livello_1" xmlns="http://www.w3.org/2000/svg" xmlns:xlink="http://www.w3.org/1999/xlink" x="0px" y="0px"
	 viewBox="0 0 308 461.3" style="enable-background:new 0 0 308 461.3;" xml:space="preserve">
<style type="text/css">
	.st0{fill:#FFFFFF;}
	.st1{fill:none;}
	.st2{fill:none;stroke:#FFFFFF;stroke-width:3;stroke-linecap:round;stroke-linejoin:round;stroke-miterlimit:10;}
</style>
<path id="XMLID_11_" class="st0" d="M207.4,171.1c-36.5-9.4-53.4-12.8-53.4-12.8s-16.8,3.4-53.4,12.8C66.1,180,54,183.5,54,183.5
	s16.8,25.1,10,93.3c-5.7,56.3,39.5,73.8,90,103.9c50.6-30.2,95.8-47.6,90-103.8c-6.9-68.2,10-93.3,10-93.3S241.9,180,207.4,171.1z
	 M231.3,278.1c4,39.1-19.6,54.6-65.2,80.7c-4,2.3-8.1,4.6-12.2,7c-4.2-2.4-8.2-4.7-12.2-7.1c-45.5-26.1-69.1-41.6-65.1-80.7
	c4.4-43.4-0.4-70.8-5.2-86.1c7.3-2,17.8-4.8,32.3-8.5c27.8-7.1,44.3-10.8,50.2-12.1c5.9,1.3,22.3,5,50.2,12.1
	c14.5,3.8,25,6.5,32.3,8.5C231.7,207.3,226.9,234.6,231.3,278.1z"/>
<path id="XMLID_2_" class="st1" d="M207.4,171.1c-36.5-9.4-53.4-12.8-53.4-12.8s-16.8,3.4-53.4,12.8C66.1,180,54,183.5,54,183.5
	s16.8,25.1,10,93.3c-5.7,56.3,39.5,73.8,90,103.9c50.6-30.2,95.8-47.6,90-103.8c-6.9-68.2,10-93.3,10-93.3S241.9,180,207.4,171.1z
	 M231.3,278.1c4,39.1-19.6,54.6-65.2,80.7c-4,2.3-8.1,4.6-12.2,7c-4.2-2.4-8.2-4.7-12.2-7.1c-45.5-26.1-69.1-41.6-65.1-80.7
	c4.4-43.4-0.4-70.8-5.2-86.1c7.3-2,17.8-4.8,32.3-8.5c27.8-7.1,44.3-10.8,50.2-12.1c5.9,1.3,22.3,5,50.2,12.1
	c14.5,3.8,25,6.5,32.3,8.5C231.7,207.3,226.9,234.6,231.3,278.1z"/>
<g>
	<path class="st0" d="M129.7,280.9c-0.5,0-1,0.2-1.3,0.5c-0.3,0.3-0.5,0.9-0.5,1.5c0,0.7,0.1,1.1,0.5,1.5c0.3,0.3,0.7,0.5,1.3,0.5
		c0.6,0,1-0.2,1.3-0.5s0.5-0.9,0.5-1.5c0-0.7-0.1-1.1-0.5-1.5C130.7,281,130.2,280.9,129.7,280.9z"/>
	<path class="st0" d="M149.2,280.9c-0.5,0-1,0.2-1.3,0.5c-0.3,0.3-0.5,0.9-0.5,1.5c0,0.7,0.1,1.1,0.5,1.5c0.3,0.3,0.7,0.5,1.3,0.5
		s1-0.2,1.3-0.5s0.5-0.9,0.5-1.5c0-0.7-0.1-1.1-0.5-1.5C150.2,281,149.8,280.9,149.2,280.9z"/>
	<path class="st0" d="M149.7,259.3c-0.5,0-1,0.2-1.3,0.5c-0.3,0.3-0.5,0.9-0.5,1.5c0,0.7,0.1,1.1,0.5,1.5c0.3,0.3,0.7,0.5,1.3,0.5
		s1-0.2,1.3-0.5c0.3-0.3,0.5-0.9,0.5-1.5c0-0.7-0.1-1.1-0.5-1.5C150.7,259.5,150.3,259.3,149.7,259.3z"/>
	<path class="st0" d="M163.1,280.9c-0.5,0-1,0.2-1.3,0.5c-0.3,0.4-0.5,0.9-0.5,1.5c0,0.7,0.1,1.1,0.5,1.5s0.7,0.5,1.3,0.5
		s1-0.2,1.3-0.5c0.3-0.3,0.5-0.9,0.5-1.5c0-0.7-0.1-1.1-0.5-1.5C164.1,281.1,163.6,280.9,163.1,280.9z"/>
	<path class="st0" d="M158.8,259.5c-0.6,0-1,0.2-1.3,0.5c-0.3,0.3-0.5,0.8-0.5,1.4c0,0.6,0.2,1.1,0.5,1.4c0.3,0.3,0.8,0.5,1.3,0.5
		c0.6,0,1-0.2,1.4-0.5c0.4-0.3,0.5-0.8,0.5-1.4c0-0.6-0.2-1.1-0.5-1.4C159.9,259.7,159.4,259.5,158.8,259.5z"/>
	<path class="st0" d="M190.8,263.5c0.6,0,1-0.2,1.3-0.5s0.5-0.9,0.5-1.5s-0.1-1.1-0.5-1.5c-0.3-0.4-0.7-0.5-1.3-0.5
		c-0.5,0-1,0.2-1.3,0.5c-0.3,0.4-0.5,0.9-0.5,1.5s0.1,1.1,0.5,1.5C189.8,263.3,190.2,263.5,190.8,263.5z"/>
	<path class="st0" d="M124.9,259.5c-0.6,0-1,0.2-1.3,0.5s-0.5,0.8-0.5,1.4c0,0.6,0.2,1.1,0.5,1.4c0.3,0.3,0.8,0.5,1.3,0.5
		c0.6,0,1-0.2,1.4-0.5c0.3-0.3,0.5-0.8,0.5-1.4c0-0.6-0.2-1.1-0.5-1.4C126,259.7,125.5,259.5,124.9,259.5z"/>
	<path class="st0" d="M117.8,258.7c0.3-0.3,0.4-0.7,0.4-1.3c0-0.5-0.1-0.9-0.4-1.1c-0.3-0.3-0.7-0.3-1.3-0.3h-0.3v3.2h0.3
		C117,259.1,117.5,259,117.8,258.7z"/>
	<path class="st0" d="M138.5,236.7c-0.1-0.1-0.1-0.3-0.2-0.5c-0.1-0.2-0.1-0.4-0.2-0.7c-0.1,0.3-0.1,0.5-0.2,0.7
		c-0.1,0.2-0.1,0.4-0.2,0.5l-1.1,2.5h3L138.5,236.7z"/>
	<path class="st0" d="M166.4,241.7c0.4-0.1,0.7-0.3,1.1-0.5c0.4-0.3,0.7-0.8,0.9-1.3c0.2-0.5,0.3-1.1,0.3-1.8c0-0.7-0.1-1.3-0.3-1.8
		c-0.2-0.5-0.5-0.9-0.9-1.3c-0.3-0.3-0.7-0.4-1.1-0.5c-0.4-0.1-1.1-0.1-2-0.1h-0.6h-0.6v7.6h1.5C165.4,241.8,166,241.8,166.4,241.7z
		"/>
	<path class="st0" d="M223.1,199.9c-5.9-1.5-13.1-3.4-21.6-5.6c-24.6-6.3-40.2-10-47.4-11.6l0,0l0,0l0,0l0,0
		c-7.2,1.6-22.8,5.2-47.4,11.6c-8.5,2.2-15.7,4-21.6,5.6c3.9,17.4,6.4,43.2,2.7,79.4c-3.2,31.1,12.9,43.2,59.7,70
		c2.2,1.3,4.4,2.6,6.7,3.8l0,0l0,0l0,0l0,0c2.3-1.3,4.4-2.6,6.7-3.8c46.7-26.8,62.8-38.9,59.7-70C216.6,243,219.2,217.3,223.1,199.9
		z M101,286c-0.7,0.6-1.6,0.9-2.8,0.9c-0.8,0-1.5-0.1-2.1-0.4c-0.6-0.3-1-0.7-1.3-1.2l1.3-1.5c0.1,0.4,0.4,0.7,0.8,0.9
		s0.7,0.3,1.2,0.3c0.5,0,0.9-0.1,1.3-0.4c0.3-0.3,0.5-0.6,0.5-1c0-0.5-0.5-1-1.5-1.5c-0.3-0.1-0.6-0.3-0.8-0.4
		c-0.9-0.5-1.6-0.9-2-1.4c-0.3-0.5-0.5-1-0.5-1.7c0-0.9,0.3-1.6,1.1-2.2c0.7-0.6,1.6-0.9,2.8-0.9c0.7,0,1.2,0.1,1.7,0.3
		c0.5,0.2,0.9,0.6,1.3,1.1l-1.3,1.3c-0.1-0.3-0.4-0.5-0.7-0.7c-0.3-0.1-0.6-0.2-0.9-0.2c-0.5,0-0.8,0.1-1.1,0.3
		c-0.3,0.2-0.4,0.5-0.4,0.9c0,0.5,0.5,1.1,1.7,1.5c0.2,0.1,0.4,0.1,0.5,0.2c0.9,0.4,1.6,0.9,2,1.4c0.4,0.5,0.7,1.1,0.7,1.8
		C102.1,284.6,101.7,285.4,101,286z M105.6,286.5c-0.3,0.3-0.5,0.3-0.9,0.3c-0.3,0-0.7-0.1-0.9-0.3c-0.2-0.2-0.4-0.5-0.4-0.9
		s0.1-0.7,0.4-0.9c0.3-0.3,0.5-0.4,0.9-0.4c0.3,0,0.7,0.1,0.9,0.4c0.3,0.3,0.4,0.5,0.4,0.9S105.9,286.3,105.6,286.5z M208.7,275.7
		l1.5,2.7h-1.1l-2.3-2.7H208.7z M187.7,258.6c0.6-0.7,1.3-1,2.4-1c0.5,0,1,0.1,1.4,0.3c0.4,0.3,0.7,0.6,1,1.1v-1.2h2v7.2h-2v-1
		c-0.3,0.5-0.6,0.8-1,1c-0.4,0.2-0.9,0.3-1.5,0.3c-0.9,0-1.7-0.3-2.3-1.1c-0.6-0.7-0.9-1.7-0.9-2.8
		C186.8,260.3,187.1,259.3,187.7,258.6z M180.8,257.8l1.2,3.8c0.1,0.3,0.2,0.6,0.2,0.9c0.1,0.3,0.1,0.5,0.1,0.7
		c0.1-0.4,0.1-0.7,0.2-0.9c0.1-0.3,0.1-0.5,0.2-0.7l1.2-3.7h2.4l-3,7.2h-2.1l-3-7.2H180.8z M172,241.9c0.2-0.2,0.4-0.3,0.7-0.3
		c0.3,0,0.5,0.1,0.7,0.3c0.2,0.2,0.3,0.4,0.3,0.7s-0.1,0.5-0.3,0.7s-0.4,0.3-0.7,0.3c-0.3,0-0.5-0.1-0.7-0.3
		c-0.2-0.2-0.3-0.4-0.3-0.7C171.7,242.4,171.8,242.1,172,241.9z M161.3,232.7h2.4c1.5,0,2.6,0.1,3.2,0.2c0.6,0.1,1.1,0.4,1.6,0.8
		c0.6,0.5,1.1,1.1,1.4,1.8c0.3,0.7,0.5,1.6,0.5,2.6c0,0.9-0.1,1.8-0.5,2.6c-0.3,0.7-0.8,1.3-1.4,1.8c-0.5,0.3-1,0.6-1.6,0.8
		c-0.6,0.1-1.5,0.2-2.8,0.2h-0.5h-2.4L161.3,232.7L161.3,232.7z M157.2,241.9c0.2-0.2,0.4-0.3,0.7-0.3c0.3,0,0.5,0.1,0.7,0.3
		c0.2,0.2,0.3,0.4,0.3,0.7s-0.1,0.5-0.3,0.7c-0.2,0.2-0.4,0.3-0.7,0.3c-0.3,0-0.5-0.1-0.7-0.3c-0.2-0.2-0.3-0.4-0.3-0.7
		C156.9,242.4,157,242.1,157.2,241.9z M130.6,253.7h2.1v11.4h-2.1V253.7z M113.7,254.3h2.6c1.4,0,2.5,0.3,3.2,0.8
		c0.7,0.5,1,1.3,1,2.5c0,1.1-0.3,1.9-1,2.5c-0.7,0.6-1.6,0.9-2.8,0.9h-0.6v4.1h-2.3L113.7,254.3L113.7,254.3z M122.6,286.6l-0.8-6.5
		c-0.1-0.5-0.1-0.9-0.1-1.1c0-0.3,0-0.5,0-0.7c0-0.1,0-0.2,0-0.3c0-0.1,0-0.1,0-0.1c-0.1,0.4-0.1,0.8-0.2,1.1
		c-0.1,0.3-0.1,0.5-0.2,0.7l-2.2,6.9h-1.3l-2.2-6.9c0-0.1-0.1-0.3-0.1-0.5c-0.1-0.3-0.1-0.7-0.3-1.3v0.3c0,0.5-0.1,1.1-0.1,1.8l0,0
		l-0.8,6.5H112l1.6-10.8h2.4l2.1,6.3c0.1,0.1,0.1,0.3,0.1,0.6c0.1,0.3,0.1,0.5,0.1,0.9c0.1-0.3,0.1-0.6,0.1-0.9
		c0.1-0.3,0.1-0.5,0.1-0.6l2.1-6.3h2.4l1.6,10.8L122.6,286.6L122.6,286.6z M122.1,264.2c-0.7-0.7-1.1-1.7-1.1-2.8s0.4-2,1.1-2.8
		c0.7-0.7,1.7-1.1,2.9-1.1s2.2,0.3,2.9,1.1c0.7,0.7,1.1,1.7,1.1,2.8c0,1.1-0.4,2-1.1,2.8s-1.7,1.1-2.9,1.1
		C123.8,265.3,122.8,265,122.1,264.2z M133.4,286.6h-2v-1c-0.3,0.5-0.6,0.8-1,1c-0.4,0.2-0.9,0.3-1.5,0.3c-0.9,0-1.7-0.3-2.3-1.1
		c-0.6-0.7-0.9-1.7-0.9-2.8c0-1.2,0.3-2.2,0.9-2.8c0.6-0.7,1.3-1,2.4-1c0.5,0,1,0.1,1.4,0.3c0.4,0.3,0.7,0.6,1,1.1v-1.2h2
		L133.4,286.6L133.4,286.6z M132.8,243.4l5.2-11.2l5.2,11.2h-1.8l-1.2-2.8H136l-1.3,2.8H132.8z M135.1,254c0.3-0.3,0.5-0.3,0.9-0.3
		c0.3,0,0.6,0.1,0.9,0.3c0.3,0.2,0.3,0.5,0.3,0.9c0,0.3-0.1,0.6-0.3,0.9c-0.3,0.3-0.5,0.3-0.9,0.3s-0.6-0.1-0.9-0.3
		c-0.3-0.3-0.3-0.5-0.3-0.9C134.8,254.5,134.8,254.3,135.1,254z M134.9,257.8h2.1v7.2h-2.1V257.8z M140.2,281.5
		c-0.1-0.1-0.3-0.1-0.5-0.1s-0.3-0.1-0.5-0.1c-0.6,0-1.1,0.1-1.3,0.5c-0.3,0.3-0.4,0.9-0.4,1.6v3.2h-2.1v-7.2h2.1l-0.1,1.9
		c0.2-0.7,0.5-1.2,0.9-1.5c0.4-0.3,0.9-0.5,1.5-0.5c0.1,0,0.3,0,0.7,0.1c0.1,0,0.1,0,0.1,0L140.2,281.5z M143.6,286.6h-2.1v-7.2h2.1
		V286.6z M143.4,277.3c-0.3,0.3-0.5,0.3-0.9,0.3s-0.6-0.1-0.9-0.3c-0.3-0.3-0.3-0.5-0.3-0.9s0.1-0.6,0.3-0.9
		c0.3-0.3,0.5-0.3,0.9-0.3s0.6,0.1,0.9,0.3c0.3,0.2,0.3,0.5,0.3,0.9S143.7,277.1,143.4,277.3z M143.6,264.7
		c-0.5,0.4-1.3,0.6-2.2,0.6c-0.7,0-1.4-0.1-1.9-0.4c-0.5-0.3-0.9-0.7-1.1-1.1l1.6-0.8c0.1,0.3,0.2,0.5,0.4,0.7
		c0.3,0.1,0.5,0.3,0.9,0.3s0.6-0.1,0.8-0.2c0.2-0.1,0.3-0.3,0.3-0.5c0-0.3-0.3-0.7-1.1-0.9c-0.2-0.1-0.4-0.1-0.5-0.2
		c-0.9-0.3-1.4-0.7-1.7-0.9c-0.3-0.3-0.5-0.7-0.5-1.2c0-0.7,0.3-1.3,0.8-1.7c0.5-0.4,1.3-0.7,2.2-0.7c0.7,0,1.2,0.1,1.7,0.4
		c0.5,0.3,0.8,0.6,1,1.1l-1.5,0.7c-0.1-0.3-0.2-0.5-0.4-0.6s-0.5-0.2-0.7-0.2c-0.3,0-0.5,0.1-0.7,0.2c-0.2,0.1-0.3,0.3-0.3,0.5
		c0,0.3,0.5,0.7,1.4,1c0.1,0.1,0.2,0.1,0.3,0.1c0.8,0.3,1.3,0.5,1.7,0.9c0.3,0.3,0.5,0.8,0.5,1.3
		C144.5,263.7,144.2,264.3,143.6,264.7z M144.6,243.3c-0.2-0.2-0.3-0.4-0.3-0.7c0-0.3,0.1-0.5,0.3-0.7s0.4-0.3,0.7-0.3
		c0.3,0,0.5,0.1,0.7,0.3c0.2,0.2,0.3,0.4,0.3,0.7c0,0.3-0.1,0.5-0.3,0.7c-0.2,0.2-0.4,0.3-0.7,0.3
		C145,243.6,144.8,243.4,144.6,243.3z M153,286.6h-2v-1c-0.3,0.5-0.6,0.8-1,1c-0.4,0.2-0.9,0.3-1.5,0.3c-0.9,0-1.7-0.3-2.3-1.1
		c-0.6-0.7-0.9-1.7-0.9-2.8c0-1.2,0.3-2.2,0.9-2.8c0.6-0.7,1.3-1,2.4-1c0.5,0,1,0.1,1.4,0.3c0.4,0.3,0.7,0.6,1,1.1v-1.2h2L153,286.6
		L153,286.6z M152.8,264.3c-0.6,0.7-1.3,1.1-2.3,1.1c-0.6,0-1.1-0.1-1.5-0.3c-0.4-0.2-0.7-0.5-1-1c0,0.2,0.1,0.4,0.1,0.6
		c0,0.2,0,0.5,0,0.7v3H146v-10.5h2v1.2c0.3-0.5,0.6-0.8,1-1.1c0.4-0.3,0.9-0.3,1.4-0.3c1,0,1.8,0.3,2.4,1c0.6,0.7,0.9,1.6,0.9,2.8
		C153.7,262.6,153.4,263.6,152.8,264.3z M151.6,243.7c-0.9,0-1.7-0.2-2.3-0.6s-0.9-1-1.1-1.8l1.4-0.7c0.1,0.5,0.4,0.9,0.7,1.1
		c0.3,0.3,0.8,0.4,1.3,0.4s0.9-0.1,1.2-0.4c0.3-0.3,0.5-0.7,0.5-1.1c0-0.6-0.5-1.2-1.5-1.7c-0.1-0.1-0.3-0.1-0.3-0.1
		c-1.2-0.6-2-1.1-2.4-1.5c-0.4-0.5-0.6-1-0.6-1.7c0-0.9,0.3-1.6,0.9-2.2c0.6-0.5,1.3-0.8,2.4-0.8c0.8,0,1.5,0.1,2,0.5
		c0.5,0.3,0.9,0.7,1.1,1.3l-1.3,0.7c-0.2-0.3-0.5-0.6-0.7-0.7s-0.5-0.3-0.9-0.3c-0.5,0-0.9,0.1-1.1,0.3c-0.3,0.3-0.4,0.6-0.4,1
		c0,0.7,0.6,1.3,1.8,1.8c0.1,0.1,0.1,0.1,0.2,0.1c1.1,0.5,1.8,0.9,2.2,1.4c0.4,0.5,0.6,1.1,0.6,1.7c0,1-0.3,1.8-0.9,2.4
		S152.7,243.7,151.6,243.7z M156,264.2c-0.7-0.7-1.1-1.7-1.1-2.8s0.4-2,1.1-2.8c0.7-0.7,1.7-1.1,2.9-1.1c1.1,0,2.2,0.3,2.9,1.1
		s1.1,1.7,1.1,2.8c0,1.1-0.4,2-1.1,2.8c-0.7,0.7-1.7,1.1-2.9,1.1C157.7,265.3,156.7,265,156,264.2z M166.8,286.6h-2v-1
		c-0.3,0.5-0.6,0.8-1,1c-0.4,0.2-0.9,0.3-1.5,0.3c-0.9,0-1.7-0.3-2.3-1.1c-0.6-0.7-0.9-1.7-0.9-2.8c0-1.2,0.3-2.2,0.9-2.8
		c0.6-0.7,1.3-1,2.4-1c0.5,0,1,0.1,1.4,0.3c0.4,0.2,0.7,0.6,1.1,1.1c0-0.2-0.1-0.4-0.1-0.6c0-0.2,0-0.5,0-0.7v-4.1h2v11.4H166.8z
		 M167,260.3c-0.3,0.3-0.4,0.9-0.4,1.6v3.2h-2.1v-7.2h2.1l-0.1,1.9c0.2-0.7,0.5-1.2,0.9-1.5c0.3-0.3,0.9-0.5,1.5-0.5
		c0.1,0,0.3,0,0.7,0.1c0.1,0,0.1,0,0.1,0l-0.3,2.2c-0.1-0.1-0.3-0.1-0.5-0.1c-0.1,0-0.3-0.1-0.5-0.1
		C167.7,259.7,167.2,259.9,167,260.3z M171,286.6h-2.1v-7.2h2.1V286.6z M170.8,277.3c-0.3,0.3-0.5,0.3-0.9,0.3s-0.6-0.1-0.9-0.3
		c-0.3-0.3-0.3-0.5-0.3-0.9s0.1-0.6,0.3-0.9c0.2-0.3,0.5-0.3,0.9-0.3s0.6,0.1,0.9,0.3c0.3,0.3,0.3,0.5,0.3,0.9
		S171.1,277.1,170.8,277.3z M174,259.5h-1v5.6h-2.2v-5.6h-1v-1.6h1v-2.4h2.1v2.4h1L174,259.5L174,259.5z M175.5,254
		c0.3-0.3,0.5-0.3,0.9-0.3c0.3,0,0.6,0.1,0.9,0.3c0.3,0.3,0.3,0.5,0.3,0.9c0,0.3-0.1,0.6-0.3,0.9c-0.3,0.3-0.5,0.3-0.9,0.3
		c-0.3,0-0.6-0.1-0.9-0.3c-0.3-0.3-0.3-0.5-0.3-0.9C175.1,254.5,175.3,254.3,175.5,254z M177.4,265h-2.1v-7.2h2.1V265z M186.8,285.4
		c-0.9,1-2.1,1.5-3.6,1.5c-1.7,0-3-0.5-4.1-1.6c-1.1-1.1-1.6-2.4-1.6-4s0.5-3,1.6-4c1.1-1.1,2.5-1.6,4.1-1.6c0.9,0,1.7,0.2,2.4,0.5
		s1.4,0.9,2,1.7l-1.5,1.1c-0.4-0.5-0.8-0.8-1.2-1c-0.4-0.2-0.9-0.3-1.5-0.3c-1.1,0-1.9,0.3-2.6,1c-0.6,0.7-0.9,1.5-0.9,2.6
		c0,1.1,0.3,2,0.9,2.6c0.7,0.7,1.5,1,2.5,1c0.7,0,1.3-0.2,1.8-0.5c0.5-0.3,0.7-0.8,0.7-1.4v-0.1h-2.6v-1.9h4.9c0,0.1,0,0.1,0,0.2
		s0,0.2,0,0.3C188.2,283.1,187.8,284.5,186.8,285.4z M197,283.3c0,0.1,0,0.2,0,0.3h-5.4c0.1,0.5,0.3,0.9,0.5,1.1
		c0.3,0.3,0.7,0.4,1.2,0.4c0.4,0,0.7-0.1,1-0.2s0.5-0.4,0.7-0.7l1.7,0.9c-0.4,0.6-0.9,1.1-1.4,1.4c-0.5,0.3-1.2,0.5-2,0.5
		c-1.1,0-2.1-0.3-2.8-1.1c-0.7-0.7-1-1.6-1-2.8c0-1.1,0.3-2.1,1.1-2.8s1.6-1.1,2.8-1.1s2.1,0.3,2.7,1c0.7,0.7,1,1.6,1,2.8
		C197,283.1,197,283.1,197,283.3z M203,286.3c-0.5,0.4-1.3,0.6-2.2,0.6c-0.7,0-1.4-0.1-1.9-0.4c-0.5-0.3-0.9-0.7-1.1-1.1l1.6-0.8
		c0.1,0.3,0.2,0.5,0.4,0.7c0.3,0.1,0.5,0.3,0.9,0.3s0.6-0.1,0.8-0.2c0.2-0.1,0.3-0.3,0.3-0.5c0-0.3-0.3-0.7-1.1-0.9
		c-0.2-0.1-0.4-0.1-0.5-0.2c-0.9-0.3-1.4-0.7-1.7-0.9c-0.3-0.3-0.5-0.7-0.5-1.2c0-0.7,0.3-1.3,0.8-1.7c0.5-0.4,1.3-0.7,2.2-0.7
		c0.7,0,1.2,0.1,1.7,0.4c0.5,0.3,0.8,0.6,1,1.1l-1.5,0.7c-0.1-0.3-0.2-0.5-0.4-0.6c-0.2-0.1-0.5-0.2-0.7-0.2c-0.3,0-0.5,0.1-0.7,0.2
		s-0.3,0.3-0.3,0.5c0,0.3,0.5,0.7,1.4,1c0.1,0.1,0.2,0.1,0.3,0.1c0.8,0.3,1.3,0.5,1.7,0.9c0.3,0.3,0.5,0.8,0.5,1.3
		C203.8,285.3,203.6,285.9,203,286.3z M212.7,283.3c0,1.3-0.3,2.2-0.9,2.8c-0.6,0.6-1.5,0.9-2.8,0.9s-2.2-0.3-2.8-0.9
		c-0.6-0.6-0.9-1.5-0.9-2.8v-3.8h2.1v3.8c0,0.6,0.1,1.1,0.4,1.3c0.3,0.3,0.7,0.4,1.2,0.4c0.5,0,0.9-0.1,1.2-0.4
		c0.3-0.3,0.4-0.7,0.4-1.3v-3.8h2.1L212.7,283.3L212.7,283.3z"/>
	<path class="st0" d="M193.2,280.9c-0.5,0-0.9,0.1-1.1,0.3c-0.3,0.2-0.5,0.6-0.5,1h3.3c-0.1-0.5-0.2-0.8-0.5-1
		C194.1,281,193.7,280.9,193.2,280.9z"/>
</g>
<g id="XMLID_8_">
	<polyline id="XMLID_48_" class="st2" points="100.9,160.8 101.5,160.5 102.1,160.1 102.6,159.6 102.9,159 103.2,158.4 103.4,157.8 
		103.6,157.1 103.6,156.4 103.6,155.7 103.4,155.1 103.2,154.4 102.9,153.8 102.4,153.3 101.9,152.8 101.4,152.4 100.9,152.1 
		100.3,151.9 99.6,151.7 98.9,151.7 98.3,151.7 	"/>
	<polyline id="XMLID_47_" class="st2" points="97.6,145.2 96.8,145.4 95.9,145.7 95.2,146.1 94.5,146.5 93.8,147.1 93.2,147.8 
		92.7,148.5 92.2,149.2 91.9,150 91.6,150.9 91.4,151.8 91.3,152.7 91.3,153.5 91.4,154.5 91.6,155.3 91.9,156.2 92.2,157 
		92.7,157.7 93.2,158.4 93.8,159 94.5,159.6 95.2,160.1 96,160.5 96.8,160.8 97.6,161 98.5,161.1 99.3,161.1 100.1,161 100.9,160.8 
			"/>
	<polyline id="XMLID_46_" class="st2" points="103.8,168.1 104.8,167.7 105.7,167.2 106.6,166.6 107.5,166 108.2,165.2 108.9,164.4 
		109.5,163.5 110.1,162.5 110.6,161.6 110.9,160.6 111.2,159.5 111.4,158.4 111.4,157.3 111.4,156.2 111.4,155.1 111.2,154.1 
		110.9,153 110.5,152 110,151 109.5,150 108.8,149.2 108.1,148.4 107.4,147.6 106.5,146.9 105.6,146.4 104.7,145.9 103.8,145.5 
		102.8,145.2 101.7,145 100.7,144.9 99.6,144.9 98.6,144.9 97.6,145.2 	"/>
	<polyline id="XMLID_45_" class="st2" points="82.6,138.4 81.8,139.6 81.2,140.8 80.7,142.1 80.3,143.4 79.9,144.7 79.6,146.1 
		79.5,147.5 79.4,148.9 79.4,150.3 79.5,151.7 79.7,153.1 80,154.4 80.4,155.8 80.8,157 81.4,158.3 82,159.5 82.7,160.7 83.6,161.8 
		84.4,162.9 85.3,163.8 86.3,164.8 87.4,165.6 88.5,166.3 89.7,167 90.9,167.6 92.1,168.1 93.4,168.5 94.7,168.7 96,168.9 
		97.3,169.1 98.7,169.1 99.9,169 101.3,168.8 102.6,168.5 103.8,168.1 	"/>
	<polyline id="XMLID_44_" class="st2" points="113.7,122.4 111.8,122.4 109.9,122.5 108,122.7 106.1,123 104.2,123.4 102.4,123.9 
		100.6,124.5 98.9,125.2 97.1,126 95.4,126.9 93.7,127.8 92.1,128.9 90.6,130.1 89.1,131.3 87.7,132.6 86.3,134 85,135.4 
		83.7,136.9 82.6,138.4 	"/>
	<polyline id="XMLID_9_" class="st2" points="113.7,122.4 115.2,122.3 116.7,122 118.3,121.7 119.8,121.2 121.2,120.6 122.7,120 
		124.1,119.2 125.4,118.4 126.7,117.5 127.9,116.5 129.1,115.3 130.2,114.2 130.9,113.3 131.5,112.2 132,111.2 132.5,110.1 
		132.8,108.9 133.2,107.8 133.3,106.6 133.4,105.5 133.4,104.2 133.4,103 133.2,101.9 133,100.7 132.6,99.5 132.2,98.5 131.7,97.4 
		131.1,96.4 130.5,95.4 129.7,94.4 128.9,93.6 	"/>
	<polyline id="XMLID_42_" class="st2" points="180.3,94.7 178.3,93.6 176.3,92.7 174.2,91.8 172.2,91 170,90.3 167.9,89.6 
		165.6,89.1 163.5,88.7 161.2,88.4 159,88.1 156.8,88 154.5,87.9 152.3,88 150,88.1 147.7,88.4 145.5,88.7 143.3,89.1 141.2,89.6 
		139,90.3 136.9,91 134.8,91.8 132.7,92.7 130.7,93.6 128.6,94.7 	"/>
	<polyline id="XMLID_41_" class="st2" points="174.9,101.8 173.2,100.9 171.3,99.9 169.4,99.2 167.5,98.5 165.6,97.9 163.5,97.3 
		161.6,96.9 159.5,96.6 157.5,96.4 155.5,96.2 153.4,96.2 151.4,96.3 149.4,96.4 147.3,96.7 145.3,97 143.3,97.5 141.4,98.1 
		139.4,98.8 137.5,99.5 135.6,100.3 133.8,101.3 	"/>
	<polygon id="XMLID_40_" class="st2" points="175.7,130.1 175.7,128.8 175.5,127.4 175.3,126 175,124.7 174.6,123.3 174.1,122.1 
		173.6,120.8 172.9,119.6 172.2,118.4 171.4,117.2 170.5,116.1 169.5,115.1 168.5,114.2 167.4,113.3 166.3,112.5 165.1,111.8 
		163.9,111.1 162.6,110.6 161.3,110 160,109.6 158.6,109.4 157.3,109.1 155.9,108.9 154.5,108.9 153.1,108.9 151.7,109.1 
		150.4,109.4 149,109.6 147.7,110 146.4,110.6 145.1,111.1 143.8,111.8 142.7,112.5 141.6,113.3 140.5,114.2 139.5,115.1 
		138.5,116.1 137.7,117.2 136.9,118.4 136.1,119.6 135.4,120.8 134.8,122.1 134.4,123.3 134,124.7 133.7,126 133.4,127.4 
		133.3,128.8 133.2,130.1 133.3,131.5 133.4,133 133.7,134.3 134,135.6 134.4,137 134.8,138.3 135.4,139.5 136.1,140.8 136.9,142 
		137.7,143.1 138.5,144.2 139.5,145.2 140.5,146.1 141.6,147 142.7,147.8 143.8,148.6 145.1,149.2 146.4,149.8 147.7,150.3 
		149,150.7 150.4,151 151.7,151.2 153.1,151.4 154.5,151.4 155.9,151.4 157.3,151.2 158.6,151 160,150.7 161.3,150.3 162.6,149.8 
		163.9,149.2 165.1,148.6 166.3,147.8 167.4,147 168.5,146.1 169.5,145.2 170.5,144.2 171.4,143.1 172.2,142 172.9,140.8 
		173.6,139.5 174.1,138.3 174.6,137 175,135.6 175.3,134.3 175.5,133 175.7,131.5 	"/>
	<polygon id="XMLID_39_" class="st2" points="181.7,130.1 181.6,128.6 181.5,127 181.3,125.4 181,123.9 180.6,122.4 180,120.9 
		179.5,119.4 178.8,118 178,116.5 177.2,115.2 176.3,113.9 175.3,112.6 174.2,111.5 173.2,110.4 172,109.3 170.7,108.3 169.4,107.4 
		168.1,106.6 166.7,105.9 165.2,105.2 163.8,104.6 162.3,104.1 160.8,103.7 159.2,103.4 157.6,103.2 156.1,103 154.5,103 152.9,103 
		151.3,103.2 149.8,103.4 148.2,103.7 146.7,104.1 145.2,104.6 143.7,105.2 142.3,105.9 140.9,106.6 139.5,107.4 138.3,108.3 
		137,109.3 135.8,110.4 134.7,111.5 133.6,112.6 132.7,113.9 131.7,115.2 130.9,116.5 130.2,118 129.5,119.4 128.9,120.9 
		128.4,122.4 128,123.9 127.7,125.4 127.5,127 127.3,128.6 127.3,130.1 127.3,131.7 127.5,133.3 127.7,134.9 128,136.5 128.4,138 
		128.9,139.5 129.5,141 130.2,142.4 130.9,143.8 131.7,145.1 132.7,146.4 133.6,147.6 134.7,148.8 135.8,150 137,151 138.3,152 
		139.5,152.9 140.9,153.7 142.3,154.5 143.7,155.1 145.2,155.7 146.7,156.2 148.2,156.6 149.8,157 151.3,157.2 152.9,157.3 
		154.5,157.4 156.1,157.3 157.6,157.2 159.2,157 160.8,156.6 162.3,156.2 163.8,155.7 165.2,155.1 166.7,154.5 168.1,153.7 
		169.4,152.9 170.7,152 172,151 173.2,150 174.2,148.8 175.3,147.6 176.3,146.4 177.2,145.1 178,143.8 178.8,142.4 179.5,141 
		180,139.5 180.6,138 181,136.5 181.3,134.9 181.5,133.3 181.6,131.7 	"/>
	<polyline id="XMLID_38_" class="st2" points="128.6,94.7 128.1,94.9 127.6,95.2 127.2,95.5 126.8,96 126.6,96.4 126.3,96.9 
		126.2,97.4 126.1,98 126.1,98.6 126.2,99.1 126.4,99.6 126.6,100.1 127,100.5 127.4,100.9 127.8,101.3 128.4,101.5 128.8,101.7 
		129.5,101.8 130,101.8 	"/>
	<polyline id="XMLID_37_" class="st2" points="128.6,94.7 128.8,93.6 129,92.6 129,91.5 128.9,90.5 128.8,89.4 128.6,88.3 
		128.2,87.3 127.8,86.3 128.4,87.2 129.1,88.1 129.8,88.9 130.5,89.6 131.3,90.3 132.2,90.9 133.2,91.5 134.1,92 	"/>
	<polyline id="XMLID_36_" class="st2" points="139.9,89.9 140.3,88.9 140.7,87.9 141,86.9 141.2,85.9 141.3,84.7 141.4,83.7 
		141.3,82.7 141.2,81.6 141.4,82.6 141.8,83.6 142.4,84.5 142.9,85.5 143.5,86.4 144.2,87.1 145,87.9 145.8,88.6 	"/>
	<polyline id="XMLID_35_" class="st2" points="151.4,88 152,87.1 152.7,86.2 153.2,85.3 153.6,84.3 153.9,83.3 154.2,82.2 
		154.4,81.2 154.5,80.1 154.6,81.2 154.7,82.2 155,83.3 155.3,84.3 155.7,85.3 156.3,86.2 156.8,87.1 157.5,88 	"/>
	<polyline id="XMLID_34_" class="st2" points="133.8,101.3 137.9,101.8 142,102.2 146.1,102.5 150.2,102.7 154.3,102.8 158.5,102.8 
		162.6,102.7 166.7,102.5 170.8,102.2 174.9,101.8 	"/>
	<polyline id="XMLID_33_" class="st2" points="137.5,143 138.5,142.1 139.5,141.2 140.3,140.2 141,139.1 141.7,138.1 142.3,136.9 
		142.8,135.7 143.2,134.4 143.6,133.2 143.8,131.9 143.8,130.6 143.9,129.3 143.8,128 143.6,126.8 143.4,125.5 143,124.2 142.5,123 
		142,121.9 141.4,120.7 140.6,119.6 139.8,118.6 138.9,117.7 138,116.8 	"/>
	<polyline id="XMLID_32_" class="st2" points="137.5,143 138.6,142.8 139.7,142.6 140.7,142.3 141.7,141.9 142.7,141.4 143.6,140.9 
		144.5,140.3 145.3,139.6 146.1,138.9 146.7,138.1 147.4,137.2 147.9,136.3 148.4,135.3 148.8,134.3 149.2,133.3 149.4,132.2 
		149.6,131.1 149.6,130.1 149.6,129 149.4,128 149.3,126.9 149,125.8 148.6,124.8 148.1,123.9 147.6,122.9 147,122.1 146.3,121.2 
		145.6,120.4 144.8,119.7 144,119 143,118.5 142.1,118 141.2,117.6 140.1,117.2 139.1,117 138,116.8 	"/>
	<polyline id="XMLID_31_" class="st2" points="154.5,117.1 153.6,118.2 152.9,119.2 152.2,120.4 151.6,121.7 151.1,122.9 
		150.7,124.2 150.4,125.6 150.1,126.8 149.9,128.2 149.8,129.5 149.8,130.9 149.9,132.3 150.1,133.6 150.4,134.9 150.7,136.3 
		151.2,137.5 151.7,138.8 152.3,139.9 152.9,141.2 153.7,142.3 154.5,143.4 	"/>
	<polyline id="XMLID_30_" class="st2" points="112.8,130.8 112.2,130.7 111.6,130.8 110.9,130.9 110.3,131.1 109.7,131.4 
		109.1,131.8 108.7,132.3 108.3,132.9 108,133.5 107.7,134.1 107.6,134.8 107.5,135.4 107.5,136.2 107.7,136.9 107.9,137.5 
		108.2,138.1 108.6,138.6 109.1,139.1 109.6,139.5 110.2,139.9 111,140.1 111.8,140.2 112.7,140.2 113.6,140.1 114.4,139.9 
		115.2,139.5 115.9,139.1 116.7,138.7 117.3,138.1 118,137.5 118.5,136.8 118.9,136 119.3,135.2 119.6,134.4 119.8,133.5 
		119.8,132.6 119.8,131.7 119.8,130.8 119.6,129.9 119.3,129.1 119,128.3 118.5,127.5 118,126.8 117.3,126.2 116.7,125.6 116,125.2 
		115.2,124.8 114.5,124.4 113.6,124.2 112.6,124 111.6,123.9 110.5,123.9 109.5,124 108.5,124.2 107.5,124.5 106.5,124.9 
		105.6,125.4 104.7,126 103.8,126.6 103.1,127.3 102.4,128.1 101.7,129 101.2,129.9 100.7,130.9 100.3,131.9 100,133 99.8,134 
		99.7,135.1 99.7,136.2 99.7,137.3 99.9,138.3 100.2,139.4 100.5,140.4 100.9,141.4 101.5,142.4 102.1,143.2 102.8,144.1 
		103.5,144.9 104.3,145.5 105.2,146.1 106.1,146.7 	"/>
	<polyline id="XMLID_29_" class="st2" points="127.6,153.7 127.2,153.1 126.7,152.7 126.2,152.2 125.6,151.9 125,151.6 124.3,151.4 
		123.7,151.4 123.1,151.4 122.4,151.6 121.8,151.9 121.2,152.2 120.7,152.7 120.2,153.1 119.8,153.7 119.6,154.3 119.3,155 
		119.2,155.8 119.2,156.4 119.2,157.2 119.4,157.8 119.8,158.6 120.3,159.4 120.8,160.1 121.5,160.7 122.2,161.2 122.9,161.7 
		123.7,162 124.5,162.3 125.4,162.4 126.2,162.5 127.1,162.4 128,162.3 128.8,162 129.5,161.6 130.3,161.2 131,160.6 131.6,160.1 
		132.2,159.3 132.7,158.6 133.1,157.8 133.4,156.9 133.7,156 133.8,155.1 133.8,154.1 133.8,153.3 133.7,152.3 133.4,151.4 
		133.1,150.6 132.7,149.8 132.1,148.8 131.5,147.9 130.9,147.1 130.1,146.3 129.3,145.6 128.4,145 127.5,144.5 126.5,144.1 
		125.6,143.7 124.5,143.5 123.5,143.4 122.5,143.4 121.4,143.4 120.4,143.6 119.4,143.9 118.4,144.3 117.5,144.8 116.6,145.3 
		115.7,146 115,146.7 114.3,147.5 113.6,148.4 113,149.4 112.5,150.3 112.1,151.4 111.8,152.5 111.6,153.5 111.4,154.7 	"/>
	<polyline id="XMLID_28_" class="st2" points="210,151.7 209.4,151.7 208.7,151.7 208.1,151.9 207.6,152.1 207.1,152.4 206.5,152.8 
		206.1,153.3 205.7,153.9 205.4,154.4 205.2,155.1 205,155.8 205,156.4 205,157.2 205.2,157.8 205.4,158.5 205.6,159.1 206,159.7 
		206.5,160.1 206.9,160.6 207.5,160.9 208.3,161.1 209.1,161.2 209.9,161.2 210.7,161.1 211.4,160.9 212.2,160.6 212.9,160.2 
		213.6,159.7 214.3,159.1 214.8,158.5 215.3,157.8 215.7,157 216.1,156.2 216.3,155.3 216.5,154.5 216.6,153.5 216.6,152.7 
		216.5,151.8 216.3,150.9 216.1,150 215.7,149.2 215.3,148.5 214.8,147.8 214.3,147.1 213.6,146.5 213,146.1 212.2,145.7 
		211.4,145.3 210.7,145.1 209.7,144.9 208.7,144.9 207.7,144.9 206.8,144.9 205.8,145.1 204.8,145.5 204,145.9 203.1,146.3 
		202.2,146.9 201.4,147.6 200.7,148.4 200.1,149.2 199.5,150 198.9,151 198.5,152 198.1,153 197.8,154.1 197.7,155.1 197.6,156.3 
		197.6,157.4 197.6,158.5 197.8,159.6 198.1,160.7 198.5,161.7 198.9,162.7 199.4,163.6 200,164.5 200.7,165.4 201.3,166.1 
		202.2,166.8 203,167.3 203.9,167.9 204.8,168.3 206,168.7 207.2,168.9 208.4,169.1 209.7,169.2 210.9,169.2 212.2,169.1 
		213.4,168.9 214.6,168.6 215.8,168.2 217,167.7 218.1,167.1 219.2,166.4 220.2,165.7 221.2,164.9 222.2,164 223.1,162.9 
		223.9,161.9 224.7,160.8 225.4,159.6 225.9,158.4 226.4,157.1 226.9,155.8 227.2,154.5 227.5,153.1 227.7,151.7 227.8,150.3 
		227.8,148.9 227.8,147.5 227.6,146.1 227.3,144.7 227,143.4 226.6,142 226,140.8 225.5,139.5 224.8,138.3 223.7,136.8 222.5,135.2 
		221.3,133.8 220,132.4 218.6,131.1 217.3,129.9 215.8,128.8 214.3,127.7 212.7,126.7 211.1,125.8 209.5,125 207.8,124.3 
		206.1,123.7 204.4,123.2 202.6,122.8 200.9,122.5 199.1,122.3 197.3,122.2 195.6,122.2 	"/>
	<polyline id="XMLID_27_" class="st2" points="174.9,110.9 176.3,112.5 177.7,114 179.3,115.4 180.9,116.7 182.6,117.8 184.3,118.8 
		186.1,119.8 187.9,120.5 189.8,121.1 191.7,121.7 193.6,122 195.6,122.2 	"/>
	<polyline id="XMLID_26_" class="st2" points="180.3,94.7 179.4,95.4 178.6,96.1 177.8,96.9 177.1,97.8 176.5,98.7 175.9,99.6 
		175.4,100.6 175,101.7 174.6,102.7 174.4,103.8 174.2,104.9 174.2,106 174.2,107.1 174.3,108.2 174.5,109.4 174.8,110.4 
		175.1,111.4 175.5,112.5 176.1,113.5 176.7,114.4 177.3,115.3 	"/>
	<polyline id="XMLID_25_" class="st2" points="177.9,101.5 178.4,101.7 179,101.8 179.6,101.8 180.1,101.7 180.6,101.5 181.1,101.3 
		181.6,100.9 182,100.5 182.3,100.1 182.6,99.6 182.8,99.1 182.9,98.6 182.9,98 182.8,97.4 182.6,96.9 182.4,96.4 182.1,96 
		181.7,95.5 181.3,95.2 180.8,94.9 180.3,94.7 	"/>
	<polyline id="XMLID_24_" class="st2" points="181.1,86.3 180.7,87.3 180.4,88.3 180.2,89.4 180,90.5 180,91.5 180,92.6 180.1,93.6 
		180.3,94.7 	"/>
	<polyline id="XMLID_23_" class="st2" points="174.9,92 175.9,91.5 176.8,90.9 177.7,90.3 178.5,89.6 179.2,88.9 179.9,88.1 
		180.6,87.2 181.1,86.3 	"/>
	<polyline id="XMLID_22_" class="st2" points="167.9,81.6 167.7,82.7 167.7,83.7 167.7,84.7 167.8,85.9 168,86.9 168.3,87.9 
		168.7,88.9 169.1,89.9 	"/>
	<polyline id="XMLID_21_" class="st2" points="163.1,88.6 164,87.9 164.8,87.1 165.4,86.4 166,85.5 166.6,84.5 167.1,83.6 
		167.5,82.6 167.9,81.6 	"/>
	<polyline id="XMLID_20_" class="st2" points="154.5,80.1 154.6,81.2 154.7,82.2 155,83.3 155.4,84.3 155.8,85.3 156.4,86.2 
		156.9,87.1 157.6,88 	"/>
	<polyline id="XMLID_19_" class="st2" points="170.9,116.8 170,117.7 169.1,118.6 168.3,119.6 167.6,120.7 167,121.9 166.4,123 
		166,124.2 165.6,125.5 165.4,126.8 165.2,128 165.1,129.3 165.1,130.6 165.2,131.9 165.4,133.2 165.8,134.4 166.2,135.7 
		166.6,136.9 167.2,138.1 167.9,139.1 168.7,140.2 169.5,141.2 170.4,142.1 171.4,143 	"/>
	<polyline id="XMLID_18_" class="st2" points="170.9,116.8 169.9,117 168.9,117.2 167.9,117.6 166.8,118 165.9,118.5 165,119 
		164.2,119.7 163.3,120.4 162.6,121.2 161.9,122.1 161.3,122.9 160.8,123.9 160.4,124.8 160,125.8 159.7,126.9 159.5,128 159.4,129 
		159.4,130.1 159.4,131.1 159.6,132.2 159.9,133.3 160.1,134.3 160.5,135.3 161,136.3 161.6,137.2 162.2,138.1 162.9,138.9 
		163.7,139.6 164.5,140.3 165.4,140.9 166.3,141.4 167.3,141.9 168.3,142.3 169.3,142.6 170.3,142.8 171.4,143 	"/>
	<polyline id="XMLID_17_" class="st2" points="154.5,143.4 155.3,142.3 156,141.2 156.7,139.9 157.3,138.8 157.8,137.5 158.2,136.3 
		158.6,134.9 158.8,133.6 159,132.3 159.2,130.9 159.2,129.5 159,128.2 158.9,126.8 158.6,125.6 158.3,124.2 157.8,122.9 
		157.4,121.7 156.8,120.4 156.1,119.2 155.3,118.2 154.5,117.1 	"/>
	<polyline id="XMLID_16_" class="st2" points="198.8,139.6 199.3,139.3 199.8,138.9 200.3,138.4 200.6,137.9 200.9,137.3 
		201.1,136.6 201.3,135.9 201.3,135.2 201.2,134.5 201.1,133.9 200.9,133.2 200.6,132.6 200.2,132.1 199.7,131.6 199.3,131.2 
		198.7,130.9 198.1,130.7 197.5,130.5 196.9,130.5 196.3,130.5 	"/>
	<polyline id="XMLID_15_" class="st2" points="195.6,124 194.8,124.2 194,124.5 193.3,124.9 192.7,125.4 192.1,126 191.5,126.6 
		191,127.3 190.5,128 190.2,128.9 190,129.7 189.8,130.6 189.7,131.5 189.7,132.4 189.8,133.3 190,134.1 190.2,135 190.6,135.8 
		191,136.5 191.5,137.3 192.1,137.9 192.7,138.5 193.3,138.9 194.1,139.3 194.8,139.6 195.6,139.8 196.4,139.9 197.2,139.9 
		198,139.8 198.8,139.6 	"/>
	<polyline id="XMLID_14_" class="st2" points="202.6,146.4 203.5,145.9 204.3,145.3 205.1,144.6 205.8,143.8 206.4,143 207,142.1 
		207.5,141.2 207.9,140.2 208.2,139.1 208.5,138.1 208.6,137.1 208.7,135.9 208.7,134.8 208.5,133.8 208.3,132.7 208.1,131.7 
		207.7,130.7 207.3,129.7 206.8,128.8 206.1,127.9 205.5,127.1 204.8,126.4 204,125.8 203.2,125.2 202.3,124.7 201.3,124.3 
		200.4,124 199.5,123.8 198.5,123.7 197.5,123.7 196.5,123.8 195.6,124 	"/>
	<polyline id="XMLID_13_" class="st2" points="190.2,158.5 190.3,157.8 190.4,157.1 190.3,156.4 190.2,155.8 190,155.1 189.7,154.5 
		189.3,153.9 188.9,153.5 188.4,153.1 187.9,152.7 187.3,152.5 186.7,152.3 186.1,152.3 185.5,152.3 184.9,152.5 184.3,152.7 
		183.7,153.1 183.3,153.5 182.9,153.9 182.4,154.5 	"/>
	<polyline id="XMLID_12_" class="st2" points="177.6,150.7 177.2,151.4 176.9,152.3 176.7,153.1 176.6,154.1 176.5,154.9 
		176.6,155.8 176.7,156.7 176.9,157.6 177.2,158.4 177.6,159.2 178.1,159.9 178.6,160.6 179.2,161.1 179.9,161.7 180.6,162.1 
		181.3,162.5 182,162.7 182.9,162.9 183.7,162.9 184.5,162.9 185.3,162.7 186,162.5 186.8,162.1 187.5,161.7 188.2,161.3 
		188.8,160.7 189.3,160 189.8,159.3 190.2,158.5 	"/>
	<polyline id="XMLID_10_" class="st2" points="197.6,155.4 197.5,154.3 197.3,153.3 197,152.3 196.6,151.2 196.1,150.3 195.6,149.4 
		195,148.6 194.3,147.8 193.5,147.1 192.8,146.4 191.9,145.9 191.1,145.5 190.1,145.1 189.2,144.8 188.2,144.6 187.3,144.5 
		186.3,144.5 185.3,144.7 184.3,144.9 183.5,145.2 182.5,145.6 181.6,146.1 180.8,146.7 180.1,147.3 179.4,148.1 178.7,148.9 
		178.1,149.8 177.6,150.7 	"/>
</g>
</svg>
