<?xml version="1.0" encoding="utf-8"?>
<!-- Generator: Adobe Illustrator 24.0.1, SVG Export Plug-In . SVG Version: 6.00 Build 0)  -->
<svg version="1.1" id="Livello_1" xmlns="http://www.w3.org/2000/svg" xmlns:xlink="http://www.w3.org/1999/xlink" x="0px" y="0px"
	 viewBox="0 0 794.9 298.6" style="enable-background:new 0 0 794.9 298.6;" xml:space="preserve">
<style type="text/css">
	.st0{display:none;}
	.st1{fill:#FFFFFF;}
</style>
<rect class="st0" width="794.9" height="298.6"/>
<g>
	<path class="st1" d="M41.6,263.9c4,1.6,6,5.3,7.4,10.9c1.5,6.2,3.1,13.9,4.3,16.2H39.6c-0.8-1.7-2.3-6.8-3.5-13.6
		c-1.3-7-3.3-8.9-7.7-8.9h-2.5v22.6H12.7V234c4-0.7,9.7-1.2,15.7-1.2c7.7,0,22.9,0.8,22.9,16.7c0,6.8-4.3,12.2-9.6,14.3L41.6,263.9
		L41.6,263.9z M29.3,258.6c5.5,0,8.8-3.5,8.8-8.2c0-6.6-4.9-7.9-7.9-7.9c-2.1,0-3.5,0.1-4.3,0.4v15.7H29.3z"/>
	<path class="st1" d="M102.3,290.9h-9.1L88,274.1H70.4L65.5,291h-8.9l17.5-57.4h10.6L102.3,290.9z M86.6,267.4l-4.5-15
		c-1.1-3.8-2-7.8-2.9-11.3h-0.1c-0.8,3.5-1.7,7.7-2.7,11.2l-4.6,15.1H86.6z"/>
	<path class="st1" d="M155.9,261.7c0,19.9-10.7,30.1-24.7,30.1c-14.6,0-24-11.8-24-29.2c0-18.1,10-29.9,24.7-29.9
		C147.2,232.7,155.9,245.2,155.9,261.7z M116.3,262.4c0,11.6,5.3,22.3,15.1,22.3c10,0,15.2-10.4,15.2-22.6c0-11-4.8-22.2-15.1-22.2
		C121.1,239.8,116.3,251.1,116.3,262.4z"/>
	<path class="st1" d="M193.1,263.9c4,1.6,6,5.3,7.3,10.9c1.5,6.2,3.2,13.9,4.3,16.2H191c-0.8-1.7-2.3-6.8-3.5-13.6
		c-1.3-7-3.3-8.9-7.7-8.9h-2.5v22.6h-13.1V234c4-0.7,9.7-1.2,15.7-1.2c7.7,0,22.9,0.8,22.9,16.7c0,6.8-4.3,12.2-9.6,14.3
		L193.1,263.9L193.1,263.9z M180.7,258.6c5.5,0,8.8-3.5,8.8-8.2c0-6.6-4.9-7.9-8-7.9c-2.1,0-3.5,0.1-4.3,0.4v15.7H180.7z"/>
	<path class="st1" d="M253.7,290.9h-9.1l-5.2-16.9h-17.5l-4.9,16.9h-9l17.5-57.4h10.7L253.7,290.9z M238,267.4l-4.5-15
		c-1-3.8-2-7.8-2.8-11.3h-0.2c-0.8,3.5-1.7,7.7-2.7,11.2l-4.6,15.1H238z"/>
	<path class="st1" d="M261.7,234.2c3.4-0.6,8-1.1,13.9-1.1c7,0,12.4,1.5,15.8,4.6c3.2,2.8,5.2,7.1,5.2,12.4
		c0,14-11.1,18.8-21.4,18.8c-1.8,0-3.4-0.1-4.9-0.4V291h-8.6V234.2z M270.3,261.5c1.3,0.4,2.9,0.4,4.9,0.4c8,0,12.8-4.1,12.8-11.5
		c0-7-4.8-10.5-11.8-10.5c-2.7,0-4.7,0.3-5.9,0.5V261.5z"/>
	<path class="st1" d="M305.6,234.2c3.4-0.6,8-1.1,13.9-1.1c7,0,12.4,1.5,15.8,4.6c3.2,2.8,5.2,7.1,5.2,12.4
		c0,14-11.1,18.8-21.4,18.8c-1.8,0-3.4-0.1-4.9-0.4V291h-8.6V234.2z M314.2,261.5c1.3,0.4,2.9,0.4,4.9,0.4c8,0,12.8-4.1,12.8-11.5
		c0-7-4.8-10.5-11.8-10.5c-2.7,0-4.7,0.3-5.9,0.5V261.5z"/>
	<path class="st1" d="M374,263.6c4.3,1.6,6.7,5.6,8,11.7c1.7,7.5,3.2,13.4,4.3,15.6h-9c-0.8-1.7-2.2-6.7-3.6-13.7
		c-1.6-7.6-4.3-10.6-10.4-10.6H358v24.3h-8.6v-56.6c3.7-0.7,8.8-1.2,13.9-1.2c7.5,0,12.7,1.4,16.3,4.6c3,2.6,4.6,6.6,4.6,11.3
		c0,7.3-4.5,12.4-10.3,14.5v0.1H374z M363.9,260.1c7.2,0,11.7-4.1,11.7-10.3c0-7.4-5.3-10-11.5-10c-2.9,0-5,0.2-6.1,0.5V260h5.9
		V260.1z"/>
	<path class="st1" d="M425.3,290.9H394v-57.4h30v7.3h-21.3v16.6h20.1v7.2h-20.1v19h22.6L425.3,290.9L425.3,290.9z"/>
	<path class="st1" d="M461,242.5c-1.9-1-5.5-2.5-10.2-2.5c-6.8,0-9.7,4-9.7,7.6c0,4.9,3.2,7.3,10.5,10.4c9.2,4,13.6,9.1,13.6,17
		c0,9.6-7.1,16.8-20,16.8c-5.4,0-11.1-1.6-13.9-3.5l2-7.3c3.1,1.9,7.7,3.4,12.4,3.4c6.8,0,10.6-3.5,10.6-8.7c0-4.9-2.9-7.9-9.7-10.7
		c-8.5-3.5-14.3-8.6-14.3-16.4c0-9.1,7.3-15.9,18.7-15.9c5.5,0,9.6,1.3,12.1,2.6L461,242.5z"/>
	<path class="st1" d="M505.9,290.9h-31.3v-57.4h30v7.3h-21.3v16.6h20.1v7.2h-20.1v19h22.6L505.9,290.9L505.9,290.9z"/>
	<path class="st1" d="M555.8,290.9H547l-15-26.8c-3.5-6.2-6.9-13-9.5-19.4l-0.3,0.1c0.4,7.3,0.6,14.7,0.6,24.7v21.4h-8v-57.4h9.4
		l15,26.5c3.6,6.3,6.8,12.9,9.3,19l0.2-0.1c-0.7-7.8-0.9-15.1-0.9-24.3v-21.1h8V290.9z"/>
	<path class="st1" d="M602,241h-15.5v49.9h-8.7V241h-15.4v-7.4H602V241z"/>
	<path class="st1" d="M648.5,290.9h-9.1l-5.2-16.9h-17.5l-4.9,16.9h-8.9l17.5-57.4H631L648.5,290.9z M632.8,267.4l-4.5-15
		c-1-3.8-2-7.8-2.8-11.3h-0.2c-0.8,3.5-1.7,7.7-2.7,11.2l-4.6,15.1H632.8z"/>
	<path class="st1" d="M697.6,290.9h-8.8l-15.1-26.8c-3.5-6.2-6.9-13-9.5-19.4l-0.3,0.1c0.4,7.3,0.6,14.7,0.6,24.7v21.4h-8v-57.4h9.4
		l15,26.5c3.6,6.3,6.8,12.9,9.3,19l0.2-0.1c-0.7-7.8-0.9-15.1-0.9-24.3v-21.1h8L697.6,290.9L697.6,290.9z"/>
	<path class="st1" d="M744.7,238.9l-27.6,44.4v0.3H745v7.3h-39.2v-5l27.9-44.8v-0.3h-25.5v-7.3h36.5V238.9z"/>
	<path class="st1" d="M784.7,290.9h-31.3v-57.4h30v7.3h-21.3v16.6h20.1v7.2h-20.1v19h22.6V290.9z"/>
</g>
<g>
	<path class="st1" d="M459.9,51.8c-6.6,0-11.4,0.5-13.8,1.2v44.7h13.3c16.3,0,26.5-9.4,26.5-23.3C485.9,57.6,474,51.8,459.9,51.8z"
		/>
	<path class="st1" d="M335.5,51.8c-6.6,0-11.4,0.5-13.8,1.2v44.7H335c16.3,0,26.5-9.4,26.5-23.3C361.5,57.6,349.6,51.8,335.5,51.8z"
		/>
	<path class="st1" d="M461.5,7.4c-23.7,0-45.5,8.4-62.4,22.5C381.8,15,359.3,6.1,334.7,6.1c-54.8,0-99.2,44.4-99.2,99.2
		s44.4,99.2,99.2,99.2c24.6,0,47.2-9,64.5-23.9c16.9,14,38.6,22.4,62.3,22.4c54,0,97.8-43.8,97.8-97.8S515.5,7.4,461.5,7.4z
		 M365.5,167.6c-1.9-3.7-4.9-15.1-8.2-31.1c-3.6-17.3-9.9-24-23.6-24h-11.9v55.1h-19.5V39.2c8.3-1.5,19.9-2.7,31.6-2.7
		c17,0,28.9,3.1,37.1,10.4c6.8,6,10.4,15,10.4,25.5c0,16.7-10.2,28-23.3,33v0.3H358c9.7,3.6,15.1,12.8,18.2,26.5
		c3.9,17,7.1,30.4,9.7,35.4H365.5z M489.9,167.6c-1.9-3.7-4.9-15.1-8.2-31.1c-3.6-17.3-9.9-24-23.6-24h-11.9v55.1h-19.5V39.2
		c8.3-1.5,19.9-2.7,31.6-2.7c17,0,28.9,3.1,37.1,10.4c6.8,6,10.4,15,10.4,25.5c0,16.7-10.2,28-23.3,33v0.3h-0.1
		c9.7,3.6,15.1,12.8,18.2,26.5c3.9,17,7.1,30.4,9.7,35.4H489.9z"/>
</g>
</svg>
