<?xml version="1.0" encoding="utf-8"?>
<!-- Generator: Adobe Illustrator 24.0.1, SVG Export Plug-In . SVG Version: 6.00 Build 0)  -->
<svg version="1.1" id="Livello_1" xmlns="http://www.w3.org/2000/svg" xmlns:xlink="http://www.w3.org/1999/xlink" x="0px" y="0px"
	 viewBox="0 0 660 400" style="enable-background:new 0 0 660 400;" xml:space="preserve">
<style type="text/css">
	.st0{fill:none;stroke:#FFFFFF;stroke-width:3;stroke-linecap:round;stroke-linejoin:round;stroke-miterlimit:10;}
	.st1{fill:none;stroke:#FFFFFF;stroke-width:4;stroke-linecap:round;stroke-linejoin:round;stroke-miterlimit:10;}
	.st2{fill:#FFFFFF;}
</style>
<g id="XMLID_4_">
	<g id="XMLID_5_">
		<path id="XMLID_6_" class="st0" d="M205.3,153.4c0,0,3.2-27.4,10.7-25.9c3.4,0.6,16.1,4.2,16.1,4.2l15,7.2l10.5-7.4
			c0,0,4.1-0.9,3.3,3.3c-1.1,1.1-14.6,15.3-14.9,15.3c-0.3,0.1-7.7-6.4-7.7-6.4s-11.3-1.1-15.4-0.9c0,0-5.1-3.5-5.3-3.9"/>
		<line id="XMLID_7_" class="st0" x1="222.6" y1="153.4" x2="222.6" y2="142.8"/>
	</g>
	<g id="XMLID_9_">
		<path id="XMLID_11_" class="st0" d="M192.8,219.6c0,0-24,13.5-27.2,6.6c-1.4-2.9-5.5-13.8-6-15.3c0-0.1-0.1-0.2-0.1-0.4l-2.8-15.1
			c-0.1-0.7-0.6-1.2-1.3-1.4l-11.1-3.7c0,0-3.1-2.7,0.7-4.7c1.6,0.2,20.9,2.8,21.1,3c0.2,0.2-0.4,6.6-0.6,9.1
			c-0.1,0.6,0.1,1.2,0.4,1.7c1.3,2.2,5.2,8.6,7.4,11.6c0.3,0.4,0.5,0.9,0.5,1.4c0,1.7,0.1,5.4-0.1,5.7"/>
		<line id="XMLID_10_" class="st0" x1="182.6" y1="205.6" x2="174" y2="211.8"/>
	</g>
	<g id="XMLID_8_">
		<path id="XMLID_12_" class="st0" d="M246.4,201.3c0,0,24.6,12.4,20.7,18.9c-1.6,2.8-8.4,12.3-9.3,13.6c-0.1,0.1-0.1,0.2-0.2,0.3
			l-11.1,10.8c-0.4,0.4-0.6,1-0.4,1.6l3.2,11.5c0,0-0.8,3.9-4.3,2c-0.7-1.4-9.4-18.9-9.3-19.2c0-0.2,4.2-2.5,6.7-3.9
			c1.3-0.7,2.3-1.8,2.9-3.1c1.4-3,3.9-8.5,5-11.6c0.1-0.4,0.4-0.7,0.7-1c1.3-0.9,4.6-3.2,4.9-3.3"/>
		<line id="XMLID_13_" class="st0" x1="240.5" y1="217.6" x2="250.4" y2="221.2"/>
	</g>
	<g id="XMLID_14_">
		<path id="XMLID_15_" class="st0" d="M155.4,159.8c0,0,4.6,2.8,6.4,3.3s11.3,0.1,13.1,0c1.7-0.1,10.9,11.7,11.9,11.7"/>
		<path id="XMLID_16_" class="st0" d="M158.4,168.5c0,0,8.4,3.9,15.7,0"/>
		<path id="XMLID_17_" class="st0" d="M161.8,176.4c0,0,8.7,3,15.6-1.6"/>
		<path id="XMLID_18_" class="st0" d="M168.9,184.1c0,0,8,1,12.3-4.9"/>
	</g>
	<g id="XMLID_19_">
		<path id="XMLID_21_" class="st0" d="M273.2,159.8c0,0-4.6,2.8-6.4,3.3s-11.3,0.1-13.1,0c-1.7-0.1-10.9,11.7-11.9,11.7"/>
		<path id="XMLID_20_" class="st0" d="M270.2,168.5c0,0-8.4,3.9-15.7,0"/>
		<path id="XMLID_22_" class="st0" d="M266.8,176.4c0,0-8.7,3-15.6-1.6"/>
		<path id="XMLID_23_" class="st0" d="M259.7,184.1c0,0-8,1-12.3-4.9"/>
	</g>
	<path id="XMLID_24_" class="st0" d="M198.2,149.2c0,0-28.4,10.8,4.8,21.6"/>
	<path id="XMLID_25_" class="st0" d="M229.9,149.2c0,0,28.4,10.8-4.8,21.6"/>
	<path id="XMLID_26_" class="st0" d="M231.2,162.6c0,0-6.4-5.1-16.4-2.6h-0.7c-10-2.5-16.4,2.6-16.4,2.6"/>
	<path id="XMLID_27_" class="st0" d="M193.8,225.5c0,0-3.7,1.4-2.9,4.7c0.2,1.6,3.1,3.9,4.7,3.7c1.2-0.2,5.3-0.4,5.3-5
		c0-4.9,0.2-7.6-1.5-10.5c-1-1.5-13.4-20.5-13.9-26.8c0,0-0.9-4.3,0-7.6c0,0,1.5-9.6,8.8-16.5"/>
	<path id="XMLID_28_" class="st0" d="M234.8,225.5c0,0,3.7,1.4,2.9,4.7c-0.2,1.6-3.1,3.9-4.7,3.7c-1.2-0.2-5.3-0.4-5.3-5
		c0-4.9-0.2-7.6,1.5-10.5c1-1.5,13.4-20.5,13.9-26.8c0,0,0.9-4.3,0-7.6c0,0-1.5-9.6-8.8-16.5"/>
	<path id="XMLID_29_" class="st0" d="M238,188.1c0,0-10,6.4-23.6-17.1c-13.7,23.5-23.6,17.1-23.6,17.1"/>
	<polygon id="XMLID_30_" class="st0" points="209.6,217.6 209.6,225.1 219.7,225.1 219.7,217.6 214.6,217.6 	"/>
	<path id="XMLID_31_" class="st0" d="M197.5,193.2c0,0-2,25.2,16.8,24.4"/>
	<path id="XMLID_32_" class="st0" d="M231.1,193.2c0,0,2,25.2-16.8,24.4"/>
	<path id="XMLID_33_" class="st0" d="M220.1,202.3c-2.7-6-5.3,0-5.3,0c-2.7-6-5.3,0-5.3,0"/>
	<path id="XMLID_34_" class="st0" d="M212.3,205.4c0,0,2.5,4.5,5,0"/>
</g>
<circle id="XMLID_35_" class="st1" cx="215" cy="194" r="88.2"/>
<g id="XMLID_37_">
	<g id="XMLID_65_">
		<path id="XMLID_67_" class="st0" d="M436,153.4c0,0,3.2-27.4,10.7-25.9c3.4,0.6,16.1,4.2,16.1,4.2l15,7.2l10.5-7.4
			c0,0,4.1-0.9,3.3,3.3c-1.1,1.1-14.6,15.3-14.9,15.3s-7.7-6.4-7.7-6.4s-11.3-1.1-15.4-0.9c0,0-5.1-3.5-5.3-3.9"/>
		<line id="XMLID_66_" class="st0" x1="453.3" y1="153.4" x2="453.3" y2="142.8"/>
	</g>
	<g id="XMLID_62_">
		<path id="XMLID_64_" class="st0" d="M423.5,219.6c0,0-24,13.5-27.2,6.6c-1.4-2.9-5.5-13.8-6-15.3c0-0.1-0.1-0.2-0.1-0.4l-2.8-15.1
			c-0.1-0.7-0.6-1.2-1.3-1.4l-11.1-3.7c0,0-3.1-2.7,0.7-4.7c1.6,0.2,20.9,2.8,21.1,3c0.2,0.2-0.4,6.6-0.6,9.1
			c-0.1,0.6,0.1,1.2,0.4,1.7c1.3,2.2,5.2,8.6,7.4,11.6c0.3,0.4,0.5,0.9,0.5,1.4c0,1.7,0.1,5.4-0.1,5.7"/>
		<line id="XMLID_63_" class="st0" x1="413.3" y1="205.6" x2="404.7" y2="211.8"/>
	</g>
	<g id="XMLID_59_">
		<path id="XMLID_61_" class="st0" d="M477.1,201.3c0,0,24.6,12.4,20.7,18.9c-1.6,2.8-8.4,12.3-9.3,13.6c-0.1,0.1-0.1,0.2-0.2,0.3
			l-11.1,10.8c-0.4,0.4-0.6,1-0.4,1.6l3.2,11.5c0,0-0.8,3.9-4.3,2c-0.7-1.4-9.4-18.9-9.3-19.2c0-0.2,4.2-2.5,6.7-3.9
			c1.3-0.7,2.3-1.8,2.9-3.1c1.4-3,3.9-8.5,5-11.6c0.1-0.4,0.4-0.7,0.7-1c1.3-0.9,4.6-3.2,4.9-3.3"/>
		<line id="XMLID_60_" class="st0" x1="471.1" y1="217.6" x2="481.1" y2="221.2"/>
	</g>
	<g id="XMLID_54_">
		<path id="XMLID_58_" class="st0" d="M386.1,159.8c0,0,4.6,2.8,6.4,3.3s11.3,0.1,13.1,0s10.9,11.7,11.9,11.7"/>
		<path id="XMLID_57_" class="st0" d="M389,168.5c0,0,8.4,3.9,15.7,0"/>
		<path id="XMLID_56_" class="st0" d="M392.5,176.4c0,0,8.7,3,15.6-1.6"/>
		<path id="XMLID_55_" class="st0" d="M399.6,184.1c0,0,8,1,12.3-4.9"/>
	</g>
	<g id="XMLID_49_">
		<path id="XMLID_53_" class="st0" d="M503.9,159.8c0,0-4.6,2.8-6.4,3.3s-11.3,0.1-13.1,0c-1.7-0.1-10.9,11.7-11.9,11.7"/>
		<path id="XMLID_52_" class="st0" d="M500.9,168.5c0,0-8.4,3.9-15.7,0"/>
		<path id="XMLID_51_" class="st0" d="M497.4,176.4c0,0-8.7,3-15.6-1.6"/>
		<path id="XMLID_50_" class="st0" d="M490.4,184.1c0,0-8,1-12.3-4.9"/>
	</g>
	<path id="XMLID_48_" class="st0" d="M428.9,149.2c0,0-28.4,10.8,4.8,21.6"/>
	<path id="XMLID_47_" class="st0" d="M460.5,149.2c0,0,28.4,10.8-4.8,21.6"/>
	<path id="XMLID_46_" class="st0" d="M461.9,162.6c0,0-6.4-5.1-16.4-2.6h-0.7c-10-2.5-16.4,2.6-16.4,2.6"/>
	<path id="XMLID_45_" class="st0" d="M424.5,225.5c0,0-3.7,1.4-2.9,4.7c0.2,1.6,3.1,3.9,4.7,3.7c1.2-0.2,5.3-0.4,5.3-5
		c0-4.9,0.2-7.6-1.5-10.5c-1-1.5-13.4-20.5-13.9-26.8c0,0-0.9-4.3,0-7.6c0,0,1.5-9.6,8.8-16.5"/>
	<path id="XMLID_44_" class="st0" d="M465.5,225.5c0,0,3.7,1.4,2.9,4.7c-0.2,1.6-3.1,3.9-4.7,3.7c-1.2-0.2-5.3-0.4-5.3-5
		c0-4.9-0.2-7.6,1.5-10.5c1-1.5,13.4-20.5,13.9-26.8c0,0,0.9-4.3,0-7.6c0,0-1.5-9.6-8.8-16.5"/>
	<path id="XMLID_43_" class="st0" d="M468.7,188.1c0,0-10,6.4-23.6-17.1c-13.7,23.5-23.6,17.1-23.6,17.1"/>
	<polygon id="XMLID_42_" class="st0" points="440.2,217.6 440.2,225.1 450.4,225.1 450.4,217.6 445.3,217.6 	"/>
	<path id="XMLID_41_" class="st0" d="M428.2,193.2c0,0-2,25.2,16.8,24.4"/>
	<path id="XMLID_40_" class="st0" d="M461.8,193.2c0,0,2,25.2-16.8,24.4"/>
	<path id="XMLID_39_" class="st0" d="M450.8,202.3c-2.7-6-5.3,0-5.3,0c-2.7-6-5.3,0-5.3,0"/>
	<path id="XMLID_38_" class="st0" d="M443,205.4c0,0,2.5,4.5,5,0"/>
</g>
<circle id="XMLID_68_" class="st1" cx="445.7" cy="194" r="88.2"/>
<g id="XMLID_69_">
	<g id="XMLID_140_">
		<path id="XMLID_141_" class="st1" d="M439.7,84.4h-84.6c-5.2,0-9.5-4.2-9.5-9.5c0-5.2,4.2-9.5,9.5-9.5h84.6
			c9.8,0,17.8-8,17.8-17.8c0-9.8-8-17.8-17.8-17.8h-42.3c-5.2,0-9.5-4.2-9.5-9.5s4.2-9.5,9.5-9.5h42.3c20.2,0,36.7,16.5,36.7,36.7
			C476.4,67.9,460,84.4,439.7,84.4z"/>
	</g>
	<g id="XMLID_142_">
		<path id="XMLID_143_" class="st1" d="M331,142.1c-2.9,0-5.8-1.3-7.6-3.8L266,60.5h-71.2c-5.2,0-9.5-4.2-9.5-9.5s4.2-9.5,9.5-9.5
			h76c3,0,5.8,1.4,7.6,3.8l60.3,81.6c3.1,4.2,2.2,10.1-2,13.3C335,141.5,333,142.1,331,142.1z"/>
	</g>
</g>
<g>
	<path class="st2" d="M11.9,369.4l5.1-2.7c1,3.2,2.6,5.7,4.9,7.5c2.3,1.8,5.1,2.7,8.4,2.7c4.1,0,7.4-1.2,9.7-3.7
		c2.3-2.4,3.5-5.8,3.5-10.1c0-3.1-0.8-5.8-2.3-7.8c-1.6-2.1-4.9-4.5-10.1-7.2c-6.6-3.5-10.9-6.5-13.1-9.2c-2.2-2.6-3.3-5.8-3.3-9.5
		c0-4.6,1.6-8.4,4.7-11.3c3.1-2.9,7.2-4.4,12.2-4.4c3.3,0,6.1,0.7,8.5,2.1c2.4,1.4,4.4,3.5,5.9,6.2l-4.6,2.8c-1-1.9-2.3-3.3-4-4.3
		c-1.7-1-3.8-1.5-6.2-1.5c-3.2,0-5.8,0.9-7.7,2.8c-1.9,1.9-2.9,4.4-2.9,7.6c0,4.6,3.8,8.8,11.3,12.8c1.4,0.7,2.4,1.3,3.1,1.6
		c5.6,3.1,9.3,6,11.1,8.7c1.9,2.7,2.8,6.2,2.8,10.6c0,5.9-1.7,10.5-5.1,13.9c-3.4,3.4-8.1,5.1-14,5.1c-4.3,0-7.9-1.1-11-3.2
		C16,376.8,13.6,373.6,11.9,369.4z"/>
	<path class="st2" d="M60.5,325.4c0-1.2,0.4-2.1,1.2-3c0.8-0.8,1.8-1.2,3-1.2c1.2,0,2.2,0.4,3,1.2c0.8,0.8,1.3,1.8,1.3,3
		c0,1.2-0.4,2.2-1.2,3c-0.8,0.8-1.8,1.2-3.1,1.2c-1.2,0-2.2-0.4-3-1.2C60.9,327.6,60.5,326.6,60.5,325.4z M61.9,380.4v-39.5h5.7
		v39.5H61.9z"/>
	<path class="st2" d="M113.3,348.1c-1.8-1.3-3.8-2.2-5.9-2.9c-2.1-0.6-4.2-1-6.4-1c-4.9,0-8.8,1.6-11.7,4.7
		c-2.9,3.1-4.4,7.3-4.4,12.5c0,4.6,1.5,8.5,4.5,11.5c3,3,6.9,4.5,11.6,4.5c2.1,0,4.3-0.4,6.5-1.1c2.2-0.7,4.3-1.9,6.4-3.3v6
		c-1.9,1.1-4.1,1.9-6.4,2.5c-2.3,0.5-4.9,0.8-7.5,0.8c-6,0-11-2-14.8-6c-3.9-4-5.8-9-5.8-15.2c0-6.4,2-11.7,6-15.7c4-4,9.3-6,15.7-6
		c2.4,0,4.6,0.2,6.7,0.7c2.1,0.5,4,1.1,5.6,2L113.3,348.1z"/>
	<path class="st2" d="M123.1,325.4c0-1.2,0.4-2.1,1.2-3c0.8-0.8,1.8-1.2,3-1.2c1.2,0,2.2,0.4,3,1.2c0.8,0.8,1.3,1.8,1.3,3
		c0,1.2-0.4,2.2-1.2,3c-0.8,0.8-1.8,1.2-3.1,1.2c-1.2,0-2.2-0.4-3-1.2C123.5,327.6,123.1,326.6,123.1,325.4z M124.5,380.4v-39.5h5.7
		v39.5H124.5z"/>
	<path class="st2" d="M151.2,380.4h-5.7v-69.1h5.7V380.4z"/>
	<path class="st2" d="M165.1,325.4c0-1.2,0.4-2.1,1.2-3c0.8-0.8,1.8-1.2,3-1.2c1.2,0,2.2,0.4,3,1.2c0.8,0.8,1.3,1.8,1.3,3
		c0,1.2-0.4,2.2-1.2,3c-0.8,0.8-1.8,1.2-3.1,1.2c-1.2,0-2.2-0.4-3-1.2C165.5,327.6,165.1,326.6,165.1,325.4z M166.5,380.4v-39.5h5.7
		v39.5H166.5z"/>
	<path class="st2" d="M216.3,380.4v-7.2c-1.3,2.9-3.1,5.1-5.5,6.7c-2.4,1.5-5.1,2.3-8.4,2.3c-5.7,0-10.2-1.9-13.7-5.8
		c-3.5-3.9-5.2-9-5.2-15.4c0-6.3,1.7-11.5,5.1-15.5c3.4-4,7.8-6,13.2-6c3.4,0,6.3,0.7,8.7,2.2c2.5,1.5,4.3,3.6,5.7,6.5v-7.2h5.5
		v39.5H216.3z M189.7,361c0,5.1,1.2,9,3.5,11.8c2.3,2.8,5.6,4.1,9.9,4.1c4.2,0,7.4-1.5,9.8-4.5c2.4-3,3.6-7.2,3.6-12.5
		c0-4.8-1.2-8.7-3.6-11.4c-2.4-2.8-5.6-4.2-9.8-4.2c-4.1,0-7.4,1.5-9.8,4.4C190.9,351.8,189.7,355.9,189.7,361z"/>
	<path class="st2" d="M236.5,380.4v-39.5h5.2v6.1c1.6-2.5,3.6-4.4,5.9-5.7c2.3-1.3,5-1.9,8-1.9c4.5,0,8,1.2,10.5,3.7
		c2.5,2.5,3.7,6,3.7,10.4v26.8h-5.6V356c0-4-0.8-6.9-2.5-8.8c-1.6-1.9-4.2-2.9-7.6-2.9c-4.2,0-7.3,1.2-9.2,3.7c-2,2.5-3,6.4-3,11.7
		v20.6H236.5z"/>
	<path class="st2" d="M311.2,380.4v-65.3h11.3c5,0,8.5,0.2,10.7,0.7c2.2,0.5,4.1,1.3,5.6,2.5c2.2,1.6,3.8,3.6,4.9,6s1.7,5,1.7,7.8
		c0,3.5-0.9,6.4-2.7,8.9c-1.8,2.4-4.3,4-7.5,4.8c4.2,0.6,7.5,2.3,9.9,5c2.4,2.7,3.6,6.2,3.6,10.4c0,3.1-0.5,5.8-1.4,8.2
		c-0.9,2.4-2.3,4.4-4.2,6.2c-1.9,1.8-4.2,3-6.9,3.8c-2.7,0.7-7.2,1.1-13.7,1.1H311.2z M317.1,344.2h7.4c5.4,0,9.3-0.9,11.5-2.7
		c2.2-1.8,3.4-4.8,3.4-8.9c0-4.5-1.1-7.7-3.3-9.5c-2.2-1.8-6.1-2.8-11.6-2.8h-7.4V344.2z M317.1,375.3h7.6c4.3,0,7.3-0.2,8.9-0.5
		c1.6-0.4,3-1,4.1-1.8c1.4-1.1,2.5-2.5,3.3-4.4c0.8-1.9,1.2-3.9,1.2-6c0-2.6-0.5-4.9-1.4-6.9c-0.9-2-2.2-3.5-3.8-4.4
		c-1.1-0.7-2.5-1.1-4-1.4c-1.5-0.3-3.9-0.4-7.2-0.4h-1.3h-7.6V375.3z"/>
	<path class="st2" d="M359.9,325.4c0-1.2,0.4-2.1,1.2-3c0.8-0.8,1.8-1.2,3-1.2c1.2,0,2.2,0.4,3,1.2c0.8,0.8,1.3,1.8,1.3,3
		c0,1.2-0.4,2.2-1.2,3c-0.8,0.8-1.8,1.2-3.1,1.2c-1.2,0-2.2-0.4-3-1.2C360.3,327.6,359.9,326.6,359.9,325.4z M361.3,380.4v-39.5h5.7
		v39.5H361.3z"/>
	<path class="st2" d="M381.9,380.4v-69.1h5.5v47.1l19.7-17.5h7.6l-21.2,17.7l22.7,21.8h-7.6l-21.3-20.5v20.5H381.9z"/>
	<path class="st2" d="M457.7,360.8h-31.4c0.1,5.1,1.4,9.1,3.8,12c2.4,2.9,5.6,4.4,9.7,4.4c2.9,0,5.5-0.8,7.7-2.4
		c2.2-1.6,4-4,5.5-7.1l5,2.8c-2,4-4.5,7-7.4,8.8c-2.9,1.9-6.5,2.8-10.8,2.8c-5.8,0-10.5-1.9-14.1-5.8c-3.6-3.9-5.4-9-5.4-15.3
		c0-6.5,1.8-11.7,5.3-15.7c3.6-4,8.2-6,13.9-6c5.5,0,9.9,1.8,13.1,5.5c3.3,3.7,4.9,8.6,4.9,14.7V360.8z M451.2,356.1
		c-0.3-3.6-1.5-6.4-3.6-8.4c-2.1-2-5-3-8.7-3c-3.3,0-6.1,1-8.4,3.1c-2.2,2.1-3.5,4.8-3.9,8.3H451.2z"/>
	<path class="st2" d="M507.8,380.4v-59.7h-18v-5.6h41.9v5.6h-18v59.7H507.8z"/>
	<path class="st2" d="M547.9,382.1c-2.8,0-5.5-0.6-8.1-1.7c-2.6-1.1-4.9-2.7-7-4.8c-2-2-3.5-4.2-4.5-6.8c-1-2.6-1.6-5.3-1.6-8.2
		c0-2.9,0.5-5.6,1.6-8.2c1.1-2.6,2.6-4.9,4.6-6.9c2-2,4.3-3.6,6.9-4.6c2.6-1.1,5.3-1.6,8.2-1.6c2.9,0,5.7,0.5,8.3,1.6
		c2.6,1.1,5,2.6,7,4.6c2.1,2,3.6,4.3,4.7,6.9c1.1,2.6,1.6,5.3,1.6,8.2s-0.5,5.6-1.6,8.1c-1.1,2.6-2.6,4.9-4.6,6.8
		c-2.1,2.1-4.5,3.7-7.1,4.8C553.5,381.6,550.8,382.1,547.9,382.1z M548.1,377c4.3,0,8-1.6,11-4.7c3-3.1,4.5-7,4.5-11.5
		c0-4.6-1.5-8.5-4.5-11.6c-3-3.1-6.7-4.7-11.1-4.7c-4.3,0-8,1.6-11,4.7c-3,3.1-4.5,7-4.5,11.6c0,4.5,1.5,8.4,4.5,11.5
		C540.1,375.4,543.7,377,548.1,377z"/>
	<path class="st2" d="M586.4,340.9v19.7c0,6,0.9,10.2,2.6,12.7c1.7,2.5,4.6,3.7,8.7,3.7c4,0,6.9-1.2,8.7-3.7
		c1.8-2.5,2.6-6.7,2.6-12.7v-19.7h5.4v22.6c0,6.2-1.4,10.8-4.2,14c-2.8,3.2-7,4.7-12.4,4.7c-5.5,0-9.7-1.6-12.5-4.7
		c-2.9-3.2-4.3-7.8-4.3-14v-22.6H586.4z"/>
	<path class="st2" d="M634.5,348.8c2-3.4,4-5.8,6-7.3c1.9-1.4,4.2-2.1,6.8-2.1c0.8,0,1.6,0.1,2.3,0.2c0.8,0.1,1.6,0.4,2.3,0.6
		l-1.8,5.2c-0.6-0.2-1.2-0.3-1.8-0.4c-0.6-0.1-1.3-0.2-1.8-0.2c-3.3,0-6.1,1.5-8.4,4.6s-3.5,6.9-3.5,11.5v19.4H629v-39.5h5.5V348.8z
		"/>
</g>
</svg>
