<?xml version="1.0" encoding="utf-8"?>
<!-- Generator: Adobe Illustrator 24.0.1, SVG Export Plug-In . SVG Version: 6.00 Build 0)  -->
<svg version="1.1" id="Livello_1" xmlns="http://www.w3.org/2000/svg" xmlns:xlink="http://www.w3.org/1999/xlink" x="0px" y="0px"
	 viewBox="0 0 420 127" style="enable-background:new 0 0 420 127;" xml:space="preserve">
<style type="text/css">
	.st0{fill:#FFFFFF;}
</style>
<g id="XMLID_12_">
	<path id="XMLID_13_" class="st0" d="M67.5,5.8L45,87.9L26.4,13H5l26.5,98.4h22.8L89.6,1.5L67.5,5.8z"/>
</g>
<g>
	<path class="st0" d="M88.7,13.5h18l4.8,8.5c-0.1,0-0.1,0-0.1,0.1l-0.2-0.1H99.4v7.1h7.7c0.1,0,0.2,0.1,0.2,0.2v8.2
		c0,0.1-0.1,0.2-0.2,0.2h-7.9v7.7h12.8l0,8.8H88.7c-0.1,0-0.2-0.1-0.2-0.2V13.7C88.5,13.6,88.6,13.5,88.7,13.5z"/>
	<path class="st0" d="M118.2,13.4c1.7,0,4.9,0.5,9.9,1.5c2,0.2,3.7,0.4,5.1,0.4h0.9c2.8,0,6.6-0.5,11.2-1.5c1.5-0.2,2.8-0.4,3.8-0.4
		h0.1c0.3,0,0.7,0.6,1.3,1.9c1.3,3.3,1.9,5,1.9,5.2c-1.2-0.1-2-0.1-2.5-0.1c-2,0-4.9,0.4-8.7,1.2c-1.4,0.3-2.3,0.5-2.6,0.5
		c0,0,0,0.1,0.1,0.1c0,0.8-0.1,1.4-0.1,1.8V54c0,0.1,0,0.1-0.1,0.1h-9.4c-0.1,0-0.1,0-0.1-0.1l-0.1-32c-0.7,0-3.1-0.5-7.3-1.4
		c-1.2-0.2-2.6-0.3-4.1-0.3c-0.4,0-1.2,0-2.3,0.1c0,0,0-0.1-0.1-0.1c1.9-4.6,2.9-6.9,2.9-6.9L118.2,13.4z"/>
	<path class="st0" d="M154.3,13.5h18l4.8,8.5c-0.1,0-0.1,0-0.1,0.1l-0.2-0.1H165v7.1h7.7c0.1,0,0.2,0.1,0.2,0.2v8.2
		c0,0.1-0.1,0.2-0.2,0.2h-7.9v7.7h12.8l0,8.8h-23.4c-0.1,0-0.2-0.1-0.2-0.2V13.7C154.1,13.6,154.2,13.5,154.3,13.5z"/>
	<path class="st0" d="M188.8,13.4h3.6c13,0,21.5,3.9,25.4,11.7c0.6,2,1,4,1.1,5.9c0,6.4-2.8,10.5-8.3,12.3h-0.2
		c1.5,1.1,4.7,4,9.7,8.7c4.6,3.3,8.8,5.4,12.7,6.3v0.4c-5.8,1-10.6,1.7-14.4,2.1c-1.8,0-7.2-4.2-16.1-12.7l-9.1-8
		c8.3-1,12.8-2.5,13.6-4.5c1-1,1.5-2.2,1.5-3.8c0-5.4-5.8-8.7-17.4-9.7v32.1h-10.3l0.1-40.2l0.2-0.4
		C184.2,13.5,186.8,13.4,188.8,13.4z"/>
	<path class="st0" d="M223.6,13h9.7c0.1,0,0.2,0.1,0.2,0.2V54c0,0.1-0.1,0.2-0.2,0.2h-9.7c-0.1,0-0.2-0.1-0.2-0.2V13.2
		C223.5,13.1,223.5,13,223.6,13z"/>
	<path class="st0" d="M275.4,13.4v41.9l-27.4-19.3v18.3l-10.3-0.1V16h0.2l27.3,16.8V16.2L275.4,13.4z"/>
	<path class="st0" d="M293.4,13.2c6.9,0,11.5,2.3,13.6,6.8c0.6,1.2,1,3.1,1,5.7V54c0,0.1,0,0.1-0.1,0.1h-10.2c-0.1,0-0.1,0-0.1-0.1
		V42.4c-1.7-0.6-3.8-0.9-6.3-0.9c-0.3,0.1-1,0.2-1.9,0.3v12.3c0,0.1,0,0.1-0.1,0.1h-10.4c-0.1,0-0.1,0-0.1-0.1V24.7
		c0-5,2.6-8.5,7.8-10.4C288.7,13.6,291,13.2,293.4,13.2z M289.4,26.2V35c1.7-0.8,3.1-1.1,4.1-1.1c1.1,0.1,2.6,0.2,4.4,0.4v-8.5
		c0-1.1-0.5-2-1.6-2.7c-1-0.3-1.9-0.4-2.8-0.4C290.7,22.7,289.4,23.9,289.4,26.2z"/>
	<path class="st0" d="M319.1,13.4h3.6c13,0,21.5,3.9,25.4,11.7c0.6,2,1,4,1.1,5.9c0,6.4-2.8,10.5-8.3,12.3h-0.2
		c1.5,1.1,4.7,4,9.7,8.7c4.6,3.3,8.8,5.4,12.7,6.3v0.4c-5.8,1-10.6,1.7-14.4,2.1c-1.8,0-7.2-4.2-16.1-12.7l-9.1-8
		c8.3-1,12.8-2.5,13.6-4.5c1-1,1.5-2.2,1.5-3.8c0-5.4-5.8-8.7-17.4-9.7v32.1h-10.3l0.1-40.2l0.2-0.4
		C314.4,13.5,317.1,13.4,319.1,13.4z"/>
	<path class="st0" d="M353.9,13h9.7c0.1,0,0.2,0.1,0.2,0.2V54c0,0.1-0.1,0.2-0.2,0.2h-9.7c-0.1,0-0.2-0.1-0.2-0.2V13.2
		C353.7,13.1,353.8,13,353.9,13z"/>
	<path class="st0" d="M389.6,13.4h1.4c6.7,0,12.5,2.6,17.5,7.8c3.2,3.8,4.8,8.1,4.8,12.9c0,5.5-2.4,10.4-7.3,14.7
		c-4.5,3.6-9.7,5.4-15.8,5.4c-5.5,0-10.5-1.8-15.1-5.3c-2.6-2.3-4.2-4.1-4.8-5.5c-1.8-3-2.7-6.1-2.7-9.3v-0.4
		c0-5.4,2.2-10.2,6.7-14.3c3.4-2.9,7-4.7,10.9-5.5C387,13.5,388.4,13.4,389.6,13.4z M378.4,33.4v0.9c0,3,1.6,5.8,4.8,8.3
		c2.4,1.5,4.8,2.2,7.3,2.2h0.6c4.1,0,7.6-1.8,10.4-5.5c1-1.8,1.6-3.7,1.6-5.5c0-4.1-2.2-7.4-6.6-9.8c-1.9-0.8-3.8-1.3-5.8-1.3
		c-4.6,0-8.2,1.9-10.9,5.8C378.9,30.2,378.4,31.9,378.4,33.4z"/>
	<path class="st0" d="M89.5,111.6c-4.7,0-8.2-1.2-10.5-3.7c-2.4-2.5-3.5-6.1-3.5-10.8c0-2.9,0.4-5.4,1.2-7.4
		c0.8-2.1,1.9-3.7,3.3-4.8c2.7-2.2,5.9-3.3,9.5-3.3c3.6,0,6.4,0.9,8.3,2.8c1.9,1.8,2.9,5.2,2.9,9.9c0,2.8-1.4,4.2-4.1,4.2H83.9
		c0.2,2.4,0.8,4.2,1.9,5.2c1.1,1,2.9,1.5,5.3,1.5c1.3,0,2.6-0.2,3.8-0.5c1.2-0.3,2.1-0.6,2.6-0.9l0.8-0.5l1.7,4.7
		c-0.2,0.3-0.6,0.6-1,1c-0.4,0.4-1.6,1-3.4,1.6C93.9,111.2,91.8,111.6,89.5,111.6z M93.2,93.2c0.1-0.5,0.1-1.2,0.1-2
		c0-0.8-0.3-1.6-0.9-2.5c-0.6-0.9-1.7-1.3-3.2-1.3c-1.5,0-2.7,0.5-3.5,1.4c-0.8,0.9-1.4,2.5-1.6,4.7L93.2,93.2z"/>
	<path class="st0" d="M104.3,82c2.1-0.5,4.1-0.7,5.8-0.7c1.7,0,3.1,0,4.3,0.1v2.9c1-0.8,2.3-1.5,3.9-2c1.6-0.5,3.2-0.8,4.6-0.8
		c3.8,0,6.5,0.9,8,2.7c1.5,1.8,2.3,4.9,2.3,9.3v11.2c1.5,0.6,2.6,1.2,3.2,2l-0.6,4.5h-13.4l-0.6-4.5c0.5-0.7,1.6-1.4,3.2-2V93.1
		c0-2.1-0.3-3.5-1-4.2c-0.7-0.7-1.9-1.1-3.6-1.1s-3.5,0.6-5.2,1.9v15c1.5,0.6,2.6,1.2,3.2,2l-0.6,4.5h-13.4l-0.6-4.5
		c0.5-0.7,1.6-1.4,3.2-2V88.4c-1.4-0.5-2.4-1.1-3.2-2L104.3,82z"/>
	<path class="st0" d="M149,74.6V82h8.3v4.9H149v14.8c0,1.2,0.2,2.1,0.5,2.7c0.3,0.6,1.2,0.8,2.5,0.8c1.3,0,2.7-0.3,4.3-0.9l1.7,4.5
		c-3,1.5-6.1,2.3-9.2,2.3c-3.1,0-5.2-0.7-6.4-2c-1.1-1.3-1.7-3.3-1.7-5.9V86.9h-2.6l-0.6-3.6c0.6-0.7,1.9-1.5,3.8-2.2
		c0.5-3.2,1.6-5.3,3.3-6.5H149z"/>
	<path class="st0" d="M160.8,82c2.2-0.5,4.2-0.8,6.1-0.8s3.4,0.1,4.7,0.2v23.3c1.5,0.6,2.6,1.2,3.2,2l-0.6,4.5h-13.4l-0.6-4.5
		c0.5-0.7,1.6-1.4,3.2-2V88.4c-1.4-0.5-2.4-1.1-3.2-2L160.8,82z M167.4,77.9c-3.2,0-4.9-1.5-4.9-4.4c0-2.9,1.6-4.4,4.9-4.4
		c3.2,0,4.9,1.5,4.9,4.4C172.3,76.5,170.7,77.9,167.4,77.9z"/>
	<path class="st0" d="M177.7,82c2.1-0.5,4.1-0.7,5.8-0.7c1.7,0,3.1,0,4.3,0.1v2.9c0.9-0.8,2.1-1.4,3.5-2s2.7-0.8,3.8-0.8
		c4.4,0,7.4,1.1,8.9,3.3c1-0.9,2.3-1.7,3.8-2.4c1.6-0.6,3.1-1,4.4-1c4.3,0,7.2,1,8.6,2.9c1.5,1.9,2.2,5.5,2.2,10.8v9.4
		c1.5,0.6,2.6,1.2,3.2,2l-0.6,4.5h-13.4l-0.6-4.5c0.5-0.7,1.6-1.4,3.2-2V93.1c0-2.1-0.3-3.6-0.9-4.3c-0.6-0.7-1.7-1-3.5-1
		c-1.7,0-3.4,0.6-4.9,1.9c0.2,1.3,0.3,3.1,0.3,5.5v9.4c1.5,0.6,2.6,1.2,3.2,2l-0.6,4.5h-13.4l-0.6-4.5c0.5-0.7,1.6-1.4,3.2-2V93.1
		c0-2.1-0.3-3.6-0.9-4.3c-0.6-0.7-1.7-1-3.4-1c-1.7,0-3.3,0.6-4.9,1.9v15c1.5,0.6,2.6,1.2,3.2,2l-0.6,4.5h-13.4l-0.6-4.5
		c0.5-0.7,1.6-1.4,3.2-2V88.4c-1.4-0.5-2.4-1.1-3.2-2L177.7,82z"/>
	<path class="st0" d="M228.9,82c2.2-0.5,4.2-0.8,6.1-0.8c1.9,0,3.4,0.1,4.7,0.2v23.3c1.5,0.6,2.6,1.2,3.2,2l-0.6,4.5h-13.4l-0.6-4.5
		c0.5-0.7,1.6-1.4,3.2-2V88.4c-1.4-0.5-2.4-1.1-3.2-2L228.9,82z M235.5,77.9c-3.2,0-4.9-1.5-4.9-4.4c0-2.9,1.6-4.4,4.9-4.4
		c3.2,0,4.9,1.5,4.9,4.4C240.4,76.5,238.8,77.9,235.5,77.9z"/>
	<path class="st0" d="M258.6,117.3c3.5,0,5.2-2.1,5.2-6.2v-2.6c-1.9,1.2-4.3,1.7-7.2,1.7c-3.7,0-6.5-1.1-8.4-3.2
		c-2-2.1-2.9-5.7-2.9-10.7c0-9.9,4.5-14.9,13.6-14.9c2.3,0,4.5,0.5,6.5,1.5c0.4-0.7,1-1,1.7-1h4.8v28.7c0,4.3-1.1,7.4-3.2,9.5
		c-2.1,2.1-5.4,3.1-9.8,3.1c-2.3,0-4.7-0.3-7.2-0.8c-2.5-0.5-4.4-1.2-5.7-2c0-0.3-0.1-0.7-0.1-1c0-2.1,0.5-4.2,1.5-6.2h5.1
		c0.4,0.8,0.7,1.9,0.9,3.3C255.1,117,256.8,117.3,258.6,117.3z M254.5,102.1c0.8,1.2,2.2,1.7,4.1,1.7c1.9,0,3.7-0.5,5.2-1.6V88.4
		c-1.6-0.7-3.2-1-5.1-1c-3.6,0-5.4,2.9-5.4,8.6C253.3,98.9,253.7,101,254.5,102.1z"/>
	<path class="st0" d="M276.3,69.7c2.2-0.5,4.2-0.8,6.1-0.8c1.9,0,3.4,0.1,4.7,0.2v35.5c1.5,0.6,2.6,1.2,3.2,2l-0.6,4.5h-13.4
		l-0.6-4.5c0.5-0.7,1.6-1.4,3.2-2V76.2c-1.4-0.5-2.4-1.1-3.2-2L276.3,69.7z"/>
	<path class="st0" d="M293.4,82c2.2-0.5,4.2-0.8,6.1-0.8c1.9,0,3.4,0.1,4.7,0.2v23.3c1.5,0.6,2.6,1.2,3.2,2l-0.6,4.5h-13.4l-0.6-4.5
		c0.5-0.7,1.6-1.4,3.2-2V88.4c-1.4-0.5-2.4-1.1-3.2-2L293.4,82z M300,77.9c-3.2,0-4.9-1.5-4.9-4.4c0-2.9,1.6-4.4,4.9-4.4
		c3.2,0,4.9,1.5,4.9,4.4C304.9,76.5,303.2,77.9,300,77.9z"/>
	<path class="st0" d="M310.9,86.3c0-0.6,0-1.2,0.1-1.9c3.6-1.9,7.5-2.9,11.7-2.9c4.2,0,7.1,0.8,9,2.4s2.7,4.2,2.7,7.8v12.4
		c1.4,0.3,2.4,0.6,3.2,1v5.1c-2,0.9-4.8,1.4-8.5,1.4c-0.4-1-0.7-2.2-1-3.7c-1.7,2.4-4.7,3.7-9.1,3.7c-2.6,0-4.8-0.8-6.7-2.3
		c-1.8-1.5-2.8-3.6-2.8-6.2c0-2.6,0.9-4.7,2.6-6.2c1.7-1.5,4.3-2.2,7.7-2.2h6.4v-2.8c0-3-1.6-4.5-4.8-4.5c-1.2,0-2.2,0.1-3,0.3
		c-0.1,1.6-0.3,2.9-0.7,3.8h-5.7C311.2,90.2,310.9,88.4,310.9,86.3z M321.4,105.6c2,0,3.6-0.6,4.7-1.8v-4.8H322
		c-2.8,0-4.2,1.1-4.2,3.2c0,1,0.3,1.8,0.9,2.4C319.3,105.3,320.2,105.6,321.4,105.6z"/>
</g>
<g id="XMLID_2_">
	<path id="XMLID_3_" class="st0" d="M389.3,62.8c-5.1,0-9.5,2.5-12.2,6.4c0,0-0.9,1.4-2.3,1.4c-1.4,0-2.3-1.4-2.3-1.4
		c-2.7-3.9-7.1-6.4-12.2-6.4c-8.2,0-14.8,6.6-14.8,14.8c0,1.9,0.4,3.8,1,5.5c1.7,5.4,6,11.2,10.8,16.2c0.7-1.9,1.1-4-0.1-4.8
		c-2.5-1.8-1.7-5.5-1.2-7.1c0.5-1.5,0-2.5,0-2.5c-1.6,4.9-3.6,4.3-3.6,4.3s0-3.7-0.7-5c-0.8-1.4-1.8-2.7-1.1-4.3
		c0.7-1.6,3.7-0.8,4.7-1.5c1-0.7,2-0.2,2-0.2c1.2-1,5.7-0.6,5.7-0.6s4.5-0.5,5.7,0.6c0,0,1.1-0.5,2,0.2c1,0.7,4-0.1,4.7,1.5
		c0.7,1.6-0.4,3-1.1,4.3c-0.8,1.4-0.7,5-0.7,5s-2,0.5-3.6-4.3c0,0-0.5,1,0,2.5c0.5,1.5,1.3,5.3-1.2,7.1c-1.8,1.3,1.6,11.1,3.8,16.6
		c0.8,0.3,1.5,0.5,2,0.6c0.3,0,0.6-0.1,1-0.2c7.2-10.5,5.3-16.1,5.3-16.1s-0.8-1.4-2.6-1.1l0.3-0.4l-1-0.1l0.7-0.8h-0.7l0.6-0.7
		l-1.4-0.3l0.6-0.4L377,91c0,0,1.2-0.4,1.1-1.8c-0.1-1-0.1-2.2,0.3-3.3c0.1-0.4-0.4-5.8,0-6.4c0.4-0.7,4.3,3,4.3,3s0.8-0.9,3.9-0.9
		c3.1,0,3.9,0.9,3.9,0.9s3.8-3.7,4.3-3c0.4,0.6-0.2,6,0,6.4c0.4,1,0.4,2.2,0.3,3.3c-0.1,1.4,1.1,1.8,1.1,1.8l-0.5,0.5l0.6,0.4
		l-1.4,0.3l0.6,0.7l-0.7,0l0.7,0.8l-1,0.1l0.3,0.4c-1.8-0.2-2.6,1.1-2.6,1.1s-0.4,1.5,0.1,3.8c4.8-4.9,9-10.7,10.7-16.1
		c0.7-1.7,1.1-3.5,1.1-5.5C404.1,69.4,397.5,62.8,389.3,62.8z"/>
</g>
</svg>
