<?xml version="1.0" encoding="utf-8"?>
<!-- Generator: Adobe Illustrator 24.0.1, SVG Export Plug-In . SVG Version: 6.00 Build 0)  -->
<svg version="1.1" id="Livello_1" xmlns="http://www.w3.org/2000/svg" xmlns:xlink="http://www.w3.org/1999/xlink" x="0px" y="0px"
	 viewBox="0 0 172 28" style="enable-background:new 0 0 172 28;" xml:space="preserve">
<style type="text/css">
	.st0{fill:#FFFFFF;}
</style>
<g>
	<path class="st0" d="M164.8,8.5L164.8,8.5L164.8,8.5L164.8,8.5z M157.5,7.7L157.5,7.7C157.4,7.7,157.4,7.7,157.5,7.7L157.5,7.7z
		 M168.5,26.8c0,0.5,0,0.7-0.1,0.8c-0.1,0.1-0.3,0.1-0.8,0.1h-3.3c-0.4,0-0.7,0-0.8-0.1c-0.1-0.1-0.1-0.4-0.1-0.8v-3.3v-3.3
		c0-0.6,0-1-0.1-1.1c-0.1-0.1-0.4-0.1-1-0.1H152c-0.5,0-0.7,0-0.8,0.1c-0.1,0.1-0.1,0.4-0.1,0.9c0,0.8,0,1.9,0,3.4v3.4
		c0,0.5,0,0.8-0.1,0.8c-0.1,0.1-0.4,0.1-0.9,0.1h-1.6h-1.6c-0.5,0-0.7,0-0.8-0.1c-0.1-0.1-0.1-0.3-0.1-0.8V16.2c0-5.4,0-8.7,0-9.9
		c0-0.6,0-0.9,0.1-1c0.1-0.1,0.4-0.1,1-0.1h5.1h15.5c0.4,0,0.7,0,0.8,0.1c0.1,0.1,0.1,0.3,0.1,0.8v7.4v7.4
		C168.5,21.1,168.5,23,168.5,26.8 M163.4,8c0,0,0,0-0.1,0.1c0.1,0,0.1,0,0.1,0V8L163.4,8z M162.8,6.8c-0.2,0.2-0.3,0.3-0.3,0.3
		c0,0,0.1,0.2,0.2,0.5c0.1-0.2,0.1-0.4,0.1-0.4C162.8,7.2,162.8,7,162.8,6.8 M162.8,7.7c0,0-0.1,0-0.1-0.1c0,0,0,0,0,0c0,0,0,0,0,0
		v0c0,0,0,0,0,0c0,0,0,0,0,0v0c0,0,0,0,0,0c0,0,0,0,0,0c0,0,0,0,0,0c0,0,0,0,0,0L162.8,7.7C162.7,7.7,162.7,7.7,162.8,7.7
		C162.7,7.7,162.7,7.7,162.8,7.7C162.8,7.8,162.8,7.8,162.8,7.7L162.8,7.7C162.8,7.8,162.8,7.8,162.8,7.7L162.8,7.7
		C162.8,7.8,162.8,7.8,162.8,7.7C162.8,7.8,162.8,7.8,162.8,7.7C162.9,7.7,162.9,7.7,162.8,7.7C162.9,7.7,162.9,7.7,162.8,7.7
		 M162.6,8.4c-0.1,0.2-0.1,0.3-0.1,0.4l0,0.1l0-0.1c0.1-0.1,0.2-0.1,0.3-0.2C162.7,8.5,162.7,8.5,162.6,8.4
		C162.6,8.4,162.6,8.4,162.6,8.4 M162.3,6.5L162.3,6.5L162.3,6.5L162.3,6.5z M161.3,6.5c-0.1,0.1-0.1,0.2-0.1,0.2c0,0,0,0.1,0.1,0.2
		c0.1-0.1,0.1-0.1,0.1-0.1C161.4,6.7,161.4,6.6,161.3,6.5 M160.5,7.2v0.3c0.1,0.1,0.5,0.4,1.2,0.8c0.2-0.1,0.3-0.2,0.5-0.3
		c-0.3-0.3-0.4-0.5-0.5-0.5c-0.1-0.1-0.4-0.1-0.9-0.3C160.8,7.2,160.7,7.2,160.5,7.2 M160.4,8.2L160.4,8.2L160.4,8.2L160.4,8.2z
		 M160.1,6.5c-0.1,0-0.2,0.1-0.3,0.1c0.1,0,0.2,0,0.3,0.1L160.1,6.5z M159.6,7.8C159.6,7.8,159.6,7.8,159.6,7.8
		C159.6,7.8,159.6,7.8,159.6,7.8c-0.1,0.2,0,0.3,0,0.2c0,0,0.1,0,0.2-0.1C159.7,7.8,159.7,7.8,159.6,7.8 M159.4,8.9c0,0,0,0.1,0,0.3
		c0.1,0,0.1,0,0.1,0c0.1-0.2,0.1-0.3,0.1-0.3c0,0,0-0.1,0-0.3C159.5,8.7,159.4,8.8,159.4,8.9 M159,6.7c-0.2,0.3-0.3,0.4-0.3,0.5
		l0,0.1c0,0,0.1,0,0.1,0c0.1,0,0.3-0.1,0.6-0.2c-0.1-0.1-0.1-0.2-0.2-0.3C159.1,6.9,159.1,6.8,159,6.7C159,6.7,159,6.7,159,6.7
		C159,6.7,159,6.7,159,6.7 M159.3,8.4C159.3,8.4,159.3,8.4,159.3,8.4L159.3,8.4L159.3,8.4C159.3,8.5,159.3,8.4,159.3,8.4L159.3,8.4z
		 M158.8,8.2l-0.2,0.2c0,0,0,0.1,0.1,0.2c0.1-0.1,0.2-0.1,0.2-0.1v0C158.9,8.5,158.9,8.4,158.8,8.2 M158.2,9
		C158.1,9,158.1,9,158.2,9C158.1,9.1,158.1,9.1,158.2,9c0,0.2,0,0.2,0,0.2c0,0,0.1-0.1,0.2-0.2C158.2,9,158.2,9,158.2,9 M157.5,6.9
		c-0.4,0.2-0.6,0.5-0.4,0.9c0,0,0.1,0.2,0.2,0.5c0,0,0-0.1,0.1-0.2c0-0.1,0.1-0.2,0.1-0.3c0.3-0.1,0.5-0.5,0.4-1l-0.2-0.2
		C157.7,6.7,157.6,6.8,157.5,6.9C157.5,6.9,157.5,6.9,157.5,6.9 M157.2,9c0,0-0.1,0-0.3,0c0.1,0.2,0.1,0.3,0.2,0.3l0.4,0
		C157.3,9.1,157.2,9,157.2,9L157.2,9z M156,6.9C156,6.9,156,6.9,156,6.9L156,6.9l0.1,0C156.1,6.9,156,6.9,156,6.9
		C156,6.9,156,6.9,156,6.9 M156.1,7.6c0.1,0-0.1,0-0.5,0.2c0.4,0.2,0.7,0.4,0.8,0.4c0,0,0.1-0.1,0.2-0.3
		C156.2,7.7,156.1,7.6,156.1,7.6 M155.8,8.3L155.8,8.3C155.8,8.3,155.8,8.3,155.8,8.3L155.8,8.3C155.8,8.4,155.8,8.3,155.8,8.3
		 M155.3,8c0-0.1-0.2-0.3-0.4-0.7c-0.1,0-0.1,0.1-0.2,0.1c-0.1,0-0.2,0.1-0.2,0.1c-0.2,0.1-0.2,0.2-0.2,0.4c-0.1,0-0.2,0-0.3,0
		c0.2,0.3,0.4,0.4,0.4,0.4c0.1,0,0.4,0,0.8-0.1c0,0,0,0,0-0.1C155.3,8,155.3,8,155.3,8 M155.3,9.1c0-0.1-0.1-0.1-0.1-0.1l-0.1,0
		c0,0,0,0,0,0.1C155.1,9.1,155.2,9.2,155.3,9.1C155.2,9.1,155.2,9.1,155.3,9.1C155.2,9.1,155.2,9.1,155.3,9.1 M154.3,8.9l-0.2-0.1
		c0,0-0.1,0.1-0.3,0.1c0.1,0.1,0.2,0.2,0.2,0.2h0C154.1,9.1,154.1,9.1,154.3,8.9 M154.6,6.5V6.3c-0.1,0.1-0.1,0.2-0.1,0.2l0,0.2
		C154.6,6.6,154.6,6.5,154.6,6.5L154.6,6.5z M154.6,6.2C154.6,6.2,154.6,6.3,154.6,6.2C154.6,6.3,154.6,6.3,154.6,6.2
		C154.6,6.3,154.6,6.3,154.6,6.2C154.6,6.3,154.6,6.2,154.6,6.2 M153.8,6.5c-0.1,0.1-0.2,0.1-0.3,0.3c-0.1,0.1-0.2,0.2-0.3,0.3
		c0.4,0.4,0.6,0.7,0.7,0.7c0,0,0.1,0,0.1,0.1C153.9,7.3,153.8,6.8,153.8,6.5 M153.3,8.3c-0.4-0.3-0.6-0.4-0.7-0.5l-0.3,0.2
		c0.3,0.3,0.5,0.4,0.6,0.5C153,8.6,153.1,8.5,153.3,8.3 M152.6,6.8L152.3,7c0,0.1,0.1,0.2,0.2,0.5l0.2-0.1
		C152.8,7.2,152.7,7.1,152.6,6.8 M152,8.3C152,8.3,152,8.4,152,8.3c0,0.2,0,0.2,0.1,0.2l0.1-0.1C152.1,8.4,152,8.3,152,8.3
		 M152.1,9.1L152.1,9.1c0-0.1-0.1-0.1-0.1,0l0,0.1C152,9.1,152,9.1,152.1,9.1 M151.4,7.4l-0.1,0.3c0,0,0.1,0.1,0.2,0.2
		c0.1-0.2,0.1-0.2,0.1-0.2v0C151.7,7.6,151.6,7.6,151.4,7.4 M151.2,8.4C151.2,8.4,151.2,8.4,151.2,8.4c-0.1,0-0.1,0-0.1,0
		c0,0,0,0.1,0,0.1c0,0.1,0.1,0.1,0.1,0.1V8.4z M150.9,6.7L150.9,6.7L150.9,6.7L150.9,6.7z M151.2,8.8L151,9
		c-0.1,0.1-0.2,0.2-0.2,0.2c0.2,0.1,0.3,0.1,0.3,0.1c0.2,0,0.3-0.1,0.2-0.2c0,0,0-0.1-0.1-0.1C151.2,8.8,151.2,8.8,151.2,8.8
		 M150.2,16.5c-0.1,0.1-0.1,0.1-0.2,0.2c0.1,0,0.2,0,0.3,0.1C150.3,16.7,150.3,16.6,150.2,16.5 M150,12.9c0,0,0.1,0,0.2-0.1
		c0,0,0,0-0.1-0.1c0,0,0-0.1,0-0.1C150,12.7,149.9,12.8,150,12.9L150,12.9C150,12.9,150,12.9,150,12.9 M150,16.6
		C150,16.7,150,16.7,150,16.6c-0.1,0.1-0.1,0.1-0.2,0.1c0,0,0,0,0,0C150,16.7,150,16.7,150,16.6 M150,9.8c0.1,0.1,0.2,0.2,0.3,0.2
		c0,0,0.1,0,0.3,0.1l-0.1-0.3h-0.1C150.4,9.7,150.2,9.8,150,9.8 M150.5,8.8c0,0,0-0.1-0.1-0.2c0,0-0.1,0-0.2,0.1
		c0.1,0.1,0.2,0.2,0.2,0.2C150.4,8.9,150.4,8.9,150.5,8.8C150.5,8.8,150.5,8.8,150.5,8.8 M150.4,7.9C150.4,7.9,150.4,7.9,150.4,7.9
		L150.4,7.9c0-0.1-0.1-0.1-0.2,0c-0.1,0-0.1,0-0.2,0c0,0,0.1,0,0.2,0H150.4z M150,6.7c-0.1,0.1-0.2,0.2-0.2,0.2c0,0,0.1,0.1,0.3,0.2
		c0.1-0.1,0.2-0.2,0.3-0.2C150.4,7,150.2,6.9,150,6.7 M149.9,9.8c-0.2,0.1-0.2,0.1-0.3,0.1c0,0-0.1,0.1-0.2,0.3c0.2,0,0.4,0,0.4,0
		C149.8,10.2,149.9,10.1,149.9,9.8 M149.1,16.8c0.5-0.1,0.6-0.4,0.5-0.7c-0.4,0-0.6,0.1-0.7,0.1c0-0.2,0-0.3,0-0.3
		c-0.1-0.1-0.1-0.1-0.3,0c-0.1,0.1-0.2,0.3-0.2,0.6c0,0,0.1,0,0.4,0.1C148.8,16.7,148.9,16.7,149.1,16.8L149.1,16.8L149.1,16.8z
		 M149.5,21.1c-0.3-0.1-0.5-0.2-0.5-0.2c0,0-0.1-0.1-0.3-0.4c-0.4,0.4-0.6,0.6-0.6,0.6c-0.1,0.1,0,0.3,0,0.4c0.1,0.1,0.2,0.1,0.4,0
		c0.1-0.1,0.2-0.1,0.2,0c0.1,0.2,0.2,0.3,0.3,0.2c0,0,0.1-0.1,0.2-0.3C149.2,21.5,149.3,21.4,149.5,21.1 M149.3,18.1
		C149.3,18.2,149.4,18.2,149.3,18.1c0.1,0.1,0.1,0,0.2,0C149.4,18.1,149.4,18.1,149.3,18.1C149.4,18.1,149.4,18.1,149.3,18.1
		C149.3,18.1,149.3,18.1,149.3,18.1 M149.5,21.1L149.5,21.1C149.5,21.1,149.5,21.1,149.5,21.1L149.5,21.1z M149.5,20.1
		c0,0,0,0,0.1,0.1c0,0,0.1-0.1,0.1-0.1C149.6,20.1,149.6,20.1,149.5,20.1L149.5,20.1C149.5,20.1,149.5,20.1,149.5,20.1L149.5,20.1z
		 M149,23.1c0-0.1-0.1-0.2-0.1-0.2c0,0-0.1-0.1-0.2-0.3l-0.1,0.1c0.1,0.2,0.1,0.3,0.2,0.3c0,0,0,0,0,0S148.9,23.1,149,23.1
		 M148.5,23.2c-0.1-0.1-0.2-0.1-0.2-0.2c0,0,0,0-0.1,0.1c0,0,0.1,0,0.2,0C148.4,23.2,148.4,23.2,148.5,23.2 M149.4,11.8
		c-0.5-0.1-0.8-0.2-0.9-0.1c-0.1,0-0.2,0.2-0.3,0.6c0.5-0.1,0.9-0.1,0.9-0.2C149.2,12.1,149.3,12,149.4,11.8 M149.1,13.2
		c0.1,0,0.2-0.1,0.5-0.1l-0.2-0.1c-0.1,0-0.2,0.1-0.3,0.1L149.1,13.2C149.1,13.2,149.1,13.2,149.1,13.2 M149.3,14.3
		c0,0-0.1-0.1-0.2-0.3c0,0-0.1,0.1-0.1,0.1l-0.1,0.1c0.1,0.1,0.2,0.2,0.3,0.2L149.3,14.3C149.3,14.4,149.3,14.4,149.3,14.3
		C149.3,14.4,149.3,14.4,149.3,14.3 M148.8,17.8c-0.2,0.1-0.4,0.1-0.4,0.1c0,0-0.1,0-0.2,0.1c0.3,0.1,0.4,0.2,0.4,0.2
		C148.9,18.2,149,18.1,148.8,17.8C148.8,17.8,148.8,17.8,148.8,17.8 M148.7,17.6l0,0.1C148.8,17.7,148.8,17.7,148.7,17.6
		C148.8,17.6,148.7,17.6,148.7,17.6 M148.1,18.9C148.1,18.9,148.1,18.9,148.1,18.9L148.1,18.9L148.1,18.9z M148.2,19.6
		c-0.1,0-0.1,0-0.1,0c0.1,0.1,0.1,0.1,0.1,0.1c0,0,0,0,0,0C148.2,19.7,148.2,19.7,148.2,19.6 M148.6,12.8c-0.2-0.1-0.3-0.1-0.3-0.1
		l-0.1,0.2c0.1,0.1,0.2,0.2,0.2,0.2C148.4,13,148.5,12.9,148.6,12.8 M148,12.3c0.1,0,0.2,0,0.2,0C148.2,12.3,148.1,12.3,148,12.3
		C148,12.2,148,12.2,148,12.3 M147.9,15L147.9,15L147.9,15L147.9,15z M148,19.9l-0.1,0.4c0,0.1,0.1,0.1,0.3,0.2c0,0,0.1,0,0.1,0
		c0.1,0,0.1-0.1,0.1-0.1c0,0,0-0.1,0-0.1S148.2,20.2,148,19.9 M148,24.2c-0.1,0-0.1,0-0.1,0c0.1,0.1,0.1,0.2,0.1,0.3v-0.2V24.2z
		 M147.5,20.4L147.5,20.4L147.5,20.4C147.5,20.4,147.5,20.4,147.5,20.4C147.5,20.4,147.5,20.4,147.5,20.4L147.5,20.4z M148,22.5
		l0.1-0.1c-0.1,0-0.1-0.1-0.1-0.1c0,0-0.1,0,0,0C147.9,22.4,148,22.5,148,22.5 M149.6,16.1c0.1-0.1,0.1-0.2,0.1-0.2c0,0,0-0.2,0-0.4
		l-0.2,0c0,0.2,0,0.3,0,0.4C149.4,16,149.5,16,149.6,16.1 M149.5,11.8c0.1,0,0.2,0,0.4,0c0,0,0-0.1,0-0.1
		C149.7,11.7,149.5,11.8,149.5,11.8 M149.6,7.4C149.6,7.4,149.6,7.4,149.6,7.4L149.6,7.4L149.6,7.4z M149.4,6.6c0,0-0.1,0-0.1,0
		c0,0.1,0,0.1,0,0.1C149.4,6.7,149.4,6.7,149.4,6.6L149.4,6.6L149.4,6.6L149.4,6.6z M149.5,9.5c-0.2,0-0.4,0-0.4,0
		c0,0-0.1,0-0.2,0.1c0.1,0,0.2,0,0.2,0c0,0,0.2,0,0.4,0L149.5,9.5z M148.8,9c0,0-0.1,0-0.1,0.1l0.1,0.1c0,0,0.1,0,0.1-0.1
		C148.9,9,148.9,9,148.8,9L148.8,9z M148.8,10.3C148.7,10.3,148.7,10.3,148.8,10.3l-0.2,0.1c0,0-0.2,0.2-0.6,0.5l0.2,0.2
		C148.3,10.9,148.5,10.7,148.8,10.3L148.8,10.3L148.8,10.3z M148.6,6.9c-0.1,0-0.1,0.1-0.1,0.1c0.1,0.1,0.1,0.1,0.1,0.1c0,0,0,0,0,0
		c0,0,0,0,0,0C148.6,7,148.6,6.9,148.6,6.9 M148.3,8.7L148.3,8.7L148.3,8.7C148.3,8.8,148.3,8.8,148.3,8.7L148.3,8.7
		C148.4,8.7,148.3,8.7,148.3,8.7 M148.2,8L148.2,8C148.2,8,148.2,8,148.2,8C148.2,8,148.2,8,148.2,8C148.2,8,148.2,8,148.2,8
		 M147.8,9.3c-0.1,0.2-0.1,0.2-0.1,0.2c0.2,0,0.3,0.1,0.4,0.1C148.1,9.5,148,9.4,147.8,9.3 M147.8,17.1c0,0,0-0.1-0.1-0.4
		c-0.2,0.3-0.3,0.4-0.3,0.4c0,0,0.1,0.1,0.2,0.3C147.7,17.2,147.8,17.1,147.8,17.1 M147.4,14.3C147.4,14.3,147.4,14.3,147.4,14.3
		L147.4,14.3L147.4,14.3C147.4,14.3,147.4,14.3,147.4,14.3 M147.5,10.7L147.5,10.7L147.5,10.7L147.5,10.7
		C147.5,10.8,147.5,10.7,147.5,10.7L147.5,10.7z M147,12.3C147,12.3,147,12.3,147,12.3L147,12.3L147,12.3z M147.3,11.6l0,0.1
		l0.1-0.1c0,0,0-0.1-0.1-0.1C147.3,11.5,147.3,11.6,147.3,11.6L147.3,11.6z M147.4,25.3C147.4,25.3,147.4,25.3,147.4,25.3
		L147.4,25.3c0,0,0,0.1,0,0.1c0,0.1,0,0.1,0,0.2C147.4,25.5,147.4,25.4,147.4,25.3L147.4,25.3z M148.3,26.7L148.3,26.7L148.3,26.7
		c0-0.1,0-0.1,0-0.1C148.2,26.6,148.2,26.6,148.3,26.7C148.2,26.6,148.2,26.6,148.3,26.7 M148.5,25.6c0,0,0.1-0.1,0.1-0.1
		c0.1-0.1,0.1-0.1,0.1-0.1c-0.1,0-0.2-0.1-0.3-0.1l-0.1,0.2c-0.4,0.1-0.7,0.2-0.9,0.2c0.2,0.2,0.3,0.3,0.3,0.3
		C147.8,26,148,25.8,148.5,25.6 M148.2,25.2h0.1c0.1,0,0.1,0,0.1,0v0h-0.1H148.2z M149.3,24.1C149.3,24.2,149.4,24.2,149.3,24.1
		C149.4,24.2,149.3,24.1,149.3,24.1C149.3,24.1,149.3,24.1,149.3,24.1 M149.3,24.1c0-0.1,0-0.2,0-0.3c0-0.2,0.1-0.2,0.1-0.3
		c0-0.2-0.1-0.3-0.4-0.4l0,0c-0.2,0.1-0.4,0.1-0.5,0.1c-0.2,0.2-0.4,0.3-0.4,0.3c0,0,0,0.1,0,0.3c0.2-0.1,0.4-0.1,0.6,0
		c0.3,0.1,0.4,0.2,0.4,0.2S149.2,24.1,149.3,24.1 M149.6,25.9C149.6,25.9,149.6,25.9,149.6,25.9L149.6,25.9
		C149.6,25.9,149.5,25.9,149.6,25.9C149.6,25.9,149.6,25.9,149.6,25.9 M149.7,22.8L149.7,22.8c0.1-0.1,0.1-0.1,0.1-0.1
		c0,0-0.1-0.1-0.2-0.1l-0.1,0.1C149.6,22.8,149.7,22.8,149.7,22.8L149.7,22.8z M149.9,21.4c0-0.1,0-0.1,0-0.1l0,0c0,0,0,0,0,0
		C149.9,21.2,149.9,21.2,149.9,21.4L149.9,21.4C149.9,21.3,149.9,21.3,149.9,21.4 M149.9,17.6l0.2-0.1c-0.4-0.2-0.7-0.2-0.7-0.3
		l-0.1,0.1C149.6,17.5,149.8,17.6,149.9,17.6C149.8,17.6,149.8,17.6,149.9,17.6 M150.4,16.8C150.4,16.8,150.4,16.8,150.4,16.8
		C150.4,16.8,150.4,16.8,150.4,16.8C150.4,16.8,150.4,16.8,150.4,16.8 M150.7,15.3h0.2h-0.4c-0.2,0-0.4,0-0.5,0l0-0.1l0,0.1
		c0.1,0.3,0.1,0.4,0.1,0.5c0,0,0.1,0.1,0.3,0.3c0.1-0.2,0.1-0.4,0.1-0.4c0,0,0-0.1-0.1-0.3H150.7z M151.3,17.9L151.3,17.9
		L151.3,17.9z M151.6,17.3L151.6,17.3v-0.2C151.6,17.1,151.5,17.2,151.6,17.3C151.5,17.2,151.6,17.3,151.6,17.3 M151.8,16.3
		L151.8,16.3L151.8,16.3L151.8,16.3z M151.9,15.9c0.1,0,0.1-0.1,0.2-0.2c0.1-0.1,0.2-0.2,0.3-0.2l-0.2-0.1c-0.1,0.1-0.3,0.2-0.5,0.4
		L151.9,15.9z M152.5,16.5l-0.1-0.1c0,0-0.1,0.1-0.1,0.2c0.1,0.1,0.2,0.1,0.1,0.1C152.4,16.6,152.5,16.5,152.5,16.5 M152.3,18
		c0,0,0.1-0.1,0.2-0.2c-0.1-0.1-0.2-0.2-0.2-0.2c-0.1,0.1-0.1,0.2-0.1,0.2C152.1,17.8,152.2,17.8,152.3,18 M153.5,17.3l0.2-0.1
		c-0.1-0.1-0.2-0.2-0.2-0.2l-0.2,0C153.5,17.3,153.5,17.3,153.5,17.3C153.5,17.3,153.5,17.3,153.5,17.3 M154.4,15.7
		c-0.1,0.3-0.1,0.5-0.1,0.5c0,0.1,0.2,0.1,0.5,0C154.7,15.9,154.5,15.8,154.4,15.7 M153.6,15.6c0.2,0,0.4,0,0.7,0
		c-0.1,0-0.2,0-0.4-0.1c-0.2,0-0.3-0.1-0.4-0.1C153.6,15.6,153.6,15.6,153.6,15.6 M154.3,17.1c0,0,0.1-0.1,0.3-0.2
		c0.1,0-0.1-0.1-0.3-0.3c-0.1,0.2-0.1,0.3-0.1,0.3C154.1,17,154.2,17.1,154.3,17.1 M154.6,18.1L154.6,18.1L154.6,18.1L154.6,18.1z
		 M154.9,16.5L154.9,16.5c0.1-0.1,0-0.1,0-0.3C154.9,16.3,154.9,16.4,154.9,16.5 M155.4,17.1c0,0,0.1-0.1,0.3-0.3
		c-0.2-0.1-0.3-0.1-0.3-0.1c-0.1,0.1-0.1,0.2-0.2,0.3L155.4,17.1C155.4,17.1,155.4,17.1,155.4,17.1
		C155.4,17.1,155.4,17.1,155.4,17.1 M156.2,17.4c0,0,0.1,0,0.3-0.1c-0.1-0.1-0.2-0.2-0.2-0.2c0,0-0.1,0-0.2,0.1
		C156.1,17.3,156.2,17.4,156.2,17.4 M156.6,16.4l0.2-0.1c0,0-0.1-0.2-0.2-0.5c-0.1,0.2-0.1,0.3-0.1,0.3v0
		C156.5,16.1,156.5,16.2,156.6,16.4 M157.1,16.8L157.1,16.8c0-0.1,0-0.1,0-0.1L157.1,16.8C157,16.8,157,16.8,157.1,16.8
		C157,16.8,157,16.8,157.1,16.8 M157.9,15.5c0,0,0.1,0,0.1-0.1c0.1,0,0.1-0.1,0.1-0.1c0,0,0,0-0.1,0c0,0-0.1-0.1-0.1-0.1
		C157.9,15.4,157.9,15.4,157.9,15.5 M158.4,16.6C158.4,16.6,158.4,16.5,158.4,16.6c0.1-0.1,0.1-0.1,0.1-0.1
		C158.4,16.5,158.3,16.5,158.4,16.6L158.4,16.6z M158.6,17C158.6,17,158.6,17,158.6,17c0.1-0.1,0-0.1,0-0.1
		C158.6,16.9,158.6,16.9,158.6,17C158.6,17,158.5,17,158.6,17L158.6,17z M159.2,14.8L159.2,14.8L159.2,14.8L159.2,14.8
		C159.3,14.8,159.3,14.8,159.2,14.8L159.2,14.8z M159.4,17.7L159.4,17.7L159.4,17.7L159.4,17.7z M160.3,17.5c0-0.1,0.1-0.2,0.1-0.4
		l-0.1,0c0,0-0.1,0.2-0.2,0.3C160.2,17.5,160.2,17.5,160.3,17.5 M160.7,18.1l0.1,0V18v-0.1c0,0-0.1,0-0.2,0
		C160.7,18,160.7,18,160.7,18.1C160.7,18,160.7,18,160.7,18.1 M160.8,15.6C160.8,15.6,160.8,15.6,160.8,15.6L160.8,15.6
		C160.8,15.7,160.9,15.6,160.8,15.6L160.8,15.6L160.8,15.6L160.8,15.6z M161.3,17.8C161.3,17.8,161.4,17.8,161.3,17.8
		C161.4,17.8,161.4,17.8,161.3,17.8C161.3,17.8,161.3,17.8,161.3,17.8 M161.9,18.3c0-0.1,0.1-0.1,0.1-0.2c-0.1-0.2-0.2-0.2-0.2-0.2
		l-0.1,0.2c0,0,0,0,0,0S161.8,18.1,161.9,18.3 M161.3,16.7c0.1,0,0.3-0.2,0.7-0.5c-0.3-0.1-0.4-0.1-0.4-0.1
		c-0.1,0.1-0.2,0.3-0.6,0.6C161.2,16.7,161.3,16.7,161.3,16.7 M161.7,15.2L161.7,15.2c0.1,0.1,0.1,0.1,0.1,0c0,0,0-0.1,0.1-0.2
		c0,0-0.1,0-0.1-0.1C161.7,15.1,161.7,15.1,161.7,15.2L161.7,15.2z M153.7,13.9c5.1,0,8.1,0,8.9,0c0.3,0,0.5-0.1,0.7-0.2
		c0.1-0.1,0.2-0.3,0.2-0.6c0-0.6,0-1.3,0-2c0-0.6-0.2-0.8-0.8-0.8c-0.4,0-2.2,0-5.4,0h-5.4c-0.5,0-0.8,0.2-0.8,0.7
		c0,0.4,0,1.2,0,2.3c0,0.4,0.2,0.6,0.6,0.5H153.7z M162.3,17.5C162.3,17.5,162.3,17.5,162.3,17.5L162.3,17.5
		C162.3,17.5,162.3,17.5,162.3,17.5L162.3,17.5z M163.1,14.8L163.1,14.8c-0.1,0.1,0,0.1,0,0.2c0,0,0,0,0,0
		C163.2,14.9,163.1,14.9,163.1,14.8C163.1,14.8,163.1,14.8,163.1,14.8 M163.1,15.7c0,0,0.1,0.1,0.2,0.3c0.1-0.3,0.1-0.4,0.1-0.4
		c0,0-0.1-0.1-0.2-0.4C163.1,15.5,163.1,15.7,163.1,15.7 M163.4,18.1C163.4,18,163.4,18,163.4,18.1C163.4,18,163.4,18,163.4,18.1
		L163.4,18.1C163.4,18,163.4,18.1,163.4,18.1 M166,10.7L166,10.7L166,10.7L166,10.7z M166,19.6c0.1-0.3,0.1-0.5,0.1-0.5l-0.1-0.1
		c-0.1,0.2-0.2,0.3-0.2,0.4h0C165.8,19.4,165.8,19.4,166,19.6C165.9,19.5,165.9,19.5,166,19.6C165.9,19.5,165.9,19.5,166,19.6
		 M166,20.6C166,20.6,166,20.5,166,20.6c-0.1-0.1-0.2,0-0.3,0C165.8,20.6,165.9,20.6,166,20.6 M165.7,17.8c0.1,0,0.1,0.1,0.1,0.1
		C165.9,17.8,165.8,17.8,165.7,17.8C165.8,17.7,165.8,17.7,165.7,17.8 M165.9,17.9c0,0,0,0.1,0.1,0.1c0,0,0,0,0-0.1
		C166.1,18,166.1,18,165.9,17.9C166,17.9,166,17.9,165.9,17.9 M165.4,7.2c-0.1,0.2-0.1,0.3-0.1,0.3c0,0.1,0,0.1,0.1,0.1
		c0,0,0.1,0,0.2-0.1C165.5,7.5,165.5,7.4,165.4,7.2 M164.6,7.4c-0.1,0.3-0.1,0.5-0.1,0.5c0,0-0.1,0.2-0.3,0.6c0.1,0,0.2,0,0.3,0.1
		c0.1,0,0.2,0.1,0.3,0.1h0c0,0.1,0.1,0.2,0.1,0.4c0.1,0.2,0.1,0.3,0.1,0.4c0.1,0.3,0.4,0.4,0.8,0.3c0,0,0.1,0,0.1,0c0,0,0,0,0,0l0,0
		c0,0-0.1-0.2-0.4-0.5c-0.2-0.2-0.2-0.4,0-0.7c-0.3-0.4-0.4-0.5-0.4-0.6c0,0,0,0,0,0S164.8,7.7,164.6,7.4 M165.5,10.1
		c-0.1,0-0.1,0-0.1,0c0,0.1,0,0.1,0,0.1C165.3,10.2,165.3,10.2,165.5,10.1C165.4,10.2,165.4,10.1,165.5,10.1 M164.6,10.5L164.6,10.5
		L164.6,10.5z M165,12.1l-0.1,0v0.4C164.8,12.4,164.9,12.3,165,12.1 M164.8,12.4C164.8,12.4,164.8,12.4,164.8,12.4l-0.2,0
		L164.8,12.4z M164.1,8.5c-0.1,0.2-0.1,0.4-0.1,0.5c0,0,0.1,0,0.1,0C164.2,8.8,164.1,8.7,164.1,8.5 M164.1,14.5
		c-0.1,0.1-0.1,0.2-0.1,0.2c0,0,0,0,0,0c0,0,0.1,0,0.1,0c0.1,0,0.1-0.1,0.1-0.1C164.2,14.7,164.2,14.6,164.1,14.5 M163.7,7.7
		C163.7,7.7,163.7,7.7,163.7,7.7c0.1,0.1,0.1,0.1,0.1,0.1c0,0,0.1-0.1,0.1-0.2c0,0-0.1-0.1-0.1-0.1C163.8,7.6,163.7,7.7,163.7,7.7
		 M163.9,17.9L163.9,17.9L163.9,17.9L163.9,17.9L163.9,17.9z M164.2,19.1L164.2,19.1L164.2,19.1L164.2,19.1z M164.4,23.4L164.4,23.4
		C164.4,23.3,164.4,23.3,164.4,23.4L164.4,23.4C164.4,23.3,164.4,23.4,164.4,23.4 M164.4,17.4c0-0.2,0.1-0.3,0.1-0.4
		c-0.3,0-0.5,0.1-0.6,0.1c0,0-0.1,0-0.2,0l0,0h0C164.1,17.3,164.3,17.4,164.4,17.4 M164.5,15.5c0,0,0.1-0.1,0.4-0.4
		c-0.3,0-0.4-0.1-0.4-0.1c0,0-0.1,0.1-0.3,0.2C164.4,15.4,164.5,15.5,164.5,15.5 M164.7,20.3L164.7,20.3L164.7,20.3z M164.8,20.1
		c0-0.1,0-0.1,0.1-0.3c0,0,0,0-0.1,0l-0.1,0c-0.1,0.1-0.1,0.2-0.1,0.3c0,0,0,0.1,0,0.2C164.7,20.2,164.8,20.1,164.8,20.1
		C164.8,20.1,164.8,20.1,164.8,20.1 M165,18.6l0.2-0.2c-0.1-0.1-0.2-0.2-0.2-0.2c-0.1,0.2-0.1,0.2-0.1,0.2c0,0.1,0,0.1,0,0.1
		S164.8,18.6,165,18.6 M165.3,25.9L165.3,25.9L165.3,25.9L165.3,25.9z M165.4,14.5c0,0,0-0.1-0.1-0.3c-0.1,0.2-0.2,0.3-0.2,0.3
		c0,0,0.1,0.1,0.2,0.2C165.4,14.6,165.4,14.6,165.4,14.5 M165.3,13.9L165.3,13.9c0.1,0,0.2,0,0.2,0
		C165.4,13.9,165.3,13.9,165.3,13.9 M165.5,13L165.5,13L165.5,13L165.5,13z M165.6,16.3L165.6,16.3L165.6,16.3L165.6,16.3z
		 M165.7,22.3L165.7,22.3L165.7,22.3L165.7,22.3z M166,21.8C166,21.9,166,21.8,166,21.8c0.1-0.1,0.2-0.1,0.2-0.1
		c0,0-0.1-0.1-0.2-0.3c-0.1,0.2-0.1,0.2-0.1,0.2C165.8,21.8,165.9,21.8,166,21.8 M166.1,22.7l-0.1,0.2c0,0,0,0.1,0.1,0.2
		c0.1-0.1,0.1-0.2,0.1-0.2C166.3,22.9,166.2,22.8,166.1,22.7 M166.3,12.1c0-0.1,0.1-0.2,0.1-0.2c0,0,0-0.1,0-0.2h0h0
		c0,0.1,0,0.2,0,0.2v0C166.3,11.9,166.3,12,166.3,12.1 M166.4,12.1C166.4,12.1,166.3,12.1,166.4,12.1L166.4,12.1L166.4,12.1
		L166.4,12.1z M166.6,15.8c0,0-0.2-0.1-0.4-0.2c0.1,0.3,0.1,0.4,0.2,0.4c0,0,0.1,0,0.3,0C166.6,15.9,166.6,15.8,166.6,15.8
		 M167,13.3c-0.1-0.2-0.2-0.4-0.3-0.8c-0.1,0.4-0.2,0.6-0.2,0.6c0,0,0.1,0.2,0.2,0.4c0,0,0.1-0.1,0.1-0.1
		C166.9,13.4,166.9,13.4,167,13.3 M166.8,8.5L166.8,8.5C166.8,8.6,166.8,8.6,166.8,8.5C166.8,8.5,166.8,8.5,166.8,8.5
		C166.8,8.5,166.8,8.5,166.8,8.5L166.8,8.5z M166.6,16.9c0,0,0-0.1-0.1-0.2l-0.1,0.1c0,0,0,0.1,0.1,0.2
		C166.6,17,166.6,16.9,166.6,16.9 M166.2,24.5c0,0,0.1,0,0.2-0.1c-0.2-0.1-0.3-0.2-0.3-0.2c0,0-0.1,0-0.2,0.1
		C166.2,24.4,166.2,24.5,166.2,24.5 M166.3,20.1c0.1,0,0.2-0.1,0.4-0.1c0,0-0.1-0.1-0.1-0.2c-0.1-0.1-0.1-0.1-0.1-0.1
		C166.4,19.9,166.3,20,166.3,20.1 M166.9,14.9l0.1,0l-0.1-0.1l-0.1,0C166.8,14.9,166.9,14.9,166.9,14.9L166.9,14.9z M166.2,8.5
		c0.1-0.1,0.4-0.4,0.8-0.9l-0.6-0.1c-0.1,0.2-0.2,0.5-0.4,0.9L166.2,8.5C166.2,8.5,166.2,8.5,166.2,8.5L166.2,8.5z M167.8,14.3
		C167.8,14.3,167.8,14.3,167.8,14.3C167.8,14.3,167.8,14.3,167.8,14.3C167.8,14.2,167.8,14.2,167.8,14.3L167.8,14.3L167.8,14.3z
		 M134.5,20.1L134.5,20.1L134.5,20.1L134.5,20.1z M145.2,9.5c0,0.5-0.3,0.8-0.8,0.8c-1.1,0-3.4,0-7,0c-0.4,0-0.7,0-0.8,0.1
		c-0.1,0.1-0.1,0.3-0.1,0.8v15.5c0,0.5,0,0.8-0.1,0.9c-0.1,0.1-0.4,0.1-0.9,0.1c-2.1,0-3.2,0-3.3,0c-0.5,0-0.7-0.2-0.7-0.7
		c0-1.3,0-5.3,0-12v-3.9c0-0.5-0.2-0.8-0.8-0.8c-1.1,0-3.4,0-7,0c-0.5,0-0.7,0-0.8-0.1c-0.1-0.1-0.1-0.4-0.1-0.8V6.1
		c0-0.5,0-0.7,0.1-0.8c0.1-0.1,0.3-0.1,0.8-0.1H134l10.4,0c0.4,0,0.7,0,0.8,0.1c0.1,0.1,0.1,0.3,0.1,0.8v1.7v1
		C145.2,8.8,145.2,9.1,145.2,9.5 M125.9,9.4L125.9,9.4L125.9,9.4L125.9,9.4z M125.9,8c0.1,0,0.1-0.1,0.1-0.1l-0.2-0.2
		c-0.1,0.1-0.1,0.2-0.1,0.2c0,0.1,0,0.1,0,0.1S125.8,8,125.9,8 M126.1,7.4C126.1,7.4,126.1,7.4,126.1,7.4L126.1,7.4L126.1,7.4z
		 M127,9.1C127,9.1,127,9.1,127,9.1C127,9,126.9,9,126.9,9l0,0.1C127,9.1,127,9.1,127,9.1 M127.4,7.6L127.4,7.6
		C127.3,7.6,127.3,7.6,127.4,7.6L127.4,7.6C127.3,7.7,127.4,7.7,127.4,7.6C127.4,7.7,127.4,7.7,127.4,7.6 M127.6,8.2
		C127.6,8.2,127.6,8.1,127.6,8.2C127.6,8.1,127.6,8.1,127.6,8.2c0-0.1,0-0.1,0-0.1L127.6,8.2L127.6,8.2z M128.2,8.6L128.2,8.6
		L128.2,8.6L128.2,8.6C128.1,8.5,128.1,8.5,128.2,8.6L128.2,8.6z M128.9,7.1C128.9,7.1,129,7.1,128.9,7.1L128.9,7.1
		C128.9,7,128.9,7,128.9,7.1l-0.1,0C128.9,7.1,128.9,7.1,128.9,7.1L128.9,7.1z M129.7,8.5c0.1-0.1,0.1-0.2,0.1-0.2l-0.2-0.2
		c0,0.1-0.1,0.2-0.1,0.2L129.7,8.5C129.6,8.4,129.6,8.4,129.7,8.5 M131.4,8.8c0-0.1,0.1-0.1,0.1-0.2c-0.1-0.1-0.2-0.1-0.2-0.1
		c0,0-0.1,0.1-0.1,0.2L131.4,8.8z M135.5,20.7l-0.1,0c0,0,0,0.1-0.1,0.1c0,0,0,0,0,0c0,0,0.1,0,0.1,0
		C135.5,20.8,135.5,20.7,135.5,20.7L135.5,20.7z M135.5,17.2c0,0,0,0,0,0.1h0.1C135.6,17.3,135.6,17.2,135.5,17.2L135.5,17.2z
		 M135.2,22.8c0.1-0.1,0.2-0.2,0.2-0.2l-0.1-0.1c-0.1,0.1-0.1,0.2-0.1,0.2C135.2,22.6,135.2,22.7,135.2,22.8 M135.3,23.9
		c0-0.1-0.1-0.1-0.2-0.1l-0.1,0.1c0.1,0.1,0.2,0.1,0.2,0.1C135.2,24,135.2,24,135.3,23.9L135.3,23.9
		C135.3,23.9,135.3,23.9,135.3,23.9 M135.1,18.4c0,0,0.1,0,0.3-0.1c0,0,0-0.1-0.1-0.1c0-0.1-0.1-0.1-0.1-0.1
		c-0.2-0.1-0.2-0.1-0.3-0.1c0,0,0,0-0.1,0.1c0,0,0,0.1,0,0.1C135,18.4,135.1,18.4,135.1,18.4 M134.2,22.2l0.4,0.5
		c0.2-0.2,0.3-0.4,0.4-0.5c0-0.1-0.1-0.2-0.1-0.4c0-0.1-0.1-0.3-0.1-0.3C134.4,21.9,134.2,22.1,134.2,22.2
		C134.2,22.1,134.2,22.2,134.2,22.2 M134.5,23.3c0,0-0.1,0-0.2-0.1c-0.1,0-0.1,0-0.2-0.1c0,0,0.1,0.1,0.1,0.2
		c0.1,0.1,0.1,0.1,0.1,0.1C134.4,23.4,134.5,23.3,134.5,23.3 M135.2,13.5L135.2,13.5L135.2,13.5L135.2,13.5
		C135.3,13.4,135.3,13.4,135.2,13.5C135.2,13.5,135.2,13.5,135.2,13.5 M135.2,9.7L135.2,9.7L135.2,9.7L135.2,9.7z M135,11.8
		C135,11.8,135,11.9,135,11.8c-0.1,0.1,0,0.1,0,0.2c0,0,0.1,0.1,0.1,0.1l0.1-0.1C135.1,11.9,135,11.8,135,11.8L135,11.8z
		 M134.9,15.6L134.9,15.6L134.9,15.6C134.9,15.6,134.9,15.6,134.9,15.6C134.9,15.6,134.9,15.6,134.9,15.6 M134.9,16.2L134.9,16.2
		L134.9,16.2L134.9,16.2z M134.9,10.1C134.9,10.2,134.9,10.2,134.9,10.1C134.9,10.2,134.9,10.2,134.9,10.1L134.9,10.1
		C135,10.2,135,10.2,134.9,10.1C134.9,10.2,134.9,10.2,134.9,10.1 M134.9,6.4C134.9,6.4,134.9,6.4,134.9,6.4
		C134.8,6.4,134.8,6.4,134.9,6.4C134.9,6.5,134.9,6.4,134.9,6.4 M134.7,13.8c0,0-0.1,0-0.1,0.1L134.7,13.8
		C134.6,13.9,134.6,13.9,134.7,13.8c-0.1,0.1-0.1,0.1-0.1,0.1c0,0,0,0,0,0c0,0,0,0,0,0c0,0,0,0,0,0c0,0,0,0,0,0c0,0,0,0,0,0l0,0v0
		l0.1,0.1c0,0,0.1-0.1,0.1-0.1C134.8,13.8,134.7,13.8,134.7,13.8 M134.7,11.2L134.7,11.2L134.7,11.2L134.7,11.2z M134.6,11.2
		L134.6,11.2L134.6,11.2L134.6,11.2z M134.5,14.4L134.5,14.4L134.5,14.4L134.5,14.4z M134.7,16.8c-0.1,0.1-0.1,0.1-0.2,0.1
		c0.1,0.2,0.2,0.3,0.2,0.3l0.2-0.1l0,0C135,17.1,134.9,17,134.7,16.8 M134.7,20.2c-0.1-0.6-0.2-0.8-0.2-0.9
		c-0.2-0.3-0.4-0.2-0.7,0.2c0.1,0.1,0.2,0.2,0.4,0.3c0.2,0.1,0.3,0.2,0.4,0.3C134.6,20.2,134.6,20.2,134.7,20.2L134.7,20.2z
		 M133.3,16.5L133.3,16.5L133.3,16.5z M133.3,17.9C133.3,17.8,133.3,17.8,133.3,17.9C133.2,17.8,133.2,17.7,133.3,17.9
		c-0.2-0.1-0.2,0-0.2,0c0,0,0,0.1,0.1,0.2C133.3,17.9,133.3,17.9,133.3,17.9 M133.3,16.5c0.1,0,0.3-0.1,0.6-0.1
		c0-0.1-0.1-0.1-0.2-0.2C133.5,16.3,133.4,16.4,133.3,16.5 M133.4,15.3L133.4,15.3L133.4,15.3L133.4,15.3z M133.4,13l0.2-0.1
		c-0.1-0.1-0.2-0.1-0.2-0.1c0,0,0,0,0,0c0,0,0,0.1,0,0.1v0C133.3,12.8,133.4,12.9,133.4,13 M133.9,17.6c0,0-0.2-0.1-0.5-0.2
		c0.2,0.3,0.3,0.5,0.3,0.5c0,0,0.1,0.1,0.4,0.2c0-0.2,0-0.3,0-0.4C133.9,17.6,133.9,17.6,133.9,17.6 M133.7,18.6
		c-0.1,0.1-0.1,0.1-0.2,0.2c0,0,0,0,0,0.1c0,0,0.1,0.1,0.1,0.1c0,0,0.2,0,0.4-0.1L133.7,18.6z M134.5,17.6c-0.1,0-0.2,0-0.4,0
		c0,0,0.1,0,0.2,0.1c0.1,0,0.2,0.1,0.2,0.1L134.5,17.6z M134.1,13.7c0.1-0.1,0.2-0.2,0.2-0.2c0,0-0.1-0.1-0.2-0.2
		c-0.1,0.2-0.2,0.2-0.2,0.2C133.9,13.5,134,13.6,134.1,13.7 M134,13L134,13L134,13L134,13z M134.1,8.7l0.1-0.2L134,8.4
		c0,0-0.1,0-0.2,0.1C134,8.6,134,8.7,134.1,8.7L134.1,8.7z M134,6.6c-0.1,0-0.1,0-0.1,0c0,0,0,0.1,0,0.1c0.1,0,0.1-0.1,0.1-0.1
		C134,6.7,134,6.6,134,6.6 M133.8,7.2L133.8,7.2L133.8,7.2C133.8,7.3,133.9,7.2,133.8,7.2C133.9,7.2,133.9,7.2,133.8,7.2
		C133.9,7.2,133.8,7.2,133.8,7.2 M133.7,7.7l-0.1,0.1l0.1,0.1c0,0,0,0,0.1-0.1C133.7,7.7,133.7,7.7,133.7,7.7 M133.7,9.4
		c-0.2,0.3-0.3,0.5-0.4,0.6l0.2,0.2c0.2-0.2,0.3-0.4,0.4-0.6C133.8,9.5,133.7,9.5,133.7,9.4C133.7,9.5,133.7,9.5,133.7,9.4
		 M133.3,11.1L133.3,11.1c0,0.1,0,0.1,0,0.1C133.4,11.2,133.4,11.2,133.3,11.1C133.4,11.1,133.3,11.1,133.3,11.1 M133.4,13.9
		c-0.1,0-0.1,0.1-0.1,0.1c0.1,0,0.1,0.1,0.1,0.1c0.1,0,0.1,0,0.1,0C133.4,14,133.4,14,133.4,13.9 M132.7,8.2L132.7,8.2L132.7,8.2
		L132.7,8.2z M132.1,23.9L132.1,23.9L132.1,23.9L132.1,23.9C132.1,23.8,132.1,23.8,132.1,23.9C132.1,23.8,132.1,23.8,132.1,23.9
		C132.1,23.8,132.1,23.8,132.1,23.9L132.1,23.9L132.1,23.9L132.1,23.9C132.1,23.9,132.1,23.9,132.1,23.9 M132.1,8.4
		C132.2,8.4,132.2,8.4,132.1,8.4l0.1-0.1l-0.1,0V8.4z M132.4,13L132.4,13l0-0.1h-0.1C132.3,13,132.4,13,132.4,13L132.4,13z
		 M132.6,24.3L132.6,24.3L132.6,24.3L132.6,24.3z M132.6,9.3c0,0,0.1-0.1,0.1-0.1l-0.1-0.1c0,0,0,0-0.1,0.1
		C132.4,9.2,132.4,9.3,132.6,9.3C132.5,9.3,132.5,9.3,132.6,9.3C132.5,9.3,132.5,9.3,132.6,9.3 M132.7,23.5
		C132.7,23.5,132.7,23.5,132.7,23.5L132.7,23.5C132.8,23.5,132.8,23.4,132.7,23.5C132.7,23.4,132.7,23.5,132.7,23.5 M132.9,25.4
		c0-0.1,0.1-0.1,0.1-0.1c-0.1,0-0.1,0-0.1,0C132.7,25.3,132.7,25.3,132.9,25.4C132.8,25.3,132.8,25.4,132.9,25.4 M132.8,16.9
		L132.8,16.9C132.9,16.8,132.9,16.8,132.8,16.9L132.8,16.9C132.8,16.8,132.8,16.8,132.8,16.9 M132.8,15.3c0,0,0,0,0.1,0
		c0-0.1,0-0.1,0-0.1C132.8,15.2,132.8,15.3,132.8,15.3C132.8,15.3,132.8,15.3,132.8,15.3 M132.9,10.5l0.1-0.1
		c-0.1,0-0.2-0.1-0.2-0.1l-0.1,0.1C132.8,10.5,132.8,10.5,132.9,10.5L132.9,10.5z M133,8.1c0,0,0,0.1,0,0.1c0,0,0,0,0.1,0
		c0,0,0.1,0,0.1,0c0-0.1-0.1-0.1-0.1-0.2C133.1,8,133,8,133,8.1 M133.5,19.5c0,0-0.2,0-0.5-0.1c0.2,0.4,0.3,0.5,0.3,0.6
		c0.4,0.1,0.5,0,0.5-0.5C133.6,19.6,133.5,19.6,133.5,19.5 M133.5,21.7L133.5,21.7L133.5,21.7L133.5,21.7z M133.1,23.2
		c0,0,0.1,0.2,0.2,0.6c0.3-0.3,0.4-0.4,0.4-0.4c0,0,0.2-0.1,0.4-0.3c-0.2-0.3-0.3-0.5-0.4-0.5c-0.1,0-0.1,0-0.3,0.1l0,0
		C133.2,23,133.1,23.2,133.1,23.2 M133.2,24.6c0.2,0.1,0.3,0.1,0.4,0.1c0,0,0.1-0.1,0.3-0.2c-0.3-0.1-0.4-0.2-0.4-0.2
		C133.4,24.3,133.3,24.4,133.2,24.6 M133.4,26.4L133.4,26.4L133.4,26.4L133.4,26.4z M133.5,26.4c0,0,0.1,0,0.1,0c0.1,0,0.1,0,0.1,0
		v0v0v-0.1C133.6,26.3,133.5,26.3,133.5,26.4 M133.4,25.4c0.2,0.1,0.3,0.2,0.5,0.2c0,0,0.2-0.1,0.4-0.2c-0.1-0.2-0.2-0.3-0.2-0.3
		c-0.2-0.1-0.3-0.1-0.3-0.1c-0.2,0-0.3,0-0.5,0.1c0,0,0,0,0,0.1C133.4,25.3,133.4,25.4,133.4,25.4 M135.1,25l0.5-0.2
		c-0.6-0.3-0.9-0.5-1.1-0.6c0,0,0,0,0,0l0,0c0.3,0.4,0.5,0.6,0.5,0.6S134.9,24.8,135.1,25 M135.8,16.1L135.8,16.1L135.8,16.1
		L135.8,16.1z M135.7,10.8L135.7,10.8L135.7,10.8L135.7,10.8z M135.8,15.2L135.8,15.2L135.8,15.2L135.8,15.2z M135.9,19.2
		L135.9,19.2L135.9,19.2L135.9,19.2z M135.8,8.7C135.8,8.7,135.8,8.7,135.8,8.7l0.1-0.1c-0.1-0.1-0.3-0.3-0.5-0.6
		c-0.1,0.2-0.1,0.4-0.1,0.4c0.1,0.1,0.2,0.2,0.2,0.2S135.6,8.6,135.8,8.7 M136.8,9.4c0,0,0.1,0,0.1,0l0-0.1h-0.1
		C136.8,9.4,136.8,9.4,136.8,9.4 M137.2,7.3L137.2,7.3C137.2,7.2,137.2,7.2,137.2,7.3c-0.1-0.1-0.1-0.1-0.1-0.1l0,0.1
		C137.1,7.3,137.2,7.3,137.2,7.3L137.2,7.3z M137.8,6.9C137.8,6.9,137.8,6.9,137.8,6.9C137.7,7,137.7,7,137.6,7
		c0,0.1,0.1,0.1,0.1,0.1l0.1-0.1c0,0,0,0,0,0S137.8,7,137.8,6.9 M137.8,8.3C137.8,8.3,137.8,8.3,137.8,8.3c0.1-0.1,0.1-0.1,0.1-0.1
		c-0.1,0-0.1-0.1-0.1-0.1c0,0-0.1,0,0,0C137.7,8.2,137.8,8.2,137.8,8.3 M138.3,6.6l0.1,0.1c0.1-0.1,0.1-0.1,0.1-0.1
		c-0.1-0.1-0.1-0.1-0.1-0.1L138.3,6.6L138.3,6.6z M138.6,7C138.6,7,138.5,7,138.6,7C138.5,7.1,138.5,7.1,138.6,7
		c-0.1,0.1,0,0.2,0,0.3c0.1-0.1,0.1-0.1,0.2-0.1C138.6,7.1,138.6,7,138.6,7 M138.6,8.3c0.1-0.2,0.2-0.3,0.2-0.3
		c0-0.1-0.1-0.1-0.1-0.1c-0.1,0-0.1,0.1-0.1,0.2C138.5,8,138.5,8.1,138.6,8.3 M140.1,9.4C140.1,9.4,140.1,9.4,140.1,9.4
		c-0.1-0.1-0.1,0-0.1,0C140,9.4,140,9.4,140.1,9.4C140.1,9.4,140.1,9.4,140.1,9.4 M140.9,7C140.9,7,140.9,7,140.9,7L140.9,7
		C140.9,6.9,140.9,6.9,140.9,7C140.9,7,140.9,7,140.9,7 M141.1,8.2c0,0,0.2-0.1,0.4-0.2c-0.2-0.1-0.3-0.2-0.3-0.2c0,0-0.1,0-0.3,0.1
		C141,8.1,141.1,8.2,141.1,8.2 M141.6,7.1h0.1l0-0.1h-0.1C141.6,7.1,141.6,7.1,141.6,7.1L141.6,7.1z M142.7,9.4l0.1-0.1
		c0,0-0.1-0.1-0.1-0.2l-0.1,0.1C142.6,9.3,142.6,9.3,142.7,9.4 M142.8,7.5c0,0,0.1,0.1,0.2,0.2c0,0,0.1-0.1,0.1-0.2
		c-0.1-0.1-0.1-0.1-0.2-0.2C142.8,7.5,142.8,7.5,142.8,7.5 M143.1,9c0-0.1,0-0.1,0-0.1l0,0C143.1,8.9,143.1,9,143.1,9L143.1,9z
		 M143.6,8.5L143.6,8.5L143.6,8.5L143.6,8.5z M143.8,7.6l0.1-0.1l-0.2-0.1l-0.1,0.2l0,0C143.6,7.5,143.7,7.5,143.8,7.6 M111.3,20.1
		L111.3,20.1L111.3,20.1L111.3,20.1z M122,9.5c0,0.5-0.3,0.8-0.8,0.8c-1.1,0-3.4,0-7,0c-0.4,0-0.7,0-0.8,0.1
		c-0.1,0.1-0.1,0.3-0.1,0.8v15.5c0,0.5,0,0.8-0.1,0.9c-0.1,0.1-0.4,0.1-0.9,0.1c-2.1,0-3.2,0-3.3,0c-0.5,0-0.7-0.2-0.7-0.7
		c0-1.3,0-5.3,0-12v-3.9c0-0.5-0.2-0.8-0.8-0.8c-1.1,0-3.4,0-7,0c-0.5,0-0.7,0-0.8-0.1c-0.1-0.1-0.1-0.4-0.1-0.8V6.1
		c0-0.5,0-0.7,0.1-0.8c0.1-0.1,0.3-0.1,0.8-0.1h10.4l10.4,0c0.4,0,0.7,0,0.8,0.1c0.1,0.1,0.1,0.3,0.1,0.8v1.7v1
		C122,8.8,122,9.1,122,9.5 M102.6,9.4L102.6,9.4L102.6,9.4L102.6,9.4z M102.7,8c0.1,0,0.1-0.1,0.1-0.1l-0.2-0.2
		c-0.1,0.1-0.1,0.2-0.1,0.2c0,0.1,0,0.1,0,0.1S102.6,8,102.7,8 M102.9,7.4C102.9,7.4,102.9,7.4,102.9,7.4L102.9,7.4L102.9,7.4z
		 M103.8,9.1C103.8,9.1,103.8,9.1,103.8,9.1C103.7,9,103.7,9,103.7,9l0,0.1C103.7,9.1,103.8,9.1,103.8,9.1 M104.1,7.6L104.1,7.6
		C104.1,7.6,104.1,7.6,104.1,7.6L104.1,7.6C104.1,7.7,104.1,7.7,104.1,7.6C104.1,7.7,104.1,7.7,104.1,7.6 M104.3,8.2L104.3,8.2
		C104.4,8.1,104.4,8.1,104.3,8.2c0-0.1,0-0.1,0-0.1L104.3,8.2L104.3,8.2z M105,8.6L105,8.6L105,8.6L105,8.6
		C104.9,8.5,104.9,8.5,105,8.6L105,8.6z M105.7,7.1C105.7,7.1,105.7,7.1,105.7,7.1L105.7,7.1C105.7,7,105.6,7,105.7,7.1l-0.1,0
		C105.6,7.1,105.7,7.1,105.7,7.1L105.7,7.1z M106.4,8.5c0.1-0.1,0.1-0.2,0.1-0.2l-0.2-0.2c0,0.1-0.1,0.2-0.1,0.2L106.4,8.5
		C106.3,8.4,106.4,8.4,106.4,8.5 M108.2,8.8c0-0.1,0.1-0.1,0.1-0.2c-0.1-0.1-0.2-0.1-0.2-0.1c0,0-0.1,0.1-0.1,0.2L108.2,8.8z
		 M112.3,20.7l-0.1,0c0,0,0,0.1-0.1,0.1c0,0,0,0,0,0c0,0,0.1,0,0.1,0C112.2,20.8,112.3,20.7,112.3,20.7L112.3,20.7z M112.2,17.2
		c0,0,0,0,0,0.1h0.1C112.3,17.3,112.3,17.2,112.2,17.2L112.2,17.2z M112,22.8c0.1-0.1,0.2-0.2,0.2-0.2l-0.1-0.1
		c-0.1,0.1-0.1,0.2-0.1,0.2C111.9,22.6,112,22.7,112,22.8 M112,23.9c0-0.1-0.1-0.1-0.2-0.1l-0.1,0.1C111.9,24,112,24,112,24
		C112,24,112,24,112,23.9L112,23.9C112.1,23.9,112.1,23.9,112,23.9 M111.9,18.4c0,0,0.1,0,0.3-0.1c0,0,0-0.1-0.1-0.1
		c0-0.1-0.1-0.1-0.1-0.1c-0.2-0.1-0.2-0.1-0.3-0.1c0,0,0,0-0.1,0.1c0,0,0,0.1,0,0.1C111.8,18.4,111.8,18.4,111.9,18.4 M110.9,22.2
		l0.4,0.5c0.2-0.2,0.3-0.4,0.4-0.5c0-0.1-0.1-0.2-0.1-0.4c0-0.1-0.1-0.3-0.1-0.3C111.2,21.9,111,22.1,110.9,22.2
		C111,22.1,111,22.2,110.9,22.2 M111.3,23.3c0,0-0.1,0-0.2-0.1c-0.1,0-0.1,0-0.2-0.1c0,0,0.1,0.1,0.1,0.2c0.1,0.1,0.1,0.1,0.1,0.1
		C111.2,23.4,111.2,23.3,111.3,23.3 M112,13.5L112,13.5L112,13.5L112,13.5C112.1,13.4,112.1,13.4,112,13.5
		C112,13.5,112,13.5,112,13.5 M112,9.7L112,9.7L112,9.7L112,9.7z M111.8,11.8C111.8,11.8,111.7,11.9,111.8,11.8
		c-0.1,0.1,0,0.1,0,0.2c0,0,0.1,0.1,0.1,0.1l0.1-0.1C111.8,11.9,111.8,11.8,111.8,11.8L111.8,11.8z M111.7,15.6L111.7,15.6
		L111.7,15.6C111.7,15.6,111.7,15.6,111.7,15.6C111.7,15.6,111.7,15.6,111.7,15.6 M111.7,16.2L111.7,16.2L111.7,16.2L111.7,16.2z
		 M111.7,10.1C111.7,10.2,111.7,10.2,111.7,10.1C111.7,10.2,111.7,10.2,111.7,10.1L111.7,10.1C111.7,10.2,111.7,10.2,111.7,10.1
		C111.7,10.2,111.7,10.2,111.7,10.1 M111.7,6.4C111.7,6.4,111.6,6.4,111.7,6.4C111.6,6.4,111.6,6.4,111.7,6.4
		C111.6,6.5,111.7,6.4,111.7,6.4 M111.5,13.8c0,0-0.1,0-0.1,0.1L111.5,13.8C111.4,13.9,111.4,13.9,111.5,13.8
		c-0.1,0.1-0.1,0.1-0.1,0.1c0,0,0,0,0,0c0,0,0,0,0,0c0,0,0,0,0,0c0,0,0,0,0,0c0,0,0,0,0,0l0,0v0l0.1,0.1c0,0,0.1-0.1,0.1-0.1
		C111.5,13.8,111.5,13.8,111.5,13.8 M111.4,11.2L111.4,11.2L111.4,11.2L111.4,11.2z M111.4,11.2L111.4,11.2L111.4,11.2L111.4,11.2z
		 M111.3,14.4L111.3,14.4L111.3,14.4L111.3,14.4z M111.5,16.8c-0.1,0.1-0.1,0.1-0.2,0.1c0.1,0.2,0.2,0.3,0.2,0.3l0.2-0.1l0,0
		C111.8,17.1,111.7,17,111.5,16.8 M111.5,20.2c-0.1-0.6-0.2-0.8-0.2-0.9c-0.2-0.3-0.4-0.2-0.7,0.2c0.1,0.1,0.2,0.2,0.4,0.3
		c0.2,0.1,0.3,0.2,0.4,0.3C111.4,20.2,111.4,20.2,111.5,20.2L111.5,20.2z M110,16.5L110,16.5L110,16.5z M110.1,17.9
		C110.1,17.8,110.1,17.8,110.1,17.9C110,17.8,110,17.7,110.1,17.9c-0.2-0.1-0.2,0-0.2,0c0,0,0,0.1,0.1,0.2
		C110,17.9,110.1,17.9,110.1,17.9 M110,16.5c0.1,0,0.3-0.1,0.6-0.1c0-0.1-0.1-0.1-0.2-0.2C110.3,16.3,110.1,16.4,110,16.5
		 M110.2,15.3L110.2,15.3L110.2,15.3L110.2,15.3z M110.2,13l0.2-0.1c-0.1-0.1-0.2-0.1-0.2-0.1c0,0,0,0,0,0c0,0,0,0.1,0,0.1v0
		C110.1,12.8,110.1,12.9,110.2,13 M110.6,17.6c0,0-0.2-0.1-0.5-0.2c0.2,0.3,0.3,0.5,0.3,0.5c0,0,0.1,0.1,0.4,0.2c0-0.2,0-0.3,0-0.4
		C110.7,17.6,110.6,17.6,110.6,17.6 M110.5,18.6c-0.1,0.1-0.1,0.1-0.2,0.2c0,0,0,0,0,0.1c0,0,0.1,0.1,0.1,0.1c0,0,0.2,0,0.4-0.1
		L110.5,18.6z M111.2,17.6c-0.1,0-0.2,0-0.4,0c0,0,0.1,0,0.2,0.1c0.1,0,0.2,0.1,0.2,0.1L111.2,17.6z M110.8,13.7
		c0.1-0.1,0.2-0.2,0.2-0.2c0,0-0.1-0.1-0.2-0.2c-0.1,0.2-0.2,0.2-0.2,0.2C110.7,13.5,110.7,13.6,110.8,13.7 M110.8,13L110.8,13
		L110.8,13L110.8,13z M110.8,8.7l0.1-0.2l-0.2-0.1c0,0-0.1,0-0.2,0.1C110.7,8.6,110.8,8.7,110.8,8.7L110.8,8.7z M110.7,6.6
		c-0.1,0-0.1,0-0.1,0c0,0,0,0.1,0,0.1c0.1,0,0.1-0.1,0.1-0.1C110.7,6.7,110.7,6.6,110.7,6.6 M110.6,7.2L110.6,7.2L110.6,7.2
		C110.6,7.3,110.6,7.2,110.6,7.2C110.6,7.2,110.6,7.2,110.6,7.2C110.6,7.2,110.6,7.2,110.6,7.2 M110.4,7.7l-0.1,0.1l0.1,0.1
		c0,0,0,0,0.1-0.1C110.4,7.7,110.4,7.7,110.4,7.7 M110.4,9.4c-0.2,0.3-0.3,0.5-0.4,0.6l0.2,0.2c0.2-0.2,0.3-0.4,0.4-0.6
		C110.6,9.5,110.5,9.5,110.4,9.4C110.5,9.5,110.5,9.5,110.4,9.4 M110.1,11.1L110.1,11.1c0,0.1,0,0.1,0,0.1
		C110.1,11.2,110.2,11.2,110.1,11.1C110.1,11.1,110.1,11.1,110.1,11.1 M110.1,13.9c-0.1,0-0.1,0.1-0.1,0.1c0.1,0,0.1,0.1,0.1,0.1
		c0.1,0,0.1,0,0.1,0C110.2,14,110.2,14,110.1,13.9 M109.4,8.2L109.4,8.2L109.4,8.2L109.4,8.2z M108.8,23.9L108.8,23.9L108.8,23.9
		L108.8,23.9C108.9,23.8,108.9,23.8,108.8,23.9C108.9,23.8,108.9,23.8,108.8,23.9C108.9,23.8,108.9,23.8,108.8,23.9L108.8,23.9
		L108.8,23.9L108.8,23.9C108.8,23.9,108.8,23.9,108.8,23.9 M108.9,8.4C109,8.4,109,8.4,108.9,8.4l0.1-0.1l-0.1,0V8.4z M109.1,13
		L109.1,13l0-0.1h-0.1C109.1,13,109.1,13,109.1,13L109.1,13z M109.4,24.3L109.4,24.3L109.4,24.3L109.4,24.3z M109.3,9.3
		c0,0,0.1-0.1,0.1-0.1l-0.1-0.1c0,0,0,0-0.1,0.1C109.2,9.2,109.2,9.3,109.3,9.3C109.3,9.3,109.3,9.3,109.3,9.3
		C109.3,9.3,109.3,9.3,109.3,9.3 M109.4,23.5C109.5,23.5,109.5,23.5,109.4,23.5L109.4,23.5C109.5,23.5,109.5,23.4,109.4,23.5
		C109.5,23.4,109.5,23.5,109.4,23.5 M109.6,25.4c0-0.1,0.1-0.1,0.1-0.1c-0.1,0-0.1,0-0.1,0C109.5,25.3,109.5,25.3,109.6,25.4
		C109.5,25.3,109.6,25.4,109.6,25.4 M109.6,16.9L109.6,16.9C109.7,16.8,109.7,16.8,109.6,16.9L109.6,16.9
		C109.6,16.8,109.6,16.8,109.6,16.9 M109.6,15.3c0,0,0,0,0.1,0c0-0.1,0-0.1,0-0.1C109.6,15.2,109.6,15.3,109.6,15.3
		C109.6,15.3,109.6,15.3,109.6,15.3 M109.6,10.5l0.1-0.1c-0.1,0-0.2-0.1-0.2-0.1l-0.1,0.1C109.6,10.5,109.6,10.5,109.6,10.5
		L109.6,10.5z M109.8,8.1c0,0,0,0.1,0,0.1c0,0,0,0,0.1,0c0,0,0.1,0,0.1,0c0-0.1-0.1-0.1-0.1-0.2C109.8,8,109.8,8,109.8,8.1
		 M110.2,19.5c0,0-0.2,0-0.5-0.1c0.2,0.4,0.3,0.5,0.3,0.6c0.4,0.1,0.5,0,0.5-0.5C110.4,19.6,110.3,19.6,110.2,19.5 M110.3,21.7
		L110.3,21.7L110.3,21.7L110.3,21.7z M109.8,23.2c0,0,0.1,0.2,0.2,0.6c0.3-0.3,0.4-0.4,0.4-0.4c0,0,0.2-0.1,0.4-0.3
		c-0.2-0.3-0.3-0.5-0.4-0.5c-0.1,0-0.1,0-0.3,0.1l0,0C110,23,109.8,23.2,109.8,23.2 M109.9,24.6c0.2,0.1,0.3,0.1,0.4,0.1
		c0,0,0.1-0.1,0.3-0.2c-0.3-0.1-0.4-0.2-0.4-0.2C110.2,24.3,110.1,24.4,109.9,24.6 M110.2,26.4L110.2,26.4L110.2,26.4L110.2,26.4z
		 M110.2,26.4c0,0,0.1,0,0.1,0c0.1,0,0.1,0,0.1,0v0v0v-0.1C110.4,26.3,110.3,26.3,110.2,26.4 M110.2,25.4c0.2,0.1,0.3,0.2,0.5,0.2
		c0,0,0.2-0.1,0.4-0.2c-0.1-0.2-0.2-0.3-0.2-0.3c-0.2-0.1-0.3-0.1-0.3-0.1c-0.2,0-0.3,0-0.5,0.1c0,0,0,0,0,0.1
		C110.1,25.3,110.2,25.4,110.2,25.4 M111.8,25l0.5-0.2c-0.6-0.3-0.9-0.5-1.1-0.6c0,0,0,0,0,0l0,0c0.3,0.4,0.5,0.6,0.5,0.6
		S111.7,24.8,111.8,25 M112.5,16.1L112.5,16.1L112.5,16.1L112.5,16.1z M112.5,10.8L112.5,10.8L112.5,10.8L112.5,10.8z M112.6,15.2
		L112.6,15.2L112.6,15.2L112.6,15.2z M112.6,19.2L112.6,19.2L112.6,19.2L112.6,19.2z M112.6,8.7C112.6,8.7,112.6,8.7,112.6,8.7
		l0.1-0.1c-0.1-0.1-0.3-0.3-0.5-0.6c-0.1,0.2-0.1,0.4-0.1,0.4c0.1,0.1,0.2,0.2,0.2,0.2S112.4,8.6,112.6,8.7 M113.5,9.4
		c0,0,0.1,0,0.1,0l0-0.1h-0.1C113.5,9.4,113.5,9.4,113.5,9.4 M114,7.3L114,7.3C114,7.2,114,7.2,114,7.3c-0.1-0.1-0.1-0.1-0.1-0.1
		l0,0.1C113.9,7.3,113.9,7.3,114,7.3L114,7.3z M114.6,6.9C114.5,6.9,114.5,6.9,114.6,6.9C114.4,7,114.4,7,114.4,7
		c0,0.1,0.1,0.1,0.1,0.1l0.1-0.1l0,0C114.6,7,114.6,7,114.6,6.9 M114.5,8.3C114.6,8.3,114.6,8.3,114.5,8.3c0.1-0.1,0.1-0.1,0.1-0.1
		c-0.1,0-0.1-0.1-0.1-0.1c0,0-0.1,0,0,0C114.5,8.2,114.5,8.2,114.5,8.3 M115.1,6.6l0.1,0.1c0.1-0.1,0.1-0.1,0.1-0.1
		c-0.1-0.1-0.1-0.1-0.1-0.1C115.1,6.5,115.1,6.5,115.1,6.6L115.1,6.6z M115.3,7C115.3,7,115.3,7,115.3,7
		C115.2,7.1,115.2,7.1,115.3,7c-0.1,0.1,0,0.2,0,0.3c0.1-0.1,0.1-0.1,0.2-0.1C115.4,7.1,115.3,7,115.3,7 M115.4,8.3
		c0.1-0.2,0.2-0.3,0.2-0.3c0-0.1-0.1-0.1-0.1-0.1c-0.1,0-0.1,0.1-0.1,0.2C115.3,8,115.3,8.1,115.4,8.3 M116.9,9.4
		C116.9,9.4,116.9,9.4,116.9,9.4c-0.1-0.1-0.1,0-0.1,0C116.8,9.4,116.8,9.4,116.9,9.4C116.9,9.4,116.9,9.4,116.9,9.4 M117.6,7
		C117.7,7,117.7,7,117.6,7L117.6,7C117.7,6.9,117.6,6.9,117.6,7C117.6,7,117.6,7,117.6,7 M117.9,8.2c0,0,0.2-0.1,0.4-0.2
		c-0.2-0.1-0.3-0.2-0.3-0.2c0,0-0.1,0-0.3,0.1C117.8,8.1,117.8,8.2,117.9,8.2 M118.4,7.1h0.1l0-0.1h-0.1
		C118.4,7.1,118.4,7.1,118.4,7.1L118.4,7.1z M119.5,9.4l0.1-0.1c0,0-0.1-0.1-0.1-0.2l-0.1,0.1C119.4,9.3,119.4,9.3,119.5,9.4
		 M119.6,7.5c0,0,0.1,0.1,0.2,0.2c0,0,0.1-0.1,0.1-0.2c-0.1-0.1-0.1-0.1-0.2-0.2C119.6,7.5,119.6,7.5,119.6,7.5 M119.9,9
		c0-0.1,0-0.1,0-0.1l0,0C119.8,8.9,119.8,9,119.9,9L119.9,9z M120.4,8.5L120.4,8.5L120.4,8.5L120.4,8.5z M120.5,7.6l0.1-0.1
		l-0.2-0.1l-0.1,0.2l0,0C120.4,7.5,120.5,7.5,120.5,7.6 M98.8,6.1v10.2l0,10.5c0,0.5,0,0.7-0.1,0.8c-0.1,0.1-0.3,0.1-0.8,0.1h-3.2
		c-0.5,0-0.8,0-0.9-0.1c-0.1-0.1-0.1-0.4-0.1-0.9V6.2c0-0.5,0-0.8,0.1-0.8c0.1-0.1,0.4-0.1,0.9-0.1c0.8,0,1.9,0,3.3,0
		c0.4,0,0.7,0,0.8,0.1C98.8,5.4,98.8,5.6,98.8,6.1 M94.4,14.6L94.4,14.6L94.4,14.6L94.4,14.6z M97,7.9L97,7.9C96.9,8,97,8,97,7.9
		L97,7.9L97,7.9C97,7.9,97,7.9,97,7.9L97,7.9L97,7.9z M97,13.4L97,13.4c-0.1,0-0.1,0.1-0.1,0.2c0,0,0-0.1,0-0.1
		C96.9,13.4,97,13.4,97,13.4 M97,12.4C97,12.4,97,12.5,97,12.4L97,12.4C97.1,12.5,97.1,12.5,97,12.4L97,12.4L97,12.4z M96.6,9.9
		C96.5,9.9,96.5,9.9,96.6,9.9C96.5,10,96.5,10,96.6,9.9L96.6,9.9L96.6,9.9C96.6,9.9,96.6,9.9,96.6,9.9 M95.8,7.5L95.8,7.5
		c0,0.1,0,0.1,0.1,0.1C95.9,7.6,95.9,7.6,95.8,7.5C95.9,7.6,95.8,7.5,95.8,7.5 M95.5,19.1c-0.1,0-0.1,0.1-0.1,0.1c0,0,0,0,0,0
		C95.5,19.2,95.5,19.1,95.5,19.1 M94.7,12.4C94.8,12.4,94.8,12.4,94.7,12.4c0-0.1,0-0.1,0-0.1L94.7,12.4
		C94.7,12.4,94.7,12.4,94.7,12.4 M95,10.8L95,10.8C95,10.8,95,10.8,95,10.8C95,10.8,95,10.8,95,10.8C95,10.7,95,10.7,95,10.8
		C95,10.7,95,10.8,95,10.8C95,10.8,95,10.8,95,10.8L95,10.8z M95.5,23.3C95.5,23.3,95.5,23.3,95.5,23.3c0-0.1,0-0.2,0-0.2
		c0,0,0,0,0,0c0,0,0,0,0,0C95.4,23.2,95.4,23.3,95.5,23.3 M95.7,22.6L95.7,22.6C95.7,22.5,95.6,22.5,95.7,22.6L95.7,22.6L95.7,22.6
		L95.7,22.6z M95.8,20.4C95.9,20.3,95.9,20.3,95.8,20.4c0-0.1,0-0.1,0-0.1C95.7,20.2,95.7,20.3,95.8,20.4
		C95.7,20.3,95.8,20.3,95.8,20.4 M96.1,7.8C96.1,7.8,96.1,7.8,96.1,7.8C96.1,7.8,96.2,7.8,96.1,7.8c0-0.1,0-0.1-0.1-0.1
		C96,7.7,96,7.7,96.1,7.8C96.1,7.8,96.1,7.8,96.1,7.8 M96.3,8.5L96.3,8.5L96.3,8.5L96.3,8.5C96.3,8.5,96.3,8.5,96.3,8.5L96.3,8.5z
		 M96.4,22.8C96.5,22.8,96.5,22.8,96.4,22.8L96.4,22.8L96.4,22.8z M96.5,15.2c0-0.1,0-0.1,0-0.1l-0.1,0
		C96.5,15.1,96.5,15.2,96.5,15.2L96.5,15.2z M96.4,14.2c0,0,0.1,0,0.2-0.1c-0.1,0-0.1-0.1-0.1-0.1c0,0-0.1,0.1-0.1,0.1L96.4,14.2z
		 M96.8,13.6C96.8,13.6,96.8,13.6,96.8,13.6C96.9,13.6,96.9,13.6,96.8,13.6L96.8,13.6L96.8,13.6z M97.1,16.6L97.1,16.6
		c0-0.1-0.1-0.2-0.1-0.2L97.1,16.6z M97.1,10.9C97.1,10.9,97.1,10.9,97.1,10.9c0.1-0.1,0.1-0.1,0.1-0.1c-0.1-0.1-0.1-0.1-0.1-0.1
		L97,10.8C97,10.8,97,10.8,97.1,10.9C97,10.8,97,10.9,97.1,10.9 M97.3,14.1L97.3,14.1L97.3,14.1L97.3,14.1z M97.4,13.6
		C97.4,13.6,97.4,13.6,97.4,13.6c0-0.1-0.1-0.1-0.1,0L97.4,13.6C97.4,13.6,97.4,13.6,97.4,13.6L97.4,13.6z M97.5,21.2L97.5,21.2
		L97.5,21.2L97.5,21.2z M97.9,11.7L97.9,11.7L97.9,11.7L97.9,11.7z M82.9,7.4L82.9,7.4c0,0.1,0,0.1,0,0.1
		C82.8,7.5,82.8,7.5,82.9,7.4C82.9,7.4,82.9,7.4,82.9,7.4L82.9,7.4z M93,23.4c0,1.2,0,2.4,0,3.5c0,0.3,0,0.6-0.2,0.7
		c-0.1,0.1-0.4,0.2-0.7,0.2c-2.2,0-7.7,0-16.4,0h-2.1h-2.1c-0.5,0-0.8,0-0.9-0.1c-0.1-0.1-0.1-0.4-0.1-0.9V7.6V6.9V6.3
		c0-0.5,0-0.8,0.1-0.9c0.1-0.1,0.4-0.1,0.9-0.1h10.3h10.4c0.3,0,0.6,0,0.7,0.1C93,5.5,93,5.7,93,6c0,1.1,0,2.3,0,3.5
		c0,0.3,0,0.5-0.2,0.6c-0.1,0.1-0.3,0.1-0.7,0.1c-1.9,0-6.9,0-15.1,0l-0.7,0c-0.4,0-0.7,0-0.8,0.1c-0.1,0.1-0.1,0.3-0.1,0.7
		c0,0.8,0,3.4,0,7.9l0,2.7c0,0.4,0,0.7,0.1,0.8c0.1,0.1,0.3,0.1,0.8,0.1h11.5c2.5,0,3.9,0,4.3,0c0.3,0,0.5,0,0.7,0.1
		C93,22.9,93,23.1,93,23.4 M77.3,9.2c0.1,0,0.1-0.1,0.1-0.1c0,0,0,0,0-0.1c0,0,0-0.1,0-0.1l-0.1,0.1C77.2,9.1,77.3,9.1,77.3,9.2
		 M78,8.7c0.1-0.1,0.1-0.2,0.1-0.2c0-0.1-0.1-0.1-0.2-0.1c-0.1,0-0.1,0.1-0.1,0.2C77.8,8.6,77.8,8.6,78,8.7 M77.7,8
		c0.1,0,0.1,0,0.1,0l0-0.1c-0.1,0-0.1-0.1-0.1-0.1C77.7,7.9,77.7,8,77.7,8C77.7,8,77.7,8,77.7,8C77.7,8,77.7,8,77.7,8 M80.1,8.4
		l0.1-0.1c0,0-0.1-0.2-0.2-0.5L79.8,8c0,0,0,0.1,0,0.1S79.9,8.2,80.1,8.4 M81,8.9C81,8.9,81,8.9,81,8.9c0.1-0.1,0.1-0.1,0.1-0.1
		c0,0-0.1-0.1-0.2-0.2c0,0-0.1,0.1-0.1,0.1C80.9,8.8,81,8.9,81,8.9 M85.6,9.6L85.6,9.6C85.6,9.6,85.6,9.6,85.6,9.6L85.6,9.6
		C85.6,9.5,85.5,9.5,85.6,9.6C85.5,9.5,85.5,9.6,85.6,9.6 M86.4,9L86.4,9L86.4,9L86.4,9z M86,8.5c0.3,0.3,0.4,0.2,0.4-0.1
		c0-0.1,0-0.2-0.1-0.5c-0.1-0.2-0.3-0.3-0.6-0.5c-0.3-0.2-0.5-0.2-0.6-0.1c0,0,0,0.3,0,0.8c0,0,0,0.2,0.1,0.4l0,0
		c0.1,0.1,0.2,0.3,0.5,0.6c0-0.3,0.1-0.4,0.1-0.5c0,0,0,0,0.1,0C85.9,8.4,86,8.4,86,8.5 M87.3,7.1C87.3,7.1,87.3,7.1,87.3,7.1
		C87.3,7.1,87.2,7.1,87.3,7.1C87.2,7.1,87.2,7.1,87.3,7.1C87.2,7.1,87.2,7.1,87.3,7.1 M87.3,7.1c0.3,0.2,0.5,0.4,0.7,0.6
		c-0.1-0.2-0.1-0.5-0.2-0.6c-0.1,0-0.1-0.1-0.2-0.1c-0.1-0.1-0.2-0.1-0.2-0.1C87.3,6.9,87.3,7,87.3,7.1 M88,7.7
		c0.1,0.3,0.3,0.3,0.4,0c0,0-0.1,0-0.2,0H88z M90,9.3L90,9.3L90,9.3L90,9.3z M90,8.3v0.1c0,0.1,0,0.1,0,0.1c0.2-0.1,0.4-0.1,0.5-0.2
		L90,8.3z M90.5,8.4L90.5,8.4L90.5,8.4L90.5,8.4z M91.5,8.5L91.5,8.5L91.5,8.5L91.5,8.5z M91.2,7.1c0,0-0.1-0.1-0.1-0.1
		C91.1,7.1,91,7.2,91,7.2L91.2,7.1z M90.9,7.3c0,0,0,0.1,0,0.1v0.1l0,0C91,7.5,90.9,7.4,90.9,7.3 M90.7,6.2
		C90.7,6.2,90.7,6.2,90.7,6.2c0.1,0,0.1,0,0.1,0L90.7,6.2L90.7,6.2L90.7,6.2z M89.5,7.2c0,0,0,0.1,0.1,0.2c0.1,0.1,0.2,0.2,0.2,0.2
		c0,0,0.2-0.1,0.6-0.4C90.2,6.9,90,6.8,90,6.8C89.8,6.8,89.7,7,89.5,7.2 M89.1,6.6L89.1,6.6L89.1,6.6c0,0.1,0,0.1,0,0.1
		c0,0,0.1,0,0.1,0C89.1,6.6,89.1,6.6,89.1,6.6 M89.1,8.5c0,0-0.1-0.1-0.2-0.1c-0.1-0.1-0.1-0.1-0.2-0.1c-0.1,0.3-0.2,0.4-0.2,0.5
		c0,0,0,0.1,0.1,0.1c0.1,0.1,0.2,0.1,0.2,0.1C88.9,8.9,89,8.7,89.1,8.5 M88.7,7.6c0,0,0-0.1,0-0.1c-0.1,0.1-0.2,0.1-0.2,0.2
		L88.7,7.6z M88.6,6.5c-0.3,0.2-0.5,0.3-0.5,0.3c0,0-0.1,0.1-0.2,0.2C87.9,7,88,7,88,7c0.2-0.1,0.3-0.2,0.6-0.3
		C88.6,6.7,88.6,6.6,88.6,6.5 M87.3,6.2c0,0-0.2,0-0.4,0c0.2,0.2,0.3,0.3,0.3,0.3c0,0,0,0.1,0.1,0.3c0.1,0,0.1-0.1,0.1-0.1
		C87.4,6.4,87.4,6.2,87.3,6.2 M87.1,7.7c-0.1,0-0.2,0.1-0.3,0.2c0.3,0.4,0.5,0.7,0.7,0.9l0.1-0.1l0.1-0.1c-0.1-0.2-0.1-0.2-0.1-0.2
		S87.4,8.1,87.1,7.7 M86.2,6.3C86,6.4,85.9,6.5,86,6.6c0,0,0.1,0.1,0.3,0.2c0,0,0.1,0,0.3,0C86.4,6.6,86.3,6.4,86.2,6.3
		C86.2,6.4,86.2,6.4,86.2,6.3 M85.5,6.6c-0.4-0.1-0.6-0.1-0.7-0.1c0,0,0,0-0.1,0c0.1,0.1,0.4,0.2,0.7,0.3
		C85.5,6.7,85.5,6.7,85.5,6.6C85.5,6.6,85.5,6.6,85.5,6.6 M84.7,8.9L84.6,9c0.2,0.1,0.3,0.1,0.3,0.1c0,0,0.1,0,0.3-0.1
		C84.9,9,84.8,8.9,84.7,8.9C84.8,8.9,84.8,8.9,84.7,8.9 M84.2,7v0.1c0.1,0,0.1,0,0.1,0C84.2,7,84.2,7,84.2,7
		C84.2,6.9,84.2,6.9,84.2,7C84.2,7,84.2,7,84.2,7 M82.8,6.9c0,0-0.2,0.1-0.4,0.4c0.2,0.2,0.4,0.3,0.4,0.3l0,0l0,0v0
		c0.3,0.2,0.5,0.4,0.7,0.5c-0.1-0.4-0.2-0.5-0.2-0.6c-0.1-0.3-0.1-0.4-0.1-0.3c-0.2-0.2-0.3-0.3-0.3-0.3S82.9,6.8,82.8,6.9
		 M82.3,8.6c0,0,0-0.1-0.1-0.1c-0.1-0.1-0.1-0.1-0.1-0.1c0,0-0.2,0.1-0.4,0.2c0.2,0.2,0.2,0.3,0.2,0.3l0.4,0.4
		C82.3,8.9,82.3,8.7,82.3,8.6 M81.4,6.9c0,0,0,0.1,0.1,0.2c0,0,0.1,0,0.1,0.1c0,0,0.1,0.1,0.1,0.1C81.8,7.1,81.8,7,81.8,7
		s0-0.1-0.1-0.3C81.5,6.8,81.4,6.9,81.4,6.9 M81.4,9.2L81.4,9.2l-0.1,0C81.3,9.2,81.3,9.3,81.4,9.2C81.4,9.3,81.4,9.2,81.4,9.2
		 M80.7,7.6h-0.3l0.1,0.2c0.2,0,0.5,0,0.8,0l0.1-0.1C80.9,7.6,80.7,7.6,80.7,7.6L80.7,7.6z M80.5,7.1C80.5,7.1,80.4,7.1,80.5,7.1
		c-0.1,0-0.1,0-0.1,0v0.2v0.2C80.4,7.3,80.5,7.2,80.5,7.1 M79.7,6.9c0,0-0.2,0.1-0.4,0.3c0.3,0.2,0.5,0.3,0.5,0.3
		c0,0,0.2-0.1,0.5-0.3C79.9,7,79.7,6.9,79.7,6.9 M79.4,7.7L79.4,7.7L79.4,7.7L79.4,7.7z M79.1,9.1c0,0,0,0.1,0.1,0.3
		c0.2-0.3,0.3-0.5,0.3-0.5l-0.1-0.3C79.2,8.9,79.1,9.1,79.1,9.1C79.1,9.1,79.1,9.1,79.1,9.1 M78.6,6.7c-0.1,0.3-0.1,0.4-0.1,0.4
		c0,0,0.1,0.1,0.2,0.2L78.8,7c0,0,0,0,0,0S78.7,6.9,78.6,6.7 M78.7,8.6c0,0-0.1-0.1-0.3-0.4c-0.1,0.2-0.1,0.3-0.1,0.3
		c0,0,0.1,0.1,0.2,0.2C78.7,8.7,78.7,8.6,78.7,8.6 M78.3,7.7L78.3,7.7C78.3,7.7,78.3,7.8,78.3,7.7L78.3,7.7
		C78.4,7.7,78.4,7.7,78.3,7.7 M77.2,6.5c0,0.2,0,0.3,0,0.3c0,0.1,0,0.2,0.1,0.5c0.1,0,0.2-0.1,0.4-0.1c0.2,0,0.3-0.1,0.4-0.1
		c-0.4-0.3-0.6-0.4-0.7-0.5C77.4,6.6,77.4,6.6,77.2,6.5 M77.2,7.4c0,0.1-0.1,0.2-0.1,0.4C77,8,77,8.1,77,8.2c0,0,0.1,0,0.1,0
		c0.1,0,0.1,0,0.1,0V7.4z M75.8,9.4c0,0,0,0,0.1-0.1c-0.1,0-0.1,0-0.1,0l0,0.1C75.7,9.4,75.8,9.4,75.8,9.4 M76.1,8.2
		C76,8.2,76,8.2,76.1,8.2L76.1,8.2L76.1,8.2L76.1,8.2z M76.6,9.2C76.5,9.2,76.5,9.2,76.6,9.2c0,0.1,0,0.1,0,0.1h0h0L76.6,9.2
		L76.6,9.2C76.6,9.2,76.6,9.2,76.6,9.2 M75.5,6.3c-0.1,0.2-0.1,0.4-0.1,0.4c0.1,0.2,0.4,0.5,0.8,1c0.1,0.1,0.1,0.1,0.1,0
		c0,0,0.1-0.1,0.1-0.3c-0.4-0.5-0.6-0.8-0.7-0.9C75.8,6.6,75.7,6.5,75.5,6.3 M74.6,9.2c0,0.1-0.1,0.1-0.1,0.2l0.1,0
		c0,0,0.1-0.1,0.1-0.2h0C74.7,9.3,74.7,9.3,74.6,9.2 M73.8,19.3C73.8,19.3,73.8,19.2,73.8,19.3c-0.1-0.1-0.1-0.1-0.1-0.1
		c-0.1,0.1-0.2,0.2-0.3,0.3l0.2,0.2C73.7,19.5,73.8,19.4,73.8,19.3L73.8,19.3z M72.5,14.9l0.2,0.3c0.2-0.2,0.3-0.3,0.3-0.3
		c0,0,0,0,0-0.1c0,0-0.1-0.1-0.1,0c-0.1,0-0.2,0.1-0.2,0.1S72.6,14.8,72.5,14.9 M72.7,19.7L72.7,19.7L72.7,19.7L72.7,19.7z
		 M72.1,15.7l-0.1,0.1L72,16c0.1-0.1,0.1-0.1,0.1-0.1C72.1,15.8,72.1,15.8,72.1,15.7C72.1,15.8,72.1,15.7,72.1,15.7L72.1,15.7z
		 M72,15.1c0.1,0,0.1,0.1,0.1,0.1c0-0.1,0-0.1,0-0.1l0,0l0,0L72,15.1C72.1,15,72,15,72,15.1 M72.2,17.2
		C72.2,17.2,72.2,17.2,72.2,17.2c-0.1,0-0.1,0.1-0.1,0.1c0,0,0,0.1,0.1,0.2c0.2-0.1,0.3-0.1,0.2-0.1C72.3,17.3,72.2,17.2,72.2,17.2
		 M72.2,16.7C72.2,16.7,72.2,16.7,72.2,16.7C72.2,16.7,72.1,16.7,72.2,16.7C72.2,16.7,72.2,16.7,72.2,16.7
		C72.2,16.7,72.2,16.7,72.2,16.7 M72.3,13.1c0,0,0.1,0.1,0.3,0.2c0.1-0.4,0.1-0.6,0.1-0.7l-0.4-0.1C72.2,12.8,72.2,13,72.3,13.1
		 M72.6,10c0,0.1-0.1,0.3-0.1,0.5c0.3,0,0.5,0,0.6,0c0-0.1-0.1-0.2-0.1-0.5c0-0.1,0-0.2,0.1-0.4C73,9.5,73,9.4,73,9.3
		C72.8,9.7,72.7,9.9,72.6,10C72.6,10,72.6,10,72.6,10 M73.8,8.6C73.8,8.6,73.8,8.6,73.8,8.6C73.8,8.6,73.8,8.6,73.8,8.6
		C73.8,8.6,73.8,8.6,73.8,8.6 M74.2,11.3c-0.3,0-0.5,0-0.6,0l0,0.1C73.9,11.3,74.1,11.3,74.2,11.3L74.2,11.3z M73.9,10
		C73.9,10,73.9,10,73.9,10C74,10,74,10,73.9,10l0.1,0L73.9,10L73.9,10C74,9.9,73.9,9.9,73.9,10 M74.1,14.8L74.1,14.8L74.1,14.8
		L74.1,14.8z M74.1,13.8C74.1,13.8,74.2,13.8,74.1,13.8c0.1-0.1,0.1-0.1,0.2-0.1c0,0,0,0,0,0c0,0,0,0,0,0L74.1,13.8z M73.8,12.7
		c-0.1-0.1-0.2-0.2-0.5-0.4l-0.1,0.2c0.1,0.1,0.2,0.2,0.5,0.4C73.7,12.8,73.8,12.7,73.8,12.7 M73.6,16.4c0,0,0-0.1-0.1-0.3
		c-0.1,0.1-0.2,0.2-0.2,0.2c0,0,0.1,0.1,0.2,0.2C73.6,16.4,73.6,16.4,73.6,16.4 M73.2,13.7L73.2,13.7L73.2,13.7L73.2,13.7z M73,11.9
		C72.9,11.9,72.9,11.9,73,11.9C72.9,11.9,72.9,11.9,73,11.9C72.9,11.9,73,11.9,73,11.9C73,11.9,73,11.9,73,11.9 M73,11.3L73,11.3
		L73,11.3L73,11.3z M72.9,14.1C72.9,14.1,72.9,14,72.9,14.1c0-0.1,0-0.1,0-0.1c-0.1,0-0.1,0.1-0.1,0.1c0,0,0,0.1,0,0.1
		C72.8,14.1,72.8,14.1,72.9,14.1 M73.2,17.1c-0.2,0.1-0.2,0.2-0.3,0.2c0.4,0.3,0.7,0.4,0.8,0.5c0,0,0.1,0,0.2-0.2
		C73.7,17.5,73.4,17.3,73.2,17.1 M74,15.5c0.2,0.2,0.4,0.4,0.5,0.5l0.3-0.2c-0.1-0.1-0.2-0.1-0.3-0.2c-0.2-0.1-0.3-0.2-0.4-0.3
		C74,15.4,74,15.5,74,15.5 M74.3,11.1L74.3,11.1L74.3,11.1C74.3,11.2,74.3,11.2,74.3,11.1C74.3,11.2,74.3,11.1,74.3,11.1 M74.3,6.7
		c-0.1,0-0.2,0.1-0.3,0.1c0,0,0.1,0,0.1,0C74.2,6.8,74.3,6.8,74.3,6.7C74.3,6.7,74.3,6.7,74.3,6.7 M73.6,7.4
		c-0.1,0.2-0.2,0.4-0.1,0.4c0,0,0.2,0.1,0.5,0.2c0.1-0.3,0.2-0.4,0.2-0.5c0,0,0-0.3-0.1-0.8C73.8,7.1,73.6,7.3,73.6,7.4 M72.6,7.1
		c0,0.4,0,0.6,0,0.6c0,0.2,0.2,0.4,0.3,0.7c0.3,0.4,0.6,0.5,0.9,0.1c-0.6-0.6-0.9-0.9-0.9-1C72.9,7.6,72.8,7.4,72.6,7.1 M72.5,9.4
		L72.5,9.4c0,0.1,0,0.1,0,0.1C72.5,9.5,72.5,9.5,72.5,9.4C72.5,9.4,72.5,9.4,72.5,9.4 M72.1,6.3L72.1,6.3L72.1,6.3L72.1,6.3z
		 M72.1,11.3C72.1,11.3,72,11.3,72.1,11.3c-0.1,0.1-0.2,0.1-0.2,0.1c0,0.1,0,0.2,0.1,0.2l0.2-0.1C72.2,11.4,72.1,11.3,72.1,11.3
		C72.1,11.3,72.1,11.3,72.1,11.3 M71.4,10L71.4,10L71.4,10L71.4,10z M71.5,11.1C71.5,11.1,71.5,11.1,71.5,11.1
		C71.5,11.1,71.5,11.1,71.5,11.1L71.5,11.1L71.5,11.1C71.5,11.1,71.5,11.1,71.5,11.1 M71.6,17h0.1C71.7,17,71.6,16.9,71.6,17
		C71.6,16.9,71.6,16.9,71.6,17C71.6,17,71.6,17,71.6,17 M71.9,7.9C71.8,7.9,71.8,7.9,71.9,7.9L71.9,7.9C71.8,7.9,71.9,7.9,71.9,7.9
		 M71.9,9.6L71.9,9.6L71.9,9.6L71.9,9.6z M71.9,13.9L71.8,14l0.1,0c0,0,0,0,0.1-0.1C71.9,13.9,71.9,13.9,71.9,13.9
		C71.9,13.9,71.9,13.9,71.9,13.9 M72.3,23.3L72.3,23.3c0-0.1,0-0.1,0-0.1C72.3,23.3,72.3,23.3,72.3,23.3
		C72.3,23.3,72.3,23.3,72.3,23.3 M72.4,19.3C72.4,19.3,72.4,19.3,72.4,19.3C72.3,19.2,72.3,19.2,72.4,19.3l-0.1,0
		C72.3,19.3,72.4,19.3,72.4,19.3 M72.2,18.6C72.3,18.6,72.3,18.6,72.2,18.6c0.1-0.1,0.1-0.1,0.2-0.1c-0.2-0.2-0.4-0.3-0.5-0.4
		c0,0.1,0.1,0.2,0.2,0.3C72.1,18.5,72.2,18.5,72.2,18.6 M72.6,26L72.6,26C72.6,25.9,72.6,25.9,72.6,26c-0.1,0-0.1,0-0.1,0
		C72.5,26,72.5,26,72.6,26C72.6,26,72.6,26,72.6,26 M72.8,21.9C72.8,21.8,72.8,21.8,72.8,21.9C72.8,21.8,72.8,21.8,72.8,21.9
		c0.1-0.1,0.1-0.2,0.2-0.2c-0.2-0.1-0.3-0.1-0.4-0.1l0-0.1l0,0.1C72.6,21.6,72.7,21.7,72.8,21.9C72.8,21.8,72.8,21.8,72.8,21.9
		 M73.5,18.4h-0.2h-0.2c0,0.1,0.1,0.2,0.1,0.2C73.4,18.5,73.5,18.5,73.5,18.4 M73.5,25.5L73.5,25.5L73.5,25.5L73.5,25.5z M73.9,21.3
		L73.9,21.3L73.9,21.3L73.9,21.3z M73.6,20.4c0,0,0.2,0,0.5,0c-0.4-0.2-0.5-0.3-0.6-0.3c0,0-0.1,0-0.2,0.1
		C73.4,20.3,73.5,20.4,73.6,20.4 M74.5,25.4c0-0.1,0.1-0.2,0.1-0.2c0,0,0-0.1-0.1-0.1c0,0-0.1,0-0.3,0.1c0.1,0,0.2,0.1,0.3,0.1
		C74.4,25.4,74.5,25.4,74.5,25.4 M74.8,23.8C74.8,23.8,74.8,23.8,74.8,23.8c0-0.1,0-0.1,0-0.1L74.8,23.8
		C74.8,23.7,74.8,23.7,74.8,23.8C74.8,23.7,74.8,23.8,74.8,23.8 M74.8,8.4C74.8,8.4,74.9,8.3,74.8,8.4l0-0.1
		C74.8,8.3,74.7,8.4,74.8,8.4L74.8,8.4z M75,24.9L75,24.9L75,24.9L75,24.9z M75,25.7c0.1,0,0.1-0.1,0.1-0.1l0-0.1
		C75,25.7,75,25.7,75,25.7L75,25.7z M75.5,24.4L75.5,24.4L75.5,24.4L75.5,24.4z M75.4,8c0,0,0.1,0,0.1-0.1c0,0-0.1-0.1-0.1-0.1
		C75.4,7.9,75.4,8,75.4,8L75.4,8C75.4,8,75.4,8,75.4,8 M76.1,24.6L76.1,24.6L76.1,24.6L76.1,24.6z M76.3,26C76.4,26,76.4,26,76.3,26
		L76.3,26C76.4,26,76.4,26,76.3,26C76.4,26,76.4,26,76.3,26L76.3,26z M86.8,24.7c-0.1,0-0.1,0.1-0.1,0.1c0,0.1,0.1,0.1,0.1,0.1
		l0.1,0L86.8,24.7z M81.5,24.3L81.5,24.3L81.5,24.3L81.5,24.3z M77.3,25l0.2-0.3c0,0,0-0.1-0.1-0.2c-0.1,0.1-0.2,0.2-0.2,0.2v0
		C77.2,24.8,77.2,24.9,77.3,25 M78,24.5L78,24.5L78,24.5L78,24.5z M78.2,25.9c0.1-0.1,0.1-0.1,0.1-0.2c-0.1-0.2-0.2-0.2-0.1-0.2
		L78,25.7c0,0,0,0,0,0S78.1,25.8,78.2,25.9 M79.9,26.5C80,26.4,80,26.4,79.9,26.5c0-0.1,0-0.2,0-0.2l0,0c0,0,0,0,0,0L79.9,26.5
		C79.9,26.4,79.9,26.4,79.9,26.5 M80.7,24.3c0-0.1,0.1-0.2,0.1-0.2L80.6,24c0,0.1,0,0.2,0,0.2C80.6,24.2,80.6,24.2,80.7,24.3
		 M81.7,25.4c0,0,0-0.1-0.1-0.3c-0.1,0.2-0.2,0.3-0.2,0.3c0,0,0.1,0.1,0.2,0.2C81.6,25.5,81.7,25.4,81.7,25.4 M81.8,27.1
		C81.9,27,81.9,27,81.8,27.1C81.9,27,81.9,27,81.8,27.1C81.9,27,81.9,27,81.8,27.1C81.9,27,81.9,27,81.8,27.1 M82.3,25.5L82.3,25.5
		L82.3,25.5L82.3,25.5z M82.6,26.8c0,0,0.1,0,0.1-0.1c0-0.1-0.1-0.1-0.1-0.1C82.6,26.7,82.6,26.8,82.6,26.8
		C82.6,26.8,82.6,26.8,82.6,26.8C82.6,26.8,82.6,26.8,82.6,26.8 M83.5,26c0-0.1,0.1-0.1,0.1-0.1c-0.1,0-0.1,0-0.1,0l0,0
		C83.4,25.9,83.4,25.9,83.5,26C83.4,25.9,83.4,25.9,83.5,26C83.4,25.9,83.5,26,83.5,26 M84.2,26.5L84.2,26.5L84.2,26.5L84.2,26.5z
		 M84.2,25c0,0,0.1-0.1,0.3-0.2c-0.2-0.1-0.3-0.2-0.3-0.2c0,0-0.1,0-0.3,0.1C84.1,25,84.2,25,84.2,25 M84.6,26.1L84.6,26.1
		L84.6,26.1z M85.1,24.7C85.1,24.7,85.1,24.7,85.1,24.7c0.1-0.1,0.2-0.1,0.1-0.1C85.2,24.7,85.2,24.7,85.1,24.7
		C85.1,24.7,85.1,24.7,85.1,24.7 M86.2,24.3l0-0.1c0,0,0,0-0.1-0.1l0,0.1v0C86.1,24.3,86.1,24.3,86.2,24.3 M86.2,23.8L86.2,23.8
		C86.3,23.8,86.2,23.8,86.2,23.8L86.2,23.8C86.2,23.8,86.2,23.8,86.2,23.8 M86.5,26.3c0.1,0,0.1,0,0.1,0c-0.1-0.6-0.1-0.9-0.1-0.8
		C86.5,25.7,86.5,26,86.5,26.3 M87.2,25.7L87.2,25.7c-0.2-0.1-0.3-0.2-0.4-0.2c0,0-0.1,0-0.2,0c0.1,0.1,0.1,0.1,0.1,0.1
		C86.7,25.6,86.9,25.6,87.2,25.7 M86.9,24.3c0.1,0,0.2,0.1,0.3,0.1c0.2,0.1,0.3,0.1,0.3,0.1c0.1-0.3,0.1-0.5,0.2-0.7
		c-0.2,0.1-0.3,0.2-0.3,0.2c0,0,0,0,0,0S87.3,24.2,86.9,24.3 M88,24.1L88,24.1c0-0.1-0.1-0.1-0.1-0.1L88,24.1z M88.5,26.8L88.5,26.8
		L88.5,26.8L88.5,26.8z M88.6,25L88.6,25C88.6,25,88.5,24.9,88.6,25l-0.1,0L88.6,25L88.6,25z M89,27L89,27L89,27L89,27z M89.2,24.7
		C89.2,24.7,89.2,24.7,89.2,24.7C89.2,24.8,89.2,24.8,89.2,24.7c0.1,0,0.2,0,0.3,0C89.5,24.7,89.3,24.7,89.2,24.7 M89.4,25.7
		c0,0,0.1-0.1,0.1-0.1c-0.1-0.1-0.1-0.2-0.1-0.1c-0.1,0.1-0.1,0.1-0.1,0.1C89.3,25.6,89.3,25.7,89.4,25.7 M89.9,25
		C89.9,25,89.9,25,89.9,25c0.1-0.1,0.1-0.1,0.1-0.2c-0.2-0.1-0.3-0.1-0.4-0.2C89.7,24.8,89.8,24.9,89.9,25 M90.8,24.6
		C90.8,24.6,90.8,24.6,90.8,24.6L90.8,24.6L90.8,24.6z M91.5,25.2C91.6,25.2,91.6,25.1,91.5,25.2c0-0.1,0-0.1,0-0.2l-0.1,0.1
		C91.5,25.1,91.5,25.2,91.5,25.2 M69.8,6.1v10.2l0,10.5c0,0.5,0,0.7-0.1,0.8c-0.1,0.1-0.3,0.1-0.8,0.1h-3.2c-0.5,0-0.8,0-0.9-0.1
		c-0.1-0.1-0.1-0.4-0.1-0.9V6.2c0-0.5,0-0.8,0.1-0.8c0.1-0.1,0.4-0.1,0.9-0.1c0.8,0,1.9,0,3.3,0c0.4,0,0.7,0,0.8,0.1
		C69.8,5.4,69.8,5.6,69.8,6.1 M65.4,14.6L65.4,14.6L65.4,14.6L65.4,14.6z M68,7.9L68,7.9C68,8,68,8,68,7.9L68,7.9L68,7.9
		C68.1,7.9,68,7.9,68,7.9L68,7.9L68,7.9z M68,13.4L68,13.4c-0.1,0-0.1,0.1-0.1,0.2c0,0,0-0.1,0-0.1C68,13.4,68,13.4,68,13.4
		 M68,12.4C68,12.4,68,12.5,68,12.4L68,12.4C68.1,12.5,68.1,12.5,68,12.4L68,12.4L68,12.4z M67.6,9.9C67.6,9.9,67.6,9.9,67.6,9.9
		C67.5,10,67.6,10,67.6,9.9L67.6,9.9L67.6,9.9C67.6,9.9,67.6,9.9,67.6,9.9 M66.8,7.5L66.8,7.5c0,0.1,0,0.1,0.1,0.1
		C66.9,7.6,66.9,7.6,66.8,7.5C66.9,7.6,66.9,7.5,66.8,7.5 M66.6,19.1c-0.1,0-0.1,0.1-0.1,0.1c0,0,0,0,0,0
		C66.5,19.2,66.5,19.1,66.6,19.1 M65.7,12.4C65.8,12.4,65.8,12.4,65.7,12.4c0-0.1,0-0.1,0-0.1L65.7,12.4
		C65.7,12.4,65.7,12.4,65.7,12.4 M66,10.8L66,10.8C66,10.8,66,10.8,66,10.8C66,10.8,66,10.8,66,10.8C66,10.7,66,10.7,66,10.8
		C66,10.7,66,10.8,66,10.8C66,10.8,66,10.8,66,10.8L66,10.8z M66.5,23.3C66.5,23.3,66.5,23.3,66.5,23.3c0-0.1,0-0.2,0-0.2
		c0,0,0,0,0,0c0,0,0,0,0,0C66.4,23.2,66.4,23.3,66.5,23.3 M66.7,22.6L66.7,22.6C66.7,22.5,66.7,22.5,66.7,22.6L66.7,22.6L66.7,22.6
		L66.7,22.6z M66.8,20.4C66.9,20.3,66.9,20.3,66.8,20.4c0-0.1,0-0.1,0-0.1C66.8,20.2,66.7,20.3,66.8,20.4
		C66.8,20.3,66.8,20.3,66.8,20.4 M67.1,7.8C67.1,7.8,67.1,7.8,67.1,7.8C67.2,7.8,67.2,7.8,67.1,7.8c0-0.1,0-0.1-0.1-0.1
		C67,7.7,67,7.7,67.1,7.8C67.1,7.8,67.1,7.8,67.1,7.8 M67.3,8.5L67.3,8.5L67.3,8.5L67.3,8.5C67.3,8.5,67.3,8.5,67.3,8.5L67.3,8.5z
		 M67.5,22.8C67.5,22.8,67.5,22.8,67.5,22.8L67.5,22.8L67.5,22.8z M67.5,15.2c0-0.1,0-0.1,0-0.1l-0.1,0
		C67.5,15.1,67.5,15.2,67.5,15.2L67.5,15.2z M67.5,14.2c0,0,0.1,0,0.2-0.1c-0.1,0-0.1-0.1-0.1-0.1c0,0-0.1,0.1-0.1,0.1L67.5,14.2z
		 M67.8,13.6C67.9,13.6,67.9,13.6,67.8,13.6C67.9,13.6,67.9,13.6,67.8,13.6L67.8,13.6L67.8,13.6z M68.1,16.6L68.1,16.6
		c0-0.1-0.1-0.2-0.1-0.2L68.1,16.6z M68.1,10.9C68.1,10.9,68.1,10.9,68.1,10.9c0.1-0.1,0.1-0.1,0.1-0.1c-0.1-0.1-0.1-0.1-0.1-0.1
		L68,10.8C68,10.8,68,10.8,68.1,10.9C68,10.8,68.1,10.9,68.1,10.9 M68.4,14.1L68.4,14.1L68.4,14.1L68.4,14.1z M68.4,13.6
		C68.4,13.6,68.4,13.6,68.4,13.6c0-0.1-0.1-0.1-0.1,0L68.4,13.6C68.4,13.6,68.4,13.6,68.4,13.6L68.4,13.6z M68.5,21.2L68.5,21.2
		L68.5,21.2L68.5,21.2z M68.9,11.7L68.9,11.7L68.9,11.7L68.9,11.7z M64.3,5.2c0.4,0,0.7,0,0.7,0.1c0,0.1,0,0.3-0.2,0.7
		c-0.3,0.7-1.5,3.6-3.7,8.9c-2.8,6.6-4.4,10.6-5,12c-0.2,0.6-0.6,0.8-1.2,0.8c-0.1,0-1,0-2.4,0h-2.6c-0.4,0-0.8-0.2-0.9-0.6
		c-1.2-2.8-3.2-7.6-6-14.4c-0.3-0.6-0.7-1.8-1.4-3.4c-0.6-1.4-1.1-2.5-1.4-3.3c-0.2-0.4-0.2-0.6-0.2-0.7c0-0.1,0.3-0.1,0.7-0.1
		c2.7,0,4,0,3.9,0c0.5,0,0.8,0.2,1,0.7c1.5,3.7,3.6,8.7,6.4,15.2c0,0,0.2,0.3,0.5,0.8c0.3-0.5,0.5-0.8,0.5-0.8
		c2.9-6.9,5-11.9,6.3-15.1c0.3-0.6,0.7-0.9,1.4-0.9C60.6,5.2,61.9,5.2,64.3,5.2 M43.6,8.1L43.6,8.1L43.6,8.1L43.6,8.1z M43.2,9.5
		C43.2,9.5,43.2,9.5,43.2,9.5C43.2,9.4,43.2,9.4,43.2,9.5L43.2,9.5L43.2,9.5C43.1,9.5,43.1,9.5,43.2,9.5 M43.9,9.7l-0.1-0.2
		c-0.1,0.3-0.2,0.5-0.2,0.6c0,0,0.1,0,0.2,0.1C43.8,9.9,43.9,9.7,43.9,9.7C43.9,9.7,43.9,9.7,43.9,9.7 M44.5,10.9c0-0.1,0-0.1,0-0.1
		l-0.1-0.1c0,0.1,0,0.1,0,0.1C44.4,10.9,44.4,10.9,44.5,10.9 M45,9.3C45,9.3,45,9.3,45,9.3L45,9.3c0,0.1,0,0.1,0,0.1
		c0,0,0,0,0.1-0.1C45.1,9.4,45.1,9.3,45,9.3L45,9.3z M44.9,11.5L44.9,11.5L44.9,11.5L44.9,11.5z M45,12.9L45,12.9c0-0.1,0-0.1,0-0.1
		C45,12.8,45,12.8,45,12.9C45,12.9,45,12.9,45,12.9 M45.1,10.7c0,0,0.1,0,0.1,0c0-0.1-0.1-0.1-0.1-0.1c0,0-0.1,0-0.1,0
		C45,10.6,45.1,10.6,45.1,10.7 M61,8.7C61,8.7,61,8.8,61,8.7C61,8.8,61,8.8,61,8.7L61,8.7C61.1,8.7,61,8.7,61,8.7 M60.8,7.9
		L60.8,7.9L60.8,7.9z M60.5,9.3c-0.1,0.2-0.1,0.2-0.1,0.2c0.2,0.1,0.4,0.1,0.5,0.1C60.8,9.5,60.7,9.4,60.5,9.3 M60.1,8L60.1,8
		L60.1,8z M59.7,8.8L59.7,8.8L59.7,8.8L59.7,8.8z M58.7,15.3C58.6,15.4,58.6,15.4,58.7,15.3c0,0.1,0,0.1,0,0.1
		C58.7,15.5,58.7,15.5,58.7,15.3C58.7,15.4,58.7,15.4,58.7,15.3 M57.9,16.3C58,16.1,58,16,58,15.9c-0.1,0-0.2,0-0.2,0
		C57.8,16,57.9,16.2,57.9,16.3 M58,15.9C58,15.9,58,15.9,58,15.9L58,15.9z M57.6,17L57.6,17L57.6,17L57.6,17z M57.5,14.9L57.5,14.9
		L57.5,14.9L57.5,14.9z M57.3,13.5C57.3,13.5,57.3,13.5,57.3,13.5L57.3,13.5z M56.2,15.4L56.2,15.4L56.2,15.4L56.2,15.4z M56.4,17
		c-0.1,0.3-0.2,0.4-0.2,0.4c0,0.1,0.2,0.2,0.5,0.5l0.2-0.2c0-0.1-0.1-0.1-0.1-0.1S56.7,17.4,56.4,17 M56,18.8
		C56,18.9,55.9,19,55.9,19c0,0,0,0,0,0c0,0,0.1,0,0.1,0c0,0,0.1-0.1,0.1-0.2C56.1,18.9,56.1,18.9,56,18.8 M55.9,20.2
		c0,0,0,0.1,0.1,0.3c0.1,0,0.1-0.1,0.2-0.1c0-0.2,0.1-0.2,0.1-0.2c0,0,0,0-0.1-0.1c0,0-0.1,0-0.1,0C55.9,20.1,55.9,20.2,55.9,20.2
		 M55.4,18.6l0,0.1c0,0,0.1,0,0.1,0.1c0-0.1,0-0.1,0-0.1C55.5,18.6,55.5,18.6,55.4,18.6C55.5,18.6,55.5,18.6,55.4,18.6 M54.9,19.7
		L54.9,19.7L54.9,19.7L54.9,19.7C54.9,19.8,54.9,19.8,54.9,19.7C54.9,19.8,54.9,19.8,54.9,19.7 M54.8,21.4l-0.2,0.2
		c0,0,0.1,0.2,0.2,0.5c0.1-0.3,0.2-0.4,0.2-0.4v0C55,21.6,54.9,21.6,54.8,21.4 M54.5,22.5C54.5,22.5,54.5,22.5,54.5,22.5
		C54.5,22.5,54.5,22.5,54.5,22.5L54.5,22.5z M54.4,20.8L54.4,20.8L54.4,20.8L54.4,20.8z M54.4,22.6c0,0.1,0,0.1,0,0.2
		c0,0.1,0,0.2,0,0.2h0.1c0,0,0.1,0,0.1,0C54.5,22.9,54.5,22.7,54.4,22.6C54.5,22.6,54.4,22.6,54.4,22.6 M54.2,22.3L54.2,22.3
		L54.2,22.3L54.2,22.3z M51.6,23.8C51.6,23.8,51.6,23.8,51.6,23.8C51.6,23.8,51.6,23.8,51.6,23.8C51.5,23.8,51.5,23.8,51.6,23.8
		C51.5,23.8,51.5,23.9,51.6,23.8L51.6,23.8C51.5,23.9,51.6,23.9,51.6,23.8 M51.4,21.7c-0.1,0.1-0.1,0.2-0.1,0.2l0,0l0,0
		c0,0,0.1-0.1,0.1-0.2C51.5,21.8,51.5,21.7,51.4,21.7C51.4,21.7,51.4,21.7,51.4,21.7L51.4,21.7z M51,22.5C51,22.5,51,22.5,51,22.5
		c-0.1,0-0.2,0-0.2,0C50.8,22.6,50.9,22.6,51,22.5C51,22.6,51,22.5,51,22.5 M51.1,23.2c-0.3-0.1-0.5-0.2-0.5-0.2
		c-0.4,0-0.4,0.1-0.2,0.4c0.2,0,0.3-0.1,0.3-0.1c0,0,0,0,0,0S50.9,23.3,51.1,23.2 M50.4,20.6c0,0,0,0.1-0.1,0.2
		c0.1,0.1,0.2,0.1,0.2,0.1c0,0,0.1-0.1,0.2-0.2C50.5,20.6,50.4,20.6,50.4,20.6 M50,20.1L50,20.1L50,20.1L50,20.1z M50.3,21.6
		c-0.1,0.1-0.3,0.2-0.5,0.3C49.9,22,50,22.1,50,22c0.1,0,0.2-0.1,0.6-0.3C50.4,21.7,50.3,21.6,50.3,21.6 M50.2,22.5
		c-0.1,0-0.1,0-0.2,0c-0.5,0.3-0.8,0.5-1.1,0.6c0,0,0.1,0.1,0.2,0.1c0.1,0.1,0.2,0.1,0.2,0.1c0.2,0.1,0.2,0.3,0.2,0.5
		c0,0,0,0,0.1,0.1c0.1,0,0.1,0,0.1,0c0.1,0,0.1-0.1,0.1-0.3c0-0.1,0-0.5,0-1.2C50.1,22.5,50.1,22.5,50.2,22.5 M49.2,19.1L49,19.3
		c0,0,0.1,0.1,0.2,0.3c0,0,0.1-0.1,0.1-0.1c0-0.1,0.1-0.1,0.1-0.1c0,0,0,0,0,0S49.4,19.3,49.2,19.1 M48.9,20.4c0,0,0,0-0.1,0
		c-0.1,0-0.1,0.1-0.1,0.1c0,0,0.1,0.2,0.2,0.5l0.2-0.3c0-0.1,0-0.2,0-0.2S49,20.5,48.9,20.4 M48.3,18.4
		C48.3,18.4,48.2,18.4,48.3,18.4c-0.1-0.1-0.1-0.1-0.1-0.1c0,0,0,0.1,0,0.1c0,0.1,0,0.1,0,0.1C48.2,18.5,48.2,18.5,48.3,18.4
		C48.2,18.4,48.3,18.4,48.3,18.4 M48.1,18.2c-0.1-0.2-0.2-0.4-0.2-0.5c-0.2,0.4-0.3,0.6-0.3,0.5H48.1z M47.5,14.1L47.5,14.1
		L47.5,14.1L47.5,14.1z M47.7,14.8c0,0-0.1,0.1-0.2,0.2c0.1,0.1,0.2,0.2,0.2,0.2c0,0,0.1-0.1,0.2-0.2C47.7,14.8,47.7,14.8,47.7,14.8
		 M47.4,16.3L47.4,16.3C47.4,16.3,47.4,16.3,47.4,16.3C47.4,16.3,47.4,16.3,47.4,16.3 M46.9,14.2C46.8,14.2,46.8,14.2,46.9,14.2
		L46.9,14.2L46.9,14.2C46.8,14.2,46.9,14.2,46.9,14.2L46.9,14.2z M46.2,11.3c-0.1,0.1-0.1,0.2-0.1,0.2l0.1,0.1
		c0-0.1,0.1-0.1,0.1-0.2c0,0,0,0,0,0S46.3,11.4,46.2,11.3 M45.6,12c0,0.1-0.1,0.1-0.1,0.1c0,0,0.1,0,0.1,0.1l0.1-0.1L45.6,12
		C45.7,12,45.7,12,45.6,12 M45.5,15C45.5,15,45.5,15,45.5,15c0-0.1-0.1,0-0.1,0C45.4,15,45.4,15,45.5,15L45.5,15
		C45.5,15,45.5,15,45.5,15 M45.7,13.6c0.1,0,0.1-0.1,0.1-0.1l-0.1-0.1c0,0,0,0-0.1,0C45.6,13.4,45.6,13.4,45.7,13.6
		C45.7,13.5,45.7,13.5,45.7,13.6L45.7,13.6z M46.2,16.5L46.2,16.5L46.2,16.5L46.2,16.5z M46.1,16c0,0,0.1-0.2,0.3-0.6l-0.2-0.1
		c-0.1,0.2-0.2,0.4-0.2,0.5h0C46,15.8,46,15.9,46.1,16 M46.7,17.9c0,0,0.1,0.1,0.2,0.3c0.2-0.4,0.4-0.7,0.5-0.9c0,0-0.1-0.1-0.2-0.1
		c-0.1,0-0.1-0.1-0.1-0.1C46.9,17.5,46.8,17.8,46.7,17.9 M47.2,20.2c0.1-0.1,0.1-0.2,0.2-0.3c0,0-0.1,0-0.1,0c0,0-0.1,0-0.1,0
		L47.2,20.2z M47.3,19l0.2,0.1c0.1-0.4,0.1-0.7,0.1-0.8c0,0,0,0,0,0C47.5,18.6,47.3,18.9,47.3,19 M47.6,21.9L47.6,21.9
		C47.6,21.8,47.6,21.8,47.6,21.9L47.6,21.9z M47.9,22.1L47.9,22.1C47.9,22,47.9,22,47.9,22.1c-0.1-0.1-0.1-0.2-0.2-0.2
		c0,0,0.1,0.1,0.1,0.1C47.8,22,47.8,22,47.9,22.1C47.8,22,47.8,22.1,47.9,22.1 M48.2,21.3C48.2,21.2,48.2,21.2,48.2,21.3
		c0.1-0.1,0.1-0.1,0.1-0.1L48.2,21c0,0-0.1,0-0.1,0C48.2,21.2,48.2,21.2,48.2,21.3C48.2,21.2,48.2,21.2,48.2,21.3 M48.4,17.6
		L48.4,17.6c-0.1,0-0.1,0-0.1,0C48.3,17.6,48.3,17.6,48.4,17.6L48.4,17.6z M48.3,16.8l0.1,0c0,0,0,0,0-0.1c0,0,0,0-0.1,0
		c0,0,0,0,0,0C48.3,16.7,48.3,16.7,48.3,16.8C48.3,16.7,48.3,16.7,48.3,16.8 M48.6,19.7L48.6,19.7c0,0.1,0.1,0.1,0.1,0.1v-0.1
		C48.7,19.7,48.7,19.7,48.6,19.7C48.7,19.7,48.6,19.7,48.6,19.7 M49.1,21.4l-0.5,0.5c0.2,0.2,0.3,0.3,0.4,0.4
		c0.1-0.1,0.2-0.2,0.3-0.4C49.2,21.6,49.2,21.5,49.1,21.4 M48.8,22.9c0,0,0,0.1-0.1,0.1c0.1,0,0.2,0,0.2,0
		C48.9,23,48.8,22.9,48.8,22.9 M49.1,24.7c0.4,0.1,0.5,0.1,0.6,0.1c0,0,0.3,0,0.7,0.1c0.3-0.2,0.5-0.4,0.6-0.4c0,0,0.1-0.1,0.1-0.3
		c-0.2,0-0.3,0-0.3,0c-0.5,0.1-0.9,0.2-1.1,0.3C49.6,24.5,49.5,24.5,49.1,24.7 M50.2,26.7c0,0,0,0,0.1-0.1c-0.1-0.1-0.1-0.2-0.2-0.4
		c-0.1-0.2-0.2-0.3-0.2-0.4l-0.1,0.1C49.7,26.1,49.9,26.3,50.2,26.7 M50.6,26.1C50.6,26.1,50.6,26,50.6,26.1L50.6,26.1
		c0-0.1,0.2-0.2,0.4-0.4c-0.3,0-0.4,0-0.5,0C50.2,25.7,50.2,25.9,50.6,26.1L50.6,26.1z M51.1,26.7C51.1,26.7,51.2,26.7,51.1,26.7
		l0.1-0.3c0,0,0,0.1-0.1,0.1C51.1,26.6,51.1,26.7,51.1,26.7 M51.7,26.1c0-0.1,0-0.4,0.1-1c-0.4,0.1-0.7,0.2-0.7,0.2c0,0-0.1,0-0.2,0
		c0.1,0.2,0.2,0.3,0.2,0.4h0c0.1,0.3,0.2,0.5,0.2,0.7C51.5,26.2,51.7,26.1,51.7,26.1 M51.8,24.2c0,0.1,0.1,0.3,0.2,0.7
		c0,0,0-0.1,0.1-0.4c0.1-0.2,0.2-0.2,0.4,0c0,0,0,0,0.1-0.1l0-0.1c-0.2-0.3-0.4-0.4-0.4-0.4c-0.1,0-0.2,0-0.3,0.1
		C51.9,24,51.8,24.1,51.8,24.2C51.8,24.1,51.8,24.1,51.8,24.2 M52.1,24.8C52.1,24.8,52.1,24.8,52.1,24.8C52,24.8,52,24.8,52.1,24.8
		C52.1,24.8,52.1,24.8,52.1,24.8 M52.2,26c0,0,0.2,0,0.6-0.1c-0.2-0.1-0.4-0.2-0.4-0.2c0,0-0.1,0-0.4,0.1C52.1,25.9,52.1,26,52.2,26
		 M52.6,23.6c0.3,0.1,0.4,0.1,0.5,0.1c0.1,0,0.3,0.1,0.7,0.2c-0.1-0.4-0.2-0.6-0.3-0.7C53.4,23,53.2,22.9,53,23
		C53,23,52.9,23.2,52.6,23.6 M53.5,24.8C53.5,24.8,53.5,24.7,53.5,24.8c0-0.1,0-0.1,0-0.1C53.4,24.6,53.4,24.6,53.5,24.8
		C53.4,24.7,53.4,24.7,53.5,24.8 M53.5,24.3l0.2,0.1c0.2-0.1,0.3-0.1,0.3-0.1c0.1-0.1,0.1-0.2,0-0.4h-0.2
		C53.7,24.1,53.6,24.2,53.5,24.3C53.6,24.2,53.6,24.2,53.5,24.3 M53.7,25.4C53.7,25.4,53.8,25.4,53.7,25.4L53.7,25.4L53.7,25.4z
		 M53.8,26.7C53.9,26.7,53.9,26.7,53.8,26.7C53.9,26.6,53.9,26.6,53.8,26.7c0-0.1,0-0.1,0-0.2c0,0,0,0,0,0c0,0,0,0.1,0,0.1
		C53.8,26.7,53.8,26.7,53.8,26.7 M54.3,26.3c0,0,0.1-0.1,0.4-0.2c-0.3-0.2-0.5-0.4-0.5-0.4c0,0-0.1,0.1-0.3,0.3
		C54.2,26.2,54.3,26.2,54.3,26.3 M54.1,23.9c0.4,0.1,0.8,0.1,1,0.2v0c0.2-0.1,0.4-0.1,0.5-0.2c-0.2-0.2-0.4-0.3-0.6-0.4l0,0
		c-0.4,0.2-0.6,0.3-0.6,0.3S54.3,23.8,54.1,23.9 M55.3,25c0-0.2,0.1-0.4,0.1-0.5l0,0l0,0c-0.1-0.2-0.2-0.3-0.2-0.4
		C55,24.4,55,24.5,55,24.6C55,24.6,55.1,24.7,55.3,25 M55.5,23c0-0.1,0.1-0.1,0.1-0.2c0-0.1-0.1-0.1-0.1-0.2
		c-0.1,0.1-0.1,0.2-0.1,0.2C55.4,22.8,55.5,22.9,55.5,23 M55.6,21.8c0.2-0.3,0.5-0.6,0.8-1l-0.2-0.1c-0.3,0.1-0.6,0.3-0.9,0.5
		C55.4,21.2,55.4,21.4,55.6,21.8 M55.9,24.2L55.9,24.2L55.9,24.2L55.9,24.2z M56.6,22.4L56.6,22.4c-0.1,0-0.2,0-0.3,0
		c-0.1-0.1-0.2-0.2-0.2-0.2c0,0,0,0,0,0c0,0,0,0,0,0c0.1,0,0.2,0.1,0.3,0.1c0,0,0,0,0.1,0.1c0,0,0,0.1,0,0.1
		C56.5,22.5,56.5,22.4,56.6,22.4L56.6,22.4z M56.7,19.7c0,0,0-0.1,0.1-0.1l-0.1-0.1c0,0-0.1,0-0.1,0.1L56.7,19.7z M57,22l0.1-0.2
		c0-0.1-0.1-0.1-0.2-0.1l-0.2,0.1c0,0,0.1,0,0.1,0C56.9,22,56.9,22,57,22C56.9,22,57,22,57,22 M57.3,16.1c0,0,0,0.1,0.1,0.2
		c0,0,0.1-0.1,0.1-0.1C57.5,16.1,57.4,16.1,57.3,16.1L57.3,16.1C57.3,16.1,57.3,16.1,57.3,16.1C57.3,16.1,57.3,16.1,57.3,16.1
		 M57.6,18.8C57.6,18.7,57.6,18.7,57.6,18.8c0.1-0.1,0.1-0.1,0.1-0.1C57.6,18.7,57.5,18.7,57.6,18.8L57.6,18.8z M57.7,14.3h0.1v-0.1
		L57.7,14.3L57.7,14.3z M57.8,19.7L57.8,19.7L57.8,19.7L57.8,19.7z M58,16.4C58,16.4,58,16.4,58,16.4C58,16.4,58,16.4,58,16.4
		c0-0.1,0-0.1-0.1-0.1C57.9,16.3,58,16.4,58,16.4 M58.7,17c0.1-0.3,0.1-0.3,0.1-0.3c0-0.1-0.1-0.3-0.1-0.4c-0.1,0.2-0.2,0.3-0.2,0.3
		C58.6,16.6,58.6,16.8,58.7,17 M59.5,14.8L59.5,14.8L59.5,14.8L59.5,14.8z M60,11.3l-0.3-0.3c0-0.1,0.1-0.2,0.3-0.2l0.1-0.1L60,10.7
		c-0.4-0.1-0.7,0-1,0.3c-0.2,0.3-0.3,0.6-0.2,1c0,0,0.2,0.2,0.7,0.5c0-0.3,0-0.4,0-0.5c0,0,0-0.1,0.1-0.3h0.5
		C60.1,11.4,60,11.3,60,11.3C60,11.3,60,11.3,60,11.3 M60.3,10.2C60.4,10.2,60.4,10.2,60.3,10.2L60.3,10.2
		C60.4,10.1,60.4,10.1,60.3,10.2C60.4,10.1,60.4,10.1,60.3,10.2L60.3,10.2C60.4,10.1,60.4,10.1,60.3,10.2
		C60.4,10.1,60.4,10.1,60.3,10.2L60.3,10.2C60.3,10.2,60.3,10.2,60.3,10.2C60.3,10.2,60.3,10.2,60.3,10.2L60.3,10.2z M60.8,11
		c0,0,0.1-0.1,0.3-0.3c-0.2-0.1-0.3-0.1-0.3-0.1c0,0-0.1,0.1-0.3,0.2C60.8,11,60.8,11,60.8,11 M61.5,9.1L61.5,9.1
		C61.5,9,61.5,9,61.5,9.1C61.4,9,61.4,9.1,61.5,9.1L61.5,9.1z M62.1,9.6L62.1,9.6L62.1,9.6L62.1,9.6z M39.2,6.1v10.2l0,10.5
		c0,0.5,0,0.7-0.1,0.8c-0.1,0.1-0.3,0.1-0.8,0.1h-3.2c-0.5,0-0.8,0-0.9-0.1c-0.1-0.1-0.1-0.4-0.1-0.9V6.2c0-0.5,0-0.8,0.1-0.8
		c0.1-0.1,0.4-0.1,0.9-0.1c0.8,0,1.9,0,3.3,0c0.4,0,0.7,0,0.8,0.1C39.2,5.4,39.2,5.6,39.2,6.1 M34.8,14.6L34.8,14.6L34.8,14.6
		L34.8,14.6z M37.4,7.9L37.4,7.9C37.4,8,37.4,8,37.4,7.9L37.4,7.9L37.4,7.9C37.4,7.9,37.4,7.9,37.4,7.9L37.4,7.9L37.4,7.9z
		 M37.4,13.4L37.4,13.4c-0.1,0-0.1,0.1-0.1,0.2c0,0,0-0.1,0-0.1C37.3,13.4,37.4,13.4,37.4,13.4 M37.4,12.4
		C37.4,12.4,37.4,12.5,37.4,12.4L37.4,12.4C37.5,12.5,37.5,12.5,37.4,12.4L37.4,12.4L37.4,12.4z M37,9.9C37,9.9,36.9,9.9,37,9.9
		C36.9,10,36.9,10,37,9.9L37,9.9L37,9.9C37,9.9,37,9.9,37,9.9 M36.2,7.5L36.2,7.5c0,0.1,0,0.1,0.1,0.1C36.3,7.6,36.3,7.6,36.2,7.5
		C36.3,7.6,36.2,7.5,36.2,7.5 M35.9,19.1c-0.1,0-0.1,0.1-0.1,0.1c0,0,0,0,0,0C35.9,19.2,35.9,19.1,35.9,19.1 M35.1,12.4
		C35.2,12.4,35.2,12.4,35.1,12.4c0-0.1,0-0.1,0-0.1L35.1,12.4C35.1,12.4,35.1,12.4,35.1,12.4 M35.4,10.8L35.4,10.8
		C35.4,10.8,35.4,10.8,35.4,10.8C35.4,10.8,35.4,10.8,35.4,10.8C35.4,10.7,35.4,10.7,35.4,10.8C35.4,10.7,35.4,10.8,35.4,10.8
		C35.4,10.8,35.4,10.8,35.4,10.8L35.4,10.8z M35.9,23.3C35.9,23.3,35.9,23.3,35.9,23.3c0-0.1,0-0.2,0-0.2c0,0,0,0,0,0c0,0,0,0,0,0
		C35.8,23.2,35.8,23.3,35.9,23.3 M36.1,22.6L36.1,22.6C36.1,22.5,36,22.5,36.1,22.6L36.1,22.6L36.1,22.6L36.1,22.6z M36.2,20.4
		C36.3,20.3,36.3,20.3,36.2,20.4c0-0.1,0-0.1,0-0.1C36.1,20.2,36.1,20.3,36.2,20.4C36.2,20.3,36.2,20.3,36.2,20.4 M36.5,7.8
		C36.5,7.8,36.5,7.8,36.5,7.8C36.5,7.8,36.6,7.8,36.5,7.8c0-0.1,0-0.1-0.1-0.1C36.4,7.7,36.4,7.7,36.5,7.8
		C36.5,7.8,36.5,7.8,36.5,7.8 M36.7,8.5L36.7,8.5L36.7,8.5L36.7,8.5C36.7,8.5,36.7,8.5,36.7,8.5L36.7,8.5z M36.8,22.8
		C36.9,22.8,36.9,22.8,36.8,22.8L36.8,22.8L36.8,22.8z M36.9,15.2c0-0.1,0-0.1,0-0.1l-0.1,0C36.9,15.1,36.9,15.2,36.9,15.2
		L36.9,15.2z M36.8,14.2c0,0,0.1,0,0.2-0.1C37,14,36.9,14,36.9,14c0,0-0.1,0.1-0.1,0.1L36.8,14.2z M37.2,13.6
		C37.2,13.6,37.2,13.6,37.2,13.6C37.3,13.6,37.3,13.6,37.2,13.6L37.2,13.6L37.2,13.6z M37.5,16.6L37.5,16.6c0-0.1-0.1-0.2-0.1-0.2
		L37.5,16.6z M37.5,10.9C37.5,10.9,37.5,10.9,37.5,10.9c0.1-0.1,0.1-0.1,0.1-0.1c-0.1-0.1-0.1-0.1-0.1-0.1l-0.1,0.1
		C37.4,10.8,37.4,10.8,37.5,10.9C37.4,10.8,37.4,10.9,37.5,10.9 M37.8,14.1L37.8,14.1L37.8,14.1L37.8,14.1z M37.8,13.6
		C37.8,13.6,37.8,13.6,37.8,13.6c0-0.1-0.1-0.1-0.1,0L37.8,13.6C37.8,13.6,37.8,13.6,37.8,13.6L37.8,13.6z M37.9,21.2L37.9,21.2
		L37.9,21.2L37.9,21.2z M38.3,11.7L38.3,11.7L38.3,11.7L38.3,11.7z M34.7,5.2c0.4,0,0.7,0,0.7,0.1c0,0.1,0,0.3-0.2,0.7
		c-0.3,0.7-1.5,3.6-3.7,8.9c-2.8,6.6-4.4,10.6-5,12c-0.2,0.6-0.6,0.8-1.2,0.8c-0.1,0-1,0-2.4,0h-2.6c-0.4,0-0.8-0.2-0.9-0.6
		c-1.2-2.8-3.2-7.6-6-14.4c-0.3-0.6-0.7-1.8-1.4-3.4c-0.6-1.4-1.1-2.5-1.4-3.3c-0.2-0.4-0.2-0.6-0.2-0.7c0-0.1,0.3-0.1,0.7-0.1
		c2.7,0,4,0,3.9,0c0.5,0,0.8,0.2,1,0.7c1.5,3.7,3.6,8.7,6.4,15.2c0,0,0.2,0.3,0.5,0.8c0.3-0.5,0.5-0.8,0.5-0.8
		c2.9-6.9,5-11.9,6.3-15.1c0.3-0.6,0.7-0.9,1.4-0.9C31,5.2,32.3,5.2,34.7,5.2 M14,8.1L14,8.1L14,8.1L14,8.1z M13.6,9.5
		C13.6,9.5,13.6,9.5,13.6,9.5C13.6,9.4,13.6,9.4,13.6,9.5L13.6,9.5L13.6,9.5C13.5,9.5,13.5,9.5,13.6,9.5 M14.3,9.7l-0.1-0.2
		C14,9.7,13.9,9.9,13.9,10c0,0,0.1,0,0.2,0.1C14.2,9.9,14.3,9.7,14.3,9.7C14.3,9.7,14.3,9.7,14.3,9.7 M14.9,10.9c0-0.1,0-0.1,0-0.1
		l-0.1-0.1c0,0.1,0,0.1,0,0.1C14.8,10.9,14.8,10.9,14.9,10.9 M15.4,9.3C15.4,9.3,15.4,9.3,15.4,9.3L15.4,9.3c0,0.1,0,0.1,0,0.1
		c0,0,0,0,0.1-0.1C15.5,9.4,15.5,9.3,15.4,9.3L15.4,9.3z M15.2,11.5L15.2,11.5L15.2,11.5L15.2,11.5z M15.4,12.9L15.4,12.9
		c0-0.1,0-0.1,0-0.1C15.4,12.8,15.4,12.8,15.4,12.9C15.4,12.9,15.4,12.9,15.4,12.9 M15.5,10.7c0,0,0.1,0,0.1,0
		c0-0.1-0.1-0.1-0.1-0.1c0,0-0.1,0-0.1,0C15.4,10.6,15.4,10.6,15.5,10.7 M31.4,8.7C31.4,8.7,31.4,8.8,31.4,8.7
		C31.4,8.8,31.4,8.8,31.4,8.7L31.4,8.7C31.5,8.7,31.4,8.7,31.4,8.7 M31.2,7.9L31.2,7.9L31.2,7.9z M30.9,9.3
		c-0.1,0.2-0.1,0.2-0.1,0.2c0.2,0.1,0.4,0.1,0.5,0.1C31.2,9.5,31.1,9.4,30.9,9.3 M30.5,8L30.5,8L30.5,8z M30.1,8.8L30.1,8.8
		L30.1,8.8L30.1,8.8z M29,15.3C29,15.4,29,15.4,29,15.3c0,0.1,0,0.1,0,0.1C29.1,15.5,29.1,15.5,29,15.3C29.1,15.4,29.1,15.4,29,15.3
		 M28.3,16.3c0.1-0.2,0.1-0.3,0.1-0.4c-0.1,0-0.2,0-0.2,0C28.2,16,28.3,16.2,28.3,16.3 M28.4,15.9C28.4,15.9,28.4,15.9,28.4,15.9
		L28.4,15.9z M28,17L28,17L28,17L28,17z M27.9,14.9L27.9,14.9L27.9,14.9L27.9,14.9z M27.7,13.5C27.7,13.5,27.7,13.5,27.7,13.5
		L27.7,13.5z M26.6,15.4L26.6,15.4L26.6,15.4L26.6,15.4z M26.8,17c-0.1,0.3-0.2,0.4-0.2,0.4c0,0.1,0.2,0.2,0.5,0.5l0.2-0.2
		c0-0.1-0.1-0.1-0.1-0.1S27.1,17.4,26.8,17 M26.4,18.8c-0.1,0.1-0.1,0.2-0.1,0.2c0,0,0,0,0,0c0,0,0.1,0,0.1,0c0,0,0.1-0.1,0.1-0.2
		C26.5,18.9,26.4,18.9,26.4,18.8 M26.2,20.2c0,0,0,0.1,0.1,0.3c0.1,0,0.1-0.1,0.2-0.1c0-0.2,0.1-0.2,0.1-0.2c0,0,0,0-0.1-0.1
		c0,0-0.1,0-0.1,0C26.3,20.1,26.2,20.2,26.2,20.2 M25.8,18.6l0,0.1c0,0,0.1,0,0.1,0.1c0-0.1,0-0.1,0-0.1
		C25.9,18.6,25.9,18.6,25.8,18.6C25.9,18.6,25.9,18.6,25.8,18.6 M25.3,19.7L25.3,19.7L25.3,19.7L25.3,19.7
		C25.3,19.8,25.3,19.8,25.3,19.7C25.3,19.8,25.3,19.8,25.3,19.7 M25.2,21.4L25,21.6c0,0,0.1,0.2,0.2,0.5c0.1-0.3,0.2-0.4,0.2-0.4v0
		C25.3,21.6,25.3,21.6,25.2,21.4 M24.9,22.5C24.9,22.5,24.9,22.5,24.9,22.5C24.9,22.5,24.9,22.5,24.9,22.5L24.9,22.5z M24.8,20.8
		L24.8,20.8L24.8,20.8L24.8,20.8z M24.8,22.6c0,0.1,0,0.1,0,0.2c0,0.1,0,0.2,0,0.2h0.1c0,0,0.1,0,0.1,0
		C24.9,22.9,24.8,22.7,24.8,22.6C24.8,22.6,24.8,22.6,24.8,22.6 M24.6,22.3L24.6,22.3L24.6,22.3L24.6,22.3z M22,23.8
		C22,23.8,22,23.8,22,23.8C21.9,23.8,21.9,23.8,22,23.8C21.9,23.8,21.9,23.8,22,23.8C21.9,23.8,21.9,23.9,22,23.8L22,23.8
		C21.9,23.9,21.9,23.9,22,23.8 M21.8,21.7c-0.1,0.1-0.1,0.2-0.1,0.2l0,0l0,0c0,0,0.1-0.1,0.1-0.2C21.9,21.8,21.9,21.7,21.8,21.7
		C21.8,21.7,21.8,21.7,21.8,21.7L21.8,21.7z M21.4,22.5C21.4,22.5,21.3,22.5,21.4,22.5c-0.1,0-0.2,0-0.2,0
		C21.2,22.6,21.2,22.6,21.4,22.5C21.3,22.6,21.4,22.5,21.4,22.5 M21.5,23.2C21.2,23.1,21,23,21,23c-0.4,0-0.4,0.1-0.2,0.4
		c0.2,0,0.3-0.1,0.3-0.1c0,0,0,0,0,0S21.3,23.3,21.5,23.2 M20.8,20.6c0,0,0,0.1-0.1,0.2c0.1,0.1,0.2,0.1,0.2,0.1
		c0,0,0.1-0.1,0.2-0.2C20.8,20.6,20.8,20.6,20.8,20.6 M20.4,20.1L20.4,20.1L20.4,20.1L20.4,20.1z M20.7,21.6
		c-0.1,0.1-0.3,0.2-0.5,0.3c0.2,0.1,0.3,0.2,0.3,0.2c0.1,0,0.2-0.1,0.6-0.3C20.8,21.7,20.7,21.6,20.7,21.6 M20.6,22.5
		c-0.1,0-0.1,0-0.2,0c-0.5,0.3-0.8,0.5-1.1,0.6c0,0,0.1,0.1,0.2,0.1c0.1,0.1,0.2,0.1,0.2,0.1c0.2,0.1,0.2,0.3,0.2,0.5
		c0,0,0,0,0.1,0.1c0.1,0,0.1,0,0.1,0c0.1,0,0.1-0.1,0.1-0.3c0-0.1,0-0.5,0-1.2C20.5,22.5,20.5,22.5,20.6,22.5 M19.6,19.1l-0.2,0.2
		c0,0,0.1,0.1,0.2,0.3c0,0,0.1-0.1,0.1-0.1c0-0.1,0.1-0.1,0.1-0.1c0,0,0,0,0,0S19.8,19.3,19.6,19.1 M19.3,20.4c0,0,0,0-0.1,0
		c-0.1,0-0.1,0.1-0.1,0.1c0,0,0.1,0.2,0.2,0.5l0.2-0.3c0-0.1,0-0.2,0-0.2S19.4,20.5,19.3,20.4 M18.7,18.4
		C18.6,18.4,18.6,18.4,18.7,18.4c-0.1-0.1-0.1-0.1-0.1-0.1c0,0,0,0.1,0,0.1c0,0.1,0,0.1,0,0.1C18.5,18.5,18.6,18.5,18.7,18.4
		C18.6,18.4,18.6,18.4,18.7,18.4 M18.5,18.2c-0.1-0.2-0.2-0.4-0.2-0.5c-0.2,0.4-0.3,0.6-0.3,0.5H18.5z M17.8,14.1L17.8,14.1
		L17.8,14.1L17.8,14.1z M18,14.8c0,0-0.1,0.1-0.2,0.2c0.1,0.1,0.2,0.2,0.2,0.2c0,0,0.1-0.1,0.2-0.2C18.1,14.8,18,14.8,18,14.8
		 M17.8,16.3L17.8,16.3C17.8,16.3,17.8,16.3,17.8,16.3C17.8,16.3,17.8,16.3,17.8,16.3 M17.3,14.2C17.2,14.2,17.2,14.2,17.3,14.2
		L17.3,14.2L17.3,14.2C17.2,14.2,17.2,14.2,17.3,14.2C17.2,14.2,17.2,14.2,17.3,14.2 M16.5,11.3c-0.1,0.1-0.1,0.2-0.1,0.2l0.1,0.1
		c0-0.1,0.1-0.1,0.1-0.2c0,0,0,0,0,0S16.7,11.4,16.5,11.3 M16,12c0,0.1-0.1,0.1-0.1,0.1c0,0,0.1,0,0.1,0.1l0.1-0.1L16,12
		C16.1,12,16,12,16,12 M15.9,15C15.9,15,15.9,15,15.9,15c0-0.1-0.1,0-0.1,0C15.8,15,15.8,15,15.9,15L15.9,15
		C15.9,15,15.9,15,15.9,15 M16.1,13.6c0.1,0,0.1-0.1,0.1-0.1l-0.1-0.1c0,0,0,0-0.1,0C16,13.4,16,13.4,16.1,13.6
		C16,13.5,16.1,13.5,16.1,13.6L16.1,13.6z M16.6,16.5L16.6,16.5L16.6,16.5L16.6,16.5z M16.5,16c0,0,0.1-0.2,0.3-0.6l-0.2-0.1
		c-0.1,0.2-0.2,0.4-0.2,0.5h0C16.4,15.8,16.4,15.9,16.5,16 M17.1,17.9c0,0,0.1,0.1,0.2,0.3c0.2-0.4,0.4-0.7,0.5-0.9
		c0,0-0.1-0.1-0.2-0.1c-0.1,0-0.1-0.1-0.1-0.1C17.3,17.5,17.1,17.8,17.1,17.9 M17.6,20.2c0.1-0.1,0.1-0.2,0.2-0.3c0,0-0.1,0-0.1,0
		c0,0-0.1,0-0.1,0L17.6,20.2z M17.7,19l0.2,0.1c0.1-0.4,0.1-0.7,0.1-0.8c0,0,0,0,0,0C17.8,18.6,17.7,18.9,17.7,19 M18,21.9L18,21.9
		C18,21.8,18,21.8,18,21.9L18,21.9z M18.3,22.1L18.3,22.1C18.3,22,18.3,22,18.3,22.1c-0.1-0.1-0.1-0.2-0.2-0.2c0,0,0.1,0.1,0.1,0.1
		C18.2,22,18.2,22,18.3,22.1C18.2,22,18.2,22.1,18.3,22.1 M18.6,21.3L18.6,21.3c0.1-0.1,0.1-0.1,0.1-0.1L18.6,21c0,0-0.1,0-0.1,0
		C18.6,21.2,18.6,21.2,18.6,21.3C18.6,21.2,18.6,21.2,18.6,21.3 M18.8,17.6L18.8,17.6c-0.1,0-0.1,0-0.1,0
		C18.7,17.6,18.7,17.6,18.8,17.6L18.8,17.6z M18.7,16.8l0.1,0c0,0,0,0,0-0.1c0,0,0,0-0.1,0c0,0,0,0,0,0
		C18.7,16.7,18.7,16.7,18.7,16.8C18.7,16.7,18.7,16.7,18.7,16.8 M18.9,19.7L18.9,19.7c0,0.1,0.1,0.1,0.1,0.1v-0.1
		C19.1,19.7,19,19.7,18.9,19.7C19,19.7,19,19.7,18.9,19.7 M19.5,21.4L19,21.8c0.2,0.2,0.3,0.3,0.4,0.4c0.1-0.1,0.2-0.2,0.3-0.4
		C19.6,21.6,19.5,21.5,19.5,21.4 M19.1,22.9c0,0,0,0.1-0.1,0.1c0.1,0,0.2,0,0.2,0C19.3,23,19.2,22.9,19.1,22.9 M19.5,24.7
		c0.4,0.1,0.5,0.1,0.6,0.1c0,0,0.3,0,0.7,0.1c0.3-0.2,0.5-0.4,0.6-0.4c0,0,0.1-0.1,0.1-0.3c-0.2,0-0.3,0-0.3,0
		c-0.5,0.1-0.9,0.2-1.1,0.3C20,24.5,19.8,24.5,19.5,24.7 M20.5,26.7c0,0,0,0,0.1-0.1c-0.1-0.1-0.1-0.2-0.2-0.4
		c-0.1-0.2-0.2-0.3-0.2-0.4L20,25.9C20.1,26.1,20.3,26.3,20.5,26.7 M21,26.1C21,26.1,21,26,21,26.1L21,26.1c0-0.1,0.2-0.2,0.4-0.4
		c-0.3,0-0.4,0-0.5,0C20.6,25.7,20.6,25.9,21,26.1L21,26.1z M21.5,26.7C21.5,26.7,21.5,26.7,21.5,26.7l0.1-0.3c0,0,0,0.1-0.1,0.1
		C21.5,26.6,21.5,26.7,21.5,26.7 M22,26.1c0-0.1,0-0.4,0.1-1c-0.4,0.1-0.7,0.2-0.7,0.2c0,0-0.1,0-0.2,0c0.1,0.2,0.2,0.3,0.2,0.4h0
		c0.1,0.3,0.2,0.5,0.2,0.7C21.9,26.2,22,26.1,22,26.1 M22.2,24.2c0,0.1,0.1,0.3,0.2,0.7c0,0,0-0.1,0.1-0.4c0.1-0.2,0.2-0.2,0.4,0
		c0,0,0,0,0.1-0.1l0-0.1c-0.2-0.3-0.4-0.4-0.4-0.4c-0.1,0-0.2,0-0.3,0.1C22.3,24,22.2,24.1,22.2,24.2C22.2,24.1,22.2,24.1,22.2,24.2
		 M22.5,24.8C22.5,24.8,22.4,24.8,22.5,24.8C22.4,24.8,22.4,24.8,22.5,24.8C22.5,24.8,22.5,24.8,22.5,24.8 M22.5,26
		c0,0,0.2,0,0.6-0.1c-0.2-0.1-0.4-0.2-0.4-0.2c0,0-0.1,0-0.4,0.1C22.5,25.9,22.5,26,22.5,26 M23,23.6c0.3,0.1,0.4,0.1,0.5,0.1
		c0.1,0,0.3,0.1,0.7,0.2c-0.1-0.4-0.2-0.6-0.3-0.7c-0.2-0.2-0.4-0.3-0.5-0.2C23.4,23,23.2,23.2,23,23.6 M23.9,24.8
		C23.9,24.8,23.9,24.7,23.9,24.8c0-0.1,0-0.1,0-0.1C23.8,24.6,23.8,24.6,23.9,24.8C23.8,24.7,23.8,24.7,23.9,24.8 M23.9,24.3
		l0.2,0.1c0.2-0.1,0.3-0.1,0.3-0.1c0.1-0.1,0.1-0.2,0-0.4h-0.2C24.1,24.1,24,24.2,23.9,24.3C24,24.2,23.9,24.2,23.9,24.3 M24.1,25.4
		C24.1,25.4,24.1,25.4,24.1,25.4L24.1,25.4L24.1,25.4z M24.2,26.7C24.2,26.7,24.3,26.7,24.2,26.7C24.3,26.6,24.3,26.6,24.2,26.7
		c0-0.1,0-0.1,0-0.2c0,0,0,0,0,0c0,0,0,0.1,0,0.1C24.2,26.7,24.2,26.7,24.2,26.7 M24.7,26.3c0,0,0.1-0.1,0.4-0.2
		c-0.3-0.2-0.5-0.4-0.5-0.4c0,0-0.1,0.1-0.3,0.3C24.5,26.2,24.7,26.2,24.7,26.3 M24.5,23.9c0.4,0.1,0.8,0.1,1,0.2v0
		c0.2-0.1,0.4-0.1,0.5-0.2c-0.2-0.2-0.4-0.3-0.6-0.4l0,0c-0.4,0.2-0.6,0.3-0.6,0.3S24.7,23.8,24.5,23.9 M25.6,25
		c0-0.2,0.1-0.4,0.1-0.5l0,0l0,0c-0.1-0.2-0.2-0.3-0.2-0.4c-0.1,0.3-0.1,0.5-0.1,0.5C25.4,24.6,25.5,24.7,25.6,25 M25.9,23
		c0-0.1,0.1-0.1,0.1-0.2c0-0.1-0.1-0.1-0.1-0.2c-0.1,0.1-0.1,0.2-0.1,0.2C25.8,22.8,25.8,22.9,25.9,23 M26,21.8
		c0.2-0.3,0.5-0.6,0.8-1l-0.2-0.1c-0.3,0.1-0.6,0.3-0.9,0.5C25.7,21.2,25.8,21.4,26,21.8 M26.3,24.2L26.3,24.2L26.3,24.2L26.3,24.2z
		 M27,22.4L27,22.4c-0.1,0-0.2,0-0.3,0c-0.1-0.1-0.2-0.2-0.2-0.2c0,0,0,0,0,0c0,0,0,0,0,0c0.1,0,0.2,0.1,0.3,0.1c0,0,0,0,0.1,0.1
		c0,0,0,0.1,0,0.1C26.9,22.5,26.9,22.4,27,22.4L27,22.4z M27,19.7c0,0,0-0.1,0.1-0.1L27,19.5c0,0-0.1,0-0.1,0.1L27,19.7z M27.4,22
		l0.1-0.2c0-0.1-0.1-0.1-0.2-0.1l-0.2,0.1c0,0,0.1,0,0.1,0C27.3,22,27.3,22,27.4,22C27.3,22,27.4,22,27.4,22 M27.7,16.1
		c0,0,0,0.1,0.1,0.2c0,0,0.1-0.1,0.1-0.1C27.8,16.1,27.8,16.1,27.7,16.1L27.7,16.1C27.7,16.1,27.7,16.1,27.7,16.1
		C27.7,16.1,27.7,16.1,27.7,16.1 M27.9,18.8C28,18.7,28,18.7,27.9,18.8c0.1-0.1,0.1-0.1,0.1-0.1C28,18.7,27.9,18.7,27.9,18.8
		L27.9,18.8z M28.1,14.3h0.1v-0.1L28.1,14.3L28.1,14.3z M28.2,19.7L28.2,19.7L28.2,19.7L28.2,19.7z M28.4,16.4
		C28.4,16.4,28.4,16.4,28.4,16.4C28.4,16.4,28.4,16.4,28.4,16.4c0-0.1,0-0.1-0.1-0.1C28.3,16.3,28.4,16.4,28.4,16.4 M29.1,17
		c0.1-0.3,0.1-0.3,0.1-0.3c0-0.1-0.1-0.3-0.1-0.4c-0.1,0.2-0.2,0.3-0.2,0.3C28.9,16.6,29,16.8,29.1,17 M29.9,14.8L29.9,14.8
		L29.9,14.8L29.9,14.8z M30.4,11.3l-0.3-0.3c0-0.1,0.1-0.2,0.3-0.2l0.1-0.1l-0.2-0.1c-0.4-0.1-0.7,0-1,0.3c-0.2,0.3-0.3,0.6-0.2,1
		c0,0,0.2,0.2,0.7,0.5c0-0.3,0-0.4,0-0.5c0,0,0-0.1,0.1-0.3h0.5C30.5,11.4,30.4,11.3,30.4,11.3C30.4,11.3,30.4,11.3,30.4,11.3
		 M30.7,10.2C30.8,10.2,30.8,10.2,30.7,10.2L30.7,10.2C30.8,10.1,30.8,10.1,30.7,10.2C30.7,10.1,30.7,10.1,30.7,10.2L30.7,10.2
		C30.7,10.1,30.7,10.1,30.7,10.2C30.7,10.1,30.7,10.1,30.7,10.2L30.7,10.2C30.7,10.2,30.7,10.2,30.7,10.2
		C30.7,10.2,30.7,10.2,30.7,10.2L30.7,10.2z M31.2,11c0,0,0.1-0.1,0.3-0.3c-0.2-0.1-0.3-0.1-0.3-0.1c0,0-0.1,0.1-0.3,0.2
		C31.1,11,31.2,11,31.2,11 M31.9,9.1L31.9,9.1C31.9,9,31.9,9,31.9,9.1C31.8,9,31.8,9.1,31.9,9.1L31.9,9.1z M32.5,9.6L32.5,9.6
		L32.5,9.6L32.5,9.6z"/>
	<path class="st0" d="M5.8,25L5.8,25L5.8,25z M5.9,24.6c0,0.2,0,0.2,0,0.2c0,0,0,0.1-0.1,0.2c0-0.1-0.1-0.2-0.1-0.2
		C5.7,24.8,5.7,24.7,5.9,24.6C5.8,24.6,5.8,24.6,5.9,24.6 M14.5,18.9v1.7c0,0.2-0.1,0.4-0.4,0.3c-0.3,0-0.7,0-1,0
		c-0.2,0-0.3,0.1-0.4,0.4c-0.1,0.2-0.1,0.4-0.1,0.6c0,0,0.1,0.1,0.2,0.1c0,0,0,0,0.1,0c0.1,0,0.2,0,0.3,0h0.3c0.2,0,0.4,0.1,0.5,0.1
		c0,0,0,0.4,0.1,1v0.2h0v1c0,0.3-0.1,0.5-0.4,0.5c-0.1,0-0.3,0-0.6,0c-0.3,0-0.5,0-0.6,0c-0.2,0-0.4,0.1-0.4,0.3
		c0,0.2-0.1,0.6-0.2,1.1c-0.1,0.5-0.2,0.9-0.2,1.1c0,0.2-0.2,0.4-0.4,0.4c-0.8,0-1.5,0-2.1,0c-0.3,0-0.4-0.1-0.3-0.4
		c0-0.2,0.1-0.5,0.2-1c0.1-0.4,0.2-0.8,0.2-1c0-0.2,0-0.3,0-0.3c0-0.1-0.2-0.1-0.3-0.1c-0.7,0-1,0-1,0.1c0,0-0.1,0.3-0.2,0.9
		c-0.1,0.6-0.2,1.1-0.3,1.5c0,0.3-0.2,0.4-0.4,0.4c-0.6,0-1.3,0-2.1,0c-0.3,0-0.4-0.1-0.3-0.4c0.1-0.3,0.1-0.6,0.2-1
		c0.1-0.5,0.2-0.9,0.2-1c0-0.2,0-0.3,0-0.3c0-0.1-0.2-0.1-0.3-0.1c-0.5,0-0.8-0.1-0.8-0.1c-0.1-0.1-0.1-0.4-0.1-0.8v-0.8v-0.8
		c0-0.2,0.1-0.3,0.3-0.3c0.5,0,0.9,0,1.3,0c0.2,0,0.3-0.1,0.4-0.2c0-0.2,0.1-0.4,0.1-0.8c0,0-0.1-0.1-0.3-0.1c-0.4,0-0.7,0-0.9,0
		C4.1,21,4,20.9,4,20.6c0-0.8,0-1.5,0-2.1c0-0.3,0.1-0.4,0.4-0.4c0.1,0,0.3,0,0.7,0c0.3,0,0.5,0,0.7,0c0.3,0,0.5-0.1,0.5-0.4
		c0-0.2,0.1-0.6,0.2-1c0.1-0.5,0.2-0.8,0.2-1c0-0.3,0.2-0.4,0.5-0.4c0.7,0,1.4,0,2,0c0.2,0,0.3,0,0.3,0.1c0,0.1,0,0.2,0,0.3
		c0,0.1-0.2,0.8-0.4,2c0,0.2,0,0.4,0,0.4c0,0,0.2,0.1,0.4,0.1c0.5,0,0.8,0,0.9-0.1c0.1-0.1,0.2-0.4,0.3-0.9c0.2-0.8,0.3-1.3,0.3-1.6
		c0-0.2,0.2-0.3,0.4-0.3c0.9,0,1.6,0,2.1,0c0.2,0,0.3,0,0.3,0.1c0,0.1,0,0.2,0,0.3c0,0.2-0.1,0.6-0.2,1c-0.1,0.5-0.2,0.8-0.2,1
		c0,0.2,0,0.3,0,0.3c0.1,0.1,0.2,0.1,0.3,0.1c0.4,0,0.6,0,0.7,0.1C14.5,18.3,14.5,18.5,14.5,18.9 M4.3,23.3
		C4.3,23.3,4.4,23.3,4.3,23.3C4.3,23.2,4.3,23.2,4.3,23.3L4.3,23.3C4.3,23.2,4.3,23.3,4.3,23.3 M4.5,23.5c0.1,0,0.2,0,0.3,0
		C4.7,23.5,4.7,23.5,4.5,23.5C4.6,23.5,4.5,23.5,4.5,23.5 M4.8,23.2C4.9,23,4.9,23,4.9,22.9c0,0,0,0,0,0c0,0,0,0,0,0
		c-0.1,0.1-0.1,0.1-0.2,0.2L4.8,23.2z M4.9,23.9L4.9,23.9L4.9,23.9C4.9,23.9,4.9,23.9,4.9,23.9L4.9,23.9C4.9,23.9,4.9,23.9,4.9,23.9
		L4.9,23.9z M13,23.3C13,23.3,13,23.4,13,23.3c-0.1,0.1,0,0.1,0,0.1C13,23.4,13,23.4,13,23.3L13,23.3C13,23.3,13,23.3,13,23.3
		L13,23.3z M12.8,23.1C12.8,23.1,12.8,23.1,12.8,23.1C12.8,23.2,12.8,23.2,12.8,23.1C12.8,23.2,12.8,23.1,12.8,23.1
		C12.8,23.1,12.8,23.1,12.8,23.1 M12.5,17.4C12.5,17.4,12.4,17.4,12.5,17.4C12.4,17.5,12.4,17.5,12.5,17.4
		C12.5,17.5,12.5,17.5,12.5,17.4C12.5,17.5,12.5,17.4,12.5,17.4 M12.4,19.2C12.3,19.2,12.3,19.2,12.4,19.2
		C12.3,19.2,12.3,19.2,12.4,19.2L12.4,19.2C12.4,19.2,12.4,19.2,12.4,19.2 M12.3,17L12.3,17C12.2,17,12.2,17,12.3,17
		C12.3,17,12.3,17,12.3,17 M12.2,20.4L12.2,20.4c0.1,0.1,0.1,0.1,0.2,0.1l0,0c0,0,0,0,0,0c0,0,0,0,0,0
		C12.3,20.5,12.2,20.5,12.2,20.4C12.2,20.5,12.2,20.5,12.2,20.4 M12.4,22.8C12.4,22.8,12.4,22.8,12.4,22.8
		C12.4,22.8,12.4,22.8,12.4,22.8L12.4,22.8L12.4,22.8C12.4,22.8,12.4,22.8,12.4,22.8 M11.5,24L11.5,24c0,0.1,0,0.1,0.1,0.1L11.5,24
		C11.5,24,11.5,24,11.5,24L11.5,24z M11.4,21.7C11.4,21.7,11.4,21.7,11.4,21.7L11.4,21.7C11.4,21.7,11.5,21.7,11.4,21.7
		C11.5,21.6,11.5,21.6,11.4,21.7C11.4,21.6,11.4,21.7,11.4,21.7C11.4,21.7,11.4,21.7,11.4,21.7 M11.5,22.4c0.1,0.2,0.2,0.3,0.2,0.3
		c0,0,0,0,0.1,0.1c0.1-0.1,0.1-0.2,0-0.3c0,0-0.1,0-0.1-0.1c-0.1,0-0.1-0.1-0.1-0.1C11.6,22.4,11.6,22.4,11.5,22.4 M11.5,20.7
		L11.5,20.7C11.5,20.6,11.5,20.6,11.5,20.7C11.5,20.6,11.5,20.6,11.5,20.7C11.5,20.6,11.5,20.6,11.5,20.7L11.5,20.7z M11.7,21.2
		c0,0,0.1-0.1,0.3-0.1l-0.2-0.1C11.8,20.9,11.7,21,11.7,21.2C11.6,21.2,11.7,21.2,11.7,21.2 M11.6,18.8L11.6,18.8L11.6,18.8
		L11.6,18.8z M11.9,17.1C11.8,17.1,11.8,17.1,11.9,17.1c-0.1,0.1-0.1,0.1,0,0.1C11.9,17.2,11.9,17.2,11.9,17.1
		C11.9,17.2,11.9,17.2,11.9,17.1 M11.9,18.5c-0.2,0-0.2,0-0.2,0c0,0-0.1,0-0.2,0.1c0.1,0.1,0.1,0.1,0.1,0.1
		C11.7,18.6,11.8,18.6,11.9,18.5L11.9,18.5z M11.5,18.1C11.4,18.1,11.4,18.1,11.5,18.1c0,0.1,0.1,0.1,0.1,0.1c0,0,0.1,0,0.1-0.1
		C11.5,18.1,11.5,18.1,11.5,18.1 M11.3,18.6c0,0,0,0-0.1,0c0,0.2,0,0.3-0.1,0.4C11.2,18.9,11.2,18.8,11.3,18.6 M11.1,19
		C11.2,19,11.2,19,11.1,19C11.2,19,11.1,19,11.1,19 M11.4,20c-0.1,0-0.1,0-0.2,0.1c-0.1,0-0.2,0.1-0.3,0.1c0.1,0,0.1,0,0.3,0
		C11.2,20.1,11.3,20.1,11.4,20C11.4,20.1,11.4,20,11.4,20C11.4,20,11.4,20,11.4,20 M10.9,24.3L10.9,24.3
		C10.9,24.3,10.9,24.4,10.9,24.3L10.9,24.3L10.9,24.3C10.9,24.4,10.9,24.4,10.9,24.3 M10.9,24.3c0.1,0,0.2,0,0.2,0.1l-0.1-0.3
		C11,24.2,10.9,24.3,10.9,24.3 M10.9,22.2L10.9,22.2C11,22.2,11,22.2,10.9,22.2L10.9,22.2L10.9,22.2z M11.1,23.3c0,0,0.1,0,0.1-0.1
		c0,0,0,0-0.1-0.1c0,0,0,0,0,0C11.1,23.2,11,23.2,11.1,23.3C11,23.2,11,23.3,11.1,23.3C11.1,23.3,11.1,23.3,11.1,23.3 M11.1,22
		C11.1,22.1,11.1,22.1,11.1,22l0.1,0C11.1,22,11.1,22,11.1,22C11.1,22,11.1,22,11.1,22 M11.2,22.4C11.2,22.4,11.2,22.4,11.2,22.4
		C11.2,22.4,11.2,22.4,11.2,22.4C11.2,22.4,11.3,22.4,11.2,22.4L11.2,22.4C11.2,22.4,11.2,22.4,11.2,22.4 M11.1,21.3
		c0,0,0.1,0,0.2,0c-0.1-0.2-0.1-0.2-0.1-0.2c0,0-0.1-0.1-0.3-0.2c-0.1,0.1-0.1,0.2,0,0.2C11,21.2,11,21.2,11.1,21.3
		C11.1,21.3,11.1,21.3,11.1,21.3 M10.9,20.9L10.9,20.9L10.9,20.9L10.9,20.9z M11.1,20.5C11.1,20.5,11.1,20.6,11.1,20.5L11.1,20.5
		C11.2,20.5,11.2,20.5,11.1,20.5L11.1,20.5z M10.7,19.8v-0.1v-0.1c-0.1,0-0.1,0.1-0.2,0.1L10.7,19.8c-0.1,0.1-0.1,0.1-0.1,0.2
		c0,0.1-0.1,0.2-0.1,0.2c0.2,0,0.3,0,0.3,0v0c0.1-0.1,0.1-0.2,0.1-0.2C10.8,20,10.7,19.9,10.7,19.8C10.7,19.9,10.7,19.9,10.7,19.8
		 M10.5,23.3C10.5,23.2,10.6,23.2,10.5,23.3c0.1-0.2,0-0.2,0-0.2c0,0-0.1,0-0.2,0.1C10.3,23.1,10.4,23.2,10.5,23.3 M10.6,24.5
		C10.6,24.5,10.6,24.5,10.6,24.5C10.6,24.5,10.6,24.5,10.6,24.5C10.6,24.5,10.6,24.5,10.6,24.5C10.6,24.5,10.6,24.6,10.6,24.5
		L10.6,24.5C10.6,24.5,10.6,24.5,10.6,24.5 M10.4,22.7c0.2,0.1,0.3,0.1,0.3,0.2c0,0,0,0,0,0C10.6,22.7,10.5,22.6,10.4,22.7
		L10.4,22.7z M10.6,20.7C10.6,20.7,10.6,20.8,10.6,20.7C10.6,20.8,10.6,20.7,10.6,20.7C10.7,20.7,10.7,20.7,10.6,20.7
		C10.6,20.7,10.6,20.7,10.6,20.7 M10.7,21.4C10.7,21.5,10.7,21.5,10.7,21.4L10.7,21.4C10.7,21.4,10.7,21.4,10.7,21.4
		C10.7,21.4,10.7,21.4,10.7,21.4 M10.4,19.4C10.4,19.4,10.5,19.4,10.4,19.4L10.4,19.4C10.5,19.4,10.5,19.4,10.4,19.4
		C10.4,19.4,10.4,19.4,10.4,19.4 M10.5,18.8c-0.1,0.2-0.2,0.3-0.1,0.2c0.1,0,0.1,0,0.1,0C10.5,19.1,10.5,19,10.5,18.8L10.5,18.8z
		 M10.2,22.3C10.2,22.3,10.2,22.4,10.2,22.3c0,0.1,0.1,0,0.1,0C10.3,22.3,10.3,22.3,10.2,22.3C10.3,22.3,10.2,22.3,10.2,22.3
		 M10.3,25c0,0.1-0.1,0.1-0.1,0.1c0.1,0,0.2,0.1,0.2,0.1C10.4,25.1,10.4,25.1,10.3,25 M10.3,25.5C10.3,25.5,10.2,25.5,10.3,25.5
		C10.2,25.5,10.2,25.5,10.3,25.5C10.2,25.5,10.2,25.6,10.3,25.5L10.3,25.5L10.3,25.5C10.2,25.6,10.3,25.6,10.3,25.5 M10.2,22.9
		L10.2,22.9L10.2,22.9C10.2,22.9,10.2,22.9,10.2,22.9C10.2,22.9,10.2,22.9,10.2,22.9 M10.1,22.1L10.1,22.1L10.1,22.1L10.1,22.1z
		 M10,20.1C10,20.2,10,20.2,10,20.1L10,20.1C10,20.2,10,20.2,10,20.1C10,20.2,10,20.2,10,20.1C10.1,20.2,10.1,20.1,10,20.1
		C10.1,20.1,10,20.1,10,20.1 M9.8,19.7l0,0.1c0.1-0.1,0.2-0.1,0.2-0.1c0,0,0,0,0,0l0,0C9.9,19.6,9.8,19.6,9.8,19.7
		C9.8,19.6,9.8,19.6,9.8,19.7 M9.6,19L9.6,19L9.6,19L9.6,19z M9.6,19.2c0,0-0.1,0.1-0.1,0.1c0,0,0,0,0,0c0,0,0,0,0.1,0
		c0,0,0,0,0.1-0.1C9.6,19.2,9.6,19.2,9.6,19.2 M9.4,20.3L9.4,20.3C9.4,20.3,9.4,20.3,9.4,20.3L9.4,20.3C9.4,20.3,9.4,20.3,9.4,20.3
		 M8.7,19.2L8.7,19.2C8.7,19.2,8.7,19.2,8.7,19.2C8.7,19.3,8.8,19.2,8.7,19.2C8.7,19.2,8.7,19.2,8.7,19.2 M8.5,18.6
		C8.5,18.6,8.5,18.6,8.5,18.6C8.5,18.6,8.5,18.6,8.5,18.6L8.5,18.6L8.5,18.6C8.6,18.6,8.6,18.6,8.5,18.6L8.5,18.6z M8.5,20
		c0,0,0,0.1-0.1,0.2c0.2,0,0.3-0.1,0.3-0.1c0,0,0.1,0,0.2-0.1C8.8,19.8,8.6,19.8,8.5,20 M8.2,19.5c-0.1-0.1-0.2-0.1-0.2-0.1
		c0,0-0.1,0.1-0.3,0.2c0.1,0.1,0.1,0.1,0.1,0.1C7.9,19.7,8,19.6,8.2,19.5 M8.3,20.5C8.2,20.5,8.2,20.5,8.3,20.5
		C8.2,20.5,8.2,20.5,8.3,20.5C8.3,20.5,8.3,20.5,8.3,20.5 M8,20L8,20L8,20C8,19.9,8,19.9,8,20C8,19.9,8,20,8,20L8,20z M8,20.5
		C8,20.5,8,20.5,8,20.5L8,20.5C8,20.4,7.9,20.4,8,20.5C8,20.5,8,20.5,8,20.5 M7.6,17.2C7.8,17.1,7.9,17.1,8,17
		c-0.2-0.1-0.3-0.2-0.4-0.3C7.6,16.7,7.6,16.9,7.6,17.2 M7.9,17.8L7.9,17.8L7.9,17.8C7.9,17.9,7.9,17.9,7.9,17.8L7.9,17.8z
		 M7.8,18.6C7.8,18.7,7.8,18.7,7.8,18.6C7.8,18.7,7.8,18.7,7.8,18.6L7.8,18.6C7.8,18.7,7.8,18.7,7.8,18.6 M7.8,19.4L7.8,19.4
		L7.8,19.4C7.8,19.4,7.8,19.4,7.8,19.4L7.8,19.4z M8.1,18.4L8.1,18.4L8.1,18.4C8.1,18.4,8.1,18.4,8.1,18.4L8.1,18.4
		C8.1,18.4,8.1,18.4,8.1,18.4 M8,17L8,17L8,17L8,17L8,17z M7.4,18c0,0-0.1,0-0.2,0.1l0.1,0.1c0.1,0,0.2,0,0.2,0c0,0,0.1-0.1,0.1-0.2
		C7.5,18,7.4,18,7.4,18L7.4,18z M7.6,17.9C7.6,17.9,7.6,17.9,7.6,17.9L7.6,17.9C7.6,17.9,7.6,17.9,7.6,17.9L7.6,17.9z M7.6,19.6
		L7.6,19.6L7.6,19.6L7.6,19.6z M7.5,18.9C7.5,18.9,7.6,18.9,7.5,18.9L7.5,18.9L7.5,18.9C7.5,18.8,7.5,18.8,7.5,18.9
		C7.5,18.8,7.5,18.8,7.5,18.9 M7.3,21c0.1-0.2,0.2-0.3,0.2-0.4l-0.1-0.1c-0.1,0.1-0.2,0.2-0.2,0.2c0,0,0,0,0,0S7.3,20.8,7.3,21
		 M7.5,22.2C7.4,22.2,7.4,22.2,7.5,22.2C7.4,22.2,7.4,22.3,7.5,22.2L7.5,22.2C7.5,22.3,7.5,22.3,7.5,22.2
		C7.5,22.3,7.5,22.3,7.5,22.2 M7.4,22.7C7.4,22.7,7.4,22.7,7.4,22.7L7.4,22.7L7.4,22.7L7.4,22.7L7.4,22.7L7.4,22.7z M7.2,21.6
		c0,0.1,0,0.1,0,0.2h0.3C7.3,21.7,7.3,21.7,7.2,21.6 M7,17.5C7,17.5,7,17.6,7,17.5C7,17.6,7,17.6,7,17.5C7.1,17.6,7.1,17.6,7,17.5
		C7,17.5,7,17.5,7,17.5 M7.1,22.3C7,22.4,7,22.5,6.9,22.6L7,22.8c0.1-0.2,0.2-0.3,0.2-0.3C7.2,22.5,7.1,22.4,7.1,22.3 M6.9,19.1
		L6.9,19.1L6.9,19.1C6.9,19.1,6.9,19.1,6.9,19.1 M6.8,19.4c0,0-0.1-0.1-0.2-0.1c0,0,0,0.1,0.1,0.1C6.7,19.5,6.8,19.5,6.8,19.4
		C6.8,19.5,6.8,19.4,6.8,19.4 M6.7,24.8c0,0,0-0.1,0-0.2c0-0.1,0-0.2,0-0.2c-0.2,0-0.3,0.1-0.3,0.3c0,0,0,0.1,0,0.1
		c0.1,0,0.1,0,0.1,0S6.6,24.8,6.7,24.8 M6.6,25.5L6.6,25.5c0,0.1,0,0.2,0,0.2l0.1-0.1C6.6,25.5,6.6,25.5,6.6,25.5
		C6.6,25.5,6.6,25.5,6.6,25.5 M6.6,20.7c0,0,0,0,0.1-0.1l-0.1-0.1C6.6,20.6,6.6,20.6,6.6,20.7C6.6,20.7,6.6,20.7,6.6,20.7 M6.8,22.4
		c0,0-0.1,0-0.1-0.1c0,0.1-0.1,0.1-0.1,0.1c0,0,0,0.1,0.1,0.1C6.7,22.5,6.8,22.4,6.8,22.4 M6.6,22.7C6.6,22.7,6.5,22.8,6.6,22.7
		L6.6,22.7C6.5,22.8,6.6,22.8,6.6,22.7L6.6,22.7z M6.7,23.2c-0.1,0-0.1,0.1-0.2,0.1h0.2C6.8,23.3,6.7,23.2,6.7,23.2 M6.6,18.4
		L6.6,18.4L6.6,18.4L6.6,18.4z M6.6,19.3c0-0.1,0-0.2,0-0.2c0,0-0.1,0-0.1,0c-0.1,0-0.1,0-0.1,0C6.5,19.2,6.6,19.2,6.6,19.3
		 M6.3,19.1L6.3,19.1L6.3,19.1L6.3,19.1z M6.4,19.3C6.4,19.3,6.3,19.3,6.4,19.3l0,0.1C6.4,19.4,6.4,19.4,6.4,19.3
		C6.4,19.3,6.4,19.3,6.4,19.3 M6.3,21.5L6.3,21.5L6.3,21.5L6.3,21.5z M6.1,21.1c0,0,0,0.1,0.1,0.2c0.1-0.1,0.1-0.2,0.1-0.2
		c0,0,0,0,0-0.1c0,0,0,0,0,0C6.2,21.1,6.1,21.1,6.1,21.1 M6.2,25.4c-0.1-0.1-0.1-0.1-0.1-0.1c-0.1,0-0.1,0-0.1,0.1
		c0,0.1,0,0.1,0.1,0.1C6.1,25.5,6.1,25.5,6.2,25.4 M6.2,23.5L6.2,23.5L6.2,23.5L6.2,23.5z M6.2,22.5C6.1,22.5,6.1,22.5,6.2,22.5
		c0,0.1,0,0.1,0.1,0.2C6.2,22.5,6.2,22.5,6.2,22.5 M6,22.9C6,22.8,5.9,22.8,6,22.9c-0.1-0.1-0.1-0.1-0.2,0C5.9,22.9,5.9,23,6,22.9
		C6,22.9,6,22.9,6,22.9 M5.8,21C5.9,21,5.9,21,5.8,21C5.9,21,5.9,21,5.8,21L5.8,21L5.8,21z M5.8,19.9C5.8,19.9,5.8,19.9,5.8,19.9
		C5.8,20,5.7,20,5.8,19.9c0,0.1,0,0.1,0,0.1c0,0,0,0,0.1-0.1C5.9,19.9,5.8,19.9,5.8,19.9 M5.7,23.6C5.7,23.6,5.7,23.6,5.7,23.6
		C5.7,23.6,5.7,23.6,5.7,23.6C5.7,23.6,5.7,23.6,5.7,23.6L5.7,23.6C5.8,23.6,5.8,23.6,5.7,23.6C5.8,23.6,5.7,23.6,5.7,23.6
		 M5.7,24.5c-0.3,0.3-0.3,0.5,0,0.6c0,0,0,0.1,0,0.2c0,0.1,0,0.1,0,0.2c0,0,0-0.1,0-0.2c0-0.1,0-0.2,0-0.2c0,0,0.1-0.1,0.1-0.1
		c0.3,0.1,0.4,0,0.3-0.3v0v-0.1c0,0,0-0.1-0.1-0.3C5.8,24.4,5.7,24.5,5.7,24.5 M5.7,25.5c-0.1,0-0.1,0-0.1,0c0,0-0.1,0-0.1,0.1v0
		l0,0C5.5,25.6,5.5,25.6,5.7,25.5C5.6,25.5,5.6,25.5,5.7,25.5 M5.5,24c-0.1,0-0.2,0.1-0.3,0.2c0,0,0.1,0,0.2-0.1c0.1,0,0.1,0,0.2,0
		C5.5,24,5.5,24,5.5,24 M5.1,26.3L5.1,26.3L5.1,26.3L5.1,26.3L5.1,26.3C5.2,26.3,5.2,26.3,5.1,26.3C5.1,26.3,5.1,26.3,5.1,26.3
		C5.1,26.3,5.1,26.3,5.1,26.3 M5.3,24.2L5.3,24.2L5.3,24.2L5.3,24.2z M5.7,26.7l0.2-0.1c0-0.1,0-0.1,0-0.2c-0.2-0.1-0.3-0.2-0.3-0.2
		c0,0,0,0-0.1,0.1C5.6,26.6,5.7,26.7,5.7,26.7C5.7,26.7,5.7,26.7,5.7,26.7 M5.7,26.1c0,0,0.1,0,0.1,0.1c0,0,0.1,0.1,0.1,0.1
		c0,0,0-0.1,0.1-0.3C5.9,26,5.8,26.1,5.7,26.1 M6,25.9C6,25.9,6.1,25.9,6,25.9L6,25.9C6.1,25.9,6,25.9,6,25.9 M6.3,26.8
		c0,0,0.2-0.1,0.4-0.2c-0.1,0-0.2-0.1-0.3-0.2c-0.2,0.1-0.2,0.2-0.3,0.2C6.2,26.7,6.3,26.8,6.3,26.8 M6.7,26.1
		C6.7,26.1,6.7,26.1,6.7,26.1C6.7,26.1,6.7,26.1,6.7,26.1L6.7,26.1C6.7,26.1,6.7,26.1,6.7,26.1 M6.7,25c0.2,0,0.2-0.1,0.1-0.2
		L6.7,25z M6.8,23.8l0.1-0.1l-0.1-0.1c-0.1,0-0.1,0.1-0.1,0.1C6.7,23.7,6.7,23.8,6.8,23.8 M6.9,24.2L6.9,24.2L6.9,24.2L6.9,24.2z
		 M7.1,25.2L7.1,25.2c0-0.1,0-0.1,0-0.1L7.1,25.2L7.1,25.2C7,25.2,7.1,25.2,7.1,25.2 M7.2,23.6L7.2,23.6L7.2,23.6L7.2,23.6z
		 M7.4,24.4L7.4,24.4C7.4,24.3,7.4,24.3,7.4,24.4C7.4,24.3,7.4,24.3,7.4,24.4C7.4,24.4,7.4,24.4,7.4,24.4L7.4,24.4z M7.2,23.6
		c0,0,0.1,0,0.1,0c0,0,0.1,0,0.1,0c-0.1-0.1-0.1-0.2-0.1-0.2c0,0-0.1,0-0.2,0.1v0v0C7.2,23.5,7.2,23.5,7.2,23.6 M7.5,23.1
		c0,0,0,0,0-0.1c-0.1,0-0.1,0.1-0.1,0.1C7.4,23.1,7.4,23.1,7.5,23.1C7.5,23.1,7.5,23.1,7.5,23.1 M7.7,20.3L7.7,20.3
		c0-0.2-0.1-0.3-0.1-0.4c-0.2,0.2-0.3,0.2-0.3,0.2C7.5,20.2,7.6,20.3,7.7,20.3C7.6,20.3,7.6,20.3,7.7,20.3 M7.9,23.8
		C7.9,23.8,7.9,23.8,7.9,23.8C8,23.7,8,23.7,8,23.7c0,0,0-0.1-0.1-0.2c0,0-0.1,0.1-0.2,0.1C7.8,23.7,7.9,23.8,7.9,23.8 M8.3,23.3
		c0.1-0.1,0.1-0.1,0.1-0.1C8.2,23.1,8.1,23,8,23c-0.1,0-0.2,0-0.3,0.1c0,0,0,0.1,0,0.2c0.1-0.1,0.2-0.1,0.2-0.1v0v0v0
		c0.2,0.1,0.2,0.1,0.3,0.1C8.3,23.3,8.3,23.4,8.3,23.3C8.3,23.4,8.3,23.4,8.3,23.3 M8.8,23.1C8.9,23,8.9,23,8.9,23
		c0,0,0-0.1-0.1-0.2C8.8,22.9,8.7,23,8.8,23.1C8.7,23,8.8,23.1,8.8,23.1 M8.9,23.7C8.9,23.8,8.9,23.8,8.9,23.7c0,0.1,0,0.2,0.1,0.2
		C9,23.9,9,23.8,8.9,23.7 M9.4,23.4C9.4,23.5,9.5,23.5,9.4,23.4c0.1,0.1,0.2,0.1,0.2,0l-0.1-0.1C9.4,23.4,9.4,23.4,9.4,23.4
		L9.4,23.4z M9.5,24.1L9.5,24.1c0.1,0.1,0.1,0.1,0.1,0.1c0,0,0.1,0,0.1-0.1c0,0-0.1-0.1-0.1-0.1C9.5,24,9.5,24,9.5,24.1L9.5,24.1z
		 M9.5,25.6C9.5,25.6,9.5,25.6,9.5,25.6L9.5,25.6c0.1,0,0.1,0,0.2,0c0-0.1-0.1-0.1,0-0.1C9.6,25.6,9.5,25.6,9.5,25.6L9.5,25.6z
		 M9.7,26.7C9.7,26.7,9.7,26.7,9.7,26.7C9.7,26.6,9.7,26.6,9.7,26.7L9.7,26.7C9.7,26.7,9.7,26.7,9.7,26.7 M9.7,24.8
		C9.7,24.8,9.7,24.8,9.7,24.8l0-0.2C9.6,24.7,9.6,24.8,9.7,24.8C9.6,24.8,9.6,24.8,9.7,24.8C9.6,24.8,9.6,24.8,9.7,24.8
		C9.6,24.8,9.7,24.8,9.7,24.8 M9.8,24.5c0.1-0.1,0.1-0.1,0.1-0.1c0,0,0-0.1-0.1-0.2c-0.1,0.1-0.1,0.2-0.1,0.2
		C9.7,24.4,9.7,24.4,9.8,24.5 M9.9,21.3c0-0.2-0.1-0.4-0.3-0.4c-0.1,0-0.2,0-0.4,0c-0.2,0-0.3,0-0.4,0c-0.2,0-0.3,0.1-0.3,0.2
		c-0.1,0.3-0.2,0.5-0.1,0.7C8.4,21.9,8.6,22,8.9,22h0c0.4,0,0.6,0,0.7-0.1C9.8,21.9,9.9,21.7,9.9,21.3 M10.1,23.3
		c-0.1,0.1-0.2,0.2-0.2,0.2c0,0,0.1,0.2,0.2,0.4c0-0.1,0-0.1,0-0.2c0-0.1,0-0.2,0-0.3C10.1,23.4,10.1,23.3,10.1,23.3 M10,25
		c0,0,0.1,0,0.1-0.1c-0.1-0.1-0.1-0.1-0.1-0.1c0,0,0,0,0,0c0,0,0,0,0,0C10,24.9,10,24.9,10,25 M10,25.7C10,25.7,10,25.7,10,25.7
		c0.1,0,0.1,0,0.1,0l0,0v0H10z M10.2,26.3c0,0,0.1,0,0.2-0.1c-0.1-0.1-0.2-0.1-0.2-0.1c-0.1,0-0.1,0-0.1,0.1
		C10.1,26.2,10.1,26.2,10.2,26.3C10.1,26.3,10.2,26.3,10.2,26.3 M10.4,25.8C10.4,25.8,10.4,25.8,10.4,25.8L10.4,25.8
		c0.1,0,0.1,0,0.1,0c0,0,0-0.1-0.1-0.2C10.5,25.7,10.4,25.8,10.4,25.8L10.4,25.8z M10.5,26.5c0,0,0.1,0,0.1-0.1l-0.1-0.1
		C10.5,26.3,10.5,26.3,10.5,26.5C10.5,26.4,10.5,26.4,10.5,26.5C10.5,26.4,10.5,26.5,10.5,26.5 M10.7,23.7L10.7,23.7
		c0-0.1,0-0.1,0-0.2L10.7,23.7C10.6,23.6,10.6,23.6,10.7,23.7C10.6,23.6,10.6,23.7,10.7,23.7 M10.7,26.9
		C10.8,26.9,10.8,26.9,10.7,26.9C10.8,26.9,10.8,26.8,10.7,26.9C10.8,26.9,10.7,26.9,10.7,26.9C10.7,26.9,10.7,26.9,10.7,26.9
		 M10.9,24.9L10.9,24.9C10.9,24.9,10.9,24.8,10.9,24.9C10.8,24.9,10.8,24.9,10.9,24.9C10.9,24.9,10.9,24.9,10.9,24.9L10.9,24.9z
		 M11,25.3c0.1-0.1,0.1-0.1,0.1-0.1c0,0,0,0-0.1-0.1l-0.1,0.1C10.9,25.2,11,25.3,11,25.3 M11.4,24.9c0,0,0.1,0,0.2,0
		c-0.1,0-0.2-0.1-0.2-0.1c0,0-0.1,0-0.1,0c-0.1,0-0.1,0-0.1-0.1l0,0.1C11.3,24.9,11.4,24.9,11.4,24.9 M11.6,24.9L11.6,24.9
		L11.6,24.9L11.6,24.9L11.6,24.9C11.6,24.9,11.6,24.9,11.6,24.9 M11.6,24.5C11.7,24.5,11.7,24.5,11.6,24.5c0.1-0.1,0.1-0.1,0.1-0.1
		L11.6,24.5z M11.8,24.3c0,0,0.1-0.1,0.1-0.1c0,0,0,0,0,0C11.8,24.2,11.8,24.2,11.8,24.3 M11.8,23.3c0,0,0.1,0,0.2-0.1
		C12,23.1,12,23,11.9,22.9c-0.1,0.1-0.2,0.2-0.3,0.2C11.8,23.2,11.8,23.3,11.8,23.3 M12.2,24.4C12.2,24.4,12.3,24.4,12.2,24.4
		C12.3,24.3,12.2,24.3,12.2,24.4L12.2,24.4C12.2,24.4,12.2,24.4,12.2,24.4C12.2,24.4,12.2,24.4,12.2,24.4 M12.1,22.7
		c0.1-0.1,0.1-0.2,0.2-0.2c-0.1-0.1-0.1-0.1-0.1-0.1c-0.1,0.1-0.1,0.2-0.1,0.2C12.1,22.5,12.1,22.6,12.1,22.7 M12.3,23.6L12.3,23.6
		C12.4,23.6,12.4,23.6,12.3,23.6C12.4,23.5,12.4,23.5,12.3,23.6C12.4,23.6,12.3,23.6,12.3,23.6 M12.4,19.6
		C12.4,19.6,12.5,19.6,12.4,19.6c0.1-0.1,0-0.1-0.1-0.2C12.3,19.5,12.3,19.6,12.4,19.6C12.3,19.6,12.3,19.7,12.4,19.6 M12.5,18.5
		L12.5,18.5L12.5,18.5C12.5,18.5,12.4,18.5,12.5,18.5C12.4,18.5,12.5,18.5,12.5,18.5 M12.5,17.8C12.5,17.8,12.5,17.8,12.5,17.8
		L12.5,17.8L12.5,17.8z M12.6,18.2L12.6,18.2l0-0.1C12.6,18.1,12.6,18.1,12.6,18.2C12.6,18.1,12.6,18.2,12.6,18.2
		C12.6,18.2,12.6,18.2,12.6,18.2 M13,20.1L13,20.1L13,20.1L13,20.1z M12.9,19.5C12.9,19.5,12.9,19.5,12.9,19.5c0.1,0,0.1,0,0.1,0
		c0-0.1-0.1-0.1-0.1-0.2C12.9,19.4,12.9,19.4,12.9,19.5L12.9,19.5L12.9,19.5z M13,18C13,17.9,13,17.9,13,18C13,17.9,13,17.9,13,18
		C13,17.9,13,17.9,13,18L13,18C13,17.9,13,17.9,13,18 M13.4,19.9C13.4,19.9,13.4,19.9,13.4,19.9L13.4,19.9
		C13.3,19.8,13.3,19.8,13.4,19.9C13.3,19.8,13.3,19.8,13.4,19.9C13.3,19.9,13.4,19.9,13.4,19.9 M13.7,20.1
		C13.7,20.1,13.7,20.1,13.7,20.1C13.7,20.1,13.6,20.1,13.7,20.1C13.6,20.1,13.7,20.1,13.7,20.1 M5.8,25L5.8,25L5.8,25z"/>
	<path class="st0" d="M149,3.2h0.5c1,0,1.4,0.1,1.5,0h0.1L151,2.9l-0.1-0.1l-0.1-0.1c0,0-0.2,0-0.1-0.3l-0.2-0.5c0,0,0-0.3,0-0.3
		c0-0.2-1.5-1.2-1.7-1.3c-0.8,0-1.2,0.2-1.5,0.2l0.2,0.4c-0.4,0,0.1-0.1,0,0V1l0,0.1l0,0.1l0.1,0.6c0,0,0.3,0.3,0.2,0.3l0.1,0.7
		c0,0,0.1,0.2,0.1,0.4l0.2-0.1c0,0,0.1,0.1,0.4,0.1C148.8,3.2,148.9,3.2,149,3.2"/>
</g>
</svg>
