<?xml version="1.0" encoding="utf-8"?>
<!-- Generator: Adobe Illustrator 24.0.1, SVG Export Plug-In . SVG Version: 6.00 Build 0)  -->
<svg version="1.1" id="Livello_1" xmlns="http://www.w3.org/2000/svg" xmlns:xlink="http://www.w3.org/1999/xlink" x="0px" y="0px"
	 viewBox="0 0 64 64" style="enable-background:new 0 0 64 64;" xml:space="preserve">
<style type="text/css">
	.st0{fill:#1D203B;stroke:#1D203B;stroke-miterlimit:10;}
	.st1{fill:none;stroke:#1D203B;stroke-width:3;stroke-miterlimit:10;}
</style>
<g id="XMLID_2_">
	<path id="XMLID_3_" class="st0" d="M50.4,21c0.5-1.1,0.7-1.9,0.7-2.4c0-0.4-0.1-0.7-0.4-1C50.4,17.2,50,17,49.6,17
		c-0.7,0-1.7,0.6-2.9,1.9c-2.2,2.1-4.3,4.4-6.4,6.8C37.4,29,35.6,31.1,35,32c-1.3,1.9-2.2,3.1-2.6,3.6c-0.1,0.1-0.2,0.2-0.3,0.2
		c-0.7,0.3-1.6,0.6-2.7,1c-0.4,0.1-0.9,0.3-1.2,0.4L28,37.3c-0.2,0-0.2-0.2-0.2-0.3l0,0c0.5-2.5,1.3-5.5,2.7-9.1
		c1.6-4,3.4-7.5,5.4-10.7c0.7-1.1,1-1.9,1-2.4c0-0.4-0.2-0.8-0.6-1.2c-0.3-0.3-0.6-0.4-0.9-0.4c-0.5,0-1.2,0.4-2,1.1
		c-0.8,0.7-2.1,2.4-4.1,4.9c-4.8,6-8.9,12.4-12.4,19.2c-0.7,1.3-1.7,3.5-2.9,6.5c-0.6,1.4-0.9,2.2-0.9,2.5c0,0.2,0.1,0.4,0.2,0.5
		c0.2,0.2,0.4,0.3,0.6,0.3c1,0,1.8-0.9,2.5-2.6c1.5-3.4,2.7-6.2,3.7-8.3c2.2-4.3,4.6-8.5,7.3-12.5c0.1-0.1,0.1-0.2,0.2-0.3
		c0.5-0.7,1.7-0.1,1.3,0.7c-2.7,5.6-4,9.9-4,12.9c0,0,0,0.1,0,0.1l0,0c0,0,0,1.8,1.5,1.9c0,0,0.1,0,0.1,0c0,0,0.1,0,0.1,0
		c0,0,0,0,0,0c0,0,0,0,0,0c0,0,0,0,0,0c0,0,0,0,0,0l0,0c0.1,0,0.1,0,0.2,0c0,0,0,0,0,0c0.1,0,0.3-0.1,0.4-0.1c0,0,0,0,0,0
		c0,0,0.1,0,0.1-0.1l0.1,0c0.1-0.1,0.3-0.1,0.4-0.2h0h0c0.7-0.3,1.3,0.5,0.9,1.1c-0.1,0.1-0.1,0.2-0.2,0.3c-1.3,2.1-2.3,3.7-3,4.9
		c-1.2,2.1,1.7,2.3,1.9,1.9l1.3-2.3c1.7-3,3.3-5.6,4.8-7.7c0.1-0.1,0.2-0.2,0.3-0.3c2.2-0.9,4.8-1.6,7.9-2.3c0.5-0.1,1,0.3,0.9,0.9
		c-0.2,0.9-0.4,2-0.7,3.3c-0.8,3.8-1.2,6.8-1.2,9.1c0,0.7,0.1,1.2,0.3,1.6c0.3,0.6,0.7,0.9,1.3,0.9c0.7,0,1-0.6,1-1.8
		c0-0.7,0.2-2.6,0.6-5.8c0.8-4.2,1.3-7,1.7-8.4c0.1-0.3,0.3-0.5,0.6-0.5c0.4-0.1,1-0.1,1.6-0.1c0.4,0,0.7,0,0.8,0
		c0.3-0.1,0.5-0.2,0.7-0.5c0.2-0.3,0.3-0.6,0.3-0.9c0-0.7-0.5-1.1-1.4-1.1c-0.3,0-0.7,0-1.2,0c-0.1,0-0.3,0-0.6,0
		c0.2-1.1,0.6-2.6,1.2-4.6C48.9,25.1,49.6,23,50.4,21z M46.1,25.6c-0.6,1.6-1,2.7-1.1,3.2c-0.5,1.6-0.8,2.7-1,3.4
		c-0.1,0.3-0.3,0.4-0.5,0.5c-1.7,0.4-2.8,0.6-3.4,0.8c-0.8,0.2-1.4,0.4-2,0.6c-0.7,0.2-1.2-0.6-0.8-1.1c1.6-2.3,4-5.2,7-8.5
		c0.4-0.4,0.8-0.8,1.1-1.1c0.6-0.5,1.5,0.1,1.2,0.8C46.5,24.5,46.3,25,46.1,25.6z"/>
	<circle id="XMLID_7_" class="st1" cx="32.1" cy="32.1" r="30"/>
</g>
</svg>
