<?xml version="1.0" encoding="utf-8"?>
<!-- Generator: Adobe Illustrator 24.0.1, SVG Export Plug-In . SVG Version: 6.00 Build 0)  -->
<svg version="1.1" id="Livello_1" xmlns="http://www.w3.org/2000/svg" xmlns:xlink="http://www.w3.org/1999/xlink" x="0px" y="0px"
	 viewBox="0 0 141.7 141.7" style="enable-background:new 0 0 141.7 141.7;" xml:space="preserve">
<style type="text/css">
	.st0{display:none;}
	.st1{fill:#FFFFFF;stroke:#FFFFFF;stroke-width:2;stroke-miterlimit:10;}
	.st2{fill:#FFFFFF;}
</style>
<rect y="0" class="st0" width="141.7" height="141.7"/>
<path id="XMLID_3_" class="st1" d="M109.1,47.5c0.9-2.4,1.4-4,1.4-5c0-0.8-0.3-1.5-0.8-2.1c-0.6-0.7-1.4-1.1-2.3-1.1
	c-1.4,0-3.5,1.3-6.2,3.9c-4.6,4.4-9.1,9.1-13.4,14.2c-6,7-9.7,11.4-11,13.2c-2.7,3.9-4.5,6.4-5.4,7.5c-0.1,0.2-0.3,0.3-0.6,0.4
	c-1.5,0.6-3.4,1.3-5.7,2.1c-0.9,0.3-1.8,0.6-2.6,0.8l-0.4,0.1c-0.5,0.1-0.4-0.5-0.4-0.6v-0.1c1-5.2,2.7-11.5,5.7-19
	c3.4-8.3,7.2-15.8,11.2-22.4c1.4-2.3,2.1-4,2.1-5c0-0.9-0.4-1.7-1.2-2.4c-0.6-0.6-1.3-0.9-2-0.9c-1.1,0-2.5,0.8-4.1,2.4
	c-1.6,1.6-4.5,5-8.6,10.2c-10,12.5-18.6,25.9-25.9,40.1c-1.4,2.8-3.5,7.4-6.2,13.7c-1.3,2.9-1.9,4.7-1.9,5.3c0,0.4,0.1,0.8,0.4,1.1
	c0.3,0.4,0.8,0.7,1.3,0.7c2,0,3.8-1.8,5.3-5.5c3.1-7.2,5.6-13,7.8-17.3c4.5-9,9.6-17.7,15.4-26.2c0.1-0.2,0.3-0.4,0.4-0.6
	c1.1-1.6,3.5-0.2,2.7,1.6c-5.5,11.7-8.3,20.7-8.3,27c0,0.1,0,0.2,0,0.3l0,0c0,0,0,3.7,3.1,4c0.1,0,0.2,0,0.3,0s0.2,0,0.2,0l0,0
	c0,0,0,0,0.1,0h0.1h0.1l0,0c0.1,0,0.2,0,0.4,0l0,0c0.3-0.1,0.5-0.1,0.8-0.2c0,0,0,0,0.1,0s0.2-0.1,0.3-0.1h0.1
	c0.3-0.1,0.6-0.2,0.9-0.4l0,0l0,0c1.4-0.5,2.7,1,1.9,2.3c-0.1,0.2-0.2,0.4-0.3,0.5c-2.8,4.4-4.9,7.8-6.3,10.2
	c-2.5,4.5,3.6,4.7,4.1,3.9l2.7-4.7c3.6-6.2,7-11.6,10-16.1c0.2-0.3,0.4-0.4,0.7-0.6c4.6-1.8,10.1-3.4,16.6-4.8
	c1.1-0.2,2,0.7,1.8,1.8c-0.4,1.9-0.9,4.2-1.4,7c-1.7,7.9-2.5,14.3-2.5,19c0,1.4,0.2,2.5,0.7,3.3c0.6,1.2,1.5,1.8,2.7,1.8
	c1.5,0,2.2-1.2,2.2-3.7c0-1.5,0.4-5.5,1.3-12.1c1.6-8.9,2.8-14.7,3.6-17.6c0.2-0.6,0.6-1,1.2-1.1c0.9-0.1,2-0.2,3.4-0.2
	c0.9,0,1.5,0,1.7-0.1c0.5-0.1,1-0.5,1.4-1.1s0.6-1.3,0.6-1.9c0-1.5-1-2.2-2.9-2.2c-0.6,0-1.5,0-2.4,0.1c-0.2,0-0.6,0.1-1.2,0.1
	c0.4-2.2,1.3-5.5,2.6-9.7C105.9,56.2,107.5,51.7,109.1,47.5z M100.1,57.2c-1.3,3.3-2,5.6-2.3,6.7c-1,3.4-1.7,5.7-2.1,7
	c-0.2,0.5-0.6,0.9-1.1,1c-3.6,0.8-5.9,1.3-7,1.6c-1.6,0.5-3,0.9-4.2,1.2c-1.4,0.4-2.5-1.2-1.7-2.4c3.4-4.9,8.3-10.8,14.7-17.7
	c0.8-0.8,1.6-1.6,2.4-2.4c1.2-1.1,3,0.2,2.5,1.7C100.9,55.1,100.5,56.1,100.1,57.2z"/>
<g id="XMLID_7_">
	<path class="st2" d="M70.9,6.8c35.4,0,64.1,28.8,64.1,64.1S106.2,135,70.9,135S6.8,106.2,6.8,70.9S35.5,6.8,70.9,6.8 M70.9,1.8
		C32.7,1.8,1.8,32.7,1.8,70.9S32.7,140,70.9,140S140,109,140,70.9S109,1.8,70.9,1.8L70.9,1.8z"/>
</g>
</svg>
