<?xml version="1.0" encoding="utf-8"?>
<!-- Generator: Adobe Illustrator 24.0.1, SVG Export Plug-In . SVG Version: 6.00 Build 0)  -->
<svg version="1.1" id="Livello_1" xmlns="http://www.w3.org/2000/svg" xmlns:xlink="http://www.w3.org/1999/xlink" x="0px" y="0px"
	 viewBox="0 0 439.4 99.2" style="enable-background:new 0 0 439.4 99.2;" xml:space="preserve">
<style type="text/css">
	.st0{fill:#FFFFFF;}
	.st1{clip-path:url(#XMLID_2_);}
</style>
<g>
	<g>
		<path class="st0" d="M200.2,24.1c0.2,0,0.4,0,0.6,0c0.2,0,0.5,0,0.9,0c1,0,2.3,0,3.9-0.1c1.5-0.1,2.6-0.1,3.1-0.1
			c2.3,0,4.1,0.5,5.3,1.6s1.9,2.5,1.9,4.4c0,2.2-0.7,3.9-2.2,5.2c-1.4,1.3-3.4,1.9-5.9,1.9c-0.2,0-0.5,0-0.8,0c-0.3,0-0.6,0-1-0.1
			c0,1.3,0.1,2.5,0.2,3.5c0.1,1,0.4,1.8,0.6,2.5c-0.7,0.3-1.3,0.5-1.9,0.7c-0.6,0.1-1.2,0.2-1.7,0.2c-0.9,0-1.5-0.2-1.9-0.6
			c-0.4-0.4-0.5-1.1-0.5-2.2c0-0.5,0.1-1.6,0.2-3.6s0.2-3.6,0.2-5.1c0-2.4-0.1-4.2-0.2-5.5C200.7,25.6,200.5,24.6,200.2,24.1z
			 M205.9,33.5c0.2,0,0.5,0.1,0.7,0.1c0.2,0,0.5,0,0.7,0c1.1,0,1.9-0.3,2.5-0.9c0.6-0.6,0.9-1.4,0.9-2.4c0-0.9-0.3-1.6-0.8-2.1
			c-0.5-0.5-1.3-0.7-2.3-0.7c-0.2,0-0.4,0-0.7,0c-0.3,0-0.5,0.1-0.8,0.1c-0.1,1-0.1,1.9-0.1,2.9C205.9,31.6,205.9,32.5,205.9,33.5z"
			/>
		<path class="st0" d="M229.6,42.8c-0.6,0.3-1.1,0.6-1.6,0.7c-0.5,0.2-0.9,0.2-1.4,0.2c-0.5,0-1-0.1-1.3-0.4s-0.5-0.6-0.6-1.2
			c-0.7,0.6-1.3,1-2,1.3s-1.4,0.4-2.1,0.4c-1.4,0-2.5-0.4-3.3-1.1c-0.8-0.8-1.2-1.8-1.2-3c0-1.5,0.6-2.7,1.7-3.5
			c1.1-0.9,2.7-1.3,4.7-1.3c0.3,0,0.6,0,0.9,0s0.7,0.1,1.2,0.1v-0.5c0-0.7-0.3-1.3-0.8-1.7c-0.5-0.4-1.2-0.6-2.2-0.6
			c-0.8,0-1.5,0.1-2,0.4c-0.6,0.3-1.1,0.6-1.4,1.2c-0.4-0.2-0.6-0.4-0.8-0.7c-0.2-0.3-0.3-0.6-0.3-0.9c0-0.8,0.5-1.5,1.5-2
			c1-0.5,2.3-0.8,4-0.8c2.1,0,3.6,0.4,4.6,1.3s1.4,2.3,1.4,4.2c0,0,0,0.4,0,1.1c0,0.7,0,1.3,0,2c0,1.2,0.1,2.1,0.2,2.9
			C229,41.8,229.3,42.3,229.6,42.8z M224.7,37.4c-0.3,0-0.5-0.1-0.8-0.1c-0.3,0-0.5,0-0.7,0c-1,0-1.7,0.2-2.2,0.5
			c-0.5,0.4-0.8,0.9-0.8,1.5c0,0.6,0.2,1,0.5,1.3c0.4,0.3,0.9,0.5,1.5,0.5c0.5,0,0.9-0.1,1.3-0.3c0.4-0.2,0.8-0.5,1.2-0.9
			c0-0.2,0-0.3,0-0.6c0-0.2,0-0.6,0-1.1V37.4z"/>
		<path class="st0" d="M236.7,33.2c0.6-1.2,1.3-2.2,1.9-2.7s1.3-0.8,2.1-0.8c0.6,0,1.2,0.2,1.6,0.6c0.4,0.4,0.6,1,0.6,1.7
			c0,0.6-0.2,1.2-0.5,1.7s-0.9,0.9-1.7,1.3c-0.1-0.4-0.2-0.7-0.4-0.9c-0.2-0.2-0.5-0.3-0.9-0.3c-0.4,0-0.9,0.2-1.3,0.6
			s-0.8,0.9-1.2,1.6c0,0.3-0.1,0.7-0.1,1.1s0,0.8,0,1.3c0,1.1,0.1,2,0.2,2.8s0.4,1.4,0.7,1.9c-0.6,0.3-1.2,0.5-1.8,0.6
			c-0.6,0.1-1.1,0.2-1.7,0.2c-0.7,0-1.2-0.2-1.6-0.5c-0.3-0.3-0.5-0.8-0.5-1.6c0-0.3,0-1.3,0.2-2.9s0.2-3.1,0.2-4.4
			c0-0.9-0.1-1.7-0.2-2.3c-0.1-0.7-0.3-1.3-0.5-1.9c0.6-0.2,1.1-0.3,1.5-0.4c0.4-0.1,0.8-0.1,1.2-0.1c0.8,0,1.4,0.2,1.7,0.6
			s0.5,1,0.5,1.8c0,0.2,0,0.3,0,0.5C236.7,32.7,236.7,33,236.7,33.2L236.7,33.2z"/>
		<path class="st0" d="M249.1,33.2c0.6-1.2,1.3-2.2,1.9-2.7s1.3-0.8,2.1-0.8c0.6,0,1.2,0.2,1.6,0.6c0.4,0.4,0.6,1,0.6,1.7
			c0,0.6-0.2,1.2-0.5,1.7s-0.9,0.9-1.7,1.3c-0.1-0.4-0.2-0.7-0.4-0.9c-0.2-0.2-0.5-0.3-0.9-0.3c-0.4,0-0.9,0.2-1.3,0.6
			s-0.8,0.9-1.2,1.6c0,0.3-0.1,0.7-0.1,1.1s0,0.8,0,1.3c0,1.1,0.1,2,0.2,2.8s0.4,1.4,0.7,1.9c-0.6,0.3-1.2,0.5-1.8,0.6
			c-0.6,0.1-1.1,0.2-1.7,0.2c-0.7,0-1.2-0.2-1.6-0.5c-0.3-0.3-0.5-0.8-0.5-1.6c0-0.3,0-1.3,0.2-2.9s0.2-3.1,0.2-4.4
			c0-0.9-0.1-1.7-0.2-2.3c-0.1-0.7-0.3-1.3-0.5-1.9c0.6-0.2,1.1-0.3,1.5-0.4c0.4-0.1,0.8-0.1,1.2-0.1c0.8,0,1.4,0.2,1.7,0.6
			s0.5,1,0.5,1.8c0,0.2,0,0.3,0,0.5C249.1,32.7,249.1,33,249.1,33.2L249.1,33.2z"/>
		<path class="st0" d="M271.3,36.4c0,0.9-0.2,1.8-0.5,2.6c-0.3,0.8-0.7,1.6-1.3,2.3c-0.8,0.9-1.7,1.6-2.8,2.1s-2.2,0.7-3.5,0.7
			c-2.3,0-4.1-0.7-5.6-2s-2.2-3-2.2-5.1c0-2.2,0.8-4,2.3-5.4c1.5-1.4,3.5-2.1,5.9-2.1c2.2,0,4,0.7,5.5,2
			C270.6,32.7,271.3,34.4,271.3,36.4z M260,36.9c0,1.1,0.3,1.9,1,2.6c0.6,0.6,1.5,1,2.5,1c1,0,1.8-0.3,2.5-1c0.7-0.7,1-1.6,1-2.6
			c0-1.1-0.3-2-1-2.6c-0.6-0.7-1.5-1-2.5-1c-1,0-1.9,0.3-2.5,1C260.3,34.8,260,35.7,260,36.9z"/>
		<path class="st0" d="M283.7,39.4c0.3,0.4,0.5,0.7,0.7,1.1s0.2,0.7,0.2,1c0,0.8-0.4,1.4-1.1,1.8s-1.8,0.7-3.1,0.7
			c-2.2,0-3.9-0.6-5.2-1.8s-2-2.8-2-4.7c0-1.2,0.2-2.4,0.7-3.4c0.5-1,1.2-2,2.2-2.8c0.7-0.6,1.5-1,2.4-1.3s1.9-0.5,2.9-0.5
			c0.9,0,1.7,0.2,2.2,0.5s0.8,0.8,0.8,1.4c0,0.4-0.1,0.7-0.3,1.1s-0.5,0.8-0.8,1.2c-0.3-0.2-0.7-0.3-1-0.4c-0.3-0.1-0.7-0.1-1-0.1
			c-1,0-1.9,0.4-2.6,1.1c-0.7,0.7-1.1,1.6-1.1,2.7c0,1,0.3,1.8,0.9,2.4c0.6,0.6,1.4,0.9,2.3,0.9c0.5,0,1-0.1,1.5-0.2
			S283.2,39.8,283.7,39.4z"/>
		<path class="st0" d="M296.6,39.4c0.3,0.4,0.5,0.7,0.7,1.1s0.2,0.7,0.2,1c0,0.8-0.4,1.4-1.1,1.8s-1.8,0.7-3.1,0.7
			c-2.2,0-3.9-0.6-5.2-1.8s-2-2.8-2-4.7c0-1.2,0.2-2.4,0.7-3.4c0.5-1,1.2-2,2.2-2.8c0.7-0.6,1.5-1,2.4-1.3s1.9-0.5,2.9-0.5
			c0.9,0,1.7,0.2,2.2,0.5s0.8,0.8,0.8,1.4c0,0.4-0.1,0.7-0.3,1.1s-0.5,0.8-0.8,1.2c-0.3-0.2-0.7-0.3-1-0.4c-0.3-0.1-0.7-0.1-1-0.1
			c-1,0-1.9,0.4-2.6,1.1c-0.7,0.7-1.1,1.6-1.1,2.7c0,1,0.3,1.8,0.9,2.4c0.6,0.6,1.4,0.9,2.3,0.9c0.5,0,1-0.1,1.5-0.2
			S296.1,39.8,296.6,39.4z"/>
		<path class="st0" d="M314.2,43c-0.5,0.3-1,0.5-1.6,0.6c-0.5,0.1-1.1,0.2-1.7,0.2c-0.7,0-1.3-0.2-1.6-0.5c-0.3-0.3-0.5-0.9-0.5-1.7
			c0-0.3,0-1,0.1-2.1c0.1-1.1,0.1-1.9,0.1-2.7c0-1.4-0.2-2.4-0.5-3s-0.9-0.8-1.7-0.8c-0.4,0-0.8,0.1-1.2,0.2
			c-0.4,0.1-0.9,0.4-1.5,0.6c0,0.4-0.1,0.9-0.1,1.5c0,0.5,0,1.1,0,1.8c0,1.5,0.1,2.7,0.2,3.6c0.1,1,0.3,1.7,0.6,2.2
			c-0.6,0.3-1.1,0.5-1.6,0.6c-0.5,0.1-1.1,0.2-1.6,0.2c-0.7,0-1.3-0.2-1.5-0.5c-0.3-0.3-0.4-0.9-0.4-1.8c0-0.3,0-1.6,0.2-3.9
			s0.2-4.4,0.2-6.4c0-2.1-0.1-3.7-0.2-4.7c-0.1-1-0.3-1.8-0.6-2.3c0.6-0.3,1.2-0.5,1.7-0.6c0.5-0.1,1.1-0.2,1.6-0.2
			c0.7,0,1.2,0.2,1.5,0.5c0.3,0.3,0.5,0.9,0.5,1.8c0,0.2,0,1-0.1,2.3c-0.1,1.3-0.1,2.5-0.2,3.6c0.7-0.6,1.5-1.1,2.2-1.4
			c0.8-0.3,1.6-0.5,2.4-0.5c1.6,0,2.8,0.5,3.6,1.4s1.3,2.2,1.3,3.9c0,0.4,0,1-0.1,1.9s-0.1,1.5-0.1,2c0,1,0.1,1.9,0.2,2.6
			S313.9,42.5,314.2,43z"/>
		<path class="st0" d="M322,43c-0.6,0.3-1.1,0.5-1.6,0.6c-0.5,0.1-1.1,0.2-1.7,0.2c-0.7,0-1.2-0.2-1.5-0.5s-0.5-0.9-0.5-1.6
			c0-0.3,0-1.2,0.1-2.6c0.1-1.4,0.1-2.7,0.1-3.8c0-1.1-0.1-2.1-0.2-2.9c-0.1-0.8-0.3-1.4-0.5-1.9c0.6-0.3,1.1-0.5,1.6-0.6
			c0.5-0.1,1.1-0.2,1.6-0.2c0.7,0,1.2,0.2,1.5,0.5s0.5,0.9,0.5,1.6c0,0.5,0,1.4-0.1,2.9c-0.1,1.5-0.1,2.7-0.1,3.7
			c0,1,0.1,1.9,0.2,2.6C321.6,41.7,321.8,42.4,322,43z M319.6,23.1c0.7,0,1.2,0.2,1.6,0.6c0.4,0.4,0.6,0.9,0.6,1.6
			c0,0.7-0.3,1.3-0.8,1.8s-1.2,0.7-1.9,0.7c-0.7,0-1.2-0.2-1.6-0.6c-0.4-0.4-0.6-0.9-0.6-1.5c0-0.7,0.3-1.3,0.8-1.8
			C318.2,23.3,318.8,23.1,319.6,23.1z"/>
		<path class="st0" d="M337.7,42.8c-0.6,0.3-1.1,0.6-1.6,0.7c-0.5,0.2-0.9,0.2-1.4,0.2c-0.5,0-1-0.1-1.3-0.4s-0.5-0.6-0.6-1.2
			c-0.7,0.6-1.3,1-2,1.3s-1.4,0.4-2.1,0.4c-1.4,0-2.5-0.4-3.3-1.1c-0.8-0.8-1.2-1.8-1.2-3c0-1.5,0.6-2.7,1.7-3.5
			c1.1-0.9,2.7-1.3,4.7-1.3c0.3,0,0.6,0,0.9,0s0.7,0.1,1.2,0.1v-0.5c0-0.7-0.3-1.3-0.8-1.7c-0.5-0.4-1.2-0.6-2.2-0.6
			c-0.8,0-1.5,0.1-2,0.4c-0.6,0.3-1.1,0.6-1.4,1.2c-0.4-0.2-0.6-0.4-0.8-0.7c-0.2-0.3-0.3-0.6-0.3-0.9c0-0.8,0.5-1.5,1.5-2
			s2.3-0.8,4-0.8c2.1,0,3.6,0.4,4.6,1.3s1.4,2.3,1.4,4.2c0,0,0,0.4,0,1.1c0,0.7,0,1.3,0,2c0,1.2,0.1,2.1,0.2,2.9
			C337.1,41.8,337.3,42.3,337.7,42.8z M332.8,37.4c-0.3,0-0.5-0.1-0.8-0.1c-0.3,0-0.5,0-0.7,0c-1,0-1.7,0.2-2.2,0.5
			c-0.5,0.4-0.8,0.9-0.8,1.5c0,0.6,0.2,1,0.5,1.3c0.4,0.3,0.9,0.5,1.5,0.5c0.5,0,0.9-0.1,1.3-0.3c0.4-0.2,0.8-0.5,1.2-0.9
			c0-0.2,0-0.3,0-0.6c0-0.2,0-0.6,0-1.1V37.4z"/>
		<path class="st0" d="M102.1,67.4c0.5,0.3,0.9,0.5,1.4,0.6c0.5,0.1,1,0.2,1.5,0.2c0.9,0,1.6-0.2,2.2-0.5c0.5-0.4,0.8-0.9,0.8-1.5
			c0-0.7-0.8-1.6-2.4-2.6c-0.1-0.1-0.2-0.1-0.2-0.1c-1.6-1.1-2.6-1.9-3.1-2.6c-0.4-0.7-0.7-1.5-0.7-2.4c0-0.8,0.2-1.5,0.5-2.2
			c0.3-0.7,0.8-1.4,1.3-2c0.9-0.9,1.9-1.5,3-2c1.1-0.5,2.3-0.7,3.6-0.7c0.8,0,1.4,0.2,1.8,0.5c0.4,0.3,0.6,0.8,0.6,1.4
			c0,0.4-0.1,0.8-0.2,1.2c-0.2,0.4-0.4,0.9-0.7,1.4c-0.4-0.2-0.8-0.3-1.2-0.4s-0.8-0.1-1.3-0.1c-0.9,0-1.7,0.2-2.2,0.5
			c-0.5,0.3-0.8,0.8-0.8,1.4c0,0.8,0.9,1.7,2.7,2.9c0.2,0.1,0.4,0.2,0.5,0.3c1.1,0.7,1.8,1.4,2.3,2.2c0.5,0.7,0.7,1.5,0.7,2.4
			c0,0.9-0.2,1.7-0.5,2.5c-0.4,0.8-0.9,1.5-1.6,2.1c-0.8,0.7-1.7,1.3-2.7,1.6c-1,0.4-2.1,0.5-3.3,0.5c-1,0-1.7-0.2-2.2-0.6
			c-0.5-0.4-0.7-0.9-0.7-1.7c0-0.4,0.1-0.8,0.2-1.2C101.6,68.2,101.8,67.8,102.1,67.4z"/>
		<path class="st0" d="M127.9,70.8c-0.6,0.3-1.1,0.6-1.6,0.7c-0.5,0.2-0.9,0.2-1.4,0.2c-0.5,0-1-0.1-1.3-0.4s-0.5-0.6-0.6-1.2
			c-0.7,0.6-1.3,1-2,1.3c-0.7,0.3-1.4,0.4-2.1,0.4c-1.4,0-2.5-0.4-3.3-1.1c-0.8-0.8-1.2-1.8-1.2-3c0-1.5,0.6-2.7,1.7-3.5
			c1.1-0.9,2.7-1.3,4.7-1.3c0.3,0,0.6,0,0.9,0c0.4,0,0.7,0.1,1.2,0.1v-0.5c0-0.7-0.3-1.3-0.8-1.7c-0.5-0.4-1.2-0.6-2.2-0.6
			c-0.8,0-1.5,0.1-2,0.4c-0.6,0.3-1.1,0.6-1.4,1.2c-0.4-0.2-0.6-0.4-0.8-0.7c-0.2-0.3-0.3-0.6-0.3-0.9c0-0.8,0.5-1.5,1.5-2
			c1-0.5,2.3-0.8,4-0.8c2.1,0,3.6,0.4,4.6,1.3c1,0.9,1.4,2.3,1.4,4.2c0,0,0,0.4,0,1.1c0,0.7,0,1.3,0,2c0,1.2,0.1,2.1,0.2,2.9
			C127.3,69.8,127.5,70.3,127.9,70.8z M123,65.4c-0.3,0-0.5-0.1-0.8-0.1c-0.3,0-0.5,0-0.7,0c-1,0-1.7,0.2-2.2,0.5
			c-0.5,0.4-0.8,0.9-0.8,1.5c0,0.6,0.2,1,0.5,1.3c0.4,0.3,0.9,0.5,1.5,0.5c0.5,0,0.9-0.1,1.3-0.3c0.4-0.2,0.8-0.5,1.2-0.9
			c0-0.2,0-0.3,0-0.6c0-0.2,0-0.6,0-1.1V65.4z"/>
		<path class="st0" d="M145.3,71L145.3,71c-0.5,0.3-1.1,0.5-1.6,0.6s-1.1,0.2-1.6,0.2c-0.7,0-1.3-0.2-1.6-0.5
			c-0.3-0.3-0.5-0.8-0.5-1.5c0-0.5,0-1.3,0.1-2.4c0.1-1.1,0.1-2,0.1-2.6c0-1.4-0.2-2.3-0.5-2.9c-0.4-0.6-1-0.8-1.8-0.8
			c-0.4,0-0.8,0.1-1.3,0.2c-0.4,0.2-0.9,0.4-1.4,0.7c-0.1,1.4-0.1,2.3-0.1,2.8c0,0.5,0,0.9,0,1.2c0,1.1,0.1,2.1,0.2,2.9
			c0.1,0.8,0.3,1.5,0.5,2c-0.5,0.3-1.1,0.4-1.6,0.6c-0.5,0.1-1.1,0.2-1.6,0.2c-0.7,0-1.3-0.2-1.6-0.5c-0.3-0.3-0.4-1-0.4-1.8
			c0-0.4,0.1-1.3,0.2-2.8c0.1-1.5,0.2-2.8,0.2-3.9c0-1.2-0.1-2.1-0.2-2.9c-0.1-0.8-0.3-1.4-0.5-1.9c0.4-0.1,0.8-0.2,1.2-0.3
			c0.4-0.1,0.8-0.1,1.1-0.1c0.8,0,1.4,0.2,1.9,0.5c0.4,0.3,0.7,0.8,0.8,1.4c0.8-0.6,1.5-1.1,2.3-1.4s1.5-0.5,2.3-0.5
			c1.7,0,3,0.5,3.8,1.4c0.8,1,1.2,2.5,1.2,4.7c0,0.4,0,0.9,0,1.5c0,0.6,0,1,0,1.2c0,1.2,0.1,2.1,0.2,2.8
			C144.9,70,145.1,70.5,145.3,71z"/>
		<path class="st0" d="M169.7,62.1c0.6-0.3,1.2-0.5,1.8-0.7c0.5-0.2,1.1-0.2,1.5-0.2c0.9,0,1.6,0.3,2,0.8c0.4,0.5,0.6,1.4,0.6,2.7
			c0,2.8-0.6,4.7-1.8,5.8c-1.2,1.1-3.3,1.6-6.3,1.6c-3.5,0-6.2-0.9-8.3-2.6c-2.1-1.7-3.1-4-3.1-6.8c0-1.6,0.3-3.1,1-4.4
			c0.7-1.4,1.6-2.6,2.9-3.7c1.1-1,2.5-1.7,4-2.2c1.5-0.5,3.1-0.8,4.7-0.8c1.3,0,2.2,0.2,2.8,0.5c0.6,0.3,0.8,0.9,0.8,1.6
			c0,0.4-0.1,0.8-0.3,1.2c-0.2,0.5-0.4,1-0.7,1.5c-0.5-0.2-1-0.4-1.4-0.5c-0.5-0.1-0.9-0.2-1.4-0.2c-2.1,0-3.7,0.6-5,1.8
			c-1.3,1.2-2,2.7-2,4.6c0,1.8,0.6,3.2,1.7,4.3c1.1,1.1,2.7,1.6,4.6,1.6c0.4,0,0.9,0,1.3-0.1s0.9-0.2,1.4-0.3c0-0.3,0.1-0.7,0.1-1
			c0-0.3,0-0.7,0-1c0-0.9-0.1-1.6-0.2-2.1C170.3,62.9,170,62.5,169.7,62.1z"/>
		<path class="st0" d="M183.5,71c-0.6,0.3-1.1,0.5-1.6,0.6c-0.5,0.1-1.1,0.2-1.7,0.2c-0.7,0-1.2-0.2-1.5-0.5s-0.5-0.9-0.5-1.6
			c0-0.3,0-1.2,0.1-2.6c0.1-1.4,0.1-2.7,0.1-3.8c0-1.1-0.1-2.1-0.2-2.9c-0.1-0.8-0.3-1.4-0.5-1.9c0.6-0.3,1.1-0.5,1.6-0.6
			c0.5-0.1,1.1-0.2,1.6-0.2c0.7,0,1.2,0.2,1.5,0.5s0.5,0.9,0.5,1.6c0,0.5,0,1.4-0.1,2.9c-0.1,1.5-0.1,2.7-0.1,3.7
			c0,1,0.1,1.9,0.2,2.6C183.1,69.7,183.2,70.4,183.5,71z M181,51.1c0.7,0,1.2,0.2,1.6,0.6c0.4,0.4,0.6,0.9,0.6,1.6
			c0,0.7-0.3,1.3-0.8,1.8s-1.2,0.7-1.9,0.7c-0.7,0-1.2-0.2-1.6-0.6c-0.4-0.4-0.6-0.9-0.6-1.5c0-0.7,0.3-1.3,0.8-1.8
			C179.6,51.3,180.3,51.1,181,51.1z"/>
		<path class="st0" d="M200.7,70.9c-0.6,0.3-1.1,0.5-1.6,0.7c-0.5,0.1-1,0.2-1.4,0.2c-0.7,0-1.2-0.2-1.5-0.5
			c-0.3-0.3-0.4-0.8-0.4-1.5v-0.3c-0.6,0.9-1.3,1.5-2.1,2s-1.7,0.7-2.7,0.7c-1.5,0-2.7-0.5-3.5-1.4c-0.8-0.9-1.2-2.2-1.2-4
			c0-0.4,0-1,0.1-2c0-0.9,0.1-1.7,0.1-2.2c0-1-0.1-1.9-0.2-2.5c-0.1-0.6-0.3-1.2-0.5-1.6c0.6-0.3,1.1-0.5,1.6-0.6
			c0.5-0.1,1-0.2,1.6-0.2c0.7,0,1.3,0.2,1.6,0.5c0.3,0.3,0.5,0.8,0.5,1.5c0,0.5,0,1.3-0.1,2.4c-0.1,1.1-0.1,2-0.1,2.7
			c0,1.4,0.2,2.3,0.5,2.8c0.3,0.5,0.8,0.8,1.6,0.8c0.5,0,1-0.1,1.5-0.4c0.5-0.3,0.9-0.7,1.4-1.3v-0.1c0-0.7,0.1-1.3,0.1-1.6
			c0-1.8-0.1-3.1-0.2-4.1c-0.1-1-0.4-1.8-0.7-2.3c0.7-0.3,1.3-0.5,1.8-0.6c0.5-0.1,1-0.2,1.5-0.2c0.8,0,1.3,0.2,1.6,0.5
			s0.5,1,0.5,1.9c0,0.2,0,1-0.1,2.2c-0.1,1.3-0.1,2.4-0.1,3.5c0,1.3,0.1,2.3,0.2,3.1C200.3,69.8,200.4,70.4,200.7,70.9z"/>
		<path class="st0" d="M203.5,68.4c0.4,0.2,0.7,0.3,1.1,0.4s0.7,0.1,1.1,0.1c0.5,0,1-0.1,1.3-0.3c0.3-0.2,0.5-0.5,0.5-0.8
			c0-0.4-0.5-1-1.6-1.7c-0.2-0.2-0.4-0.3-0.6-0.4c-0.9-0.6-1.6-1.2-1.9-1.7c-0.3-0.5-0.5-1.1-0.5-1.7c0-1.4,0.6-2.5,1.9-3.5
			c1.2-1,2.8-1.5,4.5-1.5c0.7,0,1.2,0.1,1.5,0.4c0.4,0.3,0.5,0.7,0.5,1.2c0,0.3-0.1,0.6-0.2,1c-0.1,0.3-0.4,0.7-0.6,1
			c-0.3-0.1-0.6-0.2-0.9-0.3c-0.3-0.1-0.6-0.1-0.9-0.1c-0.6,0-1.1,0.1-1.5,0.4c-0.4,0.2-0.6,0.5-0.6,0.9c0,0.2,0.1,0.5,0.3,0.7
			s0.5,0.5,1,0.9c0.1,0.1,0.3,0.2,0.6,0.4c1.8,1.3,2.6,2.5,2.6,3.6c0,1.3-0.6,2.4-1.7,3.3c-1.2,0.9-2.6,1.4-4.4,1.4
			c-0.8,0-1.4-0.1-1.8-0.4c-0.4-0.3-0.6-0.7-0.6-1.3c0-0.3,0.1-0.6,0.2-0.9S203.3,68.8,203.5,68.4z"/>
		<path class="st0" d="M225.1,67.8c0.3,0.3,0.5,0.7,0.7,0.9c0.1,0.3,0.2,0.6,0.2,0.8c0,0.7-0.4,1.3-1.3,1.7c-0.8,0.4-2,0.6-3.5,0.6
			c-2.5,0-4.5-0.6-5.8-1.8c-1.4-1.2-2-2.9-2-5.2c0-2.2,0.7-3.9,2.1-5.3c1.4-1.3,3.2-2,5.4-2c1.8,0,3.3,0.5,4.4,1.4
			c1.1,0.9,1.7,2.1,1.7,3.6c0,1.2-0.4,2-1.2,2.5c-0.8,0.5-2.3,0.7-4.4,0.7c-0.6,0-1.3,0-1.9-0.1s-1.3-0.1-1.9-0.2v0.1
			c0,1,0.3,1.8,1,2.4c0.7,0.6,1.7,0.8,3,0.8c0.8,0,1.4-0.1,2-0.3C224.2,68.4,224.7,68.2,225.1,67.8z M217.7,63.4
			c0.7,0.1,1.3,0.1,1.8,0.2c0.5,0,0.9,0.1,1.2,0.1c0.8,0,1.3-0.1,1.6-0.2c0.3-0.2,0.4-0.4,0.4-0.9c0-0.6-0.2-1.2-0.6-1.5
			c-0.4-0.4-0.9-0.6-1.6-0.6c-0.8,0-1.4,0.3-1.9,0.8C218.1,61.7,217.8,62.4,217.7,63.4z"/>
		<path class="st0" d="M233.7,59.5c0.7-0.6,1.3-1,2.1-1.3c0.7-0.3,1.5-0.4,2.4-0.4c1.8,0,3.2,0.6,4.3,1.8c1.1,1.2,1.7,2.8,1.7,4.7
			c0,0.8-0.1,1.6-0.3,2.4s-0.5,1.4-0.9,1.9c-0.8,1.1-1.7,1.9-2.6,2.5s-2.1,0.8-3.3,0.8c-0.7,0-1.3-0.1-1.8-0.3
			c-0.6-0.2-1.1-0.4-1.6-0.8v0.6c0,1.5,0.1,2.7,0.2,3.7s0.3,1.6,0.6,2.1c-0.6,0.3-1.1,0.5-1.6,0.6s-1,0.2-1.5,0.2
			c-0.7,0-1.2-0.2-1.5-0.5s-0.4-0.9-0.4-1.8c0-0.2,0-0.9,0.1-1.8c0.2-3.4,0.3-6.5,0.3-9.4c0-1.7-0.1-3.1-0.2-3.9
			c-0.1-0.9-0.3-1.6-0.6-2.2c0.4-0.1,0.8-0.3,1.2-0.3s0.8-0.1,1.1-0.1c0.8,0,1.4,0.1,1.8,0.4C233.4,58.4,233.6,58.9,233.7,59.5z
			 M233.7,67.3c0.4,0.3,0.8,0.5,1.2,0.7c0.4,0.1,0.9,0.2,1.3,0.2c1,0,1.8-0.3,2.5-1s1-1.6,1-2.6c0-1-0.3-1.8-0.9-2.5
			c-0.6-0.6-1.4-1-2.3-1c-0.4,0-0.9,0.1-1.4,0.3c-0.5,0.2-1,0.4-1.4,0.7c0,1.2,0,2.2,0,3C233.7,65.9,233.7,66.6,233.7,67.3z"/>
		<path class="st0" d="M251.2,59.5c0.7-0.6,1.3-1,2.1-1.3c0.7-0.3,1.5-0.4,2.4-0.4c1.8,0,3.2,0.6,4.3,1.8c1.1,1.2,1.7,2.8,1.7,4.7
			c0,0.8-0.1,1.6-0.3,2.4s-0.5,1.4-0.9,1.9c-0.8,1.1-1.7,1.9-2.6,2.5s-2.1,0.8-3.3,0.8c-0.7,0-1.3-0.1-1.8-0.3
			c-0.6-0.2-1.1-0.4-1.6-0.8v0.6c0,1.5,0.1,2.7,0.2,3.7s0.3,1.6,0.6,2.1c-0.6,0.3-1.1,0.5-1.6,0.6s-1,0.2-1.5,0.2
			c-0.7,0-1.2-0.2-1.5-0.5s-0.4-0.9-0.4-1.8c0-0.2,0-0.9,0.1-1.8c0.2-3.4,0.3-6.5,0.3-9.4c0-1.7-0.1-3.1-0.2-3.9
			c-0.1-0.9-0.3-1.6-0.6-2.2c0.4-0.1,0.8-0.3,1.2-0.3s0.8-0.1,1.1-0.1c0.8,0,1.4,0.1,1.8,0.4C250.9,58.4,251.1,58.9,251.2,59.5z
			 M251.2,67.3c0.4,0.3,0.8,0.5,1.2,0.7c0.4,0.1,0.9,0.2,1.3,0.2c1,0,1.8-0.3,2.5-1s1-1.6,1-2.6c0-1-0.3-1.8-0.9-2.5
			c-0.6-0.6-1.4-1-2.3-1c-0.4,0-0.9,0.1-1.4,0.3c-0.5,0.2-1,0.4-1.4,0.7c0,1.2,0,2.2,0,3C251.2,65.9,251.2,66.6,251.2,67.3z"/>
		<path class="st0" d="M275.3,67.8c0.3,0.3,0.5,0.7,0.7,0.9c0.1,0.3,0.2,0.6,0.2,0.8c0,0.7-0.4,1.3-1.3,1.7c-0.8,0.4-2,0.6-3.5,0.6
			c-2.5,0-4.5-0.6-5.8-1.8c-1.4-1.2-2-2.9-2-5.2c0-2.2,0.7-3.9,2.1-5.3c1.4-1.3,3.2-2,5.4-2c1.8,0,3.3,0.5,4.4,1.4
			c1.1,0.9,1.7,2.1,1.7,3.6c0,1.2-0.4,2-1.2,2.5c-0.8,0.5-2.3,0.7-4.4,0.7c-0.6,0-1.3,0-1.9-0.1s-1.3-0.1-1.9-0.2v0.1
			c0,1,0.3,1.8,1,2.4c0.7,0.6,1.7,0.8,3,0.8c0.8,0,1.4-0.1,2-0.3C274.4,68.4,274.9,68.2,275.3,67.8z M267.9,63.4
			c0.7,0.1,1.3,0.1,1.8,0.2c0.5,0,0.9,0.1,1.2,0.1c0.8,0,1.3-0.1,1.6-0.2c0.3-0.2,0.4-0.4,0.4-0.9c0-0.6-0.2-1.2-0.6-1.5
			c-0.4-0.4-0.9-0.6-1.6-0.6c-0.8,0-1.4,0.3-1.9,0.8C268.3,61.7,268,62.4,267.9,63.4z"/>
		<path class="st0" d="M303.3,66.7c0.4,0.5,0.6,0.9,0.8,1.3s0.3,0.8,0.3,1.2c0,0.9-0.5,1.6-1.4,2s-2.3,0.7-4.1,0.7
			c-3.4,0-6.2-0.9-8.3-2.7s-3.1-4.2-3.1-7.2c0-1.6,0.3-3.1,1-4.4c0.7-1.3,1.7-2.5,3-3.6c1.1-0.8,2.4-1.5,3.9-2
			c1.5-0.5,3.1-0.7,4.8-0.7c1.4,0,2.4,0.2,3,0.5s1,0.8,1,1.5c0,0.4-0.1,0.8-0.3,1.3s-0.4,1-0.8,1.5c-0.5-0.2-1.1-0.4-1.7-0.6
			c-0.6-0.1-1.2-0.2-1.9-0.2c-2,0-3.7,0.6-4.9,1.7c-1.2,1.1-1.8,2.7-1.8,4.5c0,1.9,0.6,3.3,1.8,4.5s2.7,1.7,4.6,1.7
			c0.7,0,1.4-0.1,2.1-0.3S302.6,67.1,303.3,66.7z"/>
		<path class="st0" d="M322.3,64.4c0,0.9-0.2,1.8-0.5,2.6c-0.3,0.8-0.7,1.6-1.3,2.3c-0.8,0.9-1.7,1.6-2.8,2.1s-2.2,0.7-3.5,0.7
			c-2.3,0-4.1-0.7-5.6-2s-2.2-3-2.2-5.1c0-2.2,0.8-4,2.3-5.4c1.5-1.4,3.5-2.1,5.9-2.1c2.2,0,4,0.7,5.5,2
			C321.6,60.7,322.3,62.4,322.3,64.4z M310.9,64.9c0,1.1,0.3,1.9,1,2.6c0.6,0.6,1.5,1,2.5,1c1,0,1.8-0.3,2.5-1c0.7-0.7,1-1.6,1-2.6
			c0-1.1-0.3-2-1-2.6c-0.6-0.7-1.5-1-2.5-1c-1,0-1.9,0.3-2.5,1C311.2,62.8,310.9,63.7,310.9,64.9z"/>
		<path class="st0" d="M330.2,58.4c0.3,0,0.8,0,1.4-0.1c0.6,0,1-0.1,1.2-0.1c0.5,0,0.8,0.1,1,0.2s0.3,0.4,0.3,0.8
			c0,0.3-0.1,0.6-0.2,0.9s-0.3,0.7-0.6,1.1c-0.2-0.1-0.4-0.1-0.7-0.2c-0.2,0-0.5,0-0.9,0c0,0-0.2,0-0.6,0c-0.4,0-0.8,0-1.1,0
			c-0.1,0.9-0.1,1.7-0.2,2.4c0,0.7-0.1,1.4-0.1,2c0,1.1,0.1,1.8,0.4,2.4c0.3,0.5,0.7,0.8,1.3,0.8c0.2,0,0.4,0,0.6-0.1
			c0.2-0.1,0.4-0.2,0.6-0.3c0.2,0.3,0.4,0.5,0.5,0.8c0.1,0.3,0.1,0.5,0.1,0.8c0,0.6-0.3,1.2-0.9,1.5c-0.6,0.4-1.5,0.6-2.6,0.6
			c-1.4,0-2.5-0.4-3.2-1.1c-0.7-0.7-1-1.9-1-3.4c0-0.5,0-1.5,0.2-2.8s0.2-2.4,0.2-3.2c-0.2,0-0.4,0-0.6,0.1s-0.4,0-0.5,0
			c-0.5,0-0.9-0.1-1.1-0.3c-0.2-0.2-0.3-0.4-0.3-0.8c0-0.2,0-0.5,0.1-0.8c0.1-0.3,0.2-0.6,0.4-1c0.1,0,0.3,0,0.5,0s0.4,0,0.6,0
			c0.2,0,0.6,0,1.1,0l0.1,0c0-0.1,0-0.2,0-0.4c0-0.2,0-0.3,0-0.4c0-0.6,0-1.2-0.1-1.7c-0.1-0.5-0.2-1-0.4-1.4
			c0.6-0.3,1.1-0.5,1.6-0.6c0.5-0.1,1-0.2,1.4-0.2c0.7,0,1.2,0.2,1.5,0.5c0.3,0.3,0.5,0.8,0.5,1.5c0,0.2,0,0.7-0.1,1.6
			C330.2,57.8,330.2,58.2,330.2,58.4z"/>
		<path class="st0" d="M341.4,58.4c0.3,0,0.8,0,1.4-0.1c0.6,0,1-0.1,1.2-0.1c0.5,0,0.8,0.1,1,0.2s0.3,0.4,0.3,0.8
			c0,0.3-0.1,0.6-0.2,0.9s-0.3,0.7-0.6,1.1c-0.2-0.1-0.4-0.1-0.7-0.2c-0.2,0-0.5,0-0.9,0c0,0-0.2,0-0.6,0c-0.4,0-0.8,0-1.1,0
			c-0.1,0.9-0.1,1.7-0.2,2.4c0,0.7-0.1,1.4-0.1,2c0,1.1,0.1,1.8,0.4,2.4c0.3,0.5,0.7,0.8,1.3,0.8c0.2,0,0.4,0,0.6-0.1
			c0.2-0.1,0.4-0.2,0.6-0.3c0.2,0.3,0.4,0.5,0.5,0.8c0.1,0.3,0.1,0.5,0.1,0.8c0,0.6-0.3,1.2-0.9,1.5c-0.6,0.4-1.5,0.6-2.6,0.6
			c-1.4,0-2.5-0.4-3.2-1.1c-0.7-0.7-1-1.9-1-3.4c0-0.5,0-1.5,0.2-2.8s0.2-2.4,0.2-3.2c-0.2,0-0.4,0-0.6,0.1s-0.4,0-0.5,0
			c-0.5,0-0.9-0.1-1.1-0.3c-0.2-0.2-0.3-0.4-0.3-0.8c0-0.2,0-0.5,0.1-0.8c0.1-0.3,0.2-0.6,0.4-1c0.1,0,0.3,0,0.5,0s0.4,0,0.6,0
			c0.2,0,0.6,0,1.1,0l0.1,0c0-0.1,0-0.2,0-0.4c0-0.2,0-0.3,0-0.4c0-0.6,0-1.2-0.1-1.7c-0.1-0.5-0.2-1-0.4-1.4
			c0.6-0.3,1.1-0.5,1.6-0.6c0.5-0.1,1-0.2,1.4-0.2c0.7,0,1.2,0.2,1.5,0.5c0.3,0.3,0.5,0.8,0.5,1.5c0,0.2,0,0.7-0.1,1.6
			C341.5,57.8,341.4,58.2,341.4,58.4z"/>
		<path class="st0" d="M362.4,64.4c0,0.9-0.2,1.8-0.5,2.6c-0.3,0.8-0.7,1.6-1.3,2.3c-0.8,0.9-1.7,1.6-2.8,2.1s-2.2,0.7-3.5,0.7
			c-2.3,0-4.1-0.7-5.6-2s-2.2-3-2.2-5.1c0-2.2,0.8-4,2.3-5.4c1.5-1.4,3.5-2.1,5.9-2.1c2.2,0,4,0.7,5.5,2
			C361.7,60.7,362.4,62.4,362.4,64.4z M351,64.9c0,1.1,0.3,1.9,1,2.6c0.6,0.6,1.5,1,2.5,1c1,0,1.8-0.3,2.5-1c0.7-0.7,1-1.6,1-2.6
			c0-1.1-0.3-2-1-2.6c-0.6-0.7-1.5-1-2.5-1c-1,0-1.9,0.3-2.5,1C351.3,62.8,351,63.7,351,64.9z"/>
		<path class="st0" d="M370.3,71c-0.6,0.3-1.2,0.4-1.8,0.6c-0.5,0.1-1.1,0.2-1.5,0.2c-0.8,0-1.3-0.2-1.6-0.5
			c-0.3-0.4-0.4-1.1-0.4-2.1c0-0.3,0.1-1.6,0.2-4s0.2-4.6,0.2-6.7c0-1.8-0.1-3.1-0.2-4c-0.1-0.9-0.3-1.7-0.6-2.2
			c0.6-0.3,1.1-0.5,1.7-0.6c0.5-0.1,1.1-0.2,1.6-0.2c0.7,0,1.2,0.2,1.5,0.5c0.3,0.3,0.5,0.9,0.5,1.7c0,0.3,0,1.6-0.2,3.8
			c-0.1,2.2-0.2,4.2-0.2,6c0,2.2,0.1,3.9,0.2,5C369.8,69.5,370,70.4,370.3,71z"/>
		<path class="st0" d="M384.3,67.8c0.3,0.3,0.5,0.7,0.7,0.9c0.1,0.3,0.2,0.6,0.2,0.8c0,0.7-0.4,1.3-1.3,1.7c-0.8,0.4-2,0.6-3.5,0.6
			c-2.5,0-4.5-0.6-5.8-1.8c-1.4-1.2-2-2.9-2-5.2c0-2.2,0.7-3.9,2.1-5.3c1.4-1.3,3.2-2,5.4-2c1.8,0,3.3,0.5,4.4,1.4
			c1.1,0.9,1.7,2.1,1.7,3.6c0,1.2-0.4,2-1.2,2.5c-0.8,0.5-2.3,0.7-4.4,0.7c-0.6,0-1.3,0-1.9-0.1s-1.3-0.1-1.9-0.2v0.1
			c0,1,0.3,1.8,1,2.4c0.7,0.6,1.7,0.8,3,0.8c0.8,0,1.4-0.1,2-0.3C383.4,68.4,383.9,68.2,384.3,67.8z M376.9,63.4
			c0.7,0.1,1.3,0.1,1.8,0.2c0.5,0,0.9,0.1,1.2,0.1c0.8,0,1.3-0.1,1.6-0.2c0.3-0.2,0.4-0.4,0.4-0.9c0-0.6-0.2-1.2-0.6-1.5
			c-0.4-0.4-0.9-0.6-1.6-0.6c-0.8,0-1.4,0.3-1.9,0.8C377.4,61.7,377,62.4,376.9,63.4z"/>
		<path class="st0" d="M403.3,71L403.3,71c-0.5,0.3-1.1,0.5-1.6,0.6s-1.1,0.2-1.6,0.2c-0.7,0-1.3-0.2-1.6-0.5
			c-0.3-0.3-0.5-0.8-0.5-1.5c0-0.5,0-1.3,0.1-2.4c0.1-1.1,0.1-2,0.1-2.6c0-1.4-0.2-2.3-0.5-2.9c-0.4-0.6-1-0.8-1.8-0.8
			c-0.4,0-0.8,0.1-1.3,0.2c-0.4,0.2-0.9,0.4-1.4,0.7c-0.1,1.4-0.1,2.3-0.1,2.8c0,0.5,0,0.9,0,1.2c0,1.1,0.1,2.1,0.2,2.9
			c0.1,0.8,0.3,1.5,0.5,2c-0.5,0.3-1.1,0.4-1.6,0.6s-1.1,0.2-1.6,0.2c-0.7,0-1.3-0.2-1.6-0.5s-0.4-1-0.4-1.8c0-0.4,0.1-1.3,0.2-2.8
			c0.1-1.5,0.2-2.8,0.2-3.9c0-1.2-0.1-2.1-0.2-2.9c-0.1-0.8-0.3-1.4-0.5-1.9c0.4-0.1,0.8-0.2,1.2-0.3c0.4-0.1,0.8-0.1,1.1-0.1
			c0.8,0,1.4,0.2,1.9,0.5c0.4,0.3,0.7,0.8,0.8,1.4c0.8-0.6,1.5-1.1,2.3-1.4s1.5-0.5,2.3-0.5c1.7,0,3,0.5,3.8,1.4
			c0.8,1,1.2,2.5,1.2,4.7c0,0.4,0,0.9,0,1.5s0,1,0,1.2c0,1.2,0.1,2.1,0.2,2.8C402.9,70,403.1,70.5,403.3,71z"/>
		<path class="st0" d="M418.8,56.8c0.3,0.3,0.5,0.5,0.6,0.8c0.1,0.3,0.2,0.5,0.2,0.8c0,0.5-0.2,0.8-0.6,1.1c-0.4,0.3-1.1,0.5-2,0.6
			c0.3,0.3,0.5,0.7,0.6,1.1c0.1,0.4,0.2,0.8,0.2,1.2c0,1.4-0.5,2.6-1.6,3.4c-1.1,0.8-2.6,1.2-4.5,1.2c-0.3,0-0.5,0-0.7,0
			c-0.1,0-0.3,0-0.4,0c-0.1,0.2-0.2,0.3-0.3,0.4s-0.1,0.3-0.1,0.4c0,0.6,1.1,1.1,3.2,1.4c0,0,0,0,0,0c2.1,0.4,3.5,0.8,4.3,1.4
			S419,72,419,73c0,1.5-0.7,2.7-2.1,3.6s-3.2,1.4-5.5,1.4c-2.1,0-3.7-0.4-4.9-1.1s-1.8-1.8-1.8-3.2c0-0.8,0.2-1.6,0.7-2.2
			c0.5-0.6,1.2-1.2,2.1-1.5c-0.2-0.2-0.4-0.3-0.5-0.6c-0.1-0.2-0.2-0.5-0.2-0.8c0-0.3,0.1-0.7,0.3-1.1c0.2-0.4,0.6-0.8,1-1.2
			c-0.9-0.5-1.5-1-1.9-1.7c-0.4-0.6-0.6-1.4-0.6-2.2c0-1.4,0.6-2.6,1.7-3.5c1.2-1,2.6-1.4,4.4-1.4c0.6,0,1.2,0.1,1.8,0.2
			s1.1,0.3,1.7,0.6c1-0.3,1.8-0.5,2.4-0.8S418.6,57.1,418.8,56.8z M410.3,71.4c-0.5,0.2-1,0.5-1.2,0.8s-0.4,0.7-0.4,1.1
			c0,0.6,0.3,1.1,0.9,1.5s1.3,0.6,2.3,0.6c0.9,0,1.7-0.2,2.2-0.5s0.8-0.8,0.8-1.3c0-0.7-1.2-1.3-3.5-1.9
			C410.9,71.5,410.5,71.4,410.3,71.4z M411.8,60.3c-0.7,0-1.3,0.2-1.8,0.6c-0.4,0.4-0.7,0.9-0.7,1.5c0,0.6,0.2,1.1,0.7,1.4
			s1,0.6,1.7,0.6c0.7,0,1.3-0.2,1.7-0.6s0.7-0.9,0.7-1.4c0-0.6-0.2-1.1-0.6-1.5C413.1,60.5,412.5,60.3,411.8,60.3z"/>
		<path class="st0" d="M435.9,64.4c0,0.9-0.2,1.8-0.5,2.6c-0.3,0.8-0.7,1.6-1.3,2.3c-0.8,0.9-1.7,1.6-2.8,2.1s-2.2,0.7-3.5,0.7
			c-2.3,0-4.1-0.7-5.6-2s-2.2-3-2.2-5.1c0-2.2,0.8-4,2.3-5.4c1.5-1.4,3.5-2.1,5.9-2.1c2.2,0,4,0.7,5.5,2
			C435.2,60.7,435.9,62.4,435.9,64.4z M424.6,64.9c0,1.1,0.3,1.9,1,2.6c0.6,0.6,1.5,1,2.5,1c1,0,1.8-0.3,2.5-1c0.7-0.7,1-1.6,1-2.6
			c0-1.1-0.3-2-1-2.6c-0.6-0.7-1.5-1-2.5-1c-1,0-1.9,0.3-2.5,1C424.9,62.8,424.6,63.7,424.6,64.9z"/>
	</g>
	<g id="XMLID_20_">
		<defs>
			<circle id="XMLID_21_" cx="48.2" cy="49.1" r="45.8"/>
		</defs>
		<clipPath id="XMLID_2_">
			<use xlink:href="#XMLID_21_"  style="overflow:visible;"/>
		</clipPath>
		<g class="st1">
			<path class="st0" d="M25.9,43.4H40v50.7c0.6,0.1,1.2,0.2,1.8,0.3V77.1h42.5c6-7.8,9.6-17.5,9.6-28.1C94,23.8,73.5,3.3,48.2,3.3
				C22.9,3.3,2.4,23.8,2.4,49.1c0,17.2,9.5,32.1,23.5,40V43.4z M81.1,66.4h3.4v8.8h-3.4V66.4z M75.3,66.4h4v8.8h-4V66.4z M69.6,66.4
				h4v8.8h-4V66.4z M63.9,66.4h4v8.8h-4V66.4z M58.1,66.4h4v8.8h-4V66.4z M52.4,66.4h4v8.8h-4V66.4z M46.7,66.4h4v8.8h-4V66.4z
				 M41.8,66.4H45v8.8h-3.1V66.4z M30.4,17.6h1.9l0-2.6h1.4l0,2.6h1.9V19h-1.9l0,5l-0.7-0.4L32.2,24l0-5h-1.9V17.6z M32.9,25.9
				L40,41.3H25.9L32.9,25.9z"/>
			<path class="st0" d="M29.8,91c2,0.9,4.1,1.6,6.2,2.2V82.7c0-1.7-1.4-3.1-3.1-3.1c-1.7,0-3.1,1.4-3.1,3.1V91z"/>
			<path class="st0" d="M32.9,52.8c1.4,0,2.6-1.1,2.6-2.6c0-1.4-1.1-2.6-2.6-2.6c-1.4,0-2.6,1.1-2.6,2.6
				C30.4,51.7,31.5,52.8,32.9,52.8z"/>
		</g>
	</g>
</g>
</svg>
